<?xml version="1.0"?>
<!DOCTYPE lmms-project>
<lmms-project type="song" creatorversion="1.2.0-rc5" creator="LMMS" version="1.0">
  <head mastervol="100" timesig_numerator="4" bpm="156" timesig_denominator="4" masterpitch="0"/>
  <song>
    <trackcontainer minimized="0" type="song" height="534" width="1486" visible="1" maximized="0" x="3" y="1">
      <track name="Opening drum fill" type="1" muted="0" solo="0">
        <bbtrack>
          <trackcontainer minimized="0" type="bbtrackcontainer" height="290" width="700" visible="0" maximized="0" x="1008" y="474">
            <track name="Yamaha-RX15-Bass-Drum.wav" type="0" muted="0" solo="0">
              <instrumenttrack fxch="1" pitchrange="1" basenote="57" pitch="0" pan="0" usemasterpitch="1" vol="147.1">
                <instrument name="audiofileprocessor">
                  <audiofileprocessor stutter="0" lframe="0.0390006" reversed="0" eframe="0.578028" interp="1" sframe="0" src="Yamaha RX15 Kit/Yamaha-RX15-Bass-Drum.wav" amp="100" looped="0"/>
                </instrument>
                <eldata ftype="0" fcut="14000" fwet="0" fres="0.5">
                  <elvol lspd="0.1" lspd_numerator="4" ctlenvamt="0" dec="0.5" pdel="0" sustain="0.384" lspd_denominator="4" latt="0" lamt="0" rel="0.1" userwavefile="" lshp="0" lspd_syncmode="0" att="0" lpdel="0" hold="0.5" amt="0" x100="0"/>
                  <elcut lspd="0.1" lspd_numerator="4" ctlenvamt="0" dec="0.5" pdel="0" sustain="0.5" lspd_denominator="4" latt="0" lamt="0" rel="0.1" userwavefile="" lshp="0" lspd_syncmode="0" att="0" lpdel="0" hold="0.5" amt="0" x100="0"/>
                  <elres lspd="0.1" lspd_numerator="4" ctlenvamt="0" dec="0.5" pdel="0" sustain="0.5" lspd_denominator="4" latt="0" lamt="0" rel="0.1" userwavefile="" lshp="0" lspd_syncmode="0" att="0" lpdel="0" hold="0.5" amt="0" x100="0"/>
                </eldata>
                <chordcreator chord="0" chord-enabled="0" chordrange="1"/>
                <arpeggiator arptime_syncmode="0" arprange="1" arptime_numerator="4" arptime_denominator="4" arp="0" arpskip="0" arp-enabled="0" arpcycle="0" arpmiss="0" arpdir="0" arptime="100" arpmode="0" arpgate="100"/>
                <midiport fixedoutputvelocity="-1" writable="0" outputchannel="1" readable="0" inputchannel="0" inputcontroller="0" outputcontroller="0" outputprogram="1" basevelocity="127" fixedinputvelocity="-1" fixedoutputnote="-1"/>
                <fxchain enabled="1" numofeffects="1">
                  <effect name="bassbooster" wet="1" autoquit_syncmode="0" autoquit_denominator="4" autoquit_numerator="4" gate="0" on="1" autoquit="1">
                    <bassboostercontrols freq="81" ratio="1.2" gain="0.55"/>
                    <key/>
                  </effect>
                </fxchain>
              </instrumenttrack>
              <pattern name="Yamaha-RX15-Bass-Drum.wav" pos="0" type="0" muted="0" steps="16"/>
              <pattern name="Yamaha-RX15-Bass-Drum.wav" pos="192" type="0" muted="0" steps="16"/>
              <pattern name="Yamaha-RX15-Bass-Drum.wav" pos="384" type="0" muted="0" steps="32">
                <note pos="0" key="57" pan="0" len="-192" vol="100"/>
                <note pos="96" key="57" pan="0" len="-192" vol="100"/>
                <note pos="192" key="57" pan="0" len="-192" vol="100"/>
                <note pos="264" key="57" pan="0" len="-192" vol="100"/>
                <note pos="312" key="57" pan="0" len="-192" vol="100"/>
                <note pos="360" key="57" pan="0" len="-192" vol="100"/>
              </pattern>
            </track>
            <track name="Yamaha-RX15-Hi-Tune-Snare.wav" type="0" muted="0" solo="0">
              <instrumenttrack fxch="1" pitchrange="1" basenote="57" pitch="0" pan="-14.9" usemasterpitch="1" vol="100">
                <instrument name="audiofileprocessor">
                  <audiofileprocessor stutter="0" lframe="0" reversed="0" eframe="1" interp="1" sframe="0" src="Yamaha RX15 Kit/Yamaha-RX15-Hi-Tune-Snare.wav" amp="140" looped="0"/>
                </instrument>
                <eldata ftype="0" fcut="14000" fwet="0" fres="0.5">
                  <elvol lspd="0.1" lspd_numerator="4" ctlenvamt="0" dec="0.5" pdel="0" sustain="0.5" lspd_denominator="4" latt="0" lamt="0" rel="0.1" userwavefile="" lshp="0" lspd_syncmode="0" att="0" lpdel="0" hold="0.5" amt="0" x100="0"/>
                  <elcut lspd="0.1" lspd_numerator="4" ctlenvamt="0" dec="0.5" pdel="0" sustain="0.5" lspd_denominator="4" latt="0" lamt="0" rel="0.1" userwavefile="" lshp="0" lspd_syncmode="0" att="0" lpdel="0" hold="0.5" amt="0" x100="0"/>
                  <elres lspd="0.1" lspd_numerator="4" ctlenvamt="0" dec="0.5" pdel="0" sustain="0.5" lspd_denominator="4" latt="0" lamt="0" rel="0.1" userwavefile="" lshp="0" lspd_syncmode="0" att="0" lpdel="0" hold="0.5" amt="0" x100="0"/>
                </eldata>
                <chordcreator chord="0" chord-enabled="0" chordrange="1"/>
                <arpeggiator arptime_syncmode="0" arprange="1" arptime_numerator="4" arptime_denominator="4" arp="0" arpskip="0" arp-enabled="0" arpcycle="0" arpmiss="0" arpdir="0" arptime="100" arpmode="0" arpgate="100"/>
                <midiport fixedoutputvelocity="-1" writable="0" outputchannel="1" readable="0" inputchannel="0" inputcontroller="0" outputcontroller="0" outputprogram="1" basevelocity="127" fixedinputvelocity="-1" fixedoutputnote="-1"/>
                <fxchain enabled="0" numofeffects="0"/>
              </instrumenttrack>
              <pattern name="Yamaha-RX15-Hi-Tune-Snare.wav" pos="0" type="0" muted="0" steps="16">
                <note pos="96" key="57" pan="0" len="-192" vol="100"/>
                <note pos="144" key="57" pan="0" len="-192" vol="85"/>
                <note pos="168" key="57" pan="0" len="-192" vol="72"/>
                <note pos="180" key="57" pan="0" len="-192" vol="78"/>
              </pattern>
              <pattern name="Yamaha-RX15-Hi-Tune-Snare.wav" pos="192" type="0" muted="0" steps="16"/>
              <pattern name="Yamaha-RX15-Hi-Tune-Snare.wav" pos="384" type="0" muted="0" steps="32">
                <note pos="48" key="57" pan="0" len="-192" vol="100"/>
                <note pos="144" key="57" pan="0" len="-192" vol="100"/>
                <note pos="240" key="57" pan="0" len="-192" vol="100"/>
                <note pos="336" key="57" pan="0" len="-192" vol="100"/>
              </pattern>
            </track>
            <track name="Yamaha-RX15-Tom1.wav" type="0" muted="0" solo="0">
              <instrumenttrack fxch="1" pitchrange="1" basenote="57" pitch="0" pan="-32.9" usemasterpitch="1" vol="100">
                <instrument name="audiofileprocessor">
                  <audiofileprocessor stutter="0" lframe="0" reversed="0" eframe="1" interp="1" sframe="0" src="Yamaha RX15 Kit/Yamaha-RX15-Tom1.wav" amp="100" looped="0"/>
                </instrument>
                <eldata ftype="0" fcut="14000" fwet="0" fres="0.5">
                  <elvol lspd="0.1" lspd_numerator="4" ctlenvamt="0" dec="0.5" pdel="0" sustain="0.5" lspd_denominator="4" latt="0" lamt="0" rel="0.1" userwavefile="" lshp="0" lspd_syncmode="0" att="0" lpdel="0" hold="0.5" amt="0" x100="0"/>
                  <elcut lspd="0.1" lspd_numerator="4" ctlenvamt="0" dec="0.5" pdel="0" sustain="0.5" lspd_denominator="4" latt="0" lamt="0" rel="0.1" userwavefile="" lshp="0" lspd_syncmode="0" att="0" lpdel="0" hold="0.5" amt="0" x100="0"/>
                  <elres lspd="0.1" lspd_numerator="4" ctlenvamt="0" dec="0.5" pdel="0" sustain="0.5" lspd_denominator="4" latt="0" lamt="0" rel="0.1" userwavefile="" lshp="0" lspd_syncmode="0" att="0" lpdel="0" hold="0.5" amt="0" x100="0"/>
                </eldata>
                <chordcreator chord="0" chord-enabled="0" chordrange="1"/>
                <arpeggiator arptime_syncmode="0" arprange="1" arptime_numerator="4" arptime_denominator="4" arp="0" arpskip="0" arp-enabled="0" arpcycle="0" arpmiss="0" arpdir="0" arptime="100" arpmode="0" arpgate="100"/>
                <midiport fixedoutputvelocity="-1" writable="0" outputchannel="1" readable="0" inputchannel="0" inputcontroller="0" outputcontroller="0" outputprogram="1" basevelocity="127" fixedinputvelocity="-1" fixedoutputnote="-1"/>
                <fxchain enabled="0" numofeffects="0"/>
              </instrumenttrack>
              <pattern name="Yamaha-RX15-Tom1.wav" pos="0" type="0" muted="0" steps="16"/>
              <pattern name="Yamaha-RX15-Tom1.wav" pos="192" type="0" muted="0" steps="16"/>
              <pattern name="Yamaha-RX15-Tom1.wav" pos="384" type="0" muted="0" steps="32"/>
            </track>
            <track name="Yamaha-RX15-Tom2.wav" type="0" muted="0" solo="0">
              <instrumenttrack fxch="1" pitchrange="1" basenote="57" pitch="0" pan="0" usemasterpitch="1" vol="100">
                <instrument name="audiofileprocessor">
                  <audiofileprocessor stutter="0" lframe="0" reversed="0" eframe="1" interp="1" sframe="0" src="Yamaha RX15 Kit/Yamaha-RX15-Tom2.wav" amp="100" looped="0"/>
                </instrument>
                <eldata ftype="0" fcut="14000" fwet="0" fres="0.5">
                  <elvol lspd="0.1" lspd_numerator="4" ctlenvamt="0" dec="0.5" pdel="0" sustain="0.5" lspd_denominator="4" latt="0" lamt="0" rel="0.1" userwavefile="" lshp="0" lspd_syncmode="0" att="0" lpdel="0" hold="0.5" amt="0" x100="0"/>
                  <elcut lspd="0.1" lspd_numerator="4" ctlenvamt="0" dec="0.5" pdel="0" sustain="0.5" lspd_denominator="4" latt="0" lamt="0" rel="0.1" userwavefile="" lshp="0" lspd_syncmode="0" att="0" lpdel="0" hold="0.5" amt="0" x100="0"/>
                  <elres lspd="0.1" lspd_numerator="4" ctlenvamt="0" dec="0.5" pdel="0" sustain="0.5" lspd_denominator="4" latt="0" lamt="0" rel="0.1" userwavefile="" lshp="0" lspd_syncmode="0" att="0" lpdel="0" hold="0.5" amt="0" x100="0"/>
                </eldata>
                <chordcreator chord="0" chord-enabled="0" chordrange="1"/>
                <arpeggiator arptime_syncmode="0" arprange="1" arptime_numerator="4" arptime_denominator="4" arp="0" arpskip="0" arp-enabled="0" arpcycle="0" arpmiss="0" arpdir="0" arptime="100" arpmode="0" arpgate="100"/>
                <midiport fixedoutputvelocity="-1" writable="0" outputchannel="1" readable="0" inputchannel="0" inputcontroller="0" outputcontroller="0" outputprogram="1" basevelocity="127" fixedinputvelocity="-1" fixedoutputnote="-1"/>
                <fxchain enabled="0" numofeffects="0"/>
              </instrumenttrack>
              <pattern name="Yamaha-RX15-Tom2.wav" pos="0" type="0" muted="0" steps="16">
                <note pos="108" key="57" pan="0" len="-192" vol="100"/>
              </pattern>
              <pattern name="Yamaha-RX15-Tom2.wav" pos="192" type="0" muted="0" steps="16"/>
              <pattern name="Yamaha-RX15-Tom2.wav" pos="384" type="0" muted="0" steps="32"/>
            </track>
            <track name="Yamaha-RX15-Tom3.wav" type="0" muted="0" solo="0">
              <instrumenttrack fxch="1" pitchrange="1" basenote="57" pitch="0" pan="25.6" usemasterpitch="1" vol="100">
                <instrument name="audiofileprocessor">
                  <audiofileprocessor stutter="0" lframe="0" reversed="0" eframe="1" interp="1" sframe="0" src="Yamaha RX15 Kit/Yamaha-RX15-Tom3.wav" amp="100" looped="0"/>
                </instrument>
                <eldata ftype="0" fcut="14000" fwet="0" fres="0.5">
                  <elvol lspd="0.1" lspd_numerator="4" ctlenvamt="0" dec="0.5" pdel="0" sustain="0.5" lspd_denominator="4" latt="0" lamt="0" rel="0.1" userwavefile="" lshp="0" lspd_syncmode="0" att="0" lpdel="0" hold="0.5" amt="0" x100="0"/>
                  <elcut lspd="0.1" lspd_numerator="4" ctlenvamt="0" dec="0.5" pdel="0" sustain="0.5" lspd_denominator="4" latt="0" lamt="0" rel="0.1" userwavefile="" lshp="0" lspd_syncmode="0" att="0" lpdel="0" hold="0.5" amt="0" x100="0"/>
                  <elres lspd="0.1" lspd_numerator="4" ctlenvamt="0" dec="0.5" pdel="0" sustain="0.5" lspd_denominator="4" latt="0" lamt="0" rel="0.1" userwavefile="" lshp="0" lspd_syncmode="0" att="0" lpdel="0" hold="0.5" amt="0" x100="0"/>
                </eldata>
                <chordcreator chord="0" chord-enabled="0" chordrange="1"/>
                <arpeggiator arptime_syncmode="0" arprange="1" arptime_numerator="4" arptime_denominator="4" arp="0" arpskip="0" arp-enabled="0" arpcycle="0" arpmiss="0" arpdir="0" arptime="100" arpmode="0" arpgate="100"/>
                <midiport fixedoutputvelocity="-1" writable="0" outputchannel="1" readable="0" inputchannel="0" inputcontroller="0" outputcontroller="0" outputprogram="1" basevelocity="127" fixedinputvelocity="-1" fixedoutputnote="-1"/>
                <fxchain enabled="0" numofeffects="0"/>
              </instrumenttrack>
              <pattern name="Yamaha-RX15-Tom3.wav" pos="0" type="0" muted="0" steps="16">
                <note pos="120" key="57" pan="0" len="-192" vol="100"/>
              </pattern>
              <pattern name="Yamaha-RX15-Tom3.wav" pos="192" type="0" muted="0" steps="16"/>
              <pattern name="Yamaha-RX15-Tom3.wav" pos="384" type="0" muted="0" steps="32"/>
            </track>
            <track name="Yamaha-RX15-Crash-Cymbal.wav" type="0" muted="0" solo="0">
              <instrumenttrack fxch="1" pitchrange="1" basenote="57" pitch="0" pan="26.7" usemasterpitch="1" vol="100">
                <instrument name="audiofileprocessor">
                  <audiofileprocessor stutter="0" lframe="0" reversed="0" eframe="1" interp="1" sframe="0" src="Yamaha RX15 Kit/Yamaha-RX15-Crash-Cymbal.wav" amp="100" looped="0"/>
                </instrument>
                <eldata ftype="0" fcut="14000" fwet="0" fres="0.5">
                  <elvol lspd="0.1" lspd_numerator="4" ctlenvamt="0" dec="0.5" pdel="0" sustain="0.5" lspd_denominator="4" latt="0" lamt="0" rel="0.1" userwavefile="" lshp="0" lspd_syncmode="0" att="0" lpdel="0" hold="0.5" amt="0" x100="0"/>
                  <elcut lspd="0.1" lspd_numerator="4" ctlenvamt="0" dec="0.5" pdel="0" sustain="0.5" lspd_denominator="4" latt="0" lamt="0" rel="0.1" userwavefile="" lshp="0" lspd_syncmode="0" att="0" lpdel="0" hold="0.5" amt="0" x100="0"/>
                  <elres lspd="0.1" lspd_numerator="4" ctlenvamt="0" dec="0.5" pdel="0" sustain="0.5" lspd_denominator="4" latt="0" lamt="0" rel="0.1" userwavefile="" lshp="0" lspd_syncmode="0" att="0" lpdel="0" hold="0.5" amt="0" x100="0"/>
                </eldata>
                <chordcreator chord="0" chord-enabled="0" chordrange="1"/>
                <arpeggiator arptime_syncmode="0" arprange="1" arptime_numerator="4" arptime_denominator="4" arp="0" arpskip="0" arp-enabled="0" arpcycle="0" arpmiss="0" arpdir="0" arptime="100" arpmode="0" arpgate="100"/>
                <midiport fixedoutputvelocity="-1" writable="0" outputchannel="1" readable="0" inputchannel="0" inputcontroller="0" outputcontroller="0" outputprogram="1" basevelocity="127" fixedinputvelocity="-1" fixedoutputnote="-1"/>
                <fxchain enabled="0" numofeffects="0"/>
              </instrumenttrack>
              <pattern name="Yamaha-RX15-Crash-Cymbal.wav" pos="0" type="0" muted="0" steps="16"/>
              <pattern name="Yamaha-RX15-Crash-Cymbal.wav" pos="192" type="0" muted="0" steps="16"/>
              <pattern name="Yamaha-RX15-Crash-Cymbal.wav" pos="384" type="0" muted="0" steps="32"/>
            </track>
            <track name="Yamaha-RX15-Closed-Hi-Hat.wav" type="0" muted="0" solo="0">
              <instrumenttrack fxch="1" pitchrange="1" basenote="57" pitch="0" pan="-21.7" usemasterpitch="1" vol="38">
                <instrument name="audiofileprocessor">
                  <audiofileprocessor stutter="0" lframe="0" reversed="0" eframe="1" interp="1" sframe="0" src="Yamaha RX15 Kit/Yamaha-RX15-Closed-Hi-Hat.wav" amp="100" looped="0"/>
                </instrument>
                <eldata ftype="0" fcut="14000" fwet="0" fres="0.5">
                  <elvol lspd="0.1" lspd_numerator="4" ctlenvamt="0" dec="0.5" pdel="0" sustain="0.5" lspd_denominator="4" latt="0" lamt="0" rel="0.1" userwavefile="" lshp="0" lspd_syncmode="0" att="0" lpdel="0" hold="0.5" amt="0" x100="0"/>
                  <elcut lspd="0.1" lspd_numerator="4" ctlenvamt="0" dec="0.5" pdel="0" sustain="0.5" lspd_denominator="4" latt="0" lamt="0" rel="0.1" userwavefile="" lshp="0" lspd_syncmode="0" att="0" lpdel="0" hold="0.5" amt="0" x100="0"/>
                  <elres lspd="0.1" lspd_numerator="4" ctlenvamt="0" dec="0.5" pdel="0" sustain="0.5" lspd_denominator="4" latt="0" lamt="0" rel="0.1" userwavefile="" lshp="0" lspd_syncmode="0" att="0" lpdel="0" hold="0.5" amt="0" x100="0"/>
                </eldata>
                <chordcreator chord="0" chord-enabled="0" chordrange="1"/>
                <arpeggiator arptime_syncmode="0" arprange="1" arptime_numerator="4" arptime_denominator="4" arp="0" arpskip="0" arp-enabled="0" arpcycle="0" arpmiss="0" arpdir="0" arptime="100" arpmode="0" arpgate="100"/>
                <midiport fixedoutputvelocity="-1" writable="0" outputchannel="1" readable="0" inputchannel="0" inputcontroller="0" outputcontroller="0" outputprogram="1" basevelocity="127" fixedinputvelocity="-1" fixedoutputnote="-1"/>
                <fxchain enabled="0" numofeffects="0"/>
              </instrumenttrack>
              <pattern name="Yamaha-RX15-Closed-Hi-Hat.wav" pos="0" type="0" muted="0" steps="16"/>
              <pattern name="Yamaha-RX15-Closed-Hi-Hat.wav" pos="192" type="0" muted="0" steps="16">
                <note pos="0" key="57" pan="0" len="-192" vol="100"/>
                <note pos="24" key="57" pan="0" len="-192" vol="100"/>
                <note pos="48" key="57" pan="0" len="-192" vol="100"/>
                <note pos="72" key="57" pan="0" len="-192" vol="100"/>
                <note pos="96" key="57" pan="0" len="-192" vol="100"/>
                <note pos="120" key="57" pan="0" len="-192" vol="100"/>
                <note pos="144" key="57" pan="0" len="-192" vol="100"/>
                <note pos="168" key="57" pan="0" len="-192" vol="100"/>
              </pattern>
              <pattern name="Yamaha-RX15-Closed-Hi-Hat.wav" pos="384" type="0" muted="0" steps="32"/>
            </track>
          </trackcontainer>
        </bbtrack>
        <bbtco name="" pos="0" muted="0" color="4286625455" len="192" usestyle="1"/>
      </track>
      <track name="Hi-hat" type="1" muted="0" solo="0">
        <bbtrack/>
        <bbtco name="" pos="192" muted="0" color="4286625455" len="1536" usestyle="1"/>
        <bbtco name="" pos="1728" muted="0" color="4286625455" len="1536" usestyle="1"/>
        <bbtco name="" pos="3264" muted="0" color="4286625455" len="1536" usestyle="1"/>
        <bbtco name="" pos="4800" muted="0" color="4286625455" len="1536" usestyle="1"/>
        <bbtco name="" pos="6336" muted="0" color="4286625455" len="1536" usestyle="1"/>
        <bbtco name="" pos="7872" muted="0" color="4286625455" len="1536" usestyle="1"/>
        <bbtco name="" pos="9408" muted="0" color="4286625455" len="1536" usestyle="1"/>
      </track>
      <track name="Beat 1" type="1" muted="0" solo="0">
        <bbtrack/>
        <bbtco name="" pos="192" muted="0" color="4286625455" len="384" usestyle="1"/>
        <bbtco name="" pos="576" muted="0" color="4286611584" len="384" usestyle="1"/>
        <bbtco name="" pos="960" muted="0" color="4286611584" len="384" usestyle="1"/>
        <bbtco name="" pos="1344" muted="0" color="4286611584" len="384" usestyle="1"/>
        <bbtco name="" pos="1728" muted="0" color="4286611584" len="384" usestyle="1"/>
        <bbtco name="" pos="2112" muted="0" color="4286611584" len="384" usestyle="1"/>
        <bbtco name="" pos="2496" muted="0" color="4286611584" len="384" usestyle="1"/>
        <bbtco name="" pos="2880" muted="0" color="4286611584" len="384" usestyle="1"/>
        <bbtco name="" pos="3264" muted="0" color="4286611584" len="384" usestyle="1"/>
        <bbtco name="" pos="3648" muted="0" color="4286611584" len="384" usestyle="1"/>
        <bbtco name="" pos="4032" muted="0" color="4286611584" len="384" usestyle="1"/>
        <bbtco name="" pos="4416" muted="0" color="4286611584" len="384" usestyle="1"/>
        <bbtco name="" pos="4800" muted="0" color="4286611584" len="384" usestyle="1"/>
        <bbtco name="" pos="5184" muted="0" color="4286611584" len="384" usestyle="1"/>
        <bbtco name="" pos="5568" muted="0" color="4286611584" len="384" usestyle="1"/>
        <bbtco name="" pos="5952" muted="0" color="4286611584" len="384" usestyle="1"/>
        <bbtco name="" pos="6336" muted="0" color="4286611584" len="384" usestyle="1"/>
        <bbtco name="" pos="6720" muted="0" color="4286611584" len="384" usestyle="1"/>
        <bbtco name="" pos="7104" muted="0" color="4286611584" len="384" usestyle="1"/>
        <bbtco name="" pos="7488" muted="0" color="4286611584" len="384" usestyle="1"/>
        <bbtco name="" pos="7872" muted="0" color="4286611584" len="384" usestyle="1"/>
        <bbtco name="" pos="8256" muted="0" color="4286611584" len="384" usestyle="1"/>
        <bbtco name="" pos="8640" muted="0" color="4286611584" len="384" usestyle="1"/>
        <bbtco name="" pos="9024" muted="0" color="4286611584" len="384" usestyle="1"/>
        <bbtco name="" pos="9408" muted="0" color="4286611584" len="384" usestyle="1"/>
        <bbtco name="" pos="9792" muted="0" color="4286611584" len="384" usestyle="1"/>
        <bbtco name="" pos="10176" muted="0" color="4286611584" len="384" usestyle="1"/>
        <bbtco name="" pos="10560" muted="0" color="4286611584" len="384" usestyle="1"/>
      </track>
      <track name="Bass" type="0" muted="0" solo="0">
        <instrumenttrack fxch="3" pitchrange="1" basenote="57" pitch="0" pan="-21.4" usemasterpitch="1" vol="104.6">
          <instrument name="audiofileprocessor">
            <audiofileprocessor stutter="0" lframe="0" reversed="0" eframe="1" interp="1" sframe="0" src="instruments/bassslap02.ogg" amp="80" looped="0"/>
          </instrument>
          <eldata ftype="0" fcut="14000" fwet="0" fres="0.5">
            <elvol lspd="0.1" lspd_numerator="4" ctlenvamt="0" dec="0.5" pdel="0" sustain="0.5" lspd_denominator="4" latt="0" lamt="0" rel="0.1" userwavefile="" lshp="0" lspd_syncmode="0" att="0" lpdel="0" hold="0.5" amt="0" x100="0"/>
            <elcut lspd="0.1" lspd_numerator="4" ctlenvamt="0" dec="0.5" pdel="0" sustain="0.5" lspd_denominator="4" latt="0" lamt="0" rel="0.1" userwavefile="" lshp="0" lspd_syncmode="0" att="0" lpdel="0" hold="0.5" amt="0" x100="0"/>
            <elres lspd="0.1" lspd_numerator="4" ctlenvamt="0" dec="0.5" pdel="0" sustain="0.5" lspd_denominator="4" latt="0" lamt="0" rel="0.1" userwavefile="" lshp="0" lspd_syncmode="0" att="0" lpdel="0" hold="0.5" amt="0" x100="0"/>
          </eldata>
          <chordcreator chord="0" chord-enabled="0" chordrange="1"/>
          <arpeggiator arptime_syncmode="0" arprange="1" arptime_numerator="4" arptime_denominator="4" arp="0" arpskip="0" arp-enabled="0" arpcycle="0" arpmiss="0" arpdir="0" arptime="100" arpmode="0" arpgate="100"/>
          <midiport fixedoutputvelocity="-1" writable="0" outputchannel="1" readable="0" inputchannel="0" inputcontroller="0" outputcontroller="0" outputprogram="1" basevelocity="127" fixedinputvelocity="-1" fixedoutputnote="-1"/>
          <fxchain enabled="0" numofeffects="0"/>
        </instrumenttrack>
        <pattern name="Bass" pos="192" type="1" muted="0" steps="16">
          <note pos="0" key="54" pan="0" len="24" vol="100"/>
          <note pos="24" key="54" pan="0" len="24" vol="100"/>
          <note pos="48" key="54" pan="0" len="24" vol="100"/>
          <note pos="72" key="54" pan="0" len="24" vol="100"/>
          <note pos="96" key="54" pan="0" len="24" vol="100"/>
          <note pos="120" key="54" pan="0" len="24" vol="100"/>
          <note pos="144" key="54" pan="0" len="24" vol="100"/>
          <note pos="168" key="54" pan="0" len="24" vol="100"/>
          <note pos="192" key="54" pan="0" len="24" vol="100"/>
          <note pos="216" key="54" pan="0" len="24" vol="100"/>
          <note pos="240" key="54" pan="0" len="24" vol="100"/>
          <note pos="264" key="57" pan="0" len="24" vol="100"/>
          <note pos="288" key="57" pan="0" len="24" vol="100"/>
          <note pos="312" key="57" pan="0" len="24" vol="100"/>
          <note pos="336" key="56" pan="0" len="24" vol="100"/>
          <note pos="360" key="56" pan="0" len="24" vol="100"/>
          <note pos="384" key="54" pan="0" len="24" vol="100"/>
          <note pos="408" key="54" pan="0" len="24" vol="100"/>
          <note pos="432" key="54" pan="0" len="24" vol="100"/>
          <note pos="456" key="54" pan="0" len="24" vol="100"/>
          <note pos="480" key="54" pan="0" len="24" vol="100"/>
          <note pos="504" key="54" pan="0" len="24" vol="100"/>
          <note pos="528" key="54" pan="0" len="24" vol="100"/>
          <note pos="552" key="54" pan="0" len="24" vol="100"/>
          <note pos="576" key="54" pan="0" len="24" vol="100"/>
          <note pos="600" key="54" pan="0" len="24" vol="100"/>
          <note pos="624" key="54" pan="0" len="24" vol="100"/>
          <note pos="648" key="59" pan="0" len="24" vol="100"/>
          <note pos="672" key="59" pan="0" len="24" vol="100"/>
          <note pos="696" key="59" pan="0" len="24" vol="100"/>
          <note pos="720" key="61" pan="0" len="24" vol="100"/>
          <note pos="744" key="61" pan="0" len="24" vol="100"/>
        </pattern>
        <pattern name="" pos="960" type="1" muted="0" steps="16">
          <note pos="0" key="54" pan="0" len="24" vol="100"/>
          <note pos="24" key="54" pan="0" len="24" vol="100"/>
          <note pos="48" key="54" pan="0" len="24" vol="100"/>
          <note pos="72" key="54" pan="0" len="24" vol="100"/>
          <note pos="96" key="54" pan="0" len="24" vol="100"/>
          <note pos="120" key="54" pan="0" len="24" vol="100"/>
          <note pos="144" key="54" pan="0" len="24" vol="100"/>
          <note pos="168" key="54" pan="0" len="24" vol="100"/>
          <note pos="192" key="54" pan="0" len="24" vol="100"/>
          <note pos="216" key="54" pan="0" len="24" vol="100"/>
          <note pos="240" key="54" pan="0" len="24" vol="100"/>
          <note pos="264" key="57" pan="0" len="24" vol="100"/>
          <note pos="288" key="57" pan="0" len="24" vol="100"/>
          <note pos="312" key="57" pan="0" len="24" vol="100"/>
          <note pos="336" key="56" pan="0" len="24" vol="100"/>
          <note pos="360" key="56" pan="0" len="24" vol="100"/>
          <note pos="384" key="54" pan="0" len="24" vol="100"/>
          <note pos="408" key="54" pan="0" len="24" vol="100"/>
          <note pos="432" key="54" pan="0" len="24" vol="100"/>
          <note pos="456" key="54" pan="0" len="24" vol="100"/>
          <note pos="480" key="54" pan="0" len="24" vol="100"/>
          <note pos="504" key="54" pan="0" len="24" vol="100"/>
          <note pos="528" key="54" pan="0" len="24" vol="100"/>
          <note pos="552" key="54" pan="0" len="24" vol="100"/>
          <note pos="576" key="54" pan="0" len="24" vol="100"/>
          <note pos="600" key="54" pan="0" len="24" vol="100"/>
          <note pos="624" key="54" pan="0" len="24" vol="100"/>
          <note pos="648" key="57" pan="0" len="24" vol="100"/>
          <note pos="672" key="59" pan="0" len="24" vol="100"/>
          <note pos="696" key="61" pan="0" len="24" vol="100"/>
          <note pos="720" key="64" pan="0" len="24" vol="100"/>
          <note pos="744" key="66" pan="0" len="24" vol="100"/>
        </pattern>
        <pattern name="" pos="1728" type="1" muted="0" steps="16">
          <note pos="0" key="54" pan="0" len="24" vol="100"/>
          <note pos="24" key="54" pan="0" len="24" vol="100"/>
          <note pos="48" key="54" pan="0" len="24" vol="100"/>
          <note pos="72" key="54" pan="0" len="24" vol="100"/>
          <note pos="96" key="54" pan="0" len="24" vol="100"/>
          <note pos="120" key="54" pan="0" len="24" vol="100"/>
          <note pos="144" key="54" pan="0" len="24" vol="100"/>
          <note pos="168" key="54" pan="0" len="24" vol="100"/>
          <note pos="192" key="54" pan="0" len="24" vol="100"/>
          <note pos="216" key="54" pan="0" len="24" vol="100"/>
          <note pos="240" key="54" pan="0" len="24" vol="100"/>
          <note pos="264" key="57" pan="0" len="24" vol="100"/>
          <note pos="288" key="57" pan="0" len="24" vol="100"/>
          <note pos="312" key="57" pan="0" len="24" vol="100"/>
          <note pos="336" key="56" pan="0" len="24" vol="100"/>
          <note pos="360" key="56" pan="0" len="24" vol="100"/>
          <note pos="384" key="54" pan="0" len="24" vol="100"/>
          <note pos="408" key="54" pan="0" len="24" vol="100"/>
          <note pos="432" key="54" pan="0" len="24" vol="100"/>
          <note pos="456" key="54" pan="0" len="24" vol="100"/>
          <note pos="480" key="54" pan="0" len="24" vol="100"/>
          <note pos="504" key="54" pan="0" len="24" vol="100"/>
          <note pos="528" key="54" pan="0" len="24" vol="100"/>
          <note pos="552" key="54" pan="0" len="24" vol="100"/>
          <note pos="576" key="54" pan="0" len="24" vol="100"/>
          <note pos="600" key="54" pan="0" len="24" vol="100"/>
          <note pos="624" key="54" pan="0" len="24" vol="100"/>
          <note pos="648" key="59" pan="0" len="24" vol="100"/>
          <note pos="672" key="59" pan="0" len="24" vol="100"/>
          <note pos="696" key="59" pan="0" len="24" vol="100"/>
          <note pos="720" key="61" pan="0" len="24" vol="100"/>
          <note pos="744" key="61" pan="0" len="24" vol="100"/>
        </pattern>
        <pattern name="" pos="2496" type="1" muted="0" steps="16">
          <note pos="0" key="54" pan="0" len="24" vol="100"/>
          <note pos="24" key="54" pan="0" len="24" vol="100"/>
          <note pos="48" key="54" pan="0" len="24" vol="100"/>
          <note pos="72" key="54" pan="0" len="24" vol="100"/>
          <note pos="96" key="54" pan="0" len="24" vol="100"/>
          <note pos="120" key="54" pan="0" len="24" vol="100"/>
          <note pos="144" key="54" pan="0" len="24" vol="100"/>
          <note pos="168" key="54" pan="0" len="24" vol="100"/>
          <note pos="192" key="54" pan="0" len="24" vol="100"/>
          <note pos="216" key="54" pan="0" len="24" vol="100"/>
          <note pos="240" key="54" pan="0" len="24" vol="100"/>
          <note pos="264" key="57" pan="0" len="24" vol="100"/>
          <note pos="288" key="57" pan="0" len="24" vol="100"/>
          <note pos="312" key="57" pan="0" len="24" vol="100"/>
          <note pos="336" key="56" pan="0" len="24" vol="100"/>
          <note pos="360" key="56" pan="0" len="24" vol="100"/>
          <note pos="384" key="54" pan="0" len="24" vol="100"/>
          <note pos="408" key="54" pan="0" len="24" vol="100"/>
          <note pos="432" key="54" pan="0" len="24" vol="100"/>
          <note pos="456" key="54" pan="0" len="24" vol="100"/>
          <note pos="480" key="54" pan="0" len="24" vol="100"/>
          <note pos="504" key="54" pan="0" len="24" vol="100"/>
          <note pos="528" key="54" pan="0" len="24" vol="100"/>
          <note pos="552" key="54" pan="0" len="24" vol="100"/>
          <note pos="576" key="54" pan="0" len="24" vol="100"/>
          <note pos="600" key="54" pan="0" len="24" vol="100"/>
          <note pos="624" key="54" pan="0" len="24" vol="100"/>
          <note pos="648" key="57" pan="0" len="24" vol="100"/>
          <note pos="672" key="59" pan="0" len="24" vol="100"/>
          <note pos="696" key="61" pan="0" len="24" vol="100"/>
          <note pos="720" key="64" pan="0" len="24" vol="100"/>
          <note pos="744" key="66" pan="0" len="24" vol="100"/>
        </pattern>
        <pattern name="Bass" pos="3264" type="1" muted="0" steps="16">
          <note pos="0" key="50" pan="0" len="24" vol="100"/>
          <note pos="24" key="50" pan="0" len="24" vol="100"/>
          <note pos="48" key="50" pan="0" len="24" vol="100"/>
          <note pos="72" key="50" pan="0" len="24" vol="100"/>
          <note pos="96" key="50" pan="0" len="24" vol="100"/>
          <note pos="120" key="50" pan="0" len="24" vol="100"/>
          <note pos="144" key="50" pan="0" len="24" vol="100"/>
          <note pos="168" key="50" pan="0" len="24" vol="100"/>
          <note pos="192" key="50" pan="0" len="24" vol="100"/>
          <note pos="216" key="50" pan="0" len="24" vol="100"/>
          <note pos="240" key="50" pan="0" len="24" vol="100"/>
          <note pos="264" key="50" pan="0" len="24" vol="100"/>
          <note pos="288" key="50" pan="0" len="24" vol="100"/>
          <note pos="312" key="50" pan="0" len="24" vol="100"/>
          <note pos="336" key="50" pan="0" len="24" vol="100"/>
          <note pos="360" key="50" pan="0" len="24" vol="100"/>
        </pattern>
        <pattern name="" pos="3648" type="1" muted="0" steps="16">
          <note pos="0" key="50" pan="0" len="24" vol="100"/>
          <note pos="24" key="50" pan="0" len="24" vol="100"/>
          <note pos="48" key="50" pan="0" len="24" vol="100"/>
          <note pos="72" key="50" pan="0" len="24" vol="100"/>
          <note pos="96" key="50" pan="0" len="24" vol="100"/>
          <note pos="120" key="50" pan="0" len="24" vol="100"/>
          <note pos="144" key="50" pan="0" len="24" vol="100"/>
          <note pos="168" key="50" pan="0" len="24" vol="100"/>
          <note pos="192" key="50" pan="0" len="24" vol="100"/>
          <note pos="216" key="50" pan="0" len="24" vol="100"/>
          <note pos="240" key="50" pan="0" len="24" vol="100"/>
          <note pos="264" key="50" pan="0" len="24" vol="100"/>
          <note pos="288" key="50" pan="0" len="24" vol="100"/>
          <note pos="312" key="50" pan="0" len="24" vol="100"/>
          <note pos="336" key="50" pan="0" len="24" vol="100"/>
          <note pos="360" key="50" pan="0" len="24" vol="100"/>
        </pattern>
        <pattern name="" pos="4032" type="1" muted="0" steps="16">
          <note pos="0" key="50" pan="0" len="24" vol="100"/>
          <note pos="24" key="50" pan="0" len="24" vol="100"/>
          <note pos="48" key="50" pan="0" len="24" vol="100"/>
          <note pos="72" key="50" pan="0" len="24" vol="100"/>
          <note pos="96" key="50" pan="0" len="24" vol="100"/>
          <note pos="120" key="50" pan="0" len="24" vol="100"/>
          <note pos="144" key="50" pan="0" len="24" vol="100"/>
          <note pos="168" key="50" pan="0" len="24" vol="100"/>
          <note pos="192" key="50" pan="0" len="24" vol="100"/>
          <note pos="216" key="50" pan="0" len="24" vol="100"/>
          <note pos="240" key="50" pan="0" len="24" vol="100"/>
          <note pos="264" key="50" pan="0" len="24" vol="100"/>
          <note pos="288" key="50" pan="0" len="24" vol="100"/>
          <note pos="312" key="50" pan="0" len="24" vol="100"/>
          <note pos="336" key="50" pan="0" len="24" vol="100"/>
          <note pos="360" key="50" pan="0" len="24" vol="100"/>
        </pattern>
        <pattern name="" pos="4416" type="1" muted="0" steps="16">
          <note pos="0" key="50" pan="0" len="24" vol="100"/>
          <note pos="24" key="50" pan="0" len="24" vol="100"/>
          <note pos="48" key="50" pan="0" len="24" vol="100"/>
          <note pos="72" key="50" pan="0" len="24" vol="100"/>
          <note pos="96" key="50" pan="0" len="24" vol="100"/>
          <note pos="120" key="50" pan="0" len="24" vol="100"/>
          <note pos="144" key="50" pan="0" len="24" vol="100"/>
          <note pos="168" key="50" pan="0" len="24" vol="100"/>
          <note pos="192" key="57" pan="0" len="24" vol="100"/>
          <note pos="216" key="57" pan="0" len="24" vol="100"/>
          <note pos="240" key="56" pan="0" len="24" vol="100"/>
          <note pos="264" key="57" pan="0" len="24" vol="100"/>
          <note pos="288" key="58" pan="0" len="24" vol="100"/>
          <note pos="312" key="59" pan="0" len="24" vol="100"/>
          <note pos="336" key="60" pan="0" len="24" vol="100"/>
          <note pos="360" key="61" pan="0" len="24" vol="100"/>
        </pattern>
        <pattern name="" pos="4800" type="1" muted="0" steps="16">
          <note pos="0" key="54" pan="0" len="24" vol="100"/>
          <note pos="24" key="54" pan="0" len="24" vol="100"/>
          <note pos="48" key="54" pan="0" len="24" vol="100"/>
          <note pos="72" key="54" pan="0" len="24" vol="100"/>
          <note pos="96" key="54" pan="0" len="24" vol="100"/>
          <note pos="120" key="54" pan="0" len="24" vol="100"/>
          <note pos="144" key="54" pan="0" len="24" vol="100"/>
          <note pos="168" key="54" pan="0" len="24" vol="100"/>
          <note pos="192" key="54" pan="0" len="24" vol="100"/>
          <note pos="216" key="54" pan="0" len="24" vol="100"/>
          <note pos="240" key="54" pan="0" len="24" vol="100"/>
          <note pos="264" key="57" pan="0" len="24" vol="100"/>
          <note pos="288" key="57" pan="0" len="24" vol="100"/>
          <note pos="312" key="57" pan="0" len="24" vol="100"/>
          <note pos="336" key="56" pan="0" len="24" vol="100"/>
          <note pos="360" key="56" pan="0" len="24" vol="100"/>
          <note pos="384" key="54" pan="0" len="24" vol="100"/>
          <note pos="408" key="54" pan="0" len="24" vol="100"/>
          <note pos="432" key="54" pan="0" len="24" vol="100"/>
          <note pos="456" key="54" pan="0" len="24" vol="100"/>
          <note pos="480" key="54" pan="0" len="24" vol="100"/>
          <note pos="504" key="54" pan="0" len="24" vol="100"/>
          <note pos="528" key="54" pan="0" len="24" vol="100"/>
          <note pos="552" key="54" pan="0" len="24" vol="100"/>
          <note pos="576" key="54" pan="0" len="24" vol="100"/>
          <note pos="600" key="54" pan="0" len="24" vol="100"/>
          <note pos="624" key="54" pan="0" len="24" vol="100"/>
          <note pos="648" key="59" pan="0" len="24" vol="100"/>
          <note pos="672" key="59" pan="0" len="24" vol="100"/>
          <note pos="696" key="59" pan="0" len="24" vol="100"/>
          <note pos="720" key="61" pan="0" len="24" vol="100"/>
          <note pos="744" key="61" pan="0" len="24" vol="100"/>
        </pattern>
        <pattern name="" pos="5568" type="1" muted="0" steps="16">
          <note pos="0" key="54" pan="0" len="24" vol="100"/>
          <note pos="24" key="54" pan="0" len="24" vol="100"/>
          <note pos="48" key="54" pan="0" len="24" vol="100"/>
          <note pos="72" key="54" pan="0" len="24" vol="100"/>
          <note pos="96" key="54" pan="0" len="24" vol="100"/>
          <note pos="120" key="54" pan="0" len="24" vol="100"/>
          <note pos="144" key="54" pan="0" len="24" vol="100"/>
          <note pos="168" key="54" pan="0" len="24" vol="100"/>
          <note pos="192" key="54" pan="0" len="24" vol="100"/>
          <note pos="216" key="54" pan="0" len="24" vol="100"/>
          <note pos="240" key="54" pan="0" len="24" vol="100"/>
          <note pos="264" key="57" pan="0" len="24" vol="100"/>
          <note pos="288" key="57" pan="0" len="24" vol="100"/>
          <note pos="312" key="57" pan="0" len="24" vol="100"/>
          <note pos="336" key="56" pan="0" len="24" vol="100"/>
          <note pos="360" key="56" pan="0" len="24" vol="100"/>
          <note pos="384" key="54" pan="0" len="24" vol="100"/>
          <note pos="408" key="54" pan="0" len="24" vol="100"/>
          <note pos="432" key="54" pan="0" len="24" vol="100"/>
          <note pos="456" key="54" pan="0" len="24" vol="100"/>
          <note pos="480" key="54" pan="0" len="24" vol="100"/>
          <note pos="504" key="54" pan="0" len="24" vol="100"/>
          <note pos="528" key="54" pan="0" len="24" vol="100"/>
          <note pos="552" key="54" pan="0" len="24" vol="100"/>
          <note pos="576" key="54" pan="0" len="24" vol="100"/>
          <note pos="600" key="54" pan="0" len="24" vol="100"/>
          <note pos="624" key="54" pan="0" len="24" vol="100"/>
          <note pos="648" key="57" pan="0" len="24" vol="100"/>
          <note pos="672" key="59" pan="0" len="24" vol="100"/>
          <note pos="696" key="61" pan="0" len="24" vol="100"/>
          <note pos="720" key="64" pan="0" len="24" vol="100"/>
          <note pos="744" key="66" pan="0" len="24" vol="100"/>
        </pattern>
        <pattern name="" pos="6336" type="1" muted="0" steps="16">
          <note pos="0" key="50" pan="0" len="24" vol="100"/>
          <note pos="24" key="50" pan="0" len="24" vol="100"/>
          <note pos="48" key="50" pan="0" len="24" vol="100"/>
          <note pos="72" key="50" pan="0" len="24" vol="100"/>
          <note pos="96" key="50" pan="0" len="24" vol="100"/>
          <note pos="120" key="50" pan="0" len="24" vol="100"/>
          <note pos="144" key="50" pan="0" len="24" vol="100"/>
          <note pos="168" key="50" pan="0" len="24" vol="100"/>
          <note pos="192" key="50" pan="0" len="24" vol="100"/>
          <note pos="216" key="50" pan="0" len="24" vol="100"/>
          <note pos="240" key="50" pan="0" len="24" vol="100"/>
          <note pos="264" key="50" pan="0" len="24" vol="100"/>
          <note pos="288" key="50" pan="0" len="24" vol="100"/>
          <note pos="312" key="50" pan="0" len="24" vol="100"/>
          <note pos="336" key="50" pan="0" len="24" vol="100"/>
          <note pos="360" key="50" pan="0" len="24" vol="100"/>
        </pattern>
        <pattern name="" pos="6720" type="1" muted="0" steps="16">
          <note pos="0" key="50" pan="0" len="24" vol="100"/>
          <note pos="24" key="50" pan="0" len="24" vol="100"/>
          <note pos="48" key="50" pan="0" len="24" vol="100"/>
          <note pos="72" key="50" pan="0" len="24" vol="100"/>
          <note pos="96" key="50" pan="0" len="24" vol="100"/>
          <note pos="120" key="50" pan="0" len="24" vol="100"/>
          <note pos="144" key="50" pan="0" len="24" vol="100"/>
          <note pos="168" key="50" pan="0" len="24" vol="100"/>
          <note pos="192" key="50" pan="0" len="24" vol="100"/>
          <note pos="216" key="50" pan="0" len="24" vol="100"/>
          <note pos="240" key="50" pan="0" len="24" vol="100"/>
          <note pos="264" key="50" pan="0" len="24" vol="100"/>
          <note pos="288" key="50" pan="0" len="24" vol="100"/>
          <note pos="312" key="50" pan="0" len="24" vol="100"/>
          <note pos="336" key="50" pan="0" len="24" vol="100"/>
          <note pos="360" key="50" pan="0" len="24" vol="100"/>
        </pattern>
        <pattern name="" pos="7104" type="1" muted="0" steps="16">
          <note pos="0" key="50" pan="0" len="24" vol="100"/>
          <note pos="24" key="50" pan="0" len="24" vol="100"/>
          <note pos="48" key="50" pan="0" len="24" vol="100"/>
          <note pos="72" key="50" pan="0" len="24" vol="100"/>
          <note pos="96" key="50" pan="0" len="24" vol="100"/>
          <note pos="120" key="50" pan="0" len="24" vol="100"/>
          <note pos="144" key="50" pan="0" len="24" vol="100"/>
          <note pos="168" key="50" pan="0" len="24" vol="100"/>
          <note pos="192" key="50" pan="0" len="24" vol="100"/>
          <note pos="216" key="50" pan="0" len="24" vol="100"/>
          <note pos="240" key="50" pan="0" len="24" vol="100"/>
          <note pos="264" key="50" pan="0" len="24" vol="100"/>
          <note pos="288" key="50" pan="0" len="24" vol="100"/>
          <note pos="312" key="50" pan="0" len="24" vol="100"/>
          <note pos="336" key="50" pan="0" len="24" vol="100"/>
          <note pos="360" key="50" pan="0" len="24" vol="100"/>
        </pattern>
        <pattern name="" pos="7488" type="1" muted="0" steps="16">
          <note pos="0" key="50" pan="0" len="24" vol="100"/>
          <note pos="24" key="50" pan="0" len="24" vol="100"/>
          <note pos="48" key="50" pan="0" len="24" vol="100"/>
          <note pos="72" key="50" pan="0" len="24" vol="100"/>
          <note pos="96" key="50" pan="0" len="24" vol="100"/>
          <note pos="120" key="50" pan="0" len="24" vol="100"/>
          <note pos="144" key="50" pan="0" len="24" vol="100"/>
          <note pos="168" key="50" pan="0" len="24" vol="100"/>
          <note pos="192" key="57" pan="0" len="24" vol="100"/>
          <note pos="216" key="57" pan="0" len="12" vol="100"/>
          <note pos="228" key="57" pan="0" len="12" vol="100"/>
          <note pos="240" key="56" pan="0" len="24" vol="100"/>
          <note pos="264" key="57" pan="0" len="24" vol="100"/>
          <note pos="288" key="58" pan="0" len="24" vol="100"/>
          <note pos="312" key="59" pan="0" len="24" vol="100"/>
          <note pos="336" key="60" pan="0" len="24" vol="100"/>
          <note pos="360" key="61" pan="0" len="24" vol="100"/>
        </pattern>
        <pattern name="" pos="7872" type="1" muted="0" steps="16">
          <note pos="0" key="57" pan="0" len="24" vol="100"/>
          <note pos="24" key="57" pan="0" len="24" vol="100"/>
          <note pos="48" key="57" pan="0" len="24" vol="100"/>
          <note pos="72" key="57" pan="0" len="24" vol="100"/>
          <note pos="96" key="57" pan="0" len="24" vol="100"/>
          <note pos="120" key="57" pan="0" len="24" vol="100"/>
          <note pos="144" key="57" pan="0" len="24" vol="100"/>
          <note pos="168" key="57" pan="0" len="24" vol="100"/>
          <note pos="192" key="57" pan="0" len="24" vol="100"/>
          <note pos="216" key="57" pan="0" len="24" vol="100"/>
          <note pos="240" key="57" pan="0" len="24" vol="100"/>
          <note pos="264" key="57" pan="0" len="24" vol="100"/>
          <note pos="288" key="57" pan="0" len="24" vol="100"/>
          <note pos="312" key="57" pan="0" len="24" vol="100"/>
          <note pos="336" key="57" pan="0" len="24" vol="100"/>
          <note pos="360" key="57" pan="0" len="24" vol="100"/>
        </pattern>
        <pattern name="" pos="8256" type="1" muted="0" steps="16">
          <note pos="0" key="55" pan="0" len="24" vol="100"/>
          <note pos="24" key="55" pan="0" len="24" vol="100"/>
          <note pos="48" key="55" pan="0" len="24" vol="100"/>
          <note pos="72" key="55" pan="0" len="24" vol="100"/>
          <note pos="96" key="55" pan="0" len="24" vol="100"/>
          <note pos="120" key="55" pan="0" len="24" vol="100"/>
          <note pos="144" key="55" pan="0" len="24" vol="100"/>
          <note pos="168" key="55" pan="0" len="24" vol="100"/>
          <note pos="192" key="55" pan="0" len="24" vol="100"/>
          <note pos="216" key="55" pan="0" len="24" vol="100"/>
          <note pos="240" key="55" pan="0" len="24" vol="100"/>
          <note pos="264" key="55" pan="0" len="24" vol="100"/>
          <note pos="288" key="55" pan="0" len="24" vol="100"/>
          <note pos="312" key="55" pan="0" len="24" vol="100"/>
          <note pos="336" key="55" pan="0" len="24" vol="100"/>
          <note pos="360" key="55" pan="0" len="24" vol="100"/>
        </pattern>
        <pattern name="" pos="8640" type="1" muted="0" steps="16">
          <note pos="0" key="53" pan="0" len="24" vol="100"/>
          <note pos="24" key="53" pan="0" len="24" vol="100"/>
          <note pos="48" key="53" pan="0" len="24" vol="100"/>
          <note pos="72" key="53" pan="0" len="24" vol="100"/>
          <note pos="96" key="53" pan="0" len="24" vol="100"/>
          <note pos="120" key="53" pan="0" len="24" vol="100"/>
          <note pos="144" key="53" pan="0" len="24" vol="100"/>
          <note pos="168" key="53" pan="0" len="24" vol="100"/>
          <note pos="192" key="53" pan="0" len="24" vol="100"/>
          <note pos="216" key="53" pan="0" len="24" vol="100"/>
          <note pos="240" key="53" pan="0" len="24" vol="100"/>
          <note pos="264" key="53" pan="0" len="24" vol="100"/>
          <note pos="288" key="53" pan="0" len="24" vol="100"/>
          <note pos="312" key="53" pan="0" len="24" vol="100"/>
          <note pos="336" key="53" pan="0" len="24" vol="100"/>
          <note pos="360" key="53" pan="0" len="24" vol="100"/>
        </pattern>
        <pattern name="" pos="9024" type="1" muted="0" steps="16">
          <note pos="0" key="52" pan="0" len="24" vol="100"/>
          <note pos="24" key="52" pan="0" len="24" vol="100"/>
          <note pos="48" key="52" pan="0" len="24" vol="100"/>
          <note pos="72" key="52" pan="0" len="24" vol="100"/>
          <note pos="96" key="52" pan="0" len="24" vol="100"/>
          <note pos="120" key="52" pan="0" len="24" vol="100"/>
          <note pos="144" key="52" pan="0" len="24" vol="100"/>
          <note pos="168" key="52" pan="0" len="24" vol="100"/>
          <note pos="216" key="52" pan="0" len="36" vol="100"/>
          <note pos="288" key="52" pan="0" len="48" vol="100"/>
          <note pos="336" key="53" pan="0" len="24" vol="100"/>
          <note pos="360" key="53" pan="0" len="24" vol="100"/>
        </pattern>
        <pattern name="" pos="9408" type="1" muted="0" steps="16">
          <note pos="0" key="54" pan="0" len="24" vol="100"/>
          <note pos="24" key="54" pan="0" len="24" vol="100"/>
          <note pos="48" key="54" pan="0" len="24" vol="100"/>
          <note pos="72" key="54" pan="0" len="24" vol="100"/>
          <note pos="96" key="54" pan="0" len="24" vol="100"/>
          <note pos="120" key="54" pan="0" len="24" vol="100"/>
          <note pos="144" key="54" pan="0" len="24" vol="100"/>
          <note pos="168" key="54" pan="0" len="24" vol="100"/>
          <note pos="192" key="54" pan="0" len="24" vol="100"/>
          <note pos="216" key="54" pan="0" len="24" vol="100"/>
          <note pos="240" key="54" pan="0" len="24" vol="100"/>
          <note pos="264" key="54" pan="0" len="24" vol="100"/>
          <note pos="288" key="54" pan="0" len="24" vol="100"/>
          <note pos="312" key="54" pan="0" len="24" vol="100"/>
          <note pos="336" key="54" pan="0" len="24" vol="100"/>
          <note pos="360" key="54" pan="0" len="24" vol="100"/>
        </pattern>
        <pattern name="" pos="9792" type="1" muted="0" steps="16">
          <note pos="0" key="52" pan="0" len="24" vol="100"/>
          <note pos="24" key="52" pan="0" len="24" vol="100"/>
          <note pos="48" key="52" pan="0" len="24" vol="100"/>
          <note pos="72" key="52" pan="0" len="24" vol="100"/>
          <note pos="96" key="52" pan="0" len="24" vol="100"/>
          <note pos="120" key="52" pan="0" len="24" vol="100"/>
          <note pos="144" key="52" pan="0" len="24" vol="100"/>
          <note pos="168" key="52" pan="0" len="24" vol="100"/>
          <note pos="192" key="52" pan="0" len="24" vol="100"/>
          <note pos="216" key="52" pan="0" len="24" vol="100"/>
          <note pos="240" key="52" pan="0" len="24" vol="100"/>
          <note pos="264" key="52" pan="0" len="24" vol="100"/>
          <note pos="288" key="52" pan="0" len="24" vol="100"/>
          <note pos="312" key="52" pan="0" len="24" vol="100"/>
          <note pos="336" key="52" pan="0" len="24" vol="100"/>
          <note pos="360" key="52" pan="0" len="24" vol="100"/>
        </pattern>
        <pattern name="" pos="10176" type="1" muted="0" steps="16">
          <note pos="0" key="50" pan="0" len="24" vol="100"/>
          <note pos="24" key="50" pan="0" len="24" vol="100"/>
          <note pos="48" key="50" pan="0" len="24" vol="100"/>
          <note pos="72" key="50" pan="0" len="24" vol="100"/>
          <note pos="96" key="50" pan="0" len="24" vol="100"/>
          <note pos="120" key="50" pan="0" len="24" vol="100"/>
          <note pos="144" key="50" pan="0" len="24" vol="100"/>
          <note pos="168" key="50" pan="0" len="24" vol="100"/>
          <note pos="192" key="50" pan="0" len="24" vol="100"/>
          <note pos="216" key="50" pan="0" len="24" vol="100"/>
          <note pos="240" key="50" pan="0" len="24" vol="100"/>
          <note pos="264" key="50" pan="0" len="24" vol="100"/>
          <note pos="288" key="50" pan="0" len="24" vol="100"/>
          <note pos="312" key="50" pan="0" len="24" vol="100"/>
          <note pos="336" key="50" pan="0" len="24" vol="100"/>
          <note pos="360" key="50" pan="0" len="24" vol="100"/>
        </pattern>
        <pattern name="" pos="10560" type="1" muted="0" steps="16">
          <note pos="24" key="49" pan="0" len="24" vol="100"/>
          <note pos="96" key="49" pan="0" len="96" vol="100"/>
          <note pos="216" key="49" pan="0" len="24" vol="100"/>
          <note pos="264" key="49" pan="0" len="48" vol="100"/>
          <note pos="312" key="52" pan="0" len="24" vol="100"/>
          <note pos="336" key="52" pan="0" len="24" vol="100"/>
          <note pos="360" key="52" pan="0" len="24" vol="100"/>
        </pattern>
      </track>
      <track name="Dundundundundundun" type="0" muted="0" solo="0">
        <instrumenttrack fxch="2" pitchrange="1" basenote="57" pitch="0" pan="18.2" usemasterpitch="1" vol="121.4">
          <instrument name="vestige">
            <vestige program="0" plugin="Synth1 - 1.13 beta3/Synth1 VST64.dll" guivisible="0" chunk="U3ludGgxIFZTVCBDaHVuayBEYXRhAAAAAAAAAAAAAAACAAAAAAAAAGt2cl8xNDI3MDhfMjE0XzE0MjcxNDc0MDMuemlwAAAAAAAAAAAAAAAAAAAAAAAAAAAAAAAAAAAAAAAAAAAAAAAAAAAAAAAAAAAAAAAAAAAAAAAAAAAAAAAAAAAAAAAAAAAAAAAAAAAAAAAAAAAAAAAAAAAAAAAAAAAAAAAAAAAAAAAAAAAAAAAAAAAAAAAAAAAAAAAAAAAAAAAAAAAAAAAAAAAAAAAAAAAAAAAAAAAAAAAAAAAAAAAAAAAAAAAAAAAAAAAAAAAAAAAAAAAAAAAAAAAAAAAAAAAAAAAAAAAAAAAAAAAAAAAAAAAAAAAAAAAAAAAAAAAAAAAAAAAAAAAAAAAAAAAAAAAAAAAAAAAAAAAAAAAAAAAAAAAAAAAAAAAAAAAAAAAAAAAAAAAAAAAAAAAAAAAAAAAAAAAAAAAAAAAAAAAAAAAAAAAAAAAAAAAAAAAAAAAAAAAAAAAAAAAAAAAAAAAAAAAAAAAAAAAAAAAAAAAAAAAAAAAAAAAAAAAAAAAAAAAAAAAAAAAAAAAAAAAAAAAAAAAAAAAAAAAAAAAAAAAAAAAAAAAAAAAAAAAAAAAAAAAAAAAAAAAAAAAAAAAAAAAAAAAAAAAAAAAAAAAAAAAAAAAAAAAAAAAAAAAAAAAAAAAAAAAAAAAAAAAAAAAAAAAAAAAAAAAAAAAAAAAAAAAAAABxAAAAAAEAAAEAAAABAAAAAQAAAAQAAAABAAAAQAAAAAEAAABCAAAAAQAAAAAAAAABAAAAJAAAAAEAAAAAAAAAAQAAAAEAAAABAAAATAAAAAEAAAAAAAAAAQAAAAEAAAABAAAAQgAAAAEAAAACAAAAAQAAAAAAAAABAAAAAQAAAAEAAAAAAAAAAQAAACQAAAABAAAAAAAAAAEAAAAAAAAAAQAAAHwAAAABAAAAAAAAAAEAAABgAAAAAQAAAB4AAAABAAAADwAAAAEAAAABAAAAAQAAAAAAAAABAAAATQAAAAEAAAAAAAAAAQAAAEAAAAABAAAARAAAAAEAAAB/AAAAAQAAAAIAAAABAAAAAAAAAAEAAAAOAAAAAQAAAH8AAAABAAAADgAAAAEAAAAtAAAAAQAAAA8AAAABAAAAAAAAAAEAAAAAAAAAAQAAAAIAAAABAAAAAgAAAAEAAAABAAAAAQAAAEgAAAABAAAAAQAAAAEAAAAAAAAAAQAAAAMAAAABAAAABQAAAAEAAAAeAAAAAQAAAAwAAAABAAAAFQAAAAEAAAA/AAAAAQAAADIAAAABAAAAMAAAAAEAAAAyAAAAAQAAAEAAAAABAAAAJAAAAAEAAAAAAAAAAQAAAAEAAAABAAAAAAAAAAEAAABLAAAAAQAAAD8AAAABAAAAQAAAAAEAAAB/AAAAAQAAAAIAAAABAAAAAQAAAAEAAAABAAAAAQAAAAAAAAABAAAAAAAAAAEAAAABAAAAAQAAAAAAAAABAAAAAAAAAAEAAABAAAAAAQAAAAEAAAABAAAAAAAAAAEAAAAlAAAAAQAAAAcAAAABAAAAAAAAAAEAAAAAAAAAAQAAAEAAAAABAAAAQAAAAAEAAABAAAAAAQAAAAEAAAABAAAAPwAAAAEAAAB/AAAAAQAAABgAAAABAAAAAbAAAAEAAAATAAAAAQAAAAGwAAABAAAAKwAAAAEAAABAAAAAAQAAAAAAAAABAAAAAAAAAAEAAAACAAAAAQAAACAAAAABAAAADwAAAAEAAAACAAAAAQAAAAEAAAABAAAAQAAAAAAAAAAAAAAAAAAAAAAAAAAAAAAAAAAAAAAAAAAAAAAAAAAAAAAAAAAAAAAAAAAAAAAAAAAAAAAAAAAAAAAAAAAAAAAAAAAAAAAAAAAAAAAAAAAAAAAAAAAAAAAAAAAAAAAAAAAAAAAAAAAAAAAAAAAAAAAAAAAAAAAAAAAAAAAAAAAAAAAAAAAAAAAAAAAAAAAAAAAAAAAAAAAAAAAAAAAAAAAAAAAAAAAAAAAAAAAAAAAAAAAAAAAAAAAAAAAAAAAAAAAAAAAAAAAAAAAAAAAAAAAAAAAAAAAAAAAAAAAAAAAAAAAAAAAAAAAAAAAAAAAAAAAAAAAAAAAAAAAAAAAAAAAAAAAAAAAAAAAAAAAAAAAAAAAAAAAAAAAAAAAAAAAAAAAAAAAAAAAAAAAAAAAAAAAAAAAAAAAAAAAAAAAAAAAAAAAAAAAAAAAAAAAAAAAAAAAAAAAAAAAAAAAAAAAAAAAAAAAAAAAAAAAAAAAAAAAAAAAAAAAAAAAAAAAAAAAAAAAAAAAAAAAAAAAAAAAAAAAAAAAAAAAAAAAAAAAAAAAAAAAAAAAAAAAAAAAAAAAAAAAAAAAAAAAAAAAAAAAAAAAAAAAAAAAAAAAAAAAAAAAAAAAAAAAAAAAAAAAAAAAAAAAAAAAAAAAAAAAAAAAAAAAAAAAAAAAAAAAAAAAAAAAAAAAAAAAAAAAAAAAAAAAAAAAAAAAAAAAAAAAAAAAAAAAAAAAAAAAAAAAAAAAAAAAAAAAAAAAAAAAAAAAAAAAAAAAAAAAAAAAAAAAAAAAAAAAAAAAAAAAAAAAAAAAAAAAAAAAAAAAAAAAAAAAAAAAAAAAAAAAAAAAAAAAAAAAAAAAAAAAAAAAAAAAAAAAAAAAAAAAAAAAAAAAAAAAAAAAAAAAAAAAAAAAAAAAAAAAAAAAAAAAAAAAAAAAAAAAAAAAAAAAAAAAAAAAAAAAAAAAAAAAAAAAAAAAAAAAAAAAAAAAAAAAAAAAAAAAAAAAAAAAAAAAAAAAAAAAAAAAAAAAAAAAAAAAAAAAAAAAAAAAAAAAAAAAAAAAAAAAAAAAAAAAAAAAAAAAAAAAAAAAAAAAAAAAAAAAAAAAAAAAAAAAAAAAAAAAAAAAAAAAAAAAAAAAAAAAAAAAAAAAAAAAAAAAAAAAAAAAAAAAAAAAAAAAAAAAAAAAAAAAAAAAAAAAAAAAAAAAAAAAAAAAAAAAAAAAAAAAAAAAAAAAAAAAAAAAAAAAAAAAAAAAAAAAAAAAAAAAAAAAAAAAAAAAAAAAAAAAAAAAAAAAAAAAAAAAAAAAAAAAAAAAAAAAAAAAAAAAAAAAAAAAAAAAAAAAAAAAAAAAAAAAAAAAAAAAAAAAAAAAAAAAAAAAAAAAAAAAAAAAAAAAAAAAAAAAAAAAAAAAAAAAAAAAAAAAAAAAAAAAAAAAAAAAAAAAAAAAAAAAAAAAAAAAAAAAAAAAAAAAAAAAAAAAAAAAAAAAAAAAAAAAAAAAAAAAAAAAAAAAAAAAAAAAAAAAAAAAAAAAAAAAAAAAAAAAAAAAAAAAAAAAAAAAAAAAAAAAAAAAAAAAAAAAAAAAAAAAAAAAAAAAAAAAAAAAAAAAAAAAAAAAAAQAAAHEAAAABAAAA/////wEAAAARAAAAAAAAAAAAAAABAAAAQAAAAAAAAAAAAAAAAAAAAAAAAAA="/>
          </instrument>
          <eldata ftype="6" fcut="686" fwet="0" fres="0.88">
            <elvol lspd="0.0917" lspd_numerator="1" ctlenvamt="0" dec="0.297" pdel="0" sustain="1" lspd_denominator="1" latt="0" lamt="0" rel="0.199" userwavefile="" lshp="0" lspd_syncmode="0" att="0" lpdel="0" hold="0" amt="1" x100="0"/>
            <elcut lspd="0.767" lspd_numerator="1" ctlenvamt="0" dec="0.223" pdel="0" sustain="0.001" lspd_denominator="1" latt="0" lamt="0.47" rel="0" userwavefile="" lshp="1" lspd_syncmode="0" att="0" lpdel="0" hold="0" amt="0.33" x100="0"/>
            <elres lspd="0.01" lspd_numerator="1" ctlenvamt="0" dec="0.5" pdel="0" sustain="0.5" lspd_denominator="1" latt="0" lamt="-0.005" rel="0.1" userwavefile="" lshp="1" lspd_syncmode="0" att="0" lpdel="0" hold="0" amt="0" x100="0"/>
          </eldata>
          <chordcreator chord="0" chord-enabled="1" chordrange="1"/>
          <arpeggiator arptime_syncmode="0" arprange="2" arptime_numerator="1" arptime_denominator="1" arp="0" arpskip="0" arp-enabled="0" arpcycle="0" arpmiss="0" arpdir="0" arptime="179" arpmode="0" arpgate="142"/>
          <midiport fixedoutputvelocity="-1" writable="0" outputchannel="1" readable="0" inputchannel="0" inputcontroller="0" outputcontroller="0" outputprogram="1" basevelocity="127" fixedinputvelocity="-1" fixedoutputnote="-1"/>
          <fxchain enabled="1" numofeffects="0"/>
        </instrumenttrack>
        <pattern name="Dundundundundundun" pos="192" type="1" muted="0" steps="16">
          <note pos="0" key="45" pan="0" len="24" vol="100"/>
          <note pos="24" key="45" pan="0" len="24" vol="100"/>
          <note pos="48" key="45" pan="0" len="24" vol="100"/>
          <note pos="72" key="45" pan="0" len="24" vol="100"/>
          <note pos="96" key="45" pan="0" len="24" vol="100"/>
          <note pos="120" key="45" pan="0" len="24" vol="100"/>
          <note pos="144" key="45" pan="0" len="24" vol="100"/>
          <note pos="168" key="45" pan="0" len="24" vol="100"/>
          <note pos="192" key="45" pan="0" len="24" vol="100"/>
          <note pos="216" key="45" pan="0" len="24" vol="100"/>
          <note pos="240" key="45" pan="0" len="24" vol="100"/>
          <note pos="264" key="48" pan="0" len="72" vol="100"/>
          <note pos="336" key="47" pan="0" len="48" vol="100"/>
        </pattern>
        <pattern name="Dundundundundundun" pos="576" type="1" muted="0" steps="16">
          <note pos="0" key="45" pan="0" len="24" vol="100"/>
          <note pos="24" key="45" pan="0" len="24" vol="100"/>
          <note pos="48" key="45" pan="0" len="24" vol="100"/>
          <note pos="72" key="45" pan="0" len="24" vol="100"/>
          <note pos="96" key="45" pan="0" len="24" vol="100"/>
          <note pos="120" key="45" pan="0" len="24" vol="100"/>
          <note pos="144" key="45" pan="0" len="24" vol="100"/>
          <note pos="168" key="45" pan="0" len="24" vol="100"/>
          <note pos="192" key="45" pan="0" len="24" vol="100"/>
          <note pos="216" key="45" pan="0" len="24" vol="100"/>
          <note pos="240" key="45" pan="0" len="24" vol="100"/>
          <note pos="264" key="50" pan="0" len="72" vol="100"/>
          <note pos="336" key="52" pan="0" len="48" vol="100"/>
        </pattern>
        <pattern name="Dundundundundundun" pos="960" type="1" muted="0" steps="16">
          <note pos="0" key="45" pan="0" len="24" vol="100"/>
          <note pos="24" key="45" pan="0" len="24" vol="100"/>
          <note pos="48" key="45" pan="0" len="24" vol="100"/>
          <note pos="72" key="45" pan="0" len="24" vol="100"/>
          <note pos="96" key="45" pan="0" len="24" vol="100"/>
          <note pos="120" key="45" pan="0" len="24" vol="100"/>
          <note pos="144" key="45" pan="0" len="24" vol="100"/>
          <note pos="168" key="45" pan="0" len="24" vol="100"/>
          <note pos="192" key="45" pan="0" len="24" vol="100"/>
          <note pos="216" key="45" pan="0" len="24" vol="100"/>
          <note pos="240" key="45" pan="0" len="24" vol="100"/>
          <note pos="264" key="48" pan="0" len="72" vol="100"/>
          <note pos="336" key="47" pan="0" len="48" vol="100"/>
        </pattern>
        <pattern name="Dundundundundundun" pos="1344" type="1" muted="0" steps="16">
          <note pos="0" key="45" pan="0" len="24" vol="100"/>
          <note pos="24" key="45" pan="0" len="24" vol="100"/>
          <note pos="48" key="45" pan="0" len="24" vol="100"/>
          <note pos="72" key="45" pan="0" len="24" vol="100"/>
          <note pos="96" key="45" pan="0" len="24" vol="100"/>
          <note pos="120" key="45" pan="0" len="24" vol="100"/>
          <note pos="144" key="45" pan="0" len="24" vol="100"/>
          <note pos="168" key="45" pan="0" len="24" vol="100"/>
          <note pos="192" key="45" pan="0" len="24" vol="100"/>
          <note pos="216" key="45" pan="0" len="24" vol="100"/>
          <note pos="240" key="45" pan="0" len="24" vol="100"/>
          <note pos="264" key="48" pan="0" len="24" vol="100"/>
          <note pos="288" key="50" pan="0" len="24" vol="100"/>
          <note pos="312" key="52" pan="0" len="24" vol="100"/>
          <note pos="336" key="55" pan="0" len="24" vol="100"/>
          <note pos="360" key="57" pan="0" len="24" vol="100"/>
        </pattern>
        <pattern name="Dundundundundundun" pos="1728" type="1" muted="0" steps="16">
          <note pos="0" key="45" pan="0" len="24" vol="100"/>
          <note pos="24" key="45" pan="0" len="24" vol="100"/>
          <note pos="48" key="45" pan="0" len="24" vol="100"/>
          <note pos="72" key="45" pan="0" len="24" vol="100"/>
          <note pos="96" key="45" pan="0" len="24" vol="100"/>
          <note pos="120" key="45" pan="0" len="24" vol="100"/>
          <note pos="144" key="45" pan="0" len="24" vol="100"/>
          <note pos="168" key="45" pan="0" len="24" vol="100"/>
          <note pos="192" key="45" pan="0" len="24" vol="100"/>
          <note pos="216" key="45" pan="0" len="24" vol="100"/>
          <note pos="240" key="45" pan="0" len="24" vol="100"/>
          <note pos="264" key="48" pan="0" len="72" vol="100"/>
          <note pos="336" key="47" pan="0" len="48" vol="100"/>
        </pattern>
        <pattern name="Dundundundundundun" pos="2112" type="1" muted="0" steps="16">
          <note pos="0" key="45" pan="0" len="24" vol="100"/>
          <note pos="24" key="45" pan="0" len="24" vol="100"/>
          <note pos="48" key="45" pan="0" len="24" vol="100"/>
          <note pos="72" key="45" pan="0" len="24" vol="100"/>
          <note pos="96" key="45" pan="0" len="24" vol="100"/>
          <note pos="120" key="45" pan="0" len="24" vol="100"/>
          <note pos="144" key="45" pan="0" len="24" vol="100"/>
          <note pos="168" key="45" pan="0" len="24" vol="100"/>
          <note pos="192" key="45" pan="0" len="24" vol="100"/>
          <note pos="216" key="45" pan="0" len="24" vol="100"/>
          <note pos="240" key="45" pan="0" len="24" vol="100"/>
          <note pos="264" key="50" pan="0" len="72" vol="100"/>
          <note pos="336" key="52" pan="0" len="48" vol="100"/>
        </pattern>
        <pattern name="Dundundundundundun" pos="2496" type="1" muted="0" steps="16">
          <note pos="0" key="45" pan="0" len="24" vol="100"/>
          <note pos="24" key="45" pan="0" len="24" vol="100"/>
          <note pos="48" key="45" pan="0" len="24" vol="100"/>
          <note pos="72" key="45" pan="0" len="24" vol="100"/>
          <note pos="96" key="45" pan="0" len="24" vol="100"/>
          <note pos="120" key="45" pan="0" len="24" vol="100"/>
          <note pos="144" key="45" pan="0" len="24" vol="100"/>
          <note pos="168" key="45" pan="0" len="24" vol="100"/>
          <note pos="192" key="45" pan="0" len="24" vol="100"/>
          <note pos="216" key="45" pan="0" len="24" vol="100"/>
          <note pos="240" key="45" pan="0" len="24" vol="100"/>
          <note pos="264" key="48" pan="0" len="72" vol="100"/>
          <note pos="336" key="47" pan="0" len="48" vol="100"/>
        </pattern>
        <pattern name="Dundundundundundun" pos="2880" type="1" muted="0" steps="16">
          <note pos="0" key="45" pan="0" len="24" vol="100"/>
          <note pos="24" key="45" pan="0" len="24" vol="100"/>
          <note pos="48" key="45" pan="0" len="24" vol="100"/>
          <note pos="72" key="45" pan="0" len="24" vol="100"/>
          <note pos="96" key="45" pan="0" len="24" vol="100"/>
          <note pos="120" key="45" pan="0" len="24" vol="100"/>
          <note pos="144" key="45" pan="0" len="24" vol="100"/>
          <note pos="168" key="45" pan="0" len="24" vol="100"/>
          <note pos="192" key="45" pan="0" len="24" vol="100"/>
          <note pos="216" key="45" pan="0" len="24" vol="100"/>
          <note pos="240" key="45" pan="0" len="24" vol="100"/>
          <note pos="264" key="48" pan="0" len="24" vol="100"/>
          <note pos="288" key="50" pan="0" len="24" vol="100"/>
          <note pos="312" key="52" pan="0" len="24" vol="100"/>
          <note pos="336" key="55" pan="0" len="24" vol="100"/>
          <note pos="360" key="57" pan="0" len="24" vol="100"/>
        </pattern>
        <pattern name="Dundundundundundun" pos="3264" type="1" muted="0" steps="16">
          <note pos="0" key="41" pan="0" len="24" vol="100"/>
          <note pos="24" key="41" pan="0" len="24" vol="100"/>
          <note pos="48" key="41" pan="0" len="24" vol="100"/>
          <note pos="72" key="41" pan="0" len="24" vol="100"/>
          <note pos="96" key="41" pan="0" len="24" vol="100"/>
          <note pos="120" key="41" pan="0" len="24" vol="100"/>
          <note pos="144" key="41" pan="0" len="24" vol="100"/>
          <note pos="168" key="41" pan="0" len="24" vol="100"/>
          <note pos="192" key="41" pan="0" len="24" vol="100"/>
          <note pos="216" key="41" pan="0" len="24" vol="100"/>
          <note pos="240" key="41" pan="0" len="24" vol="100"/>
          <note pos="264" key="41" pan="0" len="24" vol="100"/>
          <note pos="288" key="41" pan="0" len="24" vol="100"/>
          <note pos="312" key="41" pan="0" len="24" vol="100"/>
          <note pos="336" key="41" pan="0" len="24" vol="100"/>
          <note pos="360" key="41" pan="0" len="24" vol="100"/>
        </pattern>
        <pattern name="Dundundundundundun" pos="3648" type="1" muted="0" steps="16">
          <note pos="0" key="41" pan="0" len="24" vol="100"/>
          <note pos="24" key="41" pan="0" len="24" vol="100"/>
          <note pos="48" key="41" pan="0" len="24" vol="100"/>
          <note pos="72" key="41" pan="0" len="24" vol="100"/>
          <note pos="96" key="41" pan="0" len="24" vol="100"/>
          <note pos="120" key="41" pan="0" len="24" vol="100"/>
          <note pos="144" key="41" pan="0" len="24" vol="100"/>
          <note pos="168" key="41" pan="0" len="24" vol="100"/>
          <note pos="192" key="41" pan="0" len="24" vol="100"/>
          <note pos="216" key="41" pan="0" len="24" vol="100"/>
          <note pos="240" key="41" pan="0" len="24" vol="100"/>
          <note pos="264" key="41" pan="0" len="24" vol="100"/>
          <note pos="288" key="41" pan="0" len="24" vol="100"/>
          <note pos="312" key="41" pan="0" len="24" vol="100"/>
          <note pos="336" key="41" pan="0" len="24" vol="100"/>
          <note pos="360" key="41" pan="0" len="24" vol="100"/>
        </pattern>
        <pattern name="Dundundundundundun" pos="4032" type="1" muted="0" steps="16">
          <note pos="0" key="41" pan="0" len="24" vol="100"/>
          <note pos="24" key="41" pan="0" len="24" vol="100"/>
          <note pos="48" key="41" pan="0" len="24" vol="100"/>
          <note pos="72" key="41" pan="0" len="24" vol="100"/>
          <note pos="96" key="41" pan="0" len="24" vol="100"/>
          <note pos="120" key="41" pan="0" len="24" vol="100"/>
          <note pos="144" key="41" pan="0" len="24" vol="100"/>
          <note pos="168" key="41" pan="0" len="24" vol="100"/>
          <note pos="192" key="41" pan="0" len="24" vol="100"/>
          <note pos="216" key="41" pan="0" len="24" vol="100"/>
          <note pos="240" key="41" pan="0" len="24" vol="100"/>
          <note pos="264" key="41" pan="0" len="24" vol="100"/>
          <note pos="288" key="41" pan="0" len="24" vol="100"/>
          <note pos="312" key="41" pan="0" len="24" vol="100"/>
          <note pos="336" key="41" pan="0" len="24" vol="100"/>
          <note pos="360" key="41" pan="0" len="24" vol="100"/>
        </pattern>
        <pattern name="Dundundundundundun" pos="4416" type="1" muted="0" steps="16">
          <note pos="0" key="41" pan="0" len="24" vol="100"/>
          <note pos="24" key="41" pan="0" len="24" vol="100"/>
          <note pos="48" key="41" pan="0" len="24" vol="100"/>
          <note pos="72" key="41" pan="0" len="24" vol="100"/>
          <note pos="96" key="41" pan="0" len="24" vol="100"/>
          <note pos="120" key="41" pan="0" len="24" vol="100"/>
          <note pos="144" key="41" pan="0" len="24" vol="100"/>
          <note pos="168" key="41" pan="0" len="24" vol="100"/>
          <note pos="192" key="48" pan="0" len="24" vol="100"/>
          <note pos="216" key="48" pan="0" len="24" vol="100"/>
          <note pos="240" key="47" pan="0" len="24" vol="100"/>
          <note pos="264" key="48" pan="0" len="24" vol="100"/>
          <note pos="288" key="49" pan="0" len="24" vol="100"/>
          <note pos="312" key="50" pan="0" len="24" vol="100"/>
          <note pos="336" key="51" pan="0" len="24" vol="100"/>
          <note pos="360" key="52" pan="0" len="24" vol="100"/>
        </pattern>
        <pattern name="Dundundundundundun" pos="4800" type="1" muted="0" steps="16">
          <note pos="0" key="45" pan="0" len="24" vol="100"/>
          <note pos="24" key="45" pan="0" len="24" vol="100"/>
          <note pos="48" key="45" pan="0" len="24" vol="100"/>
          <note pos="72" key="45" pan="0" len="24" vol="100"/>
          <note pos="96" key="45" pan="0" len="24" vol="100"/>
          <note pos="120" key="45" pan="0" len="24" vol="100"/>
          <note pos="144" key="45" pan="0" len="24" vol="100"/>
          <note pos="168" key="45" pan="0" len="24" vol="100"/>
          <note pos="192" key="45" pan="0" len="24" vol="100"/>
          <note pos="216" key="45" pan="0" len="24" vol="100"/>
          <note pos="240" key="45" pan="0" len="24" vol="100"/>
          <note pos="264" key="48" pan="0" len="72" vol="100"/>
          <note pos="336" key="47" pan="0" len="48" vol="100"/>
        </pattern>
        <pattern name="Dundundundundundun" pos="5184" type="1" muted="0" steps="16">
          <note pos="0" key="45" pan="0" len="24" vol="100"/>
          <note pos="24" key="45" pan="0" len="24" vol="100"/>
          <note pos="48" key="45" pan="0" len="24" vol="100"/>
          <note pos="72" key="45" pan="0" len="24" vol="100"/>
          <note pos="96" key="45" pan="0" len="24" vol="100"/>
          <note pos="120" key="45" pan="0" len="24" vol="100"/>
          <note pos="144" key="45" pan="0" len="24" vol="100"/>
          <note pos="168" key="45" pan="0" len="24" vol="100"/>
          <note pos="192" key="45" pan="0" len="24" vol="100"/>
          <note pos="216" key="45" pan="0" len="24" vol="100"/>
          <note pos="240" key="45" pan="0" len="24" vol="100"/>
          <note pos="264" key="50" pan="0" len="72" vol="100"/>
          <note pos="336" key="52" pan="0" len="48" vol="100"/>
        </pattern>
        <pattern name="Dundundundundundun" pos="5568" type="1" muted="0" steps="16">
          <note pos="0" key="45" pan="0" len="24" vol="100"/>
          <note pos="24" key="45" pan="0" len="24" vol="100"/>
          <note pos="48" key="45" pan="0" len="24" vol="100"/>
          <note pos="72" key="45" pan="0" len="24" vol="100"/>
          <note pos="96" key="45" pan="0" len="24" vol="100"/>
          <note pos="120" key="45" pan="0" len="24" vol="100"/>
          <note pos="144" key="45" pan="0" len="24" vol="100"/>
          <note pos="168" key="45" pan="0" len="24" vol="100"/>
          <note pos="192" key="45" pan="0" len="24" vol="100"/>
          <note pos="216" key="45" pan="0" len="24" vol="100"/>
          <note pos="240" key="45" pan="0" len="24" vol="100"/>
          <note pos="264" key="48" pan="0" len="72" vol="100"/>
          <note pos="336" key="47" pan="0" len="48" vol="100"/>
        </pattern>
        <pattern name="Dundundundundundun" pos="5952" type="1" muted="0" steps="16">
          <note pos="0" key="45" pan="0" len="24" vol="100"/>
          <note pos="24" key="45" pan="0" len="24" vol="100"/>
          <note pos="48" key="45" pan="0" len="24" vol="100"/>
          <note pos="72" key="45" pan="0" len="24" vol="100"/>
          <note pos="96" key="45" pan="0" len="24" vol="100"/>
          <note pos="120" key="45" pan="0" len="24" vol="100"/>
          <note pos="144" key="45" pan="0" len="24" vol="100"/>
          <note pos="168" key="45" pan="0" len="24" vol="100"/>
          <note pos="192" key="45" pan="0" len="24" vol="100"/>
          <note pos="216" key="45" pan="0" len="24" vol="100"/>
          <note pos="240" key="45" pan="0" len="24" vol="100"/>
          <note pos="264" key="48" pan="0" len="24" vol="100"/>
          <note pos="288" key="50" pan="0" len="24" vol="100"/>
          <note pos="312" key="52" pan="0" len="24" vol="100"/>
          <note pos="336" key="55" pan="0" len="24" vol="100"/>
          <note pos="360" key="57" pan="0" len="24" vol="100"/>
        </pattern>
        <pattern name="Dundundundundundun" pos="6336" type="1" muted="0" steps="16">
          <note pos="0" key="41" pan="0" len="24" vol="100"/>
          <note pos="24" key="41" pan="0" len="24" vol="100"/>
          <note pos="48" key="41" pan="0" len="24" vol="100"/>
          <note pos="72" key="41" pan="0" len="24" vol="100"/>
          <note pos="96" key="41" pan="0" len="24" vol="100"/>
          <note pos="120" key="41" pan="0" len="24" vol="100"/>
          <note pos="144" key="41" pan="0" len="24" vol="100"/>
          <note pos="168" key="41" pan="0" len="24" vol="100"/>
          <note pos="192" key="41" pan="0" len="24" vol="100"/>
          <note pos="216" key="41" pan="0" len="24" vol="100"/>
          <note pos="240" key="41" pan="0" len="24" vol="100"/>
          <note pos="264" key="41" pan="0" len="24" vol="100"/>
          <note pos="288" key="41" pan="0" len="24" vol="100"/>
          <note pos="312" key="41" pan="0" len="24" vol="100"/>
          <note pos="336" key="41" pan="0" len="24" vol="100"/>
          <note pos="360" key="41" pan="0" len="24" vol="100"/>
        </pattern>
        <pattern name="Dundundundundundun" pos="6720" type="1" muted="0" steps="16">
          <note pos="0" key="41" pan="0" len="24" vol="100"/>
          <note pos="24" key="41" pan="0" len="24" vol="100"/>
          <note pos="48" key="41" pan="0" len="24" vol="100"/>
          <note pos="72" key="41" pan="0" len="24" vol="100"/>
          <note pos="96" key="41" pan="0" len="24" vol="100"/>
          <note pos="120" key="41" pan="0" len="24" vol="100"/>
          <note pos="144" key="41" pan="0" len="24" vol="100"/>
          <note pos="168" key="41" pan="0" len="24" vol="100"/>
          <note pos="192" key="41" pan="0" len="24" vol="100"/>
          <note pos="216" key="41" pan="0" len="24" vol="100"/>
          <note pos="240" key="41" pan="0" len="24" vol="100"/>
          <note pos="264" key="41" pan="0" len="24" vol="100"/>
          <note pos="288" key="41" pan="0" len="24" vol="100"/>
          <note pos="312" key="41" pan="0" len="24" vol="100"/>
          <note pos="336" key="41" pan="0" len="24" vol="100"/>
          <note pos="360" key="41" pan="0" len="24" vol="100"/>
        </pattern>
        <pattern name="Dundundundundundun" pos="7104" type="1" muted="0" steps="16">
          <note pos="0" key="41" pan="0" len="24" vol="100"/>
          <note pos="24" key="41" pan="0" len="24" vol="100"/>
          <note pos="48" key="41" pan="0" len="24" vol="100"/>
          <note pos="72" key="41" pan="0" len="24" vol="100"/>
          <note pos="96" key="41" pan="0" len="24" vol="100"/>
          <note pos="120" key="41" pan="0" len="24" vol="100"/>
          <note pos="144" key="41" pan="0" len="24" vol="100"/>
          <note pos="168" key="41" pan="0" len="24" vol="100"/>
          <note pos="192" key="41" pan="0" len="24" vol="100"/>
          <note pos="216" key="41" pan="0" len="24" vol="100"/>
          <note pos="240" key="41" pan="0" len="24" vol="100"/>
          <note pos="264" key="41" pan="0" len="24" vol="100"/>
          <note pos="288" key="41" pan="0" len="24" vol="100"/>
          <note pos="312" key="41" pan="0" len="24" vol="100"/>
          <note pos="336" key="41" pan="0" len="24" vol="100"/>
          <note pos="360" key="41" pan="0" len="24" vol="100"/>
        </pattern>
        <pattern name="Dundundundundundun" pos="7488" type="1" muted="0" steps="16">
          <note pos="0" key="41" pan="0" len="24" vol="100"/>
          <note pos="24" key="41" pan="0" len="24" vol="100"/>
          <note pos="48" key="41" pan="0" len="24" vol="100"/>
          <note pos="72" key="41" pan="0" len="24" vol="100"/>
          <note pos="96" key="41" pan="0" len="24" vol="100"/>
          <note pos="120" key="41" pan="0" len="24" vol="100"/>
          <note pos="144" key="41" pan="0" len="24" vol="100"/>
          <note pos="168" key="41" pan="0" len="24" vol="100"/>
          <note pos="192" key="48" pan="0" len="24" vol="100"/>
          <note pos="216" key="48" pan="0" len="24" vol="100"/>
          <note pos="240" key="47" pan="0" len="25" vol="100"/>
          <note pos="264" key="48" pan="0" len="24" vol="100"/>
          <note pos="288" key="49" pan="0" len="24" vol="100"/>
          <note pos="312" key="50" pan="0" len="24" vol="100"/>
          <note pos="336" key="51" pan="0" len="24" vol="100"/>
          <note pos="360" key="52" pan="0" len="24" vol="100"/>
        </pattern>
        <pattern name="Dundundundundundun" pos="7872" type="1" muted="0" steps="16">
          <note pos="0" key="48" pan="0" len="24" vol="100"/>
          <note pos="24" key="48" pan="0" len="24" vol="100"/>
          <note pos="48" key="48" pan="0" len="24" vol="100"/>
          <note pos="72" key="48" pan="0" len="24" vol="100"/>
          <note pos="96" key="48" pan="0" len="24" vol="100"/>
          <note pos="120" key="48" pan="0" len="24" vol="100"/>
          <note pos="144" key="48" pan="0" len="24" vol="100"/>
          <note pos="168" key="48" pan="0" len="24" vol="100"/>
          <note pos="192" key="48" pan="0" len="24" vol="100"/>
          <note pos="216" key="48" pan="0" len="24" vol="100"/>
          <note pos="240" key="48" pan="0" len="24" vol="100"/>
          <note pos="264" key="48" pan="0" len="24" vol="100"/>
          <note pos="288" key="48" pan="0" len="24" vol="100"/>
          <note pos="312" key="48" pan="0" len="24" vol="100"/>
          <note pos="336" key="48" pan="0" len="24" vol="100"/>
          <note pos="360" key="48" pan="0" len="24" vol="100"/>
        </pattern>
        <pattern name="Dundundundundundun" pos="8256" type="1" muted="0" steps="16">
          <note pos="0" key="46" pan="0" len="24" vol="100"/>
          <note pos="24" key="46" pan="0" len="24" vol="100"/>
          <note pos="48" key="46" pan="0" len="24" vol="100"/>
          <note pos="72" key="46" pan="0" len="24" vol="100"/>
          <note pos="96" key="46" pan="0" len="24" vol="100"/>
          <note pos="120" key="46" pan="0" len="24" vol="100"/>
          <note pos="144" key="46" pan="0" len="24" vol="100"/>
          <note pos="168" key="46" pan="0" len="24" vol="100"/>
          <note pos="192" key="46" pan="0" len="24" vol="100"/>
          <note pos="216" key="46" pan="0" len="24" vol="100"/>
          <note pos="240" key="46" pan="0" len="24" vol="100"/>
          <note pos="264" key="46" pan="0" len="24" vol="100"/>
          <note pos="288" key="46" pan="0" len="24" vol="100"/>
          <note pos="312" key="46" pan="0" len="24" vol="100"/>
          <note pos="336" key="46" pan="0" len="24" vol="100"/>
          <note pos="360" key="46" pan="0" len="24" vol="100"/>
        </pattern>
        <pattern name="Dundundundundundun" pos="8640" type="1" muted="0" steps="16">
          <note pos="0" key="44" pan="0" len="24" vol="100"/>
          <note pos="24" key="44" pan="0" len="24" vol="100"/>
          <note pos="48" key="44" pan="0" len="24" vol="100"/>
          <note pos="72" key="44" pan="0" len="24" vol="100"/>
          <note pos="96" key="44" pan="0" len="24" vol="100"/>
          <note pos="120" key="44" pan="0" len="24" vol="100"/>
          <note pos="144" key="44" pan="0" len="24" vol="100"/>
          <note pos="168" key="44" pan="0" len="24" vol="100"/>
          <note pos="192" key="44" pan="0" len="24" vol="100"/>
          <note pos="216" key="44" pan="0" len="24" vol="100"/>
          <note pos="240" key="44" pan="0" len="24" vol="100"/>
          <note pos="264" key="44" pan="0" len="24" vol="100"/>
          <note pos="288" key="44" pan="0" len="24" vol="100"/>
          <note pos="312" key="44" pan="0" len="24" vol="100"/>
          <note pos="336" key="44" pan="0" len="24" vol="100"/>
          <note pos="360" key="44" pan="0" len="24" vol="100"/>
        </pattern>
        <pattern name="Dundundundundundun" pos="9024" type="1" muted="0" steps="16">
          <note pos="0" key="43" pan="0" len="24" vol="100"/>
          <note pos="24" key="43" pan="0" len="24" vol="100"/>
          <note pos="48" key="43" pan="0" len="24" vol="100"/>
          <note pos="72" key="43" pan="0" len="24" vol="100"/>
          <note pos="96" key="43" pan="0" len="24" vol="100"/>
          <note pos="120" key="43" pan="0" len="24" vol="100"/>
          <note pos="144" key="43" pan="0" len="24" vol="100"/>
          <note pos="168" key="43" pan="0" len="24" vol="100"/>
          <note pos="216" key="43" pan="0" len="36" vol="100"/>
          <note pos="288" key="43" pan="0" len="48" vol="100"/>
          <note pos="336" key="44" pan="0" len="24" vol="100"/>
          <note pos="360" key="44" pan="0" len="24" vol="100"/>
        </pattern>
        <pattern name="Dundundundundundun" pos="9408" type="1" muted="0" steps="16">
          <note pos="0" key="45" pan="0" len="24" vol="100"/>
          <note pos="24" key="45" pan="0" len="24" vol="100"/>
          <note pos="48" key="45" pan="0" len="24" vol="100"/>
          <note pos="72" key="45" pan="0" len="24" vol="100"/>
          <note pos="96" key="45" pan="0" len="24" vol="100"/>
          <note pos="120" key="45" pan="0" len="24" vol="100"/>
          <note pos="144" key="45" pan="0" len="24" vol="100"/>
          <note pos="168" key="45" pan="0" len="24" vol="100"/>
          <note pos="192" key="45" pan="0" len="24" vol="100"/>
          <note pos="216" key="45" pan="0" len="24" vol="100"/>
          <note pos="240" key="45" pan="0" len="24" vol="100"/>
          <note pos="264" key="45" pan="0" len="24" vol="100"/>
          <note pos="288" key="45" pan="0" len="24" vol="100"/>
          <note pos="312" key="45" pan="0" len="24" vol="100"/>
          <note pos="336" key="45" pan="0" len="24" vol="100"/>
          <note pos="360" key="45" pan="0" len="24" vol="100"/>
        </pattern>
        <pattern name="Dundundundundundun" pos="9792" type="1" muted="0" steps="16">
          <note pos="0" key="43" pan="0" len="24" vol="100"/>
          <note pos="24" key="43" pan="0" len="24" vol="100"/>
          <note pos="48" key="43" pan="0" len="24" vol="100"/>
          <note pos="72" key="43" pan="0" len="24" vol="100"/>
          <note pos="96" key="43" pan="0" len="24" vol="100"/>
          <note pos="120" key="43" pan="0" len="24" vol="100"/>
          <note pos="144" key="43" pan="0" len="24" vol="100"/>
          <note pos="168" key="43" pan="0" len="24" vol="100"/>
          <note pos="192" key="43" pan="0" len="24" vol="100"/>
          <note pos="216" key="43" pan="0" len="24" vol="100"/>
          <note pos="240" key="43" pan="0" len="24" vol="100"/>
          <note pos="264" key="43" pan="0" len="24" vol="100"/>
          <note pos="288" key="43" pan="0" len="24" vol="100"/>
          <note pos="312" key="43" pan="0" len="24" vol="100"/>
          <note pos="336" key="43" pan="0" len="24" vol="100"/>
          <note pos="360" key="43" pan="0" len="24" vol="100"/>
        </pattern>
        <pattern name="Dundundundundundun" pos="10176" type="1" muted="0" steps="16">
          <note pos="0" key="41" pan="0" len="24" vol="100"/>
          <note pos="24" key="41" pan="0" len="24" vol="100"/>
          <note pos="48" key="41" pan="0" len="24" vol="100"/>
          <note pos="72" key="41" pan="0" len="24" vol="100"/>
          <note pos="96" key="41" pan="0" len="24" vol="100"/>
          <note pos="120" key="41" pan="0" len="24" vol="100"/>
          <note pos="144" key="41" pan="0" len="24" vol="100"/>
          <note pos="168" key="41" pan="0" len="24" vol="100"/>
          <note pos="192" key="41" pan="0" len="24" vol="100"/>
          <note pos="216" key="41" pan="0" len="24" vol="100"/>
          <note pos="240" key="41" pan="0" len="24" vol="100"/>
          <note pos="264" key="41" pan="0" len="24" vol="100"/>
          <note pos="288" key="41" pan="0" len="24" vol="100"/>
          <note pos="312" key="41" pan="0" len="24" vol="100"/>
          <note pos="336" key="41" pan="0" len="24" vol="100"/>
          <note pos="360" key="41" pan="0" len="24" vol="100"/>
        </pattern>
        <pattern name="Dundundundundundun" pos="10560" type="1" muted="0" steps="16">
          <note pos="24" key="40" pan="0" len="24" vol="100"/>
          <note pos="96" key="40" pan="0" len="96" vol="100"/>
          <note pos="216" key="40" pan="0" len="24" vol="100"/>
          <note pos="264" key="40" pan="0" len="48" vol="100"/>
          <note pos="312" key="43" pan="0" len="24" vol="100"/>
          <note pos="336" key="43" pan="0" len="24" vol="100"/>
          <note pos="360" key="43" pan="0" len="24" vol="100"/>
        </pattern>
      </track>
      <track name="Lead" type="0" muted="0" solo="0">
        <instrumenttrack fxch="0" pitchrange="1" basenote="57" pitch="0" pan="27.4" usemasterpitch="1" vol="120.9">
          <instrument name="vestige">
            <vestige program="0" plugin="Synth1 - 1.13 beta3/Synth1 VST64.dll" guivisible="0" chunk="U3ludGgxIFZTVCBDaHVuayBEYXRhAAAAAAAAAAAAAAACAAAAAAAAAAAAAAAAAAAAAAAAAAAAAAAAAAAAAAAAAAAAAAAAAAAAAAAAAAAAAAAAAAAAAAAAAAAAAAAAAAAAAAAAAAAAAAAAAAAAAAAAAAAAAAAAAAAAAAAAAAAAAAAAAAAAAAAAAAAAAAAAAAAAAAAAAAAAAAAAAAAAAAAAAAAAAAAAAAAAAAAAAAAAAAAAAAAAAAAAAAAAAAAAAAAAAAAAAAAAAAAAAAAAAAAAAAAAAAAAAAAAAAAAAAAAAAAAAAAAAAAAAAAAAAAAAAAAAAAAAAAAAAAAAAAAAAAAAAAAAAAAAAAAAAAAAAAAAAAAAAAAAAAAAAAAAAAAAAAAAAAAAAAAAAAAAAAAAAAAAAAAAAAAAAAAAAAAAAAAAAAAAAAAAAAAAAAAAAAAAAAAAAAAAAAAAAAAAAAAAAAAAAAAAAAAAAAAAAAAAAAAAAAAAAAAAAAAAAAAAAAAAAAAAAAAAAAAAAAAAAAAAAAAAAAAAAAAAAAAAAAAAAAAAAAAAAAAAAAAAAAAAAAAAAAAAAAAAAAAAAAAAAAAAAAAAAAAAAAAAAAAAAAAAAAAAAAAAAAAAAAAAAAAAAAAAAAAAAAAAAAAAAAAAAAAAAAAAAAAAAAAAAAAAAAAAAAAAAAAAAAAAAAAAAAAAAAAAAAAAAAAAAAAAAAAAAAAAAAAAAAAAAAAAAAAAAAAAAAAAABxAAAAAAEAAAEAAAABAAAAAQAAAAEAAAABAAAAQAAAAAEAAABGAAAAAQAAAAEAAAABAAAACwAAAAEAAAAAAAAAAQAAAAAAAAABAAAAfwAAAAEAAAAAAAAAAQAAAAAAAAABAAAAQAAAAAEAAAAAAAAAAQAAAAAAAAABAAAAAQAAAAEAAAAhAAAAAQAAAEQAAAABAAAAOQAAAAEAAAA+AAAAAQAAAF0AAAABAAAADgAAAAEAAABIAAAAAQAAAFoAAAABAAAAAAAAAAEAAAABAAAAAQAAABgAAAABAAAAPgAAAAEAAAB/AAAAAQAAACcAAAABAAAAVwAAAAEAAAAWAAAAAQAAAAEAAAABAAAAAAAAAAEAAAAKAAAAAQAAAEAAAAABAAAACAAAAAEAAAAoAAAAAQAAAA4AAAABAAAAAgAAAAEAAAASAAAAAQAAAAwAAAABAAAAAQAAAAEAAAABAAAAAQAAAEcAAAABAAAAAgAAAAEAAAAAAAAAAQAAAAUAAAABAAAAAQAAAAEAAABBAAAAAQAAAEAAAAABAAAAfgAAAAEAAABbAAAAAQAAAEAAAAABAAAAQAAAAAEAAAAyAAAAAQAAAEAAAAABAAAAPgAAAAEAAAABAAAAAQAAAAAAAAABAAAAAAAAAAEAAABAAAAAAQAAAEAAAAABAAAAQAAAAAEAAABAAAAAAQAAAAQAAAABAAAAAQAAAAEAAAABAAAAAQAAAAAAAAABAAAAAAAAAAEAAAAAAAAAAQAAAAAAAAABAAAAAAAAAAEAAABAAAAAAQAAAAAAAAABAAAAAAAAAAEAAABGAAAAAQAAAAAAAAABAAAAAAAAAAEAAAAAAAAAAQAAAEAAAAABAAAAQAAAAAEAAABAAAAAAQAAAAAAAAABAAAAQgAAAAEAAABAAAAAAQAAABgAAAABAAAAAbAAAAEAAAAsAAAAAQAAAAGwAAABAAAAKwAAAAEAAABAAAAAAQAAAAAAAAABAAAAAAAAAAEAAAAEAAAAAQAAABAAAAABAAAAAAAAAAEAAAABAAAAAQAAAAEAAAABAAAAQAAAAAAAAAAAAAAAAAAAAAAAAAAAAAAAAAAAAAAAAAAAAAAAAAAAAAAAAAAAAAAAAAAAAAAAAAAAAAAAAAAAAAAAAAAAAAAAAAAAAAAAAAAAAAAAAAAAAAAAAAAAAAAAAAAAAAAAAAAAAAAAAAAAAAAAAAAAAAAAAAAAAAAAAAAAAAAAAAAAAAAAAAAAAAAAAAAAAAAAAAAAAAAAAAAAAAAAAAAAAAAAAAAAAAAAAAAAAAAAAAAAAAAAAAAAAAAAAAAAAAAAAAAAAAAAAAAAAAAAAAAAAAAAAAAAAAAAAAAAAAAAAAAAAAAAAAAAAAAAAAAAAAAAAAAAAAAAAAAAAAAAAAAAAAAAAAAAAAAAAAAAAAAAAAAAAAAAAAAAAAAAAAAAAAAAAAAAAAAAAAAAAAAAAAAAAAAAAAAAAAAAAAAAAAAAAAAAAAAAAAAAAAAAAAAAAAAAAAAAAAAAAAAAAAAAAAAAAAAAAAAAAAAAAAAAAAAAAAAAAAAAAAAAAAAAAAAAAAAAAAAAAAAAAAAAAAAAAAAAAAAAAAAAAAAAAAAAAAAAAAAAAAAAAAAAAAAAAAAAAAAAAAAAAAAAAAAAAAAAAAAAAAAAAAAAAAAAAAAAAAAAAAAAAAAAAAAAAAAAAAAAAAAAAAAAAAAAAAAAAAAAAAAAAAAAAAAAAAAAAAAAAAAAAAAAAAAAAAAAAAAAAAAAAAAAAAAAAAAAAAAAAAAAAAAAAAAAAAAAAAAAAAAAAAAAAAAAAAAAAAAAAAAAAAAAAAAAAAAAAAAAAAAAAAAAAAAAAAAAAAAAAAAAAAAAAAAAAAAAAAAAAAAAAAAAAAAAAAAAAAAAAAAAAAAAAAAAAAAAAAAAAAAAAAAAAAAAAAAAAAAAAAAAAAAAAAAAAAAAAAAAAAAAAAAAAAAAAAAAAAAAAAAAAAAAAAAAAAAAAAAAAAAAAAAAAAAAAAAAAAAAAAAAAAAAAAAAAAAAAAAAAAAAAAAAAAAAAAAAAAAAAAAAAAAAAAAAAAAAAAAAAAAAAAAAAAAAAAAAAAAAAAAAAAAAAAAAAAAAAAAAAAAAAAAAAAAAAAAAAAAAAAAAAAAAAAAAAAAAAAAAAAAAAAAAAAAAAAAAAAAAAAAAAAAAAAAAAAAAAAAAAAAAAAAAAAAAAAAAAAAAAAAAAAAAAAAAAAAAAAAAAAAAAAAAAAAAAAAAAAAAAAAAAAAAAAAAAAAAAAAAAAAAAAAAAAAAAAAAAAAAAAAAAAAAAAAAAAAAAAAAAAAAAAAAAAAAAAAAAAAAAAAAAAAAAAAAAAAAAAAAAAAAAAAAAAAAAAAAAAAAAAAAAAAAAAAAAAAAAAAAAAAAAAAAAAAAAAAAAAAAAAAAAAAAAAAAAAAAAAAAAAAAAAAAAAAAAAAAAAAAAAAAAAAAAAAAAAAAAAAAAAAAAAAAAAAAAAAAAAAAAAAAAAAAAAAAAAAAAAAAAAAAAAAAAAAAAAAAAAAAAAAAAAAAAAAAAAAAAAAAAAAAAAAAAAAAAAAAAAAAAAAAAAAAAAAAAAAAAAAAAAAAAAAAAAAAAAAAAAAAAAAAAAAAAAAAAAAAAAAAAAAAAAAAAAAAAAAAAAAAAAAAAAAAAAAAAQAAAHEAAAABAAAAAwAAAAEAAABRAAAAAAAAAAAAAAABAAAAQAAAAAAAAAAAAAAAAAAAAAAAAAA="/>
          </instrument>
          <eldata ftype="0" fcut="14000" fwet="0" fres="0.5">
            <elvol lspd="0.1" lspd_numerator="4" ctlenvamt="0" dec="0.5" pdel="0" sustain="0.5" lspd_denominator="4" latt="0" lamt="0" rel="0.1" userwavefile="" lshp="0" lspd_syncmode="0" att="0" lpdel="0" hold="0.5" amt="0" x100="0"/>
            <elcut lspd="0.1" lspd_numerator="4" ctlenvamt="0" dec="0.5" pdel="0" sustain="0.5" lspd_denominator="4" latt="0" lamt="0" rel="0.1" userwavefile="" lshp="0" lspd_syncmode="0" att="0" lpdel="0" hold="0.5" amt="0" x100="0"/>
            <elres lspd="0.1" lspd_numerator="4" ctlenvamt="0" dec="0.5" pdel="0" sustain="0.5" lspd_denominator="4" latt="0" lamt="0" rel="0.1" userwavefile="" lshp="0" lspd_syncmode="0" att="0" lpdel="0" hold="0.5" amt="0" x100="0"/>
          </eldata>
          <chordcreator chord="0" chord-enabled="0" chordrange="1"/>
          <arpeggiator arptime_syncmode="0" arprange="1" arptime_numerator="4" arptime_denominator="4" arp="0" arpskip="0" arp-enabled="0" arpcycle="0" arpmiss="0" arpdir="0" arptime="200" arpmode="0" arpgate="100"/>
          <midiport fixedoutputvelocity="-1" writable="0" outputchannel="1" readable="0" inputchannel="0" inputcontroller="0" outputcontroller="0" outputprogram="1" basevelocity="63" fixedinputvelocity="-1" fixedoutputnote="-1"/>
          <fxchain enabled="0" numofeffects="0"/>
        </instrumenttrack>
        <pattern name="Lead" pos="192" type="1" muted="0" steps="16">
          <note pos="24" key="64" pan="0" len="24" vol="100"/>
          <note pos="48" key="62" pan="0" len="24" vol="100"/>
          <note pos="96" key="64" pan="0" len="24" vol="100"/>
          <note pos="120" key="62" pan="0" len="24" vol="100"/>
          <note pos="168" key="64" pan="0" len="24" vol="100"/>
          <note pos="216" key="64" pan="0" len="24" vol="100"/>
          <note pos="240" key="62" pan="0" len="24" vol="100"/>
          <note pos="264" key="67" pan="0" len="72" vol="100"/>
          <note pos="336" key="65" pan="0" len="48" vol="100"/>
          <note pos="408" key="64" pan="0" len="24" vol="100"/>
          <note pos="432" key="62" pan="0" len="24" vol="100"/>
          <note pos="480" key="64" pan="0" len="24" vol="100"/>
          <note pos="504" key="62" pan="0" len="24" vol="100"/>
          <note pos="552" key="64" pan="0" len="24" vol="100"/>
          <note pos="600" key="64" pan="0" len="24" vol="100"/>
          <note pos="624" key="62" pan="0" len="24" vol="100"/>
          <note pos="648" key="65" pan="0" len="72" vol="100"/>
          <note pos="720" key="67" pan="0" len="48" vol="100"/>
          <note pos="792" key="64" pan="0" len="24" vol="100"/>
          <note pos="816" key="62" pan="0" len="24" vol="100"/>
          <note pos="864" key="64" pan="0" len="24" vol="100"/>
          <note pos="888" key="62" pan="0" len="24" vol="100"/>
          <note pos="936" key="64" pan="0" len="24" vol="100"/>
          <note pos="984" key="64" pan="0" len="24" vol="100"/>
          <note pos="1008" key="62" pan="0" len="24" vol="100"/>
          <note pos="1032" key="67" pan="0" len="72" vol="100"/>
          <note pos="1104" key="65" pan="0" len="48" vol="100"/>
          <note pos="1176" key="64" pan="0" len="24" vol="100"/>
          <note pos="1200" key="62" pan="0" len="24" vol="100"/>
          <note pos="1248" key="64" pan="0" len="24" vol="100"/>
          <note pos="1272" key="62" pan="0" len="24" vol="100"/>
          <note pos="1320" key="67" pan="0" len="24" vol="100"/>
          <note pos="1368" key="69" pan="0" len="24" vol="100"/>
          <note pos="1416" key="60" pan="0" len="24" vol="100"/>
          <note pos="1440" key="62" pan="0" len="24" vol="100"/>
          <note pos="1464" key="64" pan="0" len="24" vol="100"/>
          <note pos="1488" key="67" pan="0" len="24" vol="100"/>
          <note pos="1512" key="69" pan="0" len="24" vol="100"/>
        </pattern>
        <pattern name="Lead" pos="1728" type="1" muted="0" steps="16">
          <note pos="24" key="64" pan="0" len="24" vol="100"/>
          <note pos="48" key="62" pan="0" len="24" vol="100"/>
          <note pos="96" key="64" pan="0" len="24" vol="100"/>
          <note pos="120" key="62" pan="0" len="24" vol="100"/>
          <note pos="168" key="64" pan="0" len="24" vol="100"/>
          <note pos="216" key="64" pan="0" len="24" vol="100"/>
          <note pos="240" key="62" pan="0" len="24" vol="100"/>
          <note pos="264" key="67" pan="0" len="72" vol="100"/>
          <note pos="336" key="65" pan="0" len="48" vol="100"/>
          <note pos="408" key="64" pan="0" len="24" vol="100"/>
          <note pos="432" key="62" pan="0" len="24" vol="100"/>
          <note pos="480" key="64" pan="0" len="24" vol="100"/>
          <note pos="504" key="62" pan="0" len="24" vol="100"/>
          <note pos="552" key="64" pan="0" len="24" vol="100"/>
          <note pos="600" key="64" pan="0" len="24" vol="100"/>
          <note pos="624" key="62" pan="0" len="24" vol="100"/>
          <note pos="648" key="65" pan="0" len="72" vol="100"/>
          <note pos="720" key="67" pan="0" len="48" vol="100"/>
          <note pos="792" key="64" pan="0" len="24" vol="100"/>
          <note pos="816" key="62" pan="0" len="24" vol="100"/>
          <note pos="864" key="64" pan="0" len="24" vol="100"/>
          <note pos="888" key="62" pan="0" len="24" vol="100"/>
          <note pos="936" key="64" pan="0" len="24" vol="100"/>
          <note pos="984" key="64" pan="0" len="24" vol="100"/>
          <note pos="1008" key="62" pan="0" len="24" vol="100"/>
          <note pos="1032" key="67" pan="0" len="72" vol="100"/>
          <note pos="1104" key="65" pan="0" len="48" vol="100"/>
          <note pos="1176" key="64" pan="0" len="24" vol="100"/>
          <note pos="1200" key="62" pan="0" len="24" vol="100"/>
          <note pos="1248" key="64" pan="0" len="24" vol="100"/>
          <note pos="1272" key="62" pan="0" len="24" vol="100"/>
          <note pos="1320" key="67" pan="0" len="24" vol="100"/>
          <note pos="1368" key="69" pan="0" len="24" vol="100"/>
          <note pos="1416" key="60" pan="0" len="24" vol="100"/>
          <note pos="1440" key="62" pan="0" len="24" vol="100"/>
          <note pos="1464" key="64" pan="0" len="24" vol="100"/>
          <note pos="1488" key="67" pan="0" len="24" vol="100"/>
          <note pos="1512" key="69" pan="0" len="24" vol="100"/>
        </pattern>
        <pattern name="Lead" pos="4800" type="1" muted="0" steps="16">
          <note pos="24" key="64" pan="0" len="24" vol="100"/>
          <note pos="48" key="62" pan="0" len="24" vol="100"/>
          <note pos="96" key="64" pan="0" len="24" vol="100"/>
          <note pos="120" key="62" pan="0" len="24" vol="100"/>
          <note pos="168" key="64" pan="0" len="24" vol="100"/>
          <note pos="216" key="64" pan="0" len="24" vol="100"/>
          <note pos="240" key="62" pan="0" len="24" vol="100"/>
          <note pos="264" key="67" pan="0" len="72" vol="100"/>
          <note pos="336" key="65" pan="0" len="48" vol="100"/>
          <note pos="408" key="64" pan="0" len="24" vol="100"/>
          <note pos="432" key="62" pan="0" len="24" vol="100"/>
          <note pos="480" key="64" pan="0" len="24" vol="100"/>
          <note pos="504" key="62" pan="0" len="24" vol="100"/>
          <note pos="552" key="64" pan="0" len="24" vol="100"/>
          <note pos="600" key="64" pan="0" len="24" vol="100"/>
          <note pos="624" key="62" pan="0" len="24" vol="100"/>
          <note pos="648" key="65" pan="0" len="72" vol="100"/>
          <note pos="720" key="67" pan="0" len="48" vol="100"/>
          <note pos="792" key="64" pan="0" len="24" vol="100"/>
          <note pos="816" key="62" pan="0" len="24" vol="100"/>
          <note pos="864" key="64" pan="0" len="24" vol="100"/>
          <note pos="888" key="62" pan="0" len="24" vol="100"/>
          <note pos="936" key="64" pan="0" len="24" vol="100"/>
          <note pos="984" key="64" pan="0" len="24" vol="100"/>
          <note pos="1008" key="62" pan="0" len="24" vol="100"/>
          <note pos="1032" key="67" pan="0" len="72" vol="100"/>
          <note pos="1104" key="65" pan="0" len="48" vol="100"/>
          <note pos="1176" key="64" pan="0" len="24" vol="100"/>
          <note pos="1200" key="62" pan="0" len="24" vol="100"/>
          <note pos="1248" key="64" pan="0" len="24" vol="100"/>
          <note pos="1272" key="62" pan="0" len="24" vol="100"/>
          <note pos="1320" key="67" pan="0" len="24" vol="100"/>
          <note pos="1368" key="69" pan="0" len="24" vol="100"/>
          <note pos="1416" key="60" pan="0" len="24" vol="100"/>
          <note pos="1440" key="62" pan="0" len="24" vol="100"/>
          <note pos="1464" key="64" pan="0" len="24" vol="100"/>
          <note pos="1488" key="67" pan="0" len="24" vol="100"/>
          <note pos="1512" key="69" pan="0" len="24" vol="100"/>
        </pattern>
      </track>
      <track name="Slidey Thing" type="0" muted="0" solo="0">
        <instrumenttrack fxch="4" pitchrange="1" basenote="45" pitch="0" pan="-17.4" usemasterpitch="1" vol="104.3">
          <instrument name="vestige">
            <vestige program="0" plugin="Synth1 - 1.13 beta3/Synth1 VST64.dll" guivisible="0" chunk="U3ludGgxIFZTVCBDaHVuayBEYXRhAAAAAAAAAAAAAAACAAAAAAAAAAAAAAAAAAAAAAAAAAAAAAAAAAAAAAAAAAAAAAAAAAAAAAAAAAAAAAAAAAAAAAAAAAAAAAAAAAAAAAAAAAAAAAAAAAAAAAAAAAAAAAAAAAAAAAAAAAAAAAAAAAAAAAAAAAAAAAAAAAAAAAAAAAAAAAAAAAAAAAAAAAAAAAAAAAAAAAAAAAAAAAAAAAAAAAAAAAAAAAAAAAAAAAAAAAAAAAAAAAAAAAAAAAAAAAAAAAAAAAAAAAAAAAAAAAAAAAAAAAAAAAAAAAAAAAAAAAAAAAAAAAAAAAAAAAAAAAAAAAAAAAAAAAAAAAAAAAAAAAAAAAAAAAAAAAAAAAAAAAAAAAAAAAAAAAAAAAAAAAAAAAAAAAAAAAAAAAAAAAAAAAAAAAAAAAAAAAAAAAAAAAAAAAAAAAAAAAAAAAAAAAAAAAAAAAAAAAAAAAAAAAAAAAAAAAAAAAAAAAAAAAAAAAAAAAAAAAAAAAAAAAAAAAAAAAAAAAAAAAAAAAAAAAAAAAAAAAAAAAAAAAAAAAAAAAAAAAAAAAAAAAAAAAAAAAAAAAAAAAAAAAAAAAAAAAAAAAAAAAAAAAAAAAAAAAAAAAAAAAAAAAAAAAAAAAAAAAAAAAAAAAAAAAAAAAAAAAAAAAAAAAAAAAAAAAAAAAAAAAAAAAAAAAAAAAAAAAAAAAAAAAAAAAAAAAAAAABxAAAAAAEAAAEAAAABAAAAAQAAAAIAAAABAAAAQAAAAAEAAABMAAAAAQAAAAEAAAABAAAASAAAAAEAAAAAAAAAAQAAAAAAAAABAAAAXAAAAAEAAAAAAAAAAQAAAAAAAAABAAAARgAAAAEAAAB8AAAAAQAAAEkAAAABAAAAAQAAAAEAAABUAAAAAQAAADoAAAABAAAAFwAAAAEAAABXAAAAAQAAAF0AAAABAAAAAAAAAAEAAAB8AAAAAQAAAFAAAAABAAAAfAAAAAEAAAABAAAAAQAAACYAAAABAAAAXAAAAAEAAAB3AAAAAQAAAAgAAAABAAAAQQAAAAEAAAATAAAAAQAAAAQAAAABAAAAAwAAAAEAAAAPAAAAAQAAAFAAAAABAAAACAAAAAEAAAAbAAAAAQAAAA0AAAABAAAAAAAAAAEAAAAaAAAAAQAAAAYAAAABAAAAAgAAAAEAAAABAAAAAQAAAE8AAAABAAAAAAAAAAEAAAAAAAAAAQAAAAEAAAABAAAAAwAAAAEAAAAXAAAAAQAAAEEAAAABAAAAfAAAAAEAAABAAAAAAQAAADoAAAABAAAAKQAAAAEAAAAPAAAAAQAAAEAAAAABAAAAIAAAAAEAAAAAAAAAAQAAAAAAAAABAAAAAAAAAAEAAAAxAAAAAQAAAG4AAAABAAAASgAAAAEAAAA6AAAAAQAAAAQAAAABAAAAAQAAAAEAAAAAAAAAAQAAAAAAAAABAAAAAQAAAAEAAAAAAAAAAQAAAAAAAAABAAAAAAAAAAEAAABAAAAAAQAAAAAAAAABAAAAAAAAAAEAAABGAAAAAQAAAAAAAAABAAAAAAAAAAEAAAAAAAAAAQAAAEAAAAABAAAAQAAAAAEAAABAAAAAAQAAAAAAAAABAAAAQgAAAAEAAABAAAAAAQAAABgAAAABAAAAAbAAAAEAAAAsAAAAAQAAAAGwAAABAAAAKwAAAAEAAABAAAAAAQAAAAAAAAABAAAAAAAAAAEAAAAEAAAAAQAAABAAAAABAAAAAAAAAAEAAAABAAAAAQAAAAEAAAABAAAAQAAAAAAAAAAAAAAAAAAAAAAAAAAAAAAAAAAAAAAAAAAAAAAAAAAAAAAAAAAAAAAAAAAAAAAAAAAAAAAAAAAAAAAAAAAAAAAAAAAAAAAAAAAAAAAAAAAAAAAAAAAAAAAAAAAAAAAAAAAAAAAAAAAAAAAAAAAAAAAAAAAAAAAAAAAAAAAAAAAAAAAAAAAAAAAAAAAAAAAAAAAAAAAAAAAAAAAAAAAAAAAAAAAAAAAAAAAAAAAAAAAAAAAAAAAAAAAAAAAAAAAAAAAAAAAAAAAAAAAAAAAAAAAAAAAAAAAAAAAAAAAAAAAAAAAAAAAAAAAAAAAAAAAAAAAAAAAAAAAAAAAAAAAAAAAAAAAAAAAAAAAAAAAAAAAAAAAAAAAAAAAAAAAAAAAAAAAAAAAAAAAAAAAAAAAAAAAAAAAAAAAAAAAAAAAAAAAAAAAAAAAAAAAAAAAAAAAAAAAAAAAAAAAAAAAAAAAAAAAAAAAAAAAAAAAAAAAAAAAAAAAAAAAAAAAAAAAAAAAAAAAAAAAAAAAAAAAAAAAAAAAAAAAAAAAAAAAAAAAAAAAAAAAAAAAAAAAAAAAAAAAAAAAAAAAAAAAAAAAAAAAAAAAAAAAAAAAAAAAAAAAAAAAAAAAAAAAAAAAAAAAAAAAAAAAAAAAAAAAAAAAAAAAAAAAAAAAAAAAAAAAAAAAAAAAAAAAAAAAAAAAAAAAAAAAAAAAAAAAAAAAAAAAAAAAAAAAAAAAAAAAAAAAAAAAAAAAAAAAAAAAAAAAAAAAAAAAAAAAAAAAAAAAAAAAAAAAAAAAAAAAAAAAAAAAAAAAAAAAAAAAAAAAAAAAAAAAAAAAAAAAAAAAAAAAAAAAAAAAAAAAAAAAAAAAAAAAAAAAAAAAAAAAAAAAAAAAAAAAAAAAAAAAAAAAAAAAAAAAAAAAAAAAAAAAAAAAAAAAAAAAAAAAAAAAAAAAAAAAAAAAAAAAAAAAAAAAAAAAAAAAAAAAAAAAAAAAAAAAAAAAAAAAAAAAAAAAAAAAAAAAAAAAAAAAAAAAAAAAAAAAAAAAAAAAAAAAAAAAAAAAAAAAAAAAAAAAAAAAAAAAAAAAAAAAAAAAAAAAAAAAAAAAAAAAAAAAAAAAAAAAAAAAAAAAAAAAAAAAAAAAAAAAAAAAAAAAAAAAAAAAAAAAAAAAAAAAAAAAAAAAAAAAAAAAAAAAAAAAAAAAAAAAAAAAAAAAAAAAAAAAAAAAAAAAAAAAAAAAAAAAAAAAAAAAAAAAAAAAAAAAAAAAAAAAAAAAAAAAAAAAAAAAAAAAAAAAAAAAAAAAAAAAAAAAAAAAAAAAAAAAAAAAAAAAAAAAAAAAAAAAAAAAAAAAAAAAAAAAAAAAAAAAAAAAAAAAAAAAAAAAAAAAAAAAAAAAAAAAAAAAAAAAAAAAAAAAAAAAAAAAAAAAAAAAAAAAAAAAAAAAAAAAAAAAAAAAAAAAAAAAAAAAAAAAAAAAAAAAAAAAAAAAAAAAAAAAAAAAAAAAAAAAAAAAAAAAAAAAAAAAAAAAAAAAAAAAAAAAAAAAAAAAAAAAAAAAAAAAAAAAAAAAAAAAAAAAAAAAAAAAAAAAAAAAAAAAAAAAAAAAAAAAAAAAAAAAAAQAAAHEAAAABAAAAAAAAAAEAAAA3AAAAAAAAAAAAAAABAAAAQAAAAAAAAAAAAAAAAAAAAAAAAAA="/>
          </instrument>
          <eldata ftype="6" fcut="836" fwet="0" fres="0.7">
            <elvol lspd="0.1" lspd_numerator="1" ctlenvamt="0" dec="0.589" pdel="0" sustain="1" lspd_denominator="1" latt="0" lamt="0" rel="0.242" userwavefile="" lshp="0" lspd_syncmode="0" att="0.056" lpdel="0" hold="0" amt="1" x100="0"/>
            <elcut lspd="0.1" lspd_numerator="1" ctlenvamt="0" dec="0.451" pdel="0" sustain="0.001" lspd_denominator="1" latt="0" lamt="0" rel="0" userwavefile="" lshp="0" lspd_syncmode="0" att="0" lpdel="0" hold="0" amt="1" x100="0"/>
            <elres lspd="0.1" lspd_numerator="1" ctlenvamt="0" dec="0.5" pdel="0" sustain="0.5" lspd_denominator="1" latt="0" lamt="0" rel="0" userwavefile="" lshp="0" lspd_syncmode="0" att="0" lpdel="0" hold="0.5" amt="0" x100="0"/>
          </eldata>
          <chordcreator chord="0" chord-enabled="1" chordrange="1"/>
          <arpeggiator arptime_syncmode="0" arprange="1" arptime_numerator="1" arptime_denominator="1" arp="0" arpskip="0" arp-enabled="0" arpcycle="0" arpmiss="0" arpdir="0" arptime="100" arpmode="0" arpgate="100"/>
          <midiport fixedoutputvelocity="-1" writable="0" outputchannel="1" readable="0" inputchannel="0" inputcontroller="0" outputcontroller="0" outputprogram="1" basevelocity="127" fixedinputvelocity="-1" fixedoutputnote="-1"/>
          <fxchain enabled="0" numofeffects="0"/>
        </instrumenttrack>
        <pattern name="Slidey Thing" pos="192" type="1" muted="0" steps="16">
          <note pos="24" key="48" pan="0" len="24" vol="100"/>
          <note pos="48" key="47" pan="0" len="24" vol="100"/>
          <note pos="96" key="48" pan="0" len="24" vol="100"/>
          <note pos="120" key="47" pan="0" len="24" vol="100"/>
          <note pos="168" key="48" pan="0" len="24" vol="100"/>
          <note pos="216" key="48" pan="0" len="24" vol="100"/>
          <note pos="240" key="47" pan="0" len="24" vol="100"/>
          <note pos="264" key="50" pan="0" len="72" vol="100"/>
          <note pos="336" key="50" pan="0" len="48" vol="100"/>
          <note pos="408" key="48" pan="0" len="24" vol="100"/>
          <note pos="432" key="47" pan="0" len="24" vol="100"/>
          <note pos="480" key="48" pan="0" len="24" vol="100"/>
          <note pos="504" key="47" pan="0" len="24" vol="100"/>
          <note pos="552" key="48" pan="0" len="24" vol="100"/>
          <note pos="600" key="48" pan="0" len="24" vol="100"/>
          <note pos="624" key="47" pan="0" len="24" vol="100"/>
          <note pos="648" key="50" pan="0" len="72" vol="100"/>
          <note pos="720" key="50" pan="0" len="48" vol="100"/>
          <note pos="792" key="48" pan="0" len="24" vol="100"/>
          <note pos="816" key="47" pan="0" len="24" vol="100"/>
          <note pos="864" key="48" pan="0" len="24" vol="100"/>
          <note pos="888" key="47" pan="0" len="24" vol="100"/>
          <note pos="936" key="48" pan="0" len="24" vol="100"/>
          <note pos="984" key="48" pan="0" len="24" vol="100"/>
          <note pos="1008" key="47" pan="0" len="24" vol="100"/>
          <note pos="1032" key="50" pan="0" len="72" vol="100"/>
          <note pos="1104" key="50" pan="0" len="48" vol="100"/>
          <note pos="1176" key="48" pan="0" len="24" vol="100"/>
          <note pos="1200" key="47" pan="0" len="24" vol="100"/>
          <note pos="1248" key="48" pan="0" len="24" vol="100"/>
          <note pos="1272" key="47" pan="0" len="24" vol="100"/>
          <note pos="1320" key="50" pan="0" len="24" vol="100"/>
          <note pos="1368" key="52" pan="0" len="24" vol="100"/>
          <note pos="1416" key="60" pan="0" len="24" vol="100"/>
          <note pos="1440" key="62" pan="0" len="24" vol="100"/>
          <note pos="1464" key="64" pan="0" len="24" vol="100"/>
          <note pos="1488" key="67" pan="0" len="24" vol="100"/>
          <note pos="1512" key="69" pan="0" len="24" vol="100"/>
        </pattern>
        <pattern name="Slidey Thing" pos="1728" type="1" muted="0" steps="16">
          <note pos="24" key="48" pan="0" len="24" vol="100"/>
          <note pos="48" key="47" pan="0" len="24" vol="100"/>
          <note pos="96" key="48" pan="0" len="24" vol="100"/>
          <note pos="120" key="47" pan="0" len="24" vol="100"/>
          <note pos="168" key="48" pan="0" len="24" vol="100"/>
          <note pos="216" key="48" pan="0" len="24" vol="100"/>
          <note pos="240" key="47" pan="0" len="24" vol="100"/>
          <note pos="264" key="50" pan="0" len="72" vol="100"/>
          <note pos="336" key="50" pan="0" len="48" vol="100"/>
          <note pos="408" key="48" pan="0" len="24" vol="100"/>
          <note pos="432" key="47" pan="0" len="24" vol="100"/>
          <note pos="480" key="48" pan="0" len="24" vol="100"/>
          <note pos="504" key="47" pan="0" len="24" vol="100"/>
          <note pos="552" key="48" pan="0" len="24" vol="100"/>
          <note pos="600" key="48" pan="0" len="24" vol="100"/>
          <note pos="624" key="47" pan="0" len="24" vol="100"/>
          <note pos="648" key="50" pan="0" len="72" vol="100"/>
          <note pos="720" key="50" pan="0" len="48" vol="100"/>
          <note pos="792" key="48" pan="0" len="24" vol="100"/>
          <note pos="816" key="47" pan="0" len="24" vol="100"/>
          <note pos="864" key="48" pan="0" len="24" vol="100"/>
          <note pos="888" key="47" pan="0" len="24" vol="100"/>
          <note pos="936" key="48" pan="0" len="24" vol="100"/>
          <note pos="984" key="48" pan="0" len="24" vol="100"/>
          <note pos="1008" key="47" pan="0" len="24" vol="100"/>
          <note pos="1032" key="50" pan="0" len="72" vol="100"/>
          <note pos="1104" key="50" pan="0" len="48" vol="100"/>
          <note pos="1176" key="48" pan="0" len="24" vol="100"/>
          <note pos="1200" key="47" pan="0" len="24" vol="100"/>
          <note pos="1248" key="48" pan="0" len="24" vol="100"/>
          <note pos="1272" key="47" pan="0" len="24" vol="100"/>
          <note pos="1320" key="50" pan="0" len="24" vol="100"/>
          <note pos="1368" key="52" pan="0" len="24" vol="100"/>
          <note pos="1416" key="60" pan="0" len="24" vol="100"/>
          <note pos="1440" key="62" pan="0" len="24" vol="100"/>
          <note pos="1464" key="64" pan="0" len="24" vol="100"/>
          <note pos="1488" key="67" pan="0" len="24" vol="100"/>
          <note pos="1512" key="69" pan="0" len="24" vol="100"/>
        </pattern>
        <pattern name="Slidey Thing" pos="3264" type="1" muted="0" steps="16">
          <note pos="0" key="53" pan="0" len="24" vol="100"/>
          <note pos="24" key="60" pan="0" len="24" vol="100"/>
          <note pos="48" key="55" pan="0" len="24" vol="100"/>
          <note pos="72" key="53" pan="0" len="24" vol="100"/>
          <note pos="96" key="60" pan="0" len="24" vol="100"/>
          <note pos="120" key="53" pan="0" len="24" vol="100"/>
          <note pos="144" key="55" pan="0" len="24" vol="100"/>
          <note pos="168" key="53" pan="0" len="24" vol="100"/>
          <note pos="192" key="55" pan="0" len="24" vol="100"/>
          <note pos="216" key="62" pan="0" len="24" vol="100"/>
          <note pos="240" key="57" pan="0" len="24" vol="100"/>
          <note pos="264" key="55" pan="0" len="24" vol="100"/>
          <note pos="288" key="62" pan="0" len="24" vol="100"/>
          <note pos="312" key="55" pan="0" len="24" vol="100"/>
          <note pos="336" key="57" pan="0" len="24" vol="100"/>
          <note pos="360" key="55" pan="0" len="24" vol="100"/>
          <note pos="384" key="57" pan="0" len="24" vol="100"/>
          <note pos="408" key="64" pan="0" len="24" vol="100"/>
          <note pos="432" key="60" pan="0" len="24" vol="100"/>
          <note pos="456" key="57" pan="0" len="24" vol="100"/>
          <note pos="480" key="64" pan="0" len="24" vol="100"/>
          <note pos="480" key="64" pan="0" len="24" vol="100"/>
          <note pos="504" key="57" pan="0" len="24" vol="100"/>
          <note pos="528" key="60" pan="0" len="24" vol="100"/>
          <note pos="552" key="64" pan="0" len="24" vol="100"/>
          <note pos="576" key="69" pan="0" len="24" vol="100"/>
          <note pos="600" key="65" pan="0" len="24" vol="100"/>
          <note pos="624" key="67" pan="0" len="24" vol="100"/>
          <note pos="648" key="64" pan="0" len="24" vol="100"/>
          <note pos="672" key="65" pan="0" len="24" vol="100"/>
          <note pos="696" key="62" pan="0" len="24" vol="100"/>
          <note pos="720" key="64" pan="0" len="24" vol="100"/>
          <note pos="744" key="60" pan="0" len="24" vol="100"/>
        </pattern>
        <pattern name="Slidey Thing" pos="4032" type="1" muted="0" steps="16">
          <note pos="0" key="53" pan="0" len="24" vol="100"/>
          <note pos="24" key="60" pan="0" len="24" vol="100"/>
          <note pos="48" key="55" pan="0" len="24" vol="100"/>
          <note pos="72" key="53" pan="0" len="24" vol="100"/>
          <note pos="96" key="60" pan="0" len="24" vol="100"/>
          <note pos="120" key="53" pan="0" len="24" vol="100"/>
          <note pos="144" key="55" pan="0" len="24" vol="100"/>
          <note pos="168" key="53" pan="0" len="24" vol="100"/>
          <note pos="192" key="55" pan="0" len="24" vol="100"/>
          <note pos="216" key="62" pan="0" len="24" vol="100"/>
          <note pos="240" key="57" pan="0" len="24" vol="100"/>
          <note pos="264" key="55" pan="0" len="24" vol="100"/>
          <note pos="288" key="62" pan="0" len="24" vol="100"/>
          <note pos="312" key="55" pan="0" len="24" vol="100"/>
          <note pos="336" key="57" pan="0" len="24" vol="100"/>
          <note pos="360" key="55" pan="0" len="24" vol="100"/>
          <note pos="384" key="57" pan="0" len="24" vol="100"/>
          <note pos="408" key="64" pan="0" len="24" vol="100"/>
          <note pos="432" key="60" pan="0" len="24" vol="100"/>
          <note pos="456" key="57" pan="0" len="24" vol="100"/>
          <note pos="480" key="64" pan="0" len="24" vol="100"/>
          <note pos="480" key="64" pan="0" len="24" vol="100"/>
          <note pos="504" key="57" pan="0" len="24" vol="100"/>
          <note pos="528" key="60" pan="0" len="24" vol="100"/>
          <note pos="552" key="64" pan="0" len="24" vol="100"/>
          <note pos="600" key="60" pan="0" len="24" vol="100"/>
          <note pos="624" key="59" pan="0" len="24" vol="100"/>
          <note pos="648" key="60" pan="0" len="24" vol="100"/>
          <note pos="672" key="61" pan="0" len="24" vol="100"/>
          <note pos="696" key="62" pan="0" len="24" vol="100"/>
          <note pos="720" key="63" pan="0" len="24" vol="100"/>
          <note pos="744" key="64" pan="0" len="24" vol="100"/>
        </pattern>
        <pattern name="Slidey Thing" pos="4800" type="1" muted="0" steps="16">
          <note pos="24" key="48" pan="0" len="24" vol="100"/>
          <note pos="48" key="47" pan="0" len="24" vol="100"/>
          <note pos="96" key="48" pan="0" len="24" vol="100"/>
          <note pos="120" key="47" pan="0" len="24" vol="100"/>
          <note pos="168" key="48" pan="0" len="24" vol="100"/>
          <note pos="216" key="48" pan="0" len="24" vol="100"/>
          <note pos="240" key="47" pan="0" len="24" vol="100"/>
          <note pos="264" key="50" pan="0" len="72" vol="100"/>
          <note pos="336" key="50" pan="0" len="48" vol="100"/>
          <note pos="408" key="48" pan="0" len="24" vol="100"/>
          <note pos="432" key="47" pan="0" len="24" vol="100"/>
          <note pos="480" key="48" pan="0" len="24" vol="100"/>
          <note pos="504" key="47" pan="0" len="24" vol="100"/>
          <note pos="552" key="48" pan="0" len="24" vol="100"/>
          <note pos="600" key="48" pan="0" len="24" vol="100"/>
          <note pos="624" key="47" pan="0" len="24" vol="100"/>
          <note pos="648" key="50" pan="0" len="72" vol="100"/>
          <note pos="720" key="50" pan="0" len="48" vol="100"/>
          <note pos="792" key="48" pan="0" len="24" vol="100"/>
          <note pos="816" key="47" pan="0" len="24" vol="100"/>
          <note pos="864" key="48" pan="0" len="24" vol="100"/>
          <note pos="888" key="47" pan="0" len="24" vol="100"/>
          <note pos="936" key="48" pan="0" len="24" vol="100"/>
          <note pos="984" key="48" pan="0" len="24" vol="100"/>
          <note pos="1008" key="47" pan="0" len="24" vol="100"/>
          <note pos="1032" key="50" pan="0" len="72" vol="100"/>
          <note pos="1104" key="50" pan="0" len="48" vol="100"/>
          <note pos="1176" key="48" pan="0" len="24" vol="100"/>
          <note pos="1200" key="47" pan="0" len="24" vol="100"/>
          <note pos="1248" key="48" pan="0" len="24" vol="100"/>
          <note pos="1272" key="47" pan="0" len="24" vol="100"/>
          <note pos="1320" key="50" pan="0" len="24" vol="100"/>
          <note pos="1368" key="52" pan="0" len="24" vol="100"/>
          <note pos="1416" key="60" pan="0" len="24" vol="100"/>
          <note pos="1440" key="62" pan="0" len="24" vol="100"/>
          <note pos="1464" key="64" pan="0" len="24" vol="100"/>
          <note pos="1488" key="67" pan="0" len="24" vol="100"/>
          <note pos="1512" key="69" pan="0" len="24" vol="100"/>
        </pattern>
        <pattern name="Slidey Thing" pos="6336" type="1" muted="0" steps="16">
          <note pos="0" key="53" pan="0" len="24" vol="100"/>
          <note pos="24" key="53" pan="0" len="24" vol="100"/>
          <note pos="48" key="60" pan="0" len="24" vol="100"/>
          <note pos="72" key="55" pan="0" len="24" vol="100"/>
          <note pos="96" key="53" pan="0" len="24" vol="100"/>
          <note pos="120" key="60" pan="0" len="24" vol="100"/>
          <note pos="144" key="53" pan="0" len="24" vol="100"/>
          <note pos="168" key="55" pan="0" len="24" vol="100"/>
          <note pos="192" key="53" pan="0" len="24" vol="100"/>
          <note pos="216" key="55" pan="0" len="24" vol="100"/>
          <note pos="240" key="62" pan="0" len="24" vol="100"/>
          <note pos="264" key="57" pan="0" len="24" vol="100"/>
          <note pos="288" key="55" pan="0" len="24" vol="100"/>
          <note pos="312" key="62" pan="0" len="24" vol="100"/>
          <note pos="336" key="55" pan="0" len="24" vol="100"/>
          <note pos="360" key="57" pan="0" len="24" vol="100"/>
          <note pos="384" key="55" pan="0" len="24" vol="100"/>
          <note pos="408" key="57" pan="0" len="24" vol="100"/>
          <note pos="432" key="64" pan="0" len="24" vol="100"/>
          <note pos="456" key="60" pan="0" len="24" vol="100"/>
          <note pos="480" key="57" pan="0" len="24" vol="100"/>
          <note pos="504" key="64" pan="0" len="24" vol="100"/>
          <note pos="504" key="64" pan="0" len="24" vol="100"/>
          <note pos="528" key="57" pan="0" len="24" vol="100"/>
          <note pos="552" key="60" pan="0" len="24" vol="100"/>
          <note pos="576" key="64" pan="0" len="24" vol="100"/>
          <note pos="600" key="69" pan="0" len="24" vol="100"/>
          <note pos="624" key="65" pan="0" len="24" vol="100"/>
          <note pos="648" key="67" pan="0" len="24" vol="100"/>
          <note pos="672" key="64" pan="0" len="24" vol="100"/>
          <note pos="696" key="65" pan="0" len="24" vol="100"/>
          <note pos="720" key="62" pan="0" len="24" vol="100"/>
          <note pos="744" key="64" pan="0" len="24" vol="100"/>
          <note pos="768" key="60" pan="0" len="24" vol="100"/>
        </pattern>
        <pattern name="Slidey Thing" pos="7104" type="1" muted="0" steps="16">
          <note pos="24" key="53" pan="0" len="24" vol="100"/>
          <note pos="48" key="60" pan="0" len="24" vol="100"/>
          <note pos="72" key="55" pan="0" len="24" vol="100"/>
          <note pos="96" key="53" pan="0" len="24" vol="100"/>
          <note pos="120" key="60" pan="0" len="24" vol="100"/>
          <note pos="144" key="53" pan="0" len="24" vol="100"/>
          <note pos="168" key="55" pan="0" len="24" vol="100"/>
          <note pos="192" key="53" pan="0" len="24" vol="100"/>
          <note pos="216" key="55" pan="0" len="24" vol="100"/>
          <note pos="240" key="62" pan="0" len="24" vol="100"/>
          <note pos="264" key="57" pan="0" len="24" vol="100"/>
          <note pos="288" key="55" pan="0" len="24" vol="100"/>
          <note pos="312" key="62" pan="0" len="24" vol="100"/>
          <note pos="336" key="55" pan="0" len="24" vol="100"/>
          <note pos="360" key="57" pan="0" len="24" vol="100"/>
          <note pos="384" key="55" pan="0" len="24" vol="100"/>
          <note pos="408" key="57" pan="0" len="24" vol="100"/>
          <note pos="432" key="64" pan="0" len="24" vol="100"/>
          <note pos="456" key="60" pan="0" len="24" vol="100"/>
          <note pos="480" key="57" pan="0" len="24" vol="100"/>
          <note pos="504" key="64" pan="0" len="24" vol="100"/>
          <note pos="504" key="64" pan="0" len="24" vol="100"/>
          <note pos="528" key="57" pan="0" len="24" vol="100"/>
          <note pos="552" key="60" pan="0" len="24" vol="100"/>
          <note pos="576" key="55" pan="0" len="12" vol="100"/>
          <note pos="588" key="60" pan="0" len="12" vol="100"/>
          <note pos="600" key="65" pan="0" len="13" vol="100"/>
          <note pos="612" key="55" pan="0" len="12" vol="100"/>
          <note pos="624" key="60" pan="0" len="12" vol="100"/>
          <note pos="636" key="65" pan="0" len="12" vol="100"/>
          <note pos="648" key="55" pan="0" len="12" vol="100"/>
          <note pos="660" key="60" pan="0" len="12" vol="100"/>
          <note pos="672" key="65" pan="0" len="12" vol="100"/>
          <note pos="684" key="55" pan="0" len="12" vol="100"/>
          <note pos="696" key="60" pan="0" len="12" vol="100"/>
          <note pos="708" key="65" pan="0" len="12" vol="100"/>
          <note pos="720" key="55" pan="0" len="12" vol="100"/>
          <note pos="732" key="60" pan="0" len="12" vol="100"/>
          <note pos="744" key="65" pan="0" len="24" vol="100"/>
        </pattern>
      </track>
      <track name="Weeeeoooww" type="0" muted="0" solo="0">
        <instrumenttrack fxch="0" pitchrange="1" basenote="57" pitch="0" usemasterpitch="1" vol="84">
          <pan id="25886" scale_type="linear" value="0"/>
          <instrument name="vestige">
            <vestige program="0" plugin="Synth1 - 1.13 beta3/Synth1 VST64.dll" guivisible="0" chunk="U3ludGgxIFZTVCBDaHVuayBEYXRhAAAAAAAAAAAAAAACAAAAAAAAAGt2cl8xNDI3MDhfMjE0XzE0MjcxNDc0MDMuemlwAAAAAAAAAAAAAAAAAAAAAAAAAAAAAAAAAAAAAAAAAAAAAAAAAAAAAAAAAAAAAAAAAAAAAAAAAAAAAAAAAAAAAAAAAAAAAAAAAAAAAAAAAAAAAAAAAAAAAAAAAAAAAAAAAAAAAAAAAAAAAAAAAAAAAAAAAAAAAAAAAAAAAAAAAAAAAAAAAAAAAAAAAAAAAAAAAAAAAAAAAAAAAAAAAAAAAAAAAAAAAAAAAAAAAAAAAAAAAAAAAAAAAAAAAAAAAAAAAAAAAAAAAAAAAAAAAAAAAAAAAAAAAAAAAAAAAAAAAAAAAAAAAAAAAAAAAAAAAAAAAAAAAAAAAAAAAAAAAAAAAAAAAAAAAAAAAAAAAAAAAAAAAAAAAAAAAAAAAAAAAAAAAAAAAAAAAAAAAAAAAAAAAAAAAAAAAAAAAAAAAAAAAAAAAAAAAAAAAAAAAAAAAAAAAAAAAAAAAAAAAAAAAAAAAAAAAAAAAAAAAAAAAAAAAAAAAAAAAAAAAAAAAAAAAAAAAAAAAAAAAAAAAAAAAAAAAAAAAAAAAAAAAAAAAAAAAAAAAAAAAAAAAAAAAAAAAAAAAAAAAAAAAAAAAAAAAAAAAAAAAAAAAAAAAAAAAAAAAAAAAAAAAAAAAAAAAAAAAAAAAAAAAAAAAAAAAABxAAAAAAEAAAEAAAABAAAAAQAAAAEAAAABAAAAQAAAAAEAAABIAAAAAQAAAAEAAAABAAAAQQAAAAEAAAAAAAAAAQAAAAAAAAABAAAAQAAAAAEAAAAAAAAAAQAAAAAAAAABAAAAQAAAAAEAAAAAAAAAAQAAAAAAAAABAAAAAQAAAAEAAABWAAAAAQAAAGQAAAABAAAAWgAAAAEAAABKAAAAAQAAAEgAAAABAAAAEQAAAAEAAABZAAAAAQAAABgAAAABAAAAFQAAAAEAAAABAAAAAQAAADcAAAABAAAAFwAAAAEAAAB/AAAAAQAAAGAAAAABAAAAXAAAAAEAAAAWAAAAAQAAAAEAAAABAAAAAQAAAAEAAAAOAAAAAQAAAG8AAAABAAAACAAAAAEAAAAoAAAAAQAAABMAAAABAAAAAAAAAAEAAAAAAAAAAQAAAAwAAAABAAAAAgAAAAEAAAABAAAAAQAAAFQAAAABAAAAAgAAAAEAAAAAAAAAAQAAAAMAAAABAAAAAQAAAAEAAAAGAAAAAQAAAGYAAAABAAAAKgAAAAEAAABAAAAAAQAAAEAAAAABAAAAQAAAAAEAAAAyAAAAAQAAAEAAAAABAAAALAAAAAEAAAABAAAAAQAAAAAAAAABAAAAAAAAAAEAAABAAAAAAQAAAEAAAAABAAAAQAAAAAEAAABAAAAAAQAAAAIAAAABAAAAAQAAAAEAAAABAAAAAQAAAAEAAAABAAAAAAAAAAEAAAAAAAAAAQAAAAAAAAABAAAAAAAAAAEAAABAAAAAAQAAAAAAAAABAAAAAAAAAAEAAAAwAAAAAQAAAAAAAAABAAAAAAAAAAEAAAAAAAAAAQAAAEAAAAABAAAAQAAAAAEAAABAAAAAAQAAAAIAAAABAAAAWwAAAAEAAABAAAAAAQAAABgAAAABAAAAAbAAAAEAAAATAAAAAQAAAAGwAAABAAAALAAAAAEAAABAAAAAAQAAAAAAAAABAAAAAAAAAAEAAAACAAAAAQAAAAgAAAABAAAAAAAAAAEAAAABAAAAAQAAAAEAAAABAAAAQAAAAAAAAAAAAAAAAAAAAAAAAAAAAAAAAAAAAAAAAAAAAAAAAAAAAAAAAAAAAAAAAAAAAAAAAAAAAAAAAAAAAAAAAAAAAAAAAAAAAAAAAAAAAAAAAAAAAAAAAAAAAAAAAAAAAAAAAAAAAAAAAAAAAAAAAAAAAAAAAAAAAAAAAAAAAAAAAAAAAAAAAAAAAAAAAAAAAAAAAAAAAAAAAAAAAAAAAAAAAAAAAAAAAAAAAAAAAAAAAAAAAAAAAAAAAAAAAAAAAAAAAAAAAAAAAAAAAAAAAAAAAAAAAAAAAAAAAAAAAAAAAAAAAAAAAAAAAAAAAAAAAAAAAAAAAAAAAAAAAAAAAAAAAAAAAAAAAAAAAAAAAAAAAAAAAAAAAAAAAAAAAAAAAAAAAAAAAAAAAAAAAAAAAAAAAAAAAAAAAAAAAAAAAAAAAAAAAAAAAAAAAAAAAAAAAAAAAAAAAAAAAAAAAAAAAAAAAAAAAAAAAAAAAAAAAAAAAAAAAAAAAAAAAAAAAAAAAAAAAAAAAAAAAAAAAAAAAAAAAAAAAAAAAAAAAAAAAAAAAAAAAAAAAAAAAAAAAAAAAAAAAAAAAAAAAAAAAAAAAAAAAAAAAAAAAAAAAAAAAAAAAAAAAAAAAAAAAAAAAAAAAAAAAAAAAAAAAAAAAAAAAAAAAAAAAAAAAAAAAAAAAAAAAAAAAAAAAAAAAAAAAAAAAAAAAAAAAAAAAAAAAAAAAAAAAAAAAAAAAAAAAAAAAAAAAAAAAAAAAAAAAAAAAAAAAAAAAAAAAAAAAAAAAAAAAAAAAAAAAAAAAAAAAAAAAAAAAAAAAAAAAAAAAAAAAAAAAAAAAAAAAAAAAAAAAAAAAAAAAAAAAAAAAAAAAAAAAAAAAAAAAAAAAAAAAAAAAAAAAAAAAAAAAAAAAAAAAAAAAAAAAAAAAAAAAAAAAAAAAAAAAAAAAAAAAAAAAAAAAAAAAAAAAAAAAAAAAAAAAAAAAAAAAAAAAAAAAAAAAAAAAAAAAAAAAAAAAAAAAAAAAAAAAAAAAAAAAAAAAAAAAAAAAAAAAAAAAAAAAAAAAAAAAAAAAAAAAAAAAAAAAAAAAAAAAAAAAAAAAAAAAAAAAAAAAAAAAAAAAAAAAAAAAAAAAAAAAAAAAAAAAAAAAAAAAAAAAAAAAAAAAAAAAAAAAAAAAAAAAAAAAAAAAAAAAAAAAAAAAAAAAAAAAAAAAAAAAAAAAAAAAAAAAAAAAAAAAAAAAAAAAAAAAAAAAAAAAAAAAAAAAAAAAAAAAAAAAAAAAAAAAAAAAAAAAAAAAAAAAAAAAAAAAAAAAAAAAAAAAAAAAAAAAAAAAAAAAAAAAAAAAAAAAAAAAAAAAAAAAAAAAAAAAAAAAAAAAAAAAAAAAAAAAAAAAAAAAAAAAAAAAAAAAAAAAAAAAAAAAAAAAAAAAAAAAAAAAAAAAAAAAAAAAAAAAAAAAAAAAAAAAAAAAAAAAAAAAAAAAAAAAAAAAAAAAAAAAAAAAAAAAAAAAAAAAAAAAAAAAAAAAAAAAAAAAAAAAAAAAAAAAAAAAAAAAAAAAAAAAAAAAAAAAAAAAAAAAAAAAAAAAAAAAAAAAAAAAAAAAAAAAAAAAAAAAAAAAQAAAHEAAAABAAAA/////wEAAAAWAAAAAAAAAAAAAAABAAAAQAAAAAAAAAAAAAAAAAAAAAAAAAA="/>
          </instrument>
          <eldata ftype="0" fcut="14000" fwet="0" fres="0.5">
            <elvol lspd="0.1" lspd_numerator="4" ctlenvamt="0" dec="0.5" pdel="0" sustain="0.5" lspd_denominator="4" latt="0" lamt="0" rel="0.1" userwavefile="" lshp="0" lspd_syncmode="0" att="0" lpdel="0" hold="0.5" amt="0" x100="0"/>
            <elcut lspd="0.1" lspd_numerator="4" ctlenvamt="0" dec="0.5" pdel="0" sustain="0.5" lspd_denominator="4" latt="0" lamt="0" rel="0.1" userwavefile="" lshp="0" lspd_syncmode="0" att="0" lpdel="0" hold="0.5" amt="0" x100="0"/>
            <elres lspd="0.1" lspd_numerator="4" ctlenvamt="0" dec="0.5" pdel="0" sustain="0.5" lspd_denominator="4" latt="0" lamt="0" rel="0.1" userwavefile="" lshp="0" lspd_syncmode="0" att="0" lpdel="0" hold="0.5" amt="0" x100="0"/>
          </eldata>
          <chordcreator chord="0" chord-enabled="0" chordrange="1"/>
          <arpeggiator arptime_syncmode="0" arprange="1" arptime_numerator="4" arptime_denominator="4" arp="0" arpskip="0" arp-enabled="0" arpcycle="0" arpmiss="0" arpdir="0" arptime="200" arpmode="0" arpgate="100"/>
          <midiport fixedoutputvelocity="-1" writable="0" outputchannel="1" readable="0" inputchannel="0" inputcontroller="0" outputcontroller="0" outputprogram="1" basevelocity="63" fixedinputvelocity="-1" fixedoutputnote="-1"/>
          <fxchain enabled="0" numofeffects="0"/>
        </instrumenttrack>
        <pattern name="Weeeeoooww" pos="1728" type="1" muted="0" steps="16">
          <note pos="48" key="79" pan="0" len="192" vol="100"/>
        </pattern>
        <pattern name="Weeeeoooww" pos="2112" type="1" muted="0" steps="16">
          <note pos="48" key="79" pan="0" len="192" vol="100"/>
        </pattern>
        <pattern name="Weeeeoooww" pos="2496" type="1" muted="0" steps="16">
          <note pos="48" key="79" pan="0" len="192" vol="100"/>
        </pattern>
        <pattern name="Weeeeoooww" pos="2880" type="1" muted="0" steps="16">
          <note pos="24" key="79" pan="0" len="144" vol="100"/>
        </pattern>
        <pattern name="Weeeeoooww" pos="4800" type="1" muted="0" steps="16">
          <note pos="48" key="81" pan="0" len="192" vol="100"/>
        </pattern>
        <pattern name="Weeeeoooww" pos="5184" type="1" muted="0" steps="16">
          <note pos="48" key="81" pan="0" len="192" vol="100"/>
        </pattern>
        <pattern name="Weeeeoooww" pos="5568" type="1" muted="0" steps="16">
          <note pos="48" key="81" pan="0" len="192" vol="100"/>
        </pattern>
        <pattern name="Weeeeoooww" pos="5952" type="1" muted="0" steps="16">
          <note pos="24" key="81" pan="0" len="144" vol="100"/>
        </pattern>
      </track>
      <track name="Automation track" type="5" muted="0" solo="0">
        <automationtrack/>
        <automationpattern pos="1728" name="Weeeeoooww>Panning" tens="1" prog="2" len="384" mute="0">
          <time pos="48" value="1.7"/>
          <time pos="144" value="-78"/>
          <time pos="192" value="76.3"/>
          <time pos="288" value="-74.6"/>
          <time pos="384" value="1.1"/>
          <object id="25886"/>
        </automationpattern>
        <automationpattern pos="2112" name="Weeeeoooww>Panning" tens="1" prog="2" len="384" mute="0">
          <time pos="48" value="1.7"/>
          <time pos="144" value="79.1"/>
          <time pos="192" value="-74.6"/>
          <time pos="288" value="76.3"/>
          <object id="25886"/>
        </automationpattern>
        <automationpattern pos="2496" name="Weeeeoooww>Panning" tens="1" prog="2" len="384" mute="0">
          <time pos="48" value="1.7"/>
          <time pos="144" value="-78"/>
          <time pos="192" value="76.3"/>
          <time pos="288" value="-74.6"/>
          <time pos="336" value="0"/>
          <object id="25886"/>
        </automationpattern>
        <automationpattern pos="2880" name="Weeeeoooww>Panning" tens="1" prog="2" len="192" mute="0">
          <time pos="48" value="76.8"/>
          <time pos="144" value="-74"/>
          <time pos="192" value="0"/>
          <object id="25886"/>
        </automationpattern>
        <automationpattern pos="4800" name="Weeeeoooww>Panning" tens="1" prog="2" len="384" mute="0">
          <time pos="48" value="1.7"/>
          <time pos="144" value="-78"/>
          <time pos="192" value="76.3"/>
          <time pos="288" value="-74.6"/>
          <time pos="384" value="1.1"/>
          <object id="25886"/>
        </automationpattern>
        <automationpattern pos="5184" name="Weeeeoooww>Panning" tens="1" prog="2" len="384" mute="0">
          <time pos="48" value="1.7"/>
          <time pos="144" value="79.1"/>
          <time pos="192" value="-74.6"/>
          <time pos="288" value="76.3"/>
          <object id="25886"/>
        </automationpattern>
        <automationpattern pos="5568" name="Weeeeoooww>Panning" tens="1" prog="2" len="384" mute="0">
          <time pos="48" value="1.7"/>
          <time pos="144" value="-78"/>
          <time pos="192" value="76.3"/>
          <time pos="288" value="-74.6"/>
          <time pos="336" value="0"/>
          <object id="25886"/>
        </automationpattern>
        <automationpattern pos="5952" name="Weeeeoooww>Panning" tens="1" prog="2" len="192" mute="0">
          <time pos="48" value="76.8"/>
          <time pos="144" value="-74"/>
          <time pos="192" value="0"/>
          <object id="25886"/>
        </automationpattern>
      </track>
      <track name="Chords" type="0" muted="0" solo="0">
        <instrumenttrack fxch="5" pitchrange="1" basenote="57" pitch="0" pan="35" usemasterpitch="1" vol="122.3">
          <instrument name="vestige">
            <vestige program="0" plugin="Synth1 - 1.13 beta3/Synth1 VST64.dll" guivisible="0" chunk="U3ludGgxIFZTVCBDaHVuayBEYXRhAAAAAAAAAAAAAAACAAAAAAAAAGt2cl8xNDI3MDhfMjE0XzE0MjcxNDc0MDMuemlwAAAAAAAAAAAAAAAAAAAAAAAAAAAAAAAAAAAAAAAAAAAAAAAAAAAAAAAAAAAAAAAAAAAAAAAAAAAAAAAAAAAAAAAAAAAAAAAAAAAAAAAAAAAAAAAAAAAAAAAAAAAAAAAAAAAAAAAAAAAAAAAAAAAAAAAAAAAAAAAAAAAAAAAAAAAAAAAAAAAAAAAAAAAAAAAAAAAAAAAAAAAAAAAAAAAAAAAAAAAAAAAAAAAAAAAAAAAAAAAAAAAAAAAAAAAAAAAAAAAAAAAAAAAAAAAAAAAAAAAAAAAAAAAAAAAAAAAAAAAAAAAAAAAAAAAAAAAAAAAAAAAAAAAAAAAAAAAAAAAAAAAAAAAAAAAAAAAAAAAAAAAAAAAAAAAAAAAAAAAAAAAAAAAAAAAAAAAAAAAAAAAAAAAAAAAAAAAAAAAAAAAAAAAAAAAAAAAAAAAAAAAAAAAAAAAAAAAAAAAAAAAAAAAAAAAAAAAAAAAAAAAAAAAAAAAAAAAAAAAAAAAAAAAAAAAAAAAAAAAAAAAAAAAAAAAAAAAAAAAAAAAAAAAAAAAAAAAAAAAAAAAAAAAAAAAAAAAAAAAAAAAAAAAAAAAAAAAAAAAAAAAAAAAAAAAAAAAAAAAAAAAAAAAAAAAAAAAAAAAAAAAAAAAAAAAAAABxAAAAAAEAAAEAAAACAAAAAQAAAAIAAAABAAAAMwAAAAEAAAA3AAAAAQAAAAEAAAABAAAAQQAAAAEAAAAAAAAAAQAAAAAAAAABAAAAQAAAAAEAAAAMAAAAAQAAAAAAAAABAAAAQAAAAAEAAAAAAAAAAQAAAAAAAAABAAAAAgAAAAEAAAAAAAAAAQAAAAAAAAABAAAAAAAAAAEAAAAAAAAAAQAAACQAAAABAAAAAAAAAAEAAAA/AAAAAQAAADEAAAABAAAAKQAAAAEAAAAAAAAAAQAAAAAAAAABAAAAFwAAAAEAAAB/AAAAAQAAAFEAAAABAAAANQAAAAEAAAAWAAAAAQAAAAEAAAABAAAAAQAAAAEAAAAOAAAAAQAAAG8AAAABAAAACAAAAAEAAAAoAAAAAQAAABMAAAABAAAAAAAAAAEAAAAYAAAAAQAAAAwAAAABAAAAAQAAAAEAAAAFAAAAAQAAAGAAAAABAAAAAwAAAAEAAAAAAAAAAQAAAAUAAAABAAAAAQAAAAEAAAAwAAAAAQAAAFUAAAABAAAAQAAAAAEAAABgAAAAAQAAAFMAAAABAAAASAAAAAEAAAAUAAAAAQAAAFEAAAABAAAAKgAAAAEAAAABAAAAAQAAAAEAAAABAAAAAAAAAAEAAABAAAAAAQAAAEAAAAABAAAAQAAAAAEAAABAAAAAAQAAAAQAAAABAAAAAQAAAAEAAAABAAAAAQAAAAEAAAABAAAAAAAAAAEAAAABAAAAAQAAAAEAAAABAAAAAAAAAAEAAABBAAAAAQAAAAEAAAABAAAAAQAAAAEAAABBAAAAAQAAAAAAAAABAAAAAAAAAAEAAAAGAAAAAQAAAEAAAAABAAAAQAAAAAEAAABAAAAAAQAAAAIAAAABAAAAQgAAAAEAAAB/AAAAAQAAABgAAAABAAAAAbAAAAEAAAAsAAAAAQAAAAGwAAABAAAAKwAAAAEAAABAAAAAAQAAAAAAAAABAAAAAAAAAAEAAAAEAAAAAQAAABAAAAABAAAAAAAAAAEAAAADAAAAAQAAAAEAAAABAAAAQAAAAAAAAAAAAAAAAAAAAAAAAAAAAAAAAAAAAAAAAAAAAAAAAAAAAAAAAAAAAAAAAAAAAAAAAAAAAAAAAAAAAAAAAAAAAAAAAAAAAAAAAAAAAAAAAAAAAAAAAAAAAAAAAAAAAAAAAAAAAAAAAAAAAAAAAAAAAAAAAAAAAAAAAAAAAAAAAAAAAAAAAAAAAAAAAAAAAAAAAAAAAAAAAAAAAAAAAAAAAAAAAAAAAAAAAAAAAAAAAAAAAAAAAAAAAAAAAAAAAAAAAAAAAAAAAAAAAAAAAAAAAAAAAAAAAAAAAAAAAAAAAAAAAAAAAAAAAAAAAAAAAAAAAAAAAAAAAAAAAAAAAAAAAAAAAAAAAAAAAAAAAAAAAAAAAAAAAAAAAAAAAAAAAAAAAAAAAAAAAAAAAAAAAAAAAAAAAAAAAAAAAAAAAAAAAAAAAAAAAAAAAAAAAAAAAAAAAAAAAAAAAAAAAAAAAAAAAAAAAAAAAAAAAAAAAAAAAAAAAAAAAAAAAAAAAAAAAAAAAAAAAAAAAAAAAAAAAAAAAAAAAAAAAAAAAAAAAAAAAAAAAAAAAAAAAAAAAAAAAAAAAAAAAAAAAAAAAAAAAAAAAAAAAAAAAAAAAAAAAAAAAAAAAAAAAAAAAAAAAAAAAAAAAAAAAAAAAAAAAAAAAAAAAAAAAAAAAAAAAAAAAAAAAAAAAAAAAAAAAAAAAAAAAAAAAAAAAAAAAAAAAAAAAAAAAAAAAAAAAAAAAAAAAAAAAAAAAAAAAAAAAAAAAAAAAAAAAAAAAAAAAAAAAAAAAAAAAAAAAAAAAAAAAAAAAAAAAAAAAAAAAAAAAAAAAAAAAAAAAAAAAAAAAAAAAAAAAAAAAAAAAAAAAAAAAAAAAAAAAAAAAAAAAAAAAAAAAAAAAAAAAAAAAAAAAAAAAAAAAAAAAAAAAAAAAAAAAAAAAAAAAAAAAAAAAAAAAAAAAAAAAAAAAAAAAAAAAAAAAAAAAAAAAAAAAAAAAAAAAAAAAAAAAAAAAAAAAAAAAAAAAAAAAAAAAAAAAAAAAAAAAAAAAAAAAAAAAAAAAAAAAAAAAAAAAAAAAAAAAAAAAAAAAAAAAAAAAAAAAAAAAAAAAAAAAAAAAAAAAAAAAAAAAAAAAAAAAAAAAAAAAAAAAAAAAAAAAAAAAAAAAAAAAAAAAAAAAAAAAAAAAAAAAAAAAAAAAAAAAAAAAAAAAAAAAAAAAAAAAAAAAAAAAAAAAAAAAAAAAAAAAAAAAAAAAAAAAAAAAAAAAAAAAAAAAAAAAAAAAAAAAAAAAAAAAAAAAAAAAAAAAAAAAAAAAAAAAAAAAAAAAAAAAAAAAAAAAAAAAAAAAAAAAAAAAAAAAAAAAAAAAAAAAAAAAAAAAAAAAAAAAAAAAAAAAAAAAAAAAAAAAAAAAAAAAAAAAAAAAAAAAAAAAAAAAAAAAAAAAAAAAAAAAAAAAAAAAAAAAAAAAAAAAAAAAAAAAAAAAAAAAAAAAAAAAAAAAAAAAAAAAAAAAAAAAAAAAAAAAAAAAAAAAAAAAAAAAAAAAAAAAAAAAAAAAAAAAAAAAAAAAAAAAAAAAAAAAAAAAAAAAAAAAAAAAAAAAAAAAAAAAAAAAAAAAAAAAQAAAHEAAAABAAAA/////wEAAAAKAAAAAAAAAAAAAAABAAAAQAAAAAAAAAAAAAAAAAAAAAAAAAA="/>
          </instrument>
          <eldata ftype="7" fcut="3224" fwet="1" fres="1.04">
            <elvol lspd="0.1" lspd_numerator="1" ctlenvamt="0" dec="0.797" pdel="0" sustain="1" lspd_denominator="1" latt="0" lamt="0" rel="0.219" userwavefile="" lshp="0" lspd_syncmode="0" att="0" lpdel="0" hold="0" amt="1" x100="0"/>
            <elcut lspd="0.6268" lspd_numerator="1" ctlenvamt="0" dec="0.336" pdel="0" sustain="0.002" lspd_denominator="1" latt="0" lamt="0" rel="0.016" userwavefile="" lshp="1" lspd_syncmode="0" att="0" lpdel="0" hold="0" amt="1" x100="0"/>
            <elres lspd="0.6717" lspd_numerator="1" ctlenvamt="0" dec="0.499" pdel="0" sustain="0.501" lspd_denominator="1" latt="0" lamt="0.43" rel="0.1" userwavefile="" lshp="0" lspd_syncmode="0" att="0" lpdel="0" hold="0.499" amt="0" x100="0"/>
          </eldata>
          <chordcreator chord="0" chord-enabled="1" chordrange="1"/>
          <arpeggiator arptime_syncmode="0" arprange="2" arptime_numerator="1" arptime_denominator="1" arp="0" arpskip="0" arp-enabled="0" arpcycle="0" arpmiss="0" arpdir="0" arptime="158" arpmode="0" arpgate="100"/>
          <midiport fixedoutputvelocity="0" writable="0" outputchannel="1" readable="0" inputchannel="0" inputcontroller="0" outputcontroller="0" outputprogram="1" basevelocity="127" fixedinputvelocity="0" fixedoutputnote="-1"/>
          <fxchain enabled="1" numofeffects="0"/>
        </instrumenttrack>
        <pattern name="Chords" pos="3264" type="1" muted="0" steps="16">
          <note pos="0" key="57" pan="0" len="144" vol="100"/>
          <note pos="0" key="53" pan="0" len="144" vol="100"/>
          <note pos="0" key="48" pan="0" len="144" vol="100"/>
          <note pos="0" key="45" pan="0" len="144" vol="100"/>
          <note pos="192" key="59" pan="0" len="144" vol="100"/>
          <note pos="192" key="55" pan="0" len="144" vol="100"/>
          <note pos="192" key="50" pan="0" len="144" vol="100"/>
          <note pos="192" key="47" pan="0" len="144" vol="100"/>
          <note pos="384" key="60" pan="0" len="144" vol="100"/>
          <note pos="384" key="55" pan="0" len="144" vol="100"/>
          <note pos="384" key="52" pan="0" len="144" vol="100"/>
          <note pos="384" key="48" pan="0" len="144" vol="100"/>
          <note pos="576" key="62" pan="0" len="144" vol="100"/>
          <note pos="576" key="53" pan="0" len="144" vol="100"/>
          <note pos="576" key="50" pan="0" len="144" vol="100"/>
          <note pos="768" key="64" pan="0" len="144" vol="100"/>
          <note pos="768" key="55" pan="0" len="144" vol="100"/>
          <note pos="768" key="52" pan="0" len="144" vol="100"/>
          <note pos="960" key="65" pan="0" len="144" vol="100"/>
          <note pos="960" key="57" pan="0" len="144" vol="100"/>
          <note pos="960" key="53" pan="0" len="144" vol="100"/>
          <note pos="1152" key="67" pan="0" len="144" vol="100"/>
          <note pos="1152" key="59" pan="0" len="144" vol="100"/>
          <note pos="1152" key="55" pan="0" len="144" vol="100"/>
        </pattern>
        <pattern name="Chords" pos="7872" type="1" muted="0" steps="16">
          <note pos="0" key="67" pan="0" len="288" vol="100"/>
          <note pos="0" key="63" pan="0" len="288" vol="100"/>
          <note pos="384" key="70" pan="0" len="288" vol="100"/>
          <note pos="384" key="65" pan="0" len="288" vol="100"/>
          <note pos="768" key="68" pan="0" len="288" vol="100"/>
          <note pos="768" key="63" pan="0" len="288" vol="100"/>
          <note pos="1152" key="67" pan="0" len="192" vol="100"/>
          <note pos="1152" key="62" pan="0" len="192" vol="100"/>
          <note pos="1368" key="67" pan="0" len="36" vol="100"/>
          <note pos="1368" key="62" pan="0" len="36" vol="100"/>
          <note pos="1440" key="67" pan="0" len="84" vol="100"/>
          <note pos="1440" key="62" pan="0" len="84" vol="100"/>
          <note pos="1536" key="69" pan="0" len="288" vol="100"/>
          <note pos="1536" key="64" pan="0" len="288" vol="100"/>
          <note pos="1920" key="71" pan="0" len="288" vol="100"/>
          <note pos="1920" key="67" pan="0" len="288" vol="100"/>
          <note pos="2304" key="72" pan="0" len="288" vol="100"/>
          <note pos="2304" key="65" pan="0" len="288" vol="100"/>
          <note pos="2712" key="71" pan="0" len="36" vol="100"/>
          <note pos="2712" key="68" pan="0" len="36" vol="100"/>
          <note pos="2784" key="71" pan="0" len="72" vol="100"/>
          <note pos="2784" key="68" pan="0" len="72" vol="100"/>
          <note pos="2904" key="71" pan="0" len="48" vol="100"/>
          <note pos="2904" key="68" pan="0" len="48" vol="100"/>
          <note pos="2952" key="74" pan="0" len="72" vol="100"/>
          <note pos="2952" key="71" pan="0" len="72" vol="100"/>
        </pattern>
        <pattern name="" pos="6336" type="1" muted="0" steps="16">
          <note pos="0" key="57" pan="0" len="144" vol="100"/>
          <note pos="0" key="53" pan="0" len="144" vol="100"/>
          <note pos="0" key="48" pan="0" len="144" vol="100"/>
          <note pos="0" key="45" pan="0" len="144" vol="100"/>
          <note pos="192" key="59" pan="0" len="144" vol="100"/>
          <note pos="192" key="55" pan="0" len="144" vol="100"/>
          <note pos="192" key="50" pan="0" len="144" vol="100"/>
          <note pos="192" key="47" pan="0" len="144" vol="100"/>
          <note pos="384" key="60" pan="0" len="144" vol="100"/>
          <note pos="384" key="55" pan="0" len="144" vol="100"/>
          <note pos="384" key="52" pan="0" len="144" vol="100"/>
          <note pos="384" key="48" pan="0" len="144" vol="100"/>
          <note pos="576" key="62" pan="0" len="144" vol="100"/>
          <note pos="576" key="53" pan="0" len="144" vol="100"/>
          <note pos="576" key="50" pan="0" len="144" vol="100"/>
          <note pos="768" key="64" pan="0" len="144" vol="100"/>
          <note pos="768" key="55" pan="0" len="144" vol="100"/>
          <note pos="768" key="52" pan="0" len="144" vol="100"/>
          <note pos="960" key="65" pan="0" len="144" vol="100"/>
          <note pos="960" key="57" pan="0" len="144" vol="100"/>
          <note pos="960" key="53" pan="0" len="144" vol="100"/>
          <note pos="1152" key="67" pan="0" len="144" vol="100"/>
          <note pos="1152" key="59" pan="0" len="144" vol="100"/>
          <note pos="1152" key="55" pan="0" len="144" vol="100"/>
        </pattern>
      </track>
      <track name="Solo" type="0" muted="0" solo="0">
        <instrumenttrack fxch="0" pitchrange="1" basenote="57" pitch="0" usemasterpitch="1" vol="32.2">
          <pan id="16504" scale_type="linear" value="49.6944"/>
          <instrument name="vestige">
            <vestige program="0" plugin="Synth1 - 1.13 beta3/Synth1 VST64.dll" guivisible="1" chunk="U3ludGgxIFZTVCBDaHVuayBEYXRhAAAAAAAAAAAAAAACAAAAAAAAAGt2cl8xNDI3MDhfMjE0XzE0MjcxNDc0MDMuemlwAAAAAAAAAAAAAAAAAAAAAAAAAAAAAAAAAAAAAAAAAAAAAAAAAAAAAAAAAAAAAAAAAAAAAAAAAAAAAAAAAAAAAAAAAAAAAAAAAAAAAAAAAAAAAAAAAAAAAAAAAAAAAAAAAAAAAAAAAAAAAAAAAAAAAAAAAAAAAAAAAAAAAAAAAAAAAAAAAAAAAAAAAAAAAAAAAAAAAAAAAAAAAAAAAAAAAAAAAAAAAAAAAAAAAAAAAAAAAAAAAAAAAAAAAAAAAAAAAAAAAAAAAAAAAAAAAAAAAAAAAAAAAAAAAAAAAAAAAAAAAAAAAAAAAAAAAAAAAAAAAAAAAAAAAAAAAAAAAAAAAAAAAAAAAAAAAAAAAAAAAAAAAAAAAAAAAAAAAAAAAAAAAAAAAAAAAAAAAAAAAAAAAAAAAAAAAAAAAAAAAAAAAAAAAAAAAAAAAAAAAAAAAAAAAAAAAAAAAAAAAAAAAAAAAAAAAAAAAAAAAAAAAAAAAAAAAAAAAAAAAAAAAAAAAAAAAAAAAAAAAAAAAAAAAAAAAAAAAAAAAAAAAAAAAAAAAAAAAAAAAAAAAAAAAAAAAAAAAAAAAAAAAAAAAAAAAAAAAAAAAAAAAAAAAAAAAAAAAAAAAAAAAAAAAAAAAAAAAAAAAAAAAAAAAAAAAABxAAAAAAEAAAEAAAACAAAAAQAAAAIAAAABAAAAMwAAAAEAAABCAAAAAQAAAAEAAAABAAAADAAAAAEAAAAAAAAAAQAAAAAAAAABAAAAQAAAAAEAAAAAAAAAAQAAAAAAAAABAAAAQAAAAAEAAAAAAAAAAQAAAAAAAAABAAAAAgAAAAEAAAAAAAAAAQAAAEAAAAABAAAAIAAAAAEAAABAAAAAAQAAADAAAAABAAAADgAAAAEAAAA/AAAAAQAAAEAAAAABAAAAWwAAAAEAAAABAAAAAQAAAAAAAAABAAAAQAAAAAEAAABrAAAAAQAAAEAAAAABAAAASwAAAAEAAABAAAAAAQAAAAEAAAABAAAAAAAAAAEAAAALAAAAAQAAAEAAAAABAAAACAAAAAEAAAAoAAAAAQAAABQAAAABAAAAAQAAAAEAAAAIAAAAAQAAAAwAAAABAAAAAgAAAAEAAAABAAAAAQAAAEAAAAABAAAAAAAAAAEAAAAAAAAAAQAAAAUAAAABAAAAAQAAAAEAAABAAAAAAQAAACoAAAABAAAASgAAAAEAAABKAAAAAQAAAEAAAAABAAAAQAAAAAEAAAAyAAAAAQAAAEAAAAABAAAAKAAAAAEAAAAAAAAAAQAAAAEAAAABAAAAAAAAAAEAAABOAAAAAQAAAEAAAAABAAAAQAAAAAEAAABAAAAAAQAAAAIAAAABAAAAAQAAAAEAAAAAAAAAAQAAAAAAAAABAAAAAAAAAAEAAAABAAAAAQAAAAEAAAABAAAAAAAAAAEAAABAAAAAAQAAAAEAAAABAAAAAAAAAAEAAAAWAAAAAQAAAAkAAAABAAAAAAAAAAEAAAAAAAAAAQAAAEAAAAABAAAAQAAAAAEAAABAAAAAAQAAAAEAAAABAAAAQgAAAAEAAABcAAAAAQAAABgAAAABAAAAAbAAAAEAAAAsAAAAAQAAAAGwAAABAAAAKwAAAAEAAABAAAAAAQAAAAAAAAABAAAAAAAAAAEAAAAEAAAAAQAAABAAAAABAAAAAAAAAAEAAAADAAAAAQAAAAEAAAABAAAAQAAAAAAAAAAAAAAAAAAAAAAAAAAAAAAAAAAAAAAAAAAAAAAAAAAAAAAAAAAAAAAAAAAAAAAAAAAAAAAAAAAAAAAAAAAAAAAAAAAAAAAAAAAAAAAAAAAAAAAAAAAAAAAAAAAAAAAAAAAAAAAAAAAAAAAAAAAAAAAAAAAAAAAAAAAAAAAAAAAAAAAAAAAAAAAAAAAAAAAAAAAAAAAAAAAAAAAAAAAAAAAAAAAAAAAAAAAAAAAAAAAAAAAAAAAAAAAAAAAAAAAAAAAAAAAAAAAAAAAAAAAAAAAAAAAAAAAAAAAAAAAAAAAAAAAAAAAAAAAAAAAAAAAAAAAAAAAAAAAAAAAAAAAAAAAAAAAAAAAAAAAAAAAAAAAAAAAAAAAAAAAAAAAAAAAAAAAAAAAAAAAAAAAAAAAAAAAAAAAAAAAAAAAAAAAAAAAAAAAAAAAAAAAAAAAAAAAAAAAAAAAAAAAAAAAAAAAAAAAAAAAAAAAAAAAAAAAAAAAAAAAAAAAAAAAAAAAAAAAAAAAAAAAAAAAAAAAAAAAAAAAAAAAAAAAAAAAAAAAAAAAAAAAAAAAAAAAAAAAAAAAAAAAAAAAAAAAAAAAAAAAAAAAAAAAAAAAAAAAAAAAAAAAAAAAAAAAAAAAAAAAAAAAAAAAAAAAAAAAAAAAAAAAAAAAAAAAAAAAAAAAAAAAAAAAAAAAAAAAAAAAAAAAAAAAAAAAAAAAAAAAAAAAAAAAAAAAAAAAAAAAAAAAAAAAAAAAAAAAAAAAAAAAAAAAAAAAAAAAAAAAAAAAAAAAAAAAAAAAAAAAAAAAAAAAAAAAAAAAAAAAAAAAAAAAAAAAAAAAAAAAAAAAAAAAAAAAAAAAAAAAAAAAAAAAAAAAAAAAAAAAAAAAAAAAAAAAAAAAAAAAAAAAAAAAAAAAAAAAAAAAAAAAAAAAAAAAAAAAAAAAAAAAAAAAAAAAAAAAAAAAAAAAAAAAAAAAAAAAAAAAAAAAAAAAAAAAAAAAAAAAAAAAAAAAAAAAAAAAAAAAAAAAAAAAAAAAAAAAAAAAAAAAAAAAAAAAAAAAAAAAAAAAAAAAAAAAAAAAAAAAAAAAAAAAAAAAAAAAAAAAAAAAAAAAAAAAAAAAAAAAAAAAAAAAAAAAAAAAAAAAAAAAAAAAAAAAAAAAAAAAAAAAAAAAAAAAAAAAAAAAAAAAAAAAAAAAAAAAAAAAAAAAAAAAAAAAAAAAAAAAAAAAAAAAAAAAAAAAAAAAAAAAAAAAAAAAAAAAAAAAAAAAAAAAAAAAAAAAAAAAAAAAAAAAAAAAAAAAAAAAAAAAAAAAAAAAAAAAAAAAAAAAAAAAAAAAAAAAAAAAAAAAAAAAAAAAAAAAAAAAAAAAAAAAAAAAAAAAAAAAAAAAAAAAAAAAAAAAAAAAAAAAAAAAAAAAAAAAAAAAAAAAAAAAAAAAAAAAAAAAAAAAAAAAAAAAAAAAAAAAAAAAAAAAAAAAAAAAAAAAAAAAAAAAAAAAAAAAAAAAAAAAAAAAAAAAAAAAAAAAAAAAAAAAAAAAAAAAAAAAAAAAAAAAAAAAAAAAAAAAAAAAAAAAAAAAAAAAAAAAAAAAAAAAAAAAAAAAAAAAAAAAAAAAAAAAAAQAAAHEAAAABAAAA/////wEAAAA4AAAAAAAAAAAAAAABAAAAQQAAAAAAAAAAAAAAAAAAAAAAAAA="/>
          </instrument>
          <eldata ftype="0" fcut="14000" fwet="0" fres="0.5">
            <elvol lspd="0.1" lspd_numerator="4" ctlenvamt="0" dec="0.5" pdel="0" sustain="0.5" lspd_denominator="4" latt="0" lamt="0" rel="0.1" userwavefile="" lshp="0" lspd_syncmode="0" att="0" lpdel="0" hold="0.5" amt="0" x100="0"/>
            <elcut lspd="0.1" lspd_numerator="4" ctlenvamt="0" dec="0.5" pdel="0" sustain="0.5" lspd_denominator="4" latt="0" lamt="0" rel="0.1" userwavefile="" lshp="0" lspd_syncmode="0" att="0" lpdel="0" hold="0.5" amt="0" x100="0"/>
            <elres lspd="0.1" lspd_numerator="4" ctlenvamt="0" dec="0.5" pdel="0" sustain="0.5" lspd_denominator="4" latt="0" lamt="0" rel="0.1" userwavefile="" lshp="0" lspd_syncmode="0" att="0" lpdel="0" hold="0.5" amt="0" x100="0"/>
          </eldata>
          <chordcreator chord="0" chord-enabled="0" chordrange="1"/>
          <arpeggiator arptime_syncmode="0" arprange="1" arptime_numerator="4" arptime_denominator="4" arp="0" arpskip="0" arp-enabled="0" arpcycle="0" arpmiss="0" arpdir="0" arptime="200" arpmode="0" arpgate="100"/>
          <midiport fixedoutputvelocity="-1" writable="0" outputchannel="1" readable="0" inputchannel="0" inputcontroller="0" outputcontroller="0" outputprogram="1" basevelocity="63" fixedinputvelocity="-1" fixedoutputnote="-1"/>
          <fxchain enabled="1" numofeffects="1">
            <effect name="ladspaeffect" wet="1" autoquit_syncmode="0" autoquit_denominator="4" autoquit_numerator="4" gate="0" on="1" autoquit="1">
              <ladspacontrols ports="1">
                <port00>
                  <data id="15680" scale_type="log" value="5.4575"/>
                </port00>
              </ladspacontrols>
              <key>
                <attribute name="file" value="cmt"/>
                <attribute name="plugin" value="amp_stereo"/>
              </key>
            </effect>
          </fxchain>
        </instrumenttrack>
        <pattern name="Solo" pos="7872" type="1" muted="0" steps="16">
          <note pos="0" key="67" pan="0" len="192" vol="100"/>
          <note pos="216" key="65" pan="0" len="24" vol="100"/>
          <note pos="240" key="67" pan="0" len="24" vol="100"/>
          <note pos="264" key="72" pan="0" len="24" vol="100"/>
          <note pos="288" key="70" pan="0" len="24" vol="100"/>
          <note pos="312" key="67" pan="0" len="24" vol="100"/>
          <note pos="336" key="65" pan="0" len="24" vol="100"/>
          <note pos="360" key="67" pan="0" len="24" vol="100"/>
        </pattern>
        <pattern name="Solo" pos="8256" type="1" muted="0" steps="16">
          <note pos="0" key="77" pan="0" len="48" vol="100"/>
          <note pos="48" key="75" pan="0" len="48" vol="100"/>
          <note pos="96" key="74" pan="0" len="12" vol="100"/>
          <note pos="108" key="75" pan="0" len="12" vol="100"/>
          <note pos="120" key="74" pan="0" len="12" vol="100"/>
          <note pos="132" key="70" pan="0" len="12" vol="100"/>
          <note pos="144" key="67" pan="0" len="24" vol="100"/>
          <note pos="168" key="65" pan="0" len="24" vol="100"/>
          <note pos="192" key="63" pan="0" len="24" vol="100"/>
          <note pos="216" key="60" pan="0" len="24" vol="100"/>
          <note pos="240" key="67" pan="0" len="96" vol="100"/>
          <note pos="336" key="48" pan="0" len="24" vol="100"/>
          <note pos="360" key="51" pan="0" len="24" vol="100"/>
          <note pos="384" key="53" pan="0" len="24" vol="100"/>
          <note pos="408" key="51" pan="0" len="12" vol="100"/>
          <note pos="420" key="53" pan="0" len="12" vol="100"/>
          <note pos="432" key="55" pan="0" len="24" vol="100"/>
          <note pos="456" key="53" pan="0" len="12" vol="100"/>
          <note pos="468" key="55" pan="0" len="12" vol="100"/>
          <note pos="480" key="56" pan="0" len="12" vol="100"/>
          <note pos="492" key="55" pan="0" len="12" vol="100"/>
          <note pos="504" key="56" pan="0" len="12" vol="100"/>
          <note pos="516" key="58" pan="0" len="12" vol="100"/>
          <note pos="528" key="60" pan="0" len="12" vol="100"/>
          <note pos="540" key="62" pan="0" len="12" vol="100"/>
          <note pos="552" key="63" pan="0" len="12" vol="100"/>
          <note pos="564" key="65" pan="0" len="12" vol="100"/>
          <note pos="576" key="68" pan="0" len="8" vol="100"/>
          <note pos="584" key="63" pan="0" len="8" vol="100"/>
          <note pos="592" key="48" pan="0" len="8" vol="100"/>
          <note pos="600" key="67" pan="0" len="8" vol="100"/>
          <note pos="608" key="63" pan="0" len="8" vol="100"/>
          <note pos="616" key="48" pan="0" len="8" vol="100"/>
          <note pos="624" key="68" pan="0" len="8" vol="100"/>
          <note pos="632" key="63" pan="0" len="8" vol="100"/>
          <note pos="640" key="48" pan="0" len="8" vol="100"/>
          <note pos="648" key="67" pan="0" len="8" vol="100"/>
          <note pos="656" key="63" pan="0" len="8" vol="100"/>
          <note pos="664" key="48" pan="0" len="8" vol="100"/>
          <note pos="672" key="68" pan="0" len="8" vol="100"/>
          <note pos="680" key="63" pan="0" len="8" vol="100"/>
          <note pos="688" key="48" pan="0" len="8" vol="100"/>
          <note pos="696" key="67" pan="0" len="8" vol="100"/>
          <note pos="704" key="63" pan="0" len="8" vol="100"/>
          <note pos="712" key="48" pan="0" len="8" vol="100"/>
          <note pos="720" key="68" pan="0" len="8" vol="100"/>
          <note pos="728" key="63" pan="0" len="8" vol="100"/>
          <note pos="736" key="48" pan="0" len="8" vol="100"/>
          <note pos="744" key="67" pan="0" len="8" vol="100"/>
          <note pos="752" key="63" pan="0" len="8" vol="100"/>
          <note pos="760" key="48" pan="0" len="8" vol="100"/>
          <note pos="768" key="67" pan="0" len="8" vol="100"/>
          <note pos="776" key="65" pan="0" len="8" vol="100"/>
          <note pos="784" key="50" pan="0" len="8" vol="100"/>
          <note pos="792" key="67" pan="0" len="8" vol="100"/>
          <note pos="800" key="65" pan="0" len="8" vol="100"/>
          <note pos="808" key="50" pan="0" len="8" vol="100"/>
          <note pos="816" key="67" pan="0" len="8" vol="100"/>
          <note pos="824" key="65" pan="0" len="8" vol="100"/>
          <note pos="832" key="50" pan="0" len="8" vol="100"/>
          <note pos="840" key="67" pan="0" len="8" vol="100"/>
          <note pos="848" key="65" pan="0" len="8" vol="100"/>
          <note pos="856" key="50" pan="0" len="8" vol="100"/>
          <note pos="864" key="67" pan="0" len="8" vol="100"/>
          <note pos="872" key="65" pan="0" len="8" vol="100"/>
          <note pos="880" key="50" pan="0" len="8" vol="100"/>
          <note pos="888" key="67" pan="0" len="8" vol="100"/>
          <note pos="896" key="65" pan="0" len="8" vol="100"/>
          <note pos="904" key="50" pan="0" len="8" vol="100"/>
          <note pos="912" key="67" pan="0" len="8" vol="100"/>
          <note pos="920" key="65" pan="0" len="8" vol="100"/>
          <note pos="928" key="50" pan="0" len="8" vol="100"/>
          <note pos="936" key="67" pan="0" len="8" vol="100"/>
          <note pos="944" key="65" pan="0" len="8" vol="100"/>
          <note pos="952" key="50" pan="0" len="8" vol="100"/>
          <note pos="960" key="72" pan="0" len="120" vol="100"/>
          <note pos="1104" key="72" pan="0" len="24" vol="100"/>
          <note pos="1128" key="70" pan="0" len="24" vol="100"/>
        </pattern>
        <pattern name="Solo" pos="9408" type="1" muted="0" steps="16">
          <note pos="0" key="69" pan="0" len="48" vol="100"/>
          <note pos="72" key="71" pan="0" len="24" vol="100"/>
          <note pos="96" key="67" pan="0" len="24" vol="100"/>
          <note pos="120" key="64" pan="0" len="24" vol="100"/>
          <note pos="144" key="62" pan="0" len="24" vol="100"/>
          <note pos="168" key="60" pan="0" len="24" vol="100"/>
          <note pos="192" key="57" pan="0" len="24" vol="100"/>
          <note pos="216" key="55" pan="0" len="24" vol="100"/>
          <note pos="240" key="60" pan="0" len="24" vol="100"/>
          <note pos="264" key="64" pan="0" len="24" vol="100"/>
          <note pos="288" key="67" pan="0" len="24" vol="100"/>
          <note pos="312" key="71" pan="0" len="24" vol="100"/>
          <note pos="336" key="72" pan="0" len="24" vol="100"/>
          <note pos="360" key="74" pan="0" len="24" vol="100"/>
          <note pos="384" key="71" pan="0" len="12" vol="100"/>
          <note pos="396" key="72" pan="0" len="12" vol="100"/>
          <note pos="408" key="71" pan="0" len="144" vol="100"/>
          <note pos="552" key="67" pan="0" len="12" vol="100"/>
          <note pos="564" key="69" pan="0" len="12" vol="100"/>
          <note pos="576" key="67" pan="0" len="180" vol="100"/>
        </pattern>
        <pattern name="Solo" pos="10176" type="1" muted="0" steps="16">
          <note pos="24" key="64" pan="0" len="24" vol="100"/>
          <note pos="48" key="74" pan="0" len="24" vol="100"/>
          <note pos="72" key="76" pan="0" len="24" vol="100"/>
          <note pos="120" key="64" pan="0" len="24" vol="100"/>
          <note pos="144" key="74" pan="0" len="24" vol="100"/>
          <note pos="168" key="76" pan="0" len="24" vol="100"/>
          <note pos="216" key="64" pan="0" len="24" vol="100"/>
          <note pos="240" key="74" pan="0" len="24" vol="100"/>
          <note pos="264" key="76" pan="0" len="24" vol="100"/>
          <note pos="312" key="64" pan="0" len="24" vol="100"/>
          <note pos="336" key="74" pan="0" len="24" vol="100"/>
          <note pos="360" key="76" pan="0" len="24" vol="100"/>
          <note pos="384" key="81" pan="0" len="12" vol="100"/>
          <note pos="396" key="79" pan="0" len="12" vol="100"/>
          <note pos="408" key="77" pan="0" len="12" vol="100"/>
          <note pos="420" key="79" pan="0" len="12" vol="100"/>
          <note pos="432" key="77" pan="0" len="12" vol="100"/>
          <note pos="444" key="76" pan="0" len="12" vol="100"/>
          <note pos="456" key="77" pan="0" len="12" vol="100"/>
          <note pos="468" key="76" pan="0" len="12" vol="100"/>
          <note pos="480" key="74" pan="0" len="12" vol="100"/>
          <note pos="492" key="76" pan="0" len="12" vol="100"/>
          <note pos="504" key="74" pan="0" len="12" vol="100"/>
          <note pos="516" key="72" pan="0" len="12" vol="100"/>
          <note pos="528" key="74" pan="0" len="12" vol="100"/>
          <note pos="540" key="72" pan="0" len="12" vol="100"/>
          <note pos="552" key="71" pan="0" len="12" vol="100"/>
          <note pos="564" key="69" pan="0" len="12" vol="100"/>
          <note pos="576" key="68" pan="0" len="12" vol="100"/>
          <note pos="588" key="65" pan="0" len="12" vol="100"/>
          <note pos="600" key="64" pan="0" len="12" vol="100"/>
          <note pos="612" key="62" pan="0" len="12" vol="100"/>
          <note pos="624" key="60" pan="0" len="12" vol="100"/>
          <note pos="636" key="59" pan="0" len="12" vol="100"/>
          <note pos="648" key="57" pan="0" len="12" vol="100"/>
          <note pos="660" key="55" pan="0" len="12" vol="100"/>
          <note pos="672" key="57" pan="0" len="12" vol="100"/>
          <note pos="684" key="53" pan="0" len="12" vol="100"/>
          <note pos="696" key="55" pan="0" len="12" vol="100"/>
          <note pos="708" key="52" pan="0" len="12" vol="100"/>
          <note pos="720" key="53" pan="0" len="12" vol="100"/>
          <note pos="732" key="50" pan="0" len="12" vol="100"/>
          <note pos="744" key="48" pan="0" len="12" vol="100"/>
        </pattern>
      </track>
      <track name="Automation track" type="5" muted="0" solo="0">
        <automationtrack/>
        <automationpattern pos="8832" name="Solo>Panning" tens="1" prog="2" len="384" mute="0">
          <time pos="0" value="-0.6"/>
          <time pos="96" value="39"/>
          <time pos="192" value="-40.1"/>
          <time pos="288" value="40.7"/>
          <time pos="384" value="0.6"/>
          <object id="16504"/>
        </automationpattern>
        <automationpattern pos="10176" name="Solo>Panning" tens="1" prog="0" len="384" mute="0">
          <time pos="0" value="-48.6"/>
          <time pos="120" value="49.7"/>
          <time pos="216" value="-50.3"/>
          <time pos="312" value="52"/>
          <time pos="384" value="1.1"/>
          <object id="16504"/>
        </automationpattern>
        <automationpattern pos="10560" name="Solo>Panning" tens="1" prog="2" len="384" mute="0">
          <time pos="0" value="-49.2"/>
          <time pos="120" value="-0.6"/>
          <time pos="240" value="1.7"/>
          <time pos="384" value="49.7"/>
          <object id="16504"/>
        </automationpattern>
        <automationpattern pos="7872" name="Solo>Panning" tens="1" prog="2" len="384" mute="0">
          <time pos="0" value="-0.6"/>
          <object id="16504"/>
        </automationpattern>
      </track>
    </trackcontainer>
    <track name="Automation track" type="6" muted="0" solo="0">
      <automationtrack/>
      <automationpattern pos="0" name="Numerator" tens="1" prog="0" len="192" mute="0">
        <time pos="0" value="4"/>
      </automationpattern>
      <automationpattern pos="0" name="Denominator" tens="1" prog="0" len="192" mute="0">
        <time pos="0" value="4"/>
      </automationpattern>
      <automationpattern pos="0" name="Tempo" tens="1" prog="0" len="192" mute="0">
        <time pos="0" value="140"/>
      </automationpattern>
      <automationpattern pos="0" name="Master volume" tens="1" prog="0" len="192" mute="0">
        <time pos="0" value="100"/>
      </automationpattern>
      <automationpattern pos="0" name="Master pitch" tens="1" prog="0" len="192" mute="0">
        <time pos="0" value="0"/>
      </automationpattern>
    </track>
    <fxmixer minimized="0" height="333" width="863" visible="1" maximized="0" x="519" y="533">
      <fxchannel soloed="0" num="0" name="Master" muted="0" volume="0.474">
        <fxchain enabled="0" numofeffects="0"/>
      </fxchannel>
      <fxchannel soloed="0" num="1" name="Drums" muted="0" volume="0.907">
        <fxchain enabled="0" numofeffects="0"/>
        <send amount="1" channel="0"/>
      </fxchannel>
      <fxchannel soloed="0" num="2" name="Lead" muted="0" volume="0.91">
        <fxchain enabled="0" numofeffects="0"/>
        <send amount="1" channel="0"/>
      </fxchannel>
      <fxchannel soloed="0" num="3" name="Bass" muted="0" volume="0.631">
        <fxchain enabled="0" numofeffects="0"/>
        <send amount="1" channel="0"/>
      </fxchannel>
      <fxchannel soloed="0" num="4" name="Organ" muted="0" volume="0.83">
        <fxchain enabled="0" numofeffects="0"/>
        <send amount="1" channel="0"/>
      </fxchannel>
      <fxchannel soloed="0" num="5" name="PowerStrings" muted="0" volume="0.81">
        <fxchain enabled="0" numofeffects="0"/>
        <send amount="1" channel="0"/>
      </fxchannel>
      <fxchannel soloed="0" num="6" name="Verse twiddle" muted="0" volume="0.79">
        <fxchain enabled="0" numofeffects="0"/>
        <send amount="1" channel="0"/>
      </fxchannel>
      <fxchannel soloed="0" num="7" name="FX 7" muted="0" volume="1">
        <fxchain enabled="0" numofeffects="0"/>
        <send amount="1" channel="0"/>
      </fxchannel>
      <fxchannel soloed="0" num="8" name="FX 8" muted="0" volume="1">
        <fxchain enabled="0" numofeffects="0"/>
        <send amount="1" channel="0"/>
      </fxchannel>
      <fxchannel soloed="0" num="9" name="FX 9" muted="0" volume="1">
        <fxchain enabled="0" numofeffects="0"/>
        <send amount="1" channel="0"/>
      </fxchannel>
      <fxchannel soloed="0" num="10" name="FX 10" muted="0" volume="1">
        <fxchain enabled="0" numofeffects="0"/>
        <send amount="1" channel="0"/>
      </fxchannel>
      <fxchannel soloed="0" num="11" name="FX 11" muted="0" volume="1">
        <fxchain enabled="0" numofeffects="0"/>
        <send amount="1" channel="0"/>
      </fxchannel>
      <fxchannel soloed="0" num="12" name="FX 12" muted="0" volume="1">
        <fxchain enabled="0" numofeffects="0"/>
        <send amount="1" channel="0"/>
      </fxchannel>
      <fxchannel soloed="0" num="13" name="FX 13" muted="0" volume="1">
        <fxchain enabled="0" numofeffects="0"/>
        <send amount="1" channel="0"/>
      </fxchannel>
      <fxchannel soloed="0" num="14" name="FX 14" muted="0" volume="1">
        <fxchain enabled="0" numofeffects="0"/>
        <send amount="1" channel="0"/>
      </fxchannel>
      <fxchannel soloed="0" num="15" name="FX 15" muted="0" volume="1">
        <fxchain enabled="0" numofeffects="0"/>
        <send amount="1" channel="0"/>
      </fxchannel>
      <fxchannel soloed="0" num="16" name="FX 16" muted="0" volume="1">
        <fxchain enabled="0" numofeffects="0"/>
        <send amount="1" channel="0"/>
      </fxchannel>
      <fxchannel soloed="0" num="17" name="FX 17" muted="0" volume="1">
        <fxchain enabled="0" numofeffects="0"/>
        <send amount="1" channel="0"/>
      </fxchannel>
      <fxchannel soloed="0" num="18" name="FX 18" muted="0" volume="1">
        <fxchain enabled="0" numofeffects="0"/>
        <send amount="1" channel="0"/>
      </fxchannel>
      <fxchannel soloed="0" num="19" name="FX 19" muted="0" volume="1">
        <fxchain enabled="0" numofeffects="0"/>
        <send amount="1" channel="0"/>
      </fxchannel>
      <fxchannel soloed="0" num="20" name="FX 20" muted="0" volume="1">
        <fxchain enabled="0" numofeffects="0"/>
        <send amount="1" channel="0"/>
      </fxchannel>
      <fxchannel soloed="0" num="21" name="FX 21" muted="0" volume="1">
        <fxchain enabled="0" numofeffects="0"/>
        <send amount="1" channel="0"/>
      </fxchannel>
      <fxchannel soloed="0" num="22" name="FX 22" muted="0" volume="1">
        <fxchain enabled="0" numofeffects="0"/>
        <send amount="1" channel="0"/>
      </fxchannel>
      <fxchannel soloed="0" num="23" name="FX 23" muted="0" volume="1">
        <fxchain enabled="0" numofeffects="0"/>
        <send amount="1" channel="0"/>
      </fxchannel>
      <fxchannel soloed="0" num="24" name="FX 24" muted="0" volume="1">
        <fxchain enabled="0" numofeffects="0"/>
        <send amount="1" channel="0"/>
      </fxchannel>
      <fxchannel soloed="0" num="25" name="FX 25" muted="0" volume="1">
        <fxchain enabled="0" numofeffects="0"/>
        <send amount="1" channel="0"/>
      </fxchannel>
      <fxchannel soloed="0" num="26" name="FX 26" muted="0" volume="1">
        <fxchain enabled="0" numofeffects="0"/>
        <send amount="1" channel="0"/>
      </fxchannel>
      <fxchannel soloed="0" num="27" name="FX 27" muted="0" volume="1">
        <fxchain enabled="0" numofeffects="0"/>
        <send amount="1" channel="0"/>
      </fxchannel>
      <fxchannel soloed="0" num="28" name="FX 28" muted="0" volume="1">
        <fxchain enabled="0" numofeffects="0"/>
        <send amount="1" channel="0"/>
      </fxchannel>
      <fxchannel soloed="0" num="29" name="FX 29" muted="0" volume="1">
        <fxchain enabled="0" numofeffects="0"/>
        <send amount="1" channel="0"/>
      </fxchannel>
      <fxchannel soloed="0" num="30" name="FX 30" muted="0" volume="1">
        <fxchain enabled="0" numofeffects="0"/>
        <send amount="1" channel="0"/>
      </fxchannel>
      <fxchannel soloed="0" num="31" name="FX 31" muted="0" volume="1">
        <fxchain enabled="0" numofeffects="0"/>
        <send amount="1" channel="0"/>
      </fxchannel>
      <fxchannel soloed="0" num="32" name="FX 32" muted="0" volume="1">
        <fxchain enabled="0" numofeffects="0"/>
        <send amount="1" channel="0"/>
      </fxchannel>
      <fxchannel soloed="0" num="33" name="FX 33" muted="0" volume="1">
        <fxchain enabled="0" numofeffects="0"/>
        <send amount="1" channel="0"/>
      </fxchannel>
      <fxchannel soloed="0" num="34" name="FX 34" muted="0" volume="1">
        <fxchain enabled="0" numofeffects="0"/>
        <send amount="1" channel="0"/>
      </fxchannel>
      <fxchannel soloed="0" num="35" name="FX 35" muted="0" volume="1">
        <fxchain enabled="0" numofeffects="0"/>
        <send amount="1" channel="0"/>
      </fxchannel>
      <fxchannel soloed="0" num="36" name="FX 36" muted="0" volume="1">
        <fxchain enabled="0" numofeffects="0"/>
        <send amount="1" channel="0"/>
      </fxchannel>
      <fxchannel soloed="0" num="37" name="FX 37" muted="0" volume="1">
        <fxchain enabled="0" numofeffects="0"/>
        <send amount="1" channel="0"/>
      </fxchannel>
      <fxchannel soloed="0" num="38" name="FX 38" muted="0" volume="1">
        <fxchain enabled="0" numofeffects="0"/>
        <send amount="1" channel="0"/>
      </fxchannel>
      <fxchannel soloed="0" num="39" name="FX 39" muted="0" volume="1">
        <fxchain enabled="0" numofeffects="0"/>
        <send amount="1" channel="0"/>
      </fxchannel>
      <fxchannel soloed="0" num="40" name="FX 40" muted="0" volume="1">
        <fxchain enabled="0" numofeffects="0"/>
        <send amount="1" channel="0"/>
      </fxchannel>
      <fxchannel soloed="0" num="41" name="FX 41" muted="0" volume="1">
        <fxchain enabled="0" numofeffects="0"/>
        <send amount="1" channel="0"/>
      </fxchannel>
      <fxchannel soloed="0" num="42" name="FX 42" muted="0" volume="1">
        <fxchain enabled="0" numofeffects="0"/>
        <send amount="1" channel="0"/>
      </fxchannel>
      <fxchannel soloed="0" num="43" name="FX 43" muted="0" volume="1">
        <fxchain enabled="0" numofeffects="0"/>
        <send amount="1" channel="0"/>
      </fxchannel>
      <fxchannel soloed="0" num="44" name="FX 44" muted="0" volume="1">
        <fxchain enabled="0" numofeffects="0"/>
        <send amount="1" channel="0"/>
      </fxchannel>
      <fxchannel soloed="0" num="45" name="FX 45" muted="0" volume="1">
        <fxchain enabled="0" numofeffects="0"/>
        <send amount="1" channel="0"/>
      </fxchannel>
      <fxchannel soloed="0" num="46" name="FX 46" muted="0" volume="1">
        <fxchain enabled="0" numofeffects="0"/>
        <send amount="1" channel="0"/>
      </fxchannel>
      <fxchannel soloed="0" num="47" name="FX 47" muted="0" volume="1">
        <fxchain enabled="0" numofeffects="0"/>
        <send amount="1" channel="0"/>
      </fxchannel>
      <fxchannel soloed="0" num="48" name="FX 48" muted="0" volume="1">
        <fxchain enabled="0" numofeffects="0"/>
        <send amount="1" channel="0"/>
      </fxchannel>
      <fxchannel soloed="0" num="49" name="FX 49" muted="0" volume="1">
        <fxchain enabled="0" numofeffects="0"/>
        <send amount="1" channel="0"/>
      </fxchannel>
      <fxchannel soloed="0" num="50" name="FX 50" muted="0" volume="1">
        <fxchain enabled="0" numofeffects="0"/>
        <send amount="1" channel="0"/>
      </fxchannel>
      <fxchannel soloed="0" num="51" name="FX 51" muted="0" volume="1">
        <fxchain enabled="0" numofeffects="0"/>
        <send amount="1" channel="0"/>
      </fxchannel>
      <fxchannel soloed="0" num="52" name="FX 52" muted="0" volume="1">
        <fxchain enabled="0" numofeffects="0"/>
        <send amount="1" channel="0"/>
      </fxchannel>
      <fxchannel soloed="0" num="53" name="FX 53" muted="0" volume="1">
        <fxchain enabled="0" numofeffects="0"/>
        <send amount="1" channel="0"/>
      </fxchannel>
      <fxchannel soloed="0" num="54" name="FX 54" muted="0" volume="1">
        <fxchain enabled="0" numofeffects="0"/>
        <send amount="1" channel="0"/>
      </fxchannel>
      <fxchannel soloed="0" num="55" name="FX 55" muted="0" volume="1">
        <fxchain enabled="0" numofeffects="0"/>
        <send amount="1" channel="0"/>
      </fxchannel>
      <fxchannel soloed="0" num="56" name="FX 56" muted="0" volume="1">
        <fxchain enabled="0" numofeffects="0"/>
        <send amount="1" channel="0"/>
      </fxchannel>
      <fxchannel soloed="0" num="57" name="FX 57" muted="0" volume="1">
        <fxchain enabled="0" numofeffects="0"/>
        <send amount="1" channel="0"/>
      </fxchannel>
      <fxchannel soloed="0" num="58" name="FX 58" muted="0" volume="1">
        <fxchain enabled="0" numofeffects="0"/>
        <send amount="1" channel="0"/>
      </fxchannel>
      <fxchannel soloed="0" num="59" name="FX 59" muted="0" volume="1">
        <fxchain enabled="0" numofeffects="0"/>
        <send amount="1" channel="0"/>
      </fxchannel>
      <fxchannel soloed="0" num="60" name="FX 60" muted="0" volume="1">
        <fxchain enabled="0" numofeffects="0"/>
        <send amount="1" channel="0"/>
      </fxchannel>
      <fxchannel soloed="0" num="61" name="FX 61" muted="0" volume="1">
        <fxchain enabled="0" numofeffects="0"/>
        <send amount="1" channel="0"/>
      </fxchannel>
      <fxchannel soloed="0" num="62" name="FX 62" muted="0" volume="1">
        <fxchain enabled="0" numofeffects="0"/>
        <send amount="1" channel="0"/>
      </fxchannel>
      <fxchannel soloed="0" num="63" name="FX 63" muted="0" volume="1">
        <fxchain enabled="0" numofeffects="0"/>
        <send amount="1" channel="0"/>
      </fxchannel>
      <fxchannel soloed="0" num="64" name="FX 64" muted="0" volume="1">
        <fxchain enabled="0" numofeffects="0"/>
        <send amount="1" channel="0"/>
      </fxchannel>
    </fxmixer>
    <ControllerRackView minimized="0" height="200" width="350" visible="0" maximized="0" x="874" y="262"/>
    <pianoroll minimized="0" height="677" width="1693" visible="1" maximized="0" x="99" y="370"/>
    <automationeditor minimized="0" height="480" width="860" visible="0" maximized="0" x="286" y="518"/>
    <projectnotes minimized="0" height="300" width="657" visible="0" maximized="0" x="693" y="1"><![CDATA[<!DOCTYPE HTML PUBLIC "-//W3C//DTD HTML 4.0//EN" "http://www.w3.org/TR/REC-html40/strict.dtd">
<html><head><meta name="qrichtext" content="1" /><style type="text/css">
p, li { white-space: pre-wrap; }
</style></head><body style=" font-family:'MS Shell Dlg 2'; font-size:8.25pt; font-weight:400; font-style:normal;">
<p style=" margin-top:0px; margin-bottom:0px; margin-left:0px; margin-right:0px; -qt-block-indent:0; text-indent:0px;"><span style=" font-family:'Droid Sans'; font-size:10pt; color:#e0e0e0;">Put down your project notes here.</span></p></body></html>]]></projectnotes>
    <timeline lp0pos="192" lp1pos="10944" lpstate="1"/>
    <controllers/>
  </song>
</lmms-project>
