<?xml version="1.0"?>
<!DOCTYPE lmms-project>
<lmms-project version="1.0" creator="LMMS" creatorversion="1.0.0" type="song">
  <head>
    <bpm value="150" id="1548568"/>
    <timesig_numerator value="4" id="2074298"/>
    <timesig_denominator value="4" id="3528173"/>
    <mastervol value="100" id="6526032"/>
    <masterpitch value="0" id="4196435"/>
  </head>
  <song>
    <trackcontainer width="1882" x="9" y="201" maximized="0" height="651" visible="1" type="song" minimized="0">
      <track muted="0" type="1" name="Boo" solo="0">
        <bbtrack>
          <trackcontainer width="909" x="754" y="120" maximized="0" height="157" visible="1" type="bbtrackcontainer" minimized="0">
            <track muted="0" type="0" name="Yamaha-RX15-Bass-Drum.wav" solo="0">
              <instrumenttrack pan="0" fxch="1" pitchrange="1" pitch="0" basenote="57" vol="100">
                <instrument name="audiofileprocessor">
                  <audiofileprocessor reversed="0" looped="0" eframe="1" stutter="0" sframe="0" src="Yamaha RX15 Kit/Yamaha-RX15-Bass-Drum.wav" amp="100"/>
                </instrument>
                <eldata fres="0.5" ftype="0" fcut="14000" fwet="0">
                  <elvol lspd_denominator="4" sustain="0.5" pdel="0" userwavefile="" dec="0.5" lamt="0" syncmode="0" latt="0" rel="0.1" amt="0" x100="0" att="0" lpdel="0" hold="0.5" lshp="0" lspd="0.1" ctlenvamt="0" lspd_numerator="4"/>
                  <elcut lspd_denominator="4" sustain="0.5" pdel="0" userwavefile="" dec="0.5" lamt="0" syncmode="0" latt="0" rel="0.1" amt="0" x100="0" att="0" lpdel="0" hold="0.5" lshp="0" lspd="0.1" ctlenvamt="0" lspd_numerator="4"/>
                  <elres lspd_denominator="4" sustain="0.5" pdel="0" userwavefile="" dec="0.5" lamt="0" syncmode="0" latt="0" rel="0.1" amt="0" x100="0" att="0" lpdel="0" hold="0.5" lshp="0" lspd="0.1" ctlenvamt="0" lspd_numerator="4"/>
                </eldata>
                <chordcreator chord="0" chordrange="1" chord-enabled="0"/>
                <arpeggiator arptime="100" arprange="1" arptime_denominator="4" syncmode="0" arpmode="0" arp-enabled="0" arp="0" arptime_numerator="4" arpdir="0" arpgate="100"/>
                <midiport inputcontroller="0" fixedoutputvelocity="-1" inputchannel="0" outputcontroller="0" writable="0" outputchannel="1" fixedinputvelocity="-1" fixedoutputnote="-1" outputprogram="1" basevelocity="63" readable="0"/>
                <fxchain numofeffects="0" enabled="0"/>
              </instrumenttrack>
              <pattern steps="16" muted="0" type="0" name="Yamaha-RX15-Bass-Drum.wav" pos="0" len="192"/>
              <pattern steps="32" muted="0" type="0" name="Yamaha-RX15-Bass-Drum.wav" pos="192" len="384">
                <note pan="0" key="57" vol="100" pos="0" len="-192"/>
                <note pan="0" key="57" vol="100" pos="96" len="-192"/>
                <note pan="0" key="57" vol="100" pos="192" len="-192"/>
                <note pan="0" key="57" vol="100" pos="288" len="-192"/>
                <note pan="0" key="57" vol="100" pos="300" len="-192"/>
                <note pan="0" key="57" vol="100" pos="312" len="-192"/>
                <note pan="0" key="57" vol="100" pos="324" len="-192"/>
              </pattern>
              <pattern steps="32" muted="0" type="0" name="Yamaha-RX15-Bass-Drum.wav" pos="384" len="384">
                <note pan="0" key="57" vol="100" pos="0" len="-192"/>
                <note pan="0" key="57" vol="100" pos="96" len="-192"/>
                <note pan="0" key="57" vol="100" pos="192" len="-192"/>
                <note pan="0" key="57" vol="100" pos="288" len="-192"/>
                <note pan="0" key="57" vol="100" pos="300" len="-192"/>
                <note pan="0" key="57" vol="100" pos="312" len="-192"/>
                <note pan="0" key="57" vol="100" pos="324" len="-192"/>
                <note pan="0" key="57" vol="100" pos="336" len="-192"/>
                <note pan="0" key="57" vol="100" pos="348" len="-192"/>
                <note pan="0" key="57" vol="100" pos="360" len="-192"/>
                <note pan="0" key="57" vol="100" pos="372" len="-192"/>
              </pattern>
              <pattern steps="32" muted="0" type="0" name="Yamaha-RX15-Bass-Drum.wav" pos="576" len="384">
                <note pan="0" key="57" vol="100" pos="0" len="-192"/>
                <note pan="0" key="57" vol="100" pos="96" len="-192"/>
                <note pan="0" key="57" vol="100" pos="192" len="-192"/>
                <note pan="0" key="57" vol="100" pos="288" len="-192"/>
                <note pan="0" key="57" vol="100" pos="300" len="-192"/>
                <note pan="0" key="57" vol="100" pos="312" len="-192"/>
                <note pan="0" key="57" vol="100" pos="324" len="-192"/>
                <note pan="0" key="57" vol="100" pos="336" len="-192"/>
                <note pan="0" key="57" vol="100" pos="348" len="-192"/>
              </pattern>
              <pattern steps="32" muted="0" type="0" name="Yamaha-RX15-Bass-Drum.wav" pos="768" len="384">
                <note pan="0" key="57" vol="100" pos="0" len="-192"/>
                <note pan="0" key="57" vol="100" pos="96" len="-192"/>
                <note pan="0" key="57" vol="100" pos="192" len="-192"/>
                <note pan="0" key="57" vol="100" pos="300" len="-192"/>
                <note pan="0" key="57" vol="100" pos="324" len="-192"/>
                <note pan="0" key="57" vol="100" pos="348" len="-192"/>
              </pattern>
              <pattern steps="32" muted="0" type="0" name="Yamaha-RX15-Bass-Drum.wav" pos="960" len="384">
                <note pan="0" key="57" vol="100" pos="0" len="-192"/>
                <note pan="0" key="57" vol="100" pos="96" len="-192"/>
                <note pan="0" key="57" vol="100" pos="192" len="-192"/>
                <note pan="0" key="57" vol="100" pos="300" len="-192"/>
                <note pan="0" key="57" vol="100" pos="312" len="-192"/>
                <note pan="0" key="57" vol="100" pos="336" len="-192"/>
                <note pan="0" key="57" vol="100" pos="348" len="-192"/>
              </pattern>
              <pattern steps="32" muted="0" type="0" name="Yamaha-RX15-Bass-Drum.wav" pos="1152" len="384">
                <note pan="0" key="57" vol="100" pos="0" len="-192"/>
                <note pan="0" key="57" vol="100" pos="96" len="-192"/>
                <note pan="0" key="57" vol="100" pos="300" len="-192"/>
                <note pan="0" key="57" vol="100" pos="324" len="-192"/>
              </pattern>
            </track>
            <track muted="0" type="0" name="Yamaha-RX15-Hi-Tune-Snare.wav" solo="0">
              <instrumenttrack pan="-19.9" fxch="2" pitchrange="1" pitch="0" basenote="57" vol="100">
                <instrument name="audiofileprocessor">
                  <audiofileprocessor reversed="0" looped="0" eframe="1" stutter="0" sframe="0" src="Yamaha RX15 Kit/Yamaha-RX15-Hi-Tune-Snare.wav" amp="100"/>
                </instrument>
                <eldata fres="0.5" ftype="0" fcut="14000" fwet="0">
                  <elvol lspd_denominator="4" sustain="0.5" pdel="0" userwavefile="" dec="0.5" lamt="0" syncmode="0" latt="0" rel="0.1" amt="0" x100="0" att="0" lpdel="0" hold="0.5" lshp="0" lspd="0.1" ctlenvamt="0" lspd_numerator="4"/>
                  <elcut lspd_denominator="4" sustain="0.5" pdel="0" userwavefile="" dec="0.5" lamt="0" syncmode="0" latt="0" rel="0.1" amt="0" x100="0" att="0" lpdel="0" hold="0.5" lshp="0" lspd="0.1" ctlenvamt="0" lspd_numerator="4"/>
                  <elres lspd_denominator="4" sustain="0.5" pdel="0" userwavefile="" dec="0.5" lamt="0" syncmode="0" latt="0" rel="0.1" amt="0" x100="0" att="0" lpdel="0" hold="0.5" lshp="0" lspd="0.1" ctlenvamt="0" lspd_numerator="4"/>
                </eldata>
                <chordcreator chord="0" chordrange="1" chord-enabled="0"/>
                <arpeggiator arptime="100" arprange="1" arptime_denominator="4" syncmode="0" arpmode="0" arp-enabled="0" arp="0" arptime_numerator="4" arpdir="0" arpgate="100"/>
                <midiport inputcontroller="0" fixedoutputvelocity="-1" inputchannel="0" outputcontroller="0" writable="0" outputchannel="1" fixedinputvelocity="-1" fixedoutputnote="-1" outputprogram="1" basevelocity="63" readable="0"/>
                <fxchain numofeffects="0" enabled="0"/>
              </instrumenttrack>
              <pattern steps="16" muted="0" type="0" name="Yamaha-RX15-Hi-Tune-Snare.wav" pos="0" len="192"/>
              <pattern steps="32" muted="0" type="0" name="Yamaha-RX15-Hi-Tune-Snare.wav" pos="192" len="384">
                <note pan="0" key="57" vol="100" pos="48" len="-192"/>
                <note pan="0" key="57" vol="100" pos="144" len="-192"/>
                <note pan="0" key="57" vol="100" pos="240" len="-192"/>
                <note pan="0" key="57" vol="100" pos="336" len="-192"/>
              </pattern>
              <pattern steps="32" muted="0" type="0" name="Yamaha-RX15-Hi-Tune-Snare.wav" pos="384" len="384">
                <note pan="0" key="57" vol="100" pos="48" len="-192"/>
                <note pan="0" key="57" vol="100" pos="144" len="-192"/>
                <note pan="0" key="57" vol="100" pos="240" len="-192"/>
              </pattern>
              <pattern steps="32" muted="0" type="0" name="Yamaha-RX15-Hi-Tune-Snare.wav" pos="576" len="384">
                <note pan="0" key="57" vol="100" pos="48" len="-192"/>
                <note pan="0" key="57" vol="100" pos="144" len="-192"/>
                <note pan="0" key="57" vol="100" pos="240" len="-192"/>
                <note pan="0" key="57" vol="100" pos="360" len="-192"/>
                <note pan="0" key="57" vol="100" pos="372" len="-192"/>
              </pattern>
              <pattern steps="32" muted="0" type="0" name="Yamaha-RX15-Hi-Tune-Snare.wav" pos="768" len="384">
                <note pan="0" key="57" vol="100" pos="48" len="-192"/>
                <note pan="0" key="57" vol="100" pos="144" len="-192"/>
                <note pan="0" key="57" vol="100" pos="240" len="-192"/>
                <note pan="0" key="57" vol="100" pos="288" len="-192"/>
                <note pan="0" key="57" vol="100" pos="312" len="-192"/>
                <note pan="0" key="57" vol="100" pos="336" len="-192"/>
                <note pan="0" key="57" vol="100" pos="360" len="-192"/>
                <note pan="0" key="57" vol="100" pos="372" len="-192"/>
              </pattern>
              <pattern steps="32" muted="0" type="0" name="Yamaha-RX15-Hi-Tune-Snare.wav" pos="960" len="384">
                <note pan="0" key="57" vol="100" pos="48" len="-192"/>
                <note pan="0" key="57" vol="100" pos="144" len="-192"/>
                <note pan="0" key="57" vol="100" pos="240" len="-192"/>
                <note pan="0" key="57" vol="100" pos="288" len="-192"/>
                <note pan="0" key="57" vol="100" pos="324" len="-192"/>
                <note pan="0" key="57" vol="100" pos="360" len="-192"/>
                <note pan="0" key="57" vol="100" pos="372" len="-192"/>
              </pattern>
              <pattern steps="32" muted="0" type="0" name="Yamaha-RX15-Hi-Tune-Snare.wav" pos="1152" len="384">
                <note pan="0" key="57" vol="100" pos="48" len="-192"/>
                <note pan="0" key="57" vol="100" pos="144" len="-192"/>
                <note pan="0" key="57" vol="100" pos="192" len="-192"/>
                <note pan="0" key="57" vol="100" pos="240" len="-192"/>
                <note pan="0" key="57" vol="100" pos="288" len="-192"/>
                <note pan="0" key="57" vol="100" pos="312" len="-192"/>
                <note pan="0" key="57" vol="100" pos="336" len="-192"/>
                <note pan="0" key="57" vol="100" pos="348" len="-192"/>
                <note pan="0" key="57" vol="100" pos="360" len="-192"/>
                <note pan="0" key="57" vol="100" pos="372" len="-192"/>
              </pattern>
            </track>
            <track muted="0" type="0" name="Kicker" solo="0">
              <instrumenttrack pan="0.3" fxch="3" pitchrange="1" pitch="0" basenote="58" vol="96.3">
                <instrument name="kicker">
                  <kicker decay="415" dist="0.3" startfreq="415" endfreq="216" gain="0.55"/>
                </instrument>
                <eldata fres="0.5" ftype="1" fcut="641" fwet="1">
                  <elvol lspd_denominator="4" sustain="0.5" pdel="0" userwavefile="" dec="0.5" lamt="0" syncmode="0" latt="0" rel="0.1" amt="0" x100="0" att="0" lpdel="0" hold="0.5" lshp="0" lspd="0.1" ctlenvamt="0" lspd_numerator="4"/>
                  <elcut lspd_denominator="4" sustain="0.5" pdel="0" userwavefile="" dec="0.5" lamt="0" syncmode="0" latt="0" rel="0.1" amt="0" x100="0" att="0" lpdel="0" hold="0.5" lshp="0" lspd="0.1" ctlenvamt="0" lspd_numerator="4"/>
                  <elres lspd_denominator="4" sustain="0.5" pdel="0" userwavefile="" dec="0.5" lamt="0" syncmode="0" latt="0" rel="0.1" amt="0" x100="0" att="0" lpdel="0" hold="0.5" lshp="0" lspd="0.1" ctlenvamt="0" lspd_numerator="4"/>
                </eldata>
                <chordcreator chord="0" chordrange="1" chord-enabled="0"/>
                <arpeggiator arptime="100" arprange="1" arptime_denominator="4" syncmode="0" arpmode="0" arp-enabled="0" arp="0" arptime_numerator="4" arpdir="0" arpgate="100"/>
                <midiport inputcontroller="0" fixedoutputvelocity="-1" inputchannel="0" outputcontroller="0" writable="0" outputchannel="1" fixedinputvelocity="-1" fixedoutputnote="-1" outputprogram="1" basevelocity="63" readable="0"/>
                <fxchain numofeffects="0" enabled="0"/>
              </instrumenttrack>
              <pattern steps="16" muted="0" type="0" name="Kicker" pos="0" len="192">
                <note pan="0" key="57" vol="100" pos="48" len="-192"/>
                <note pan="0" key="57" vol="100" pos="144" len="-192"/>
              </pattern>
              <pattern steps="32" muted="0" type="0" name="Kicker" pos="192" len="384"/>
              <pattern steps="32" muted="0" type="0" name="Kicker" pos="384" len="384"/>
              <pattern steps="32" muted="0" type="0" name="Kicker" pos="576" len="384"/>
              <pattern steps="32" muted="0" type="0" name="Kicker" pos="768" len="384"/>
              <pattern steps="32" muted="0" type="0" name="Kicker" pos="960" len="384"/>
              <pattern steps="32" muted="0" type="0" name="Kicker" pos="1152" len="384"/>
            </track>
          </trackcontainer>
        </bbtrack>
        <bbtco muted="0" name="" pos="384" color="4286625455" len="6144"/>
        <bbtco muted="0" name="" pos="9600" color="4286625455" len="6144"/>
      </track>
      <track muted="0" type="1" name="4 Kick / 1 Snare" solo="0">
        <bbtrack/>
        <bbtco muted="0" name="" pos="384" color="4286625455" len="384"/>
        <bbtco muted="0" name="" pos="1152" color="4286625455" len="384"/>
        <bbtco muted="0" name="" pos="1920" color="4286625455" len="384"/>
        <bbtco muted="0" name="" pos="2688" color="4286625455" len="384"/>
        <bbtco muted="0" name="" pos="3456" color="4286625455" len="384"/>
        <bbtco muted="0" name="" pos="4224" color="4286625455" len="384"/>
        <bbtco muted="0" name="" pos="4992" color="4286625455" len="384"/>
        <bbtco muted="0" name="" pos="5760" color="4286625455" len="384"/>
        <bbtco muted="0" name="" pos="6528" color="4286625455" len="384"/>
        <bbtco muted="0" name="" pos="7296" color="4286625455" len="384"/>
        <bbtco muted="0" name="" pos="8064" color="4286625455" len="384"/>
        <bbtco muted="0" name="" pos="8832" color="4286625455" len="384"/>
        <bbtco muted="0" name="" pos="9600" color="4286625455" len="384"/>
        <bbtco muted="0" name="" pos="10368" color="4286625455" len="384"/>
        <bbtco muted="0" name="" pos="11136" color="4286625455" len="384"/>
        <bbtco muted="0" name="" pos="11904" color="4286625455" len="384"/>
        <bbtco muted="0" name="" pos="12672" color="4286625455" len="384"/>
        <bbtco muted="0" name="" pos="13440" color="4286625455" len="384"/>
        <bbtco muted="0" name="" pos="14208" color="4286625455" len="384"/>
        <bbtco muted="0" name="" pos="14976" color="4286625455" len="384"/>
        <bbtco muted="0" name="" pos="15744" color="4286625455" len="384"/>
        <bbtco muted="0" name="" pos="16512" color="4286625455" len="384"/>
        <bbtco muted="0" name="" pos="17280" color="4286625455" len="384"/>
        <bbtco muted="0" name="" pos="18048" color="4286625455" len="384"/>
      </track>
      <track muted="0" type="1" name="8 Kick" solo="0">
        <bbtrack/>
        <bbtco muted="0" name="" pos="768" color="4286625455" len="384"/>
        <bbtco muted="0" name="" pos="1536" color="4286625455" len="384"/>
        <bbtco muted="0" name="" pos="2304" color="4286625455" len="384"/>
        <bbtco muted="0" name="" pos="3072" color="4286625455" len="384"/>
        <bbtco muted="0" name="" pos="9984" color="4286625455" len="384"/>
        <bbtco muted="0" name="" pos="10752" color="4286625455" len="384"/>
        <bbtco muted="0" name="" pos="11520" color="4286625455" len="384"/>
        <bbtco muted="0" name="" pos="12288" color="4286625455" len="384"/>
      </track>
      <track muted="0" type="1" name="6 Kick / 2 Snare" solo="0">
        <bbtrack/>
        <bbtco muted="0" name="" pos="3840" color="4286625455" len="384"/>
        <bbtco muted="0" name="" pos="6912" color="4286625455" len="384"/>
        <bbtco muted="0" name="" pos="8448" color="4286625455" len="384"/>
        <bbtco muted="0" name="" pos="13056" color="4286625455" len="384"/>
        <bbtco muted="0" name="" pos="16128" color="4286625455" len="384"/>
        <bbtco muted="0" name="" pos="17664" color="4286625455" len="384"/>
      </track>
      <track muted="0" type="1" name="3 Alternate / 2 Snare" solo="0">
        <bbtrack/>
        <bbtco muted="0" name="" pos="4608" color="4286625455" len="384"/>
        <bbtco muted="0" name="" pos="7680" color="4286625455" len="384"/>
        <bbtco muted="0" name="" pos="9216" color="4286625455" len="384"/>
        <bbtco muted="0" name="" pos="13824" color="4286625455" len="384"/>
        <bbtco muted="0" name="" pos="16896" color="4286625455" len="384"/>
        <bbtco muted="0" name="" pos="18432" color="4286625455" len="384"/>
      </track>
      <track muted="0" type="1" name="2 Kick Alternates / 2 Snare" solo="0">
        <bbtrack/>
        <bbtco muted="0" name="" pos="5376" color="4286625455" len="384"/>
        <bbtco muted="0" name="" pos="14592" color="4286625455" len="384"/>
      </track>
      <track muted="0" type="1" name="2 Alternate / 4 Snare" solo="0">
        <bbtrack/>
        <bbtco muted="0" name="" pos="6144" color="4286625455" len="384"/>
        <bbtco muted="0" name="" pos="15360" color="4286625455" len="384"/>
      </track>
      <track width="262" x="282" y="144" maximized="0" muted="0" height="467" visible="1" type="0" minimized="0" name="Bass" tab="1" solo="0">
        <instrumenttrack pan="14.2" fxch="4" pitchrange="1" pitch="0" basenote="81" vol="63.1">
          <instrument name="sid">
            <sid sync0="0" sync1="0" sync2="0" voice3Off="0" attack0="0" attack1="0" attack2="0" filterFC="1024" chipModel="1" decay0="8" decay1="8" decay2="8" volume="15" filtered0="1" filterResonance="8" filtered1="0" sustain0="15" filtered2="0" sustain1="15" sustain2="15" waveform0="2" ringmod0="0" waveform1="0" ringmod1="0" waveform2="0" ringmod2="0" filterMode="2" test0="0" test1="0" test2="0" coarse0="0" coarse1="0" coarse2="0" release0="0" release1="0" release2="0" pulsewidth0="3000" pulsewidth1="2164" pulsewidth2="3521">
              <connection>
                <pulsewidth2/>
              </connection>
            </sid>
          </instrument>
          <eldata fres="1.18" ftype="7" fcut="4256" fwet="1">
            <elvol lspd_denominator="4" sustain="0.5" pdel="0" userwavefile="" dec="0.5" lamt="0" syncmode="0" latt="0" rel="0.1" amt="0" x100="0" att="0" lpdel="0" hold="0.5" lshp="0" lspd="0.1" ctlenvamt="0" lspd_numerator="4"/>
            <elcut lspd_denominator="4" sustain="0.5" pdel="0" userwavefile="" dec="0.5" lamt="0" syncmode="0" latt="0" rel="0.1" amt="0" x100="0" att="0" lpdel="0" hold="0.5" lshp="0" lspd="0.1" ctlenvamt="0" lspd_numerator="4"/>
            <elres lspd_denominator="4" sustain="0.5" pdel="0" userwavefile="" dec="0.5" lamt="0" syncmode="0" latt="0" rel="0.1" amt="0" x100="0" att="0" lpdel="0" hold="0.5" lshp="0" lspd="0.1" ctlenvamt="0" lspd_numerator="4"/>
          </eldata>
          <chordcreator chord="0" chordrange="1" chord-enabled="0"/>
          <arpeggiator arptime="100" arprange="1" arptime_denominator="4" syncmode="0" arpmode="0" arp-enabled="0" arp="0" arptime_numerator="4" arpdir="0" arpgate="100"/>
          <midiport inputcontroller="0" inports="" fixedoutputvelocity="-1" inputchannel="0" outputcontroller="0" writable="0" outputchannel="1" fixedinputvelocity="-1" fixedoutputnote="-1" outputprogram="1" basevelocity="127" readable="1"/>
          <fxchain numofeffects="0" enabled="0"/>
        </instrumenttrack>
        <pattern steps="16" muted="0" type="1" name="Bass" pos="384" len="1536">
          <note pan="0" key="48" vol="100" pos="0" len="24"/>
          <note pan="0" key="60" vol="100" pos="24" len="12"/>
          <note pan="0" key="60" vol="100" pos="36" len="12"/>
          <note pan="0" key="48" vol="100" pos="48" len="24"/>
          <note pan="0" key="60" vol="100" pos="72" len="12"/>
          <note pan="0" key="60" vol="100" pos="84" len="12"/>
          <note pan="0" key="48" vol="100" pos="96" len="24"/>
          <note pan="0" key="60" vol="100" pos="120" len="12"/>
          <note pan="0" key="60" vol="100" pos="132" len="12"/>
          <note pan="0" key="48" vol="100" pos="144" len="24"/>
          <note pan="0" key="60" vol="100" pos="168" len="12"/>
          <note pan="0" key="60" vol="100" pos="180" len="12"/>
          <note pan="0" key="48" vol="100" pos="192" len="24"/>
          <note pan="0" key="60" vol="100" pos="216" len="12"/>
          <note pan="0" key="60" vol="100" pos="228" len="12"/>
          <note pan="0" key="48" vol="100" pos="240" len="24"/>
          <note pan="0" key="60" vol="100" pos="264" len="12"/>
          <note pan="0" key="60" vol="100" pos="276" len="12"/>
          <note pan="0" key="48" vol="100" pos="288" len="24"/>
          <note pan="0" key="60" vol="100" pos="312" len="12"/>
          <note pan="0" key="60" vol="100" pos="324" len="12"/>
          <note pan="0" key="48" vol="100" pos="336" len="24"/>
          <note pan="0" key="60" vol="100" pos="360" len="12"/>
          <note pan="0" key="60" vol="100" pos="372" len="12"/>
          <note pan="0" key="44" vol="100" pos="384" len="24"/>
          <note pan="0" key="56" vol="100" pos="408" len="12"/>
          <note pan="0" key="56" vol="100" pos="420" len="12"/>
          <note pan="0" key="44" vol="100" pos="432" len="24"/>
          <note pan="0" key="56" vol="100" pos="456" len="12"/>
          <note pan="0" key="56" vol="100" pos="468" len="12"/>
          <note pan="0" key="44" vol="100" pos="480" len="24"/>
          <note pan="0" key="56" vol="100" pos="504" len="12"/>
          <note pan="0" key="56" vol="100" pos="516" len="12"/>
          <note pan="0" key="44" vol="100" pos="528" len="24"/>
          <note pan="0" key="56" vol="100" pos="552" len="12"/>
          <note pan="0" key="56" vol="100" pos="564" len="12"/>
          <note pan="0" key="44" vol="100" pos="576" len="24"/>
          <note pan="0" key="56" vol="100" pos="600" len="12"/>
          <note pan="0" key="56" vol="100" pos="612" len="12"/>
          <note pan="0" key="44" vol="100" pos="624" len="24"/>
          <note pan="0" key="56" vol="100" pos="648" len="12"/>
          <note pan="0" key="56" vol="100" pos="660" len="12"/>
          <note pan="0" key="44" vol="100" pos="672" len="24"/>
          <note pan="0" key="56" vol="100" pos="696" len="12"/>
          <note pan="0" key="56" vol="100" pos="708" len="12"/>
          <note pan="0" key="44" vol="100" pos="720" len="24"/>
          <note pan="0" key="56" vol="100" pos="744" len="12"/>
          <note pan="0" key="56" vol="100" pos="756" len="12"/>
          <note pan="0" key="46" vol="100" pos="768" len="24"/>
          <note pan="0" key="58" vol="100" pos="792" len="12"/>
          <note pan="0" key="58" vol="100" pos="804" len="12"/>
          <note pan="0" key="46" vol="100" pos="816" len="24"/>
          <note pan="0" key="58" vol="100" pos="840" len="12"/>
          <note pan="0" key="58" vol="100" pos="852" len="12"/>
          <note pan="0" key="46" vol="100" pos="864" len="24"/>
          <note pan="0" key="58" vol="100" pos="888" len="12"/>
          <note pan="0" key="58" vol="100" pos="900" len="12"/>
          <note pan="0" key="46" vol="100" pos="912" len="24"/>
          <note pan="0" key="58" vol="100" pos="936" len="12"/>
          <note pan="0" key="58" vol="100" pos="948" len="12"/>
          <note pan="0" key="46" vol="100" pos="960" len="24"/>
          <note pan="0" key="58" vol="100" pos="984" len="12"/>
          <note pan="0" key="58" vol="100" pos="996" len="12"/>
          <note pan="0" key="46" vol="100" pos="1008" len="24"/>
          <note pan="0" key="58" vol="100" pos="1032" len="12"/>
          <note pan="0" key="58" vol="100" pos="1044" len="12"/>
          <note pan="0" key="46" vol="100" pos="1056" len="24"/>
          <note pan="0" key="58" vol="100" pos="1080" len="12"/>
          <note pan="0" key="58" vol="100" pos="1092" len="12"/>
          <note pan="0" key="46" vol="100" pos="1104" len="24"/>
          <note pan="0" key="58" vol="100" pos="1128" len="12"/>
          <note pan="0" key="58" vol="100" pos="1140" len="12"/>
          <note pan="0" key="44" vol="100" pos="1152" len="24"/>
          <note pan="0" key="56" vol="100" pos="1176" len="12"/>
          <note pan="0" key="56" vol="100" pos="1188" len="12"/>
          <note pan="0" key="44" vol="100" pos="1200" len="24"/>
          <note pan="0" key="56" vol="100" pos="1224" len="12"/>
          <note pan="0" key="56" vol="100" pos="1236" len="12"/>
          <note pan="0" key="44" vol="100" pos="1248" len="24"/>
          <note pan="0" key="56" vol="100" pos="1272" len="12"/>
          <note pan="0" key="56" vol="100" pos="1284" len="12"/>
          <note pan="0" key="44" vol="100" pos="1296" len="24"/>
          <note pan="0" key="56" vol="100" pos="1320" len="12"/>
          <note pan="0" key="56" vol="100" pos="1332" len="12"/>
          <note pan="0" key="46" vol="100" pos="1344" len="24"/>
          <note pan="0" key="58" vol="100" pos="1368" len="12"/>
          <note pan="0" key="58" vol="100" pos="1380" len="12"/>
          <note pan="0" key="46" vol="100" pos="1392" len="24"/>
          <note pan="0" key="58" vol="100" pos="1416" len="12"/>
          <note pan="0" key="58" vol="100" pos="1428" len="12"/>
          <note pan="0" key="46" vol="100" pos="1440" len="24"/>
          <note pan="0" key="58" vol="100" pos="1464" len="12"/>
          <note pan="0" key="58" vol="100" pos="1476" len="12"/>
          <note pan="0" key="46" vol="100" pos="1488" len="24"/>
          <note pan="0" key="58" vol="100" pos="1512" len="12"/>
          <note pan="0" key="58" vol="100" pos="1524" len="12"/>
        </pattern>
        <pattern steps="16" muted="0" type="1" name="Bass" pos="0" len="384">
          <note pan="0" key="48" vol="100" pos="48" len="48"/>
          <note pan="0" key="48" vol="100" pos="144" len="48"/>
          <note pan="0" key="48" vol="100" pos="240" len="48"/>
          <note pan="0" key="48" vol="100" pos="336" len="48"/>
        </pattern>
        <pattern steps="16" muted="0" type="1" name="Bass" pos="3456" len="1536">
          <note pan="0" key="53" vol="100" pos="0" len="24"/>
          <note pan="0" key="65" vol="100" pos="24" len="12"/>
          <note pan="0" key="65" vol="100" pos="36" len="12"/>
          <note pan="0" key="53" vol="100" pos="48" len="24"/>
          <note pan="0" key="65" vol="100" pos="72" len="12"/>
          <note pan="0" key="65" vol="100" pos="84" len="12"/>
          <note pan="0" key="53" vol="100" pos="96" len="24"/>
          <note pan="0" key="65" vol="100" pos="120" len="12"/>
          <note pan="0" key="65" vol="100" pos="132" len="12"/>
          <note pan="0" key="53" vol="100" pos="144" len="24"/>
          <note pan="0" key="65" vol="100" pos="168" len="12"/>
          <note pan="0" key="65" vol="100" pos="180" len="12"/>
          <note pan="0" key="53" vol="100" pos="192" len="24"/>
          <note pan="0" key="65" vol="100" pos="216" len="12"/>
          <note pan="0" key="65" vol="100" pos="228" len="12"/>
          <note pan="0" key="53" vol="100" pos="240" len="24"/>
          <note pan="0" key="65" vol="100" pos="264" len="12"/>
          <note pan="0" key="65" vol="100" pos="276" len="12"/>
          <note pan="0" key="53" vol="100" pos="288" len="24"/>
          <note pan="0" key="65" vol="100" pos="312" len="12"/>
          <note pan="0" key="65" vol="100" pos="324" len="12"/>
          <note pan="0" key="53" vol="100" pos="336" len="24"/>
          <note pan="0" key="65" vol="100" pos="360" len="12"/>
          <note pan="0" key="65" vol="100" pos="372" len="12"/>
          <note pan="0" key="60" vol="100" pos="384" len="24"/>
          <note pan="0" key="72" vol="100" pos="408" len="12"/>
          <note pan="0" key="72" vol="100" pos="420" len="12"/>
          <note pan="0" key="60" vol="100" pos="432" len="24"/>
          <note pan="0" key="72" vol="100" pos="456" len="12"/>
          <note pan="0" key="72" vol="100" pos="468" len="12"/>
          <note pan="0" key="60" vol="100" pos="480" len="24"/>
          <note pan="0" key="72" vol="100" pos="504" len="12"/>
          <note pan="0" key="72" vol="100" pos="516" len="12"/>
          <note pan="0" key="60" vol="100" pos="528" len="24"/>
          <note pan="0" key="72" vol="100" pos="552" len="12"/>
          <note pan="0" key="72" vol="100" pos="564" len="12"/>
          <note pan="0" key="58" vol="100" pos="576" len="24"/>
          <note pan="0" key="70" vol="100" pos="600" len="12"/>
          <note pan="0" key="70" vol="100" pos="612" len="12"/>
          <note pan="0" key="58" vol="100" pos="624" len="24"/>
          <note pan="0" key="70" vol="100" pos="648" len="12"/>
          <note pan="0" key="70" vol="100" pos="660" len="12"/>
          <note pan="0" key="58" vol="100" pos="672" len="24"/>
          <note pan="0" key="70" vol="100" pos="696" len="12"/>
          <note pan="0" key="70" vol="100" pos="708" len="12"/>
          <note pan="0" key="58" vol="100" pos="720" len="24"/>
          <note pan="0" key="70" vol="100" pos="744" len="12"/>
          <note pan="0" key="70" vol="100" pos="756" len="12"/>
          <note pan="0" key="53" vol="100" pos="768" len="24"/>
          <note pan="0" key="65" vol="100" pos="792" len="12"/>
          <note pan="0" key="65" vol="100" pos="804" len="12"/>
          <note pan="0" key="53" vol="100" pos="816" len="24"/>
          <note pan="0" key="65" vol="100" pos="840" len="12"/>
          <note pan="0" key="65" vol="100" pos="852" len="12"/>
          <note pan="0" key="53" vol="100" pos="864" len="24"/>
          <note pan="0" key="65" vol="100" pos="888" len="12"/>
          <note pan="0" key="65" vol="100" pos="900" len="12"/>
          <note pan="0" key="53" vol="100" pos="912" len="24"/>
          <note pan="0" key="65" vol="100" pos="936" len="12"/>
          <note pan="0" key="65" vol="100" pos="948" len="12"/>
          <note pan="0" key="53" vol="100" pos="960" len="24"/>
          <note pan="0" key="65" vol="100" pos="984" len="12"/>
          <note pan="0" key="65" vol="100" pos="996" len="12"/>
          <note pan="0" key="53" vol="100" pos="1008" len="24"/>
          <note pan="0" key="65" vol="100" pos="1032" len="12"/>
          <note pan="0" key="65" vol="100" pos="1044" len="12"/>
          <note pan="0" key="53" vol="100" pos="1056" len="24"/>
          <note pan="0" key="65" vol="100" pos="1080" len="12"/>
          <note pan="0" key="65" vol="100" pos="1092" len="12"/>
          <note pan="0" key="53" vol="100" pos="1104" len="24"/>
          <note pan="0" key="65" vol="100" pos="1128" len="12"/>
          <note pan="0" key="65" vol="100" pos="1140" len="12"/>
          <note pan="0" key="60" vol="100" pos="1152" len="24"/>
          <note pan="0" key="72" vol="100" pos="1176" len="12"/>
          <note pan="0" key="72" vol="100" pos="1188" len="12"/>
          <note pan="0" key="60" vol="100" pos="1200" len="24"/>
          <note pan="0" key="72" vol="100" pos="1224" len="12"/>
          <note pan="0" key="72" vol="100" pos="1236" len="12"/>
          <note pan="0" key="60" vol="100" pos="1248" len="24"/>
          <note pan="0" key="72" vol="100" pos="1272" len="12"/>
          <note pan="0" key="72" vol="100" pos="1284" len="12"/>
          <note pan="0" key="60" vol="100" pos="1296" len="24"/>
          <note pan="0" key="72" vol="100" pos="1320" len="12"/>
          <note pan="0" key="72" vol="100" pos="1332" len="12"/>
          <note pan="0" key="58" vol="100" pos="1344" len="24"/>
          <note pan="0" key="70" vol="100" pos="1368" len="12"/>
          <note pan="0" key="70" vol="100" pos="1380" len="12"/>
          <note pan="0" key="58" vol="100" pos="1392" len="24"/>
          <note pan="0" key="70" vol="100" pos="1416" len="12"/>
          <note pan="0" key="70" vol="100" pos="1428" len="12"/>
          <note pan="0" key="59" vol="100" pos="1440" len="24"/>
          <note pan="0" key="71" vol="100" pos="1464" len="12"/>
          <note pan="0" key="71" vol="100" pos="1476" len="12"/>
          <note pan="0" key="59" vol="100" pos="1488" len="24"/>
          <note pan="0" key="71" vol="100" pos="1512" len="12"/>
          <note pan="0" key="71" vol="100" pos="1524" len="12"/>
        </pattern>
        <pattern steps="16" muted="0" type="1" name="Bass" pos="6528" len="1536">
          <note pan="0" key="48" vol="100" pos="0" len="24"/>
          <note pan="0" key="60" vol="100" pos="24" len="12"/>
          <note pan="0" key="60" vol="100" pos="36" len="12"/>
          <note pan="0" key="48" vol="100" pos="48" len="24"/>
          <note pan="0" key="60" vol="100" pos="72" len="12"/>
          <note pan="0" key="60" vol="100" pos="84" len="12"/>
          <note pan="0" key="48" vol="100" pos="96" len="24"/>
          <note pan="0" key="60" vol="100" pos="120" len="12"/>
          <note pan="0" key="60" vol="100" pos="132" len="12"/>
          <note pan="0" key="48" vol="100" pos="144" len="24"/>
          <note pan="0" key="60" vol="100" pos="168" len="12"/>
          <note pan="0" key="60" vol="100" pos="180" len="12"/>
          <note pan="0" key="48" vol="100" pos="192" len="24"/>
          <note pan="0" key="60" vol="100" pos="216" len="12"/>
          <note pan="0" key="60" vol="100" pos="228" len="12"/>
          <note pan="0" key="48" vol="100" pos="240" len="24"/>
          <note pan="0" key="60" vol="100" pos="264" len="12"/>
          <note pan="0" key="60" vol="100" pos="276" len="12"/>
          <note pan="0" key="48" vol="100" pos="288" len="24"/>
          <note pan="0" key="60" vol="100" pos="312" len="12"/>
          <note pan="0" key="60" vol="100" pos="324" len="12"/>
          <note pan="0" key="48" vol="100" pos="336" len="24"/>
          <note pan="0" key="60" vol="100" pos="360" len="12"/>
          <note pan="0" key="60" vol="100" pos="372" len="12"/>
          <note pan="0" key="51" vol="100" pos="384" len="24"/>
          <note pan="0" key="63" vol="100" pos="408" len="12"/>
          <note pan="0" key="63" vol="100" pos="420" len="12"/>
          <note pan="0" key="51" vol="100" pos="432" len="24"/>
          <note pan="0" key="63" vol="100" pos="456" len="12"/>
          <note pan="0" key="63" vol="100" pos="468" len="12"/>
          <note pan="0" key="51" vol="100" pos="480" len="24"/>
          <note pan="0" key="63" vol="100" pos="504" len="12"/>
          <note pan="0" key="63" vol="100" pos="516" len="12"/>
          <note pan="0" key="51" vol="100" pos="528" len="24"/>
          <note pan="0" key="63" vol="100" pos="552" len="12"/>
          <note pan="0" key="63" vol="100" pos="564" len="12"/>
          <note pan="0" key="51" vol="100" pos="576" len="24"/>
          <note pan="0" key="63" vol="100" pos="600" len="12"/>
          <note pan="0" key="63" vol="100" pos="612" len="12"/>
          <note pan="0" key="51" vol="100" pos="624" len="24"/>
          <note pan="0" key="63" vol="100" pos="648" len="12"/>
          <note pan="0" key="63" vol="100" pos="660" len="12"/>
          <note pan="0" key="51" vol="100" pos="672" len="24"/>
          <note pan="0" key="63" vol="100" pos="696" len="12"/>
          <note pan="0" key="63" vol="100" pos="708" len="12"/>
          <note pan="0" key="46" vol="100" pos="720" len="48"/>
          <note pan="0" key="53" vol="100" pos="768" len="24"/>
          <note pan="0" key="65" vol="100" pos="792" len="12"/>
          <note pan="0" key="65" vol="100" pos="804" len="12"/>
          <note pan="0" key="53" vol="100" pos="816" len="24"/>
          <note pan="0" key="65" vol="100" pos="840" len="12"/>
          <note pan="0" key="65" vol="100" pos="852" len="12"/>
          <note pan="0" key="53" vol="100" pos="864" len="24"/>
          <note pan="0" key="65" vol="100" pos="888" len="12"/>
          <note pan="0" key="65" vol="100" pos="900" len="12"/>
          <note pan="0" key="53" vol="100" pos="912" len="24"/>
          <note pan="0" key="65" vol="100" pos="936" len="12"/>
          <note pan="0" key="65" vol="100" pos="948" len="12"/>
          <note pan="0" key="53" vol="100" pos="960" len="24"/>
          <note pan="0" key="65" vol="100" pos="984" len="12"/>
          <note pan="0" key="65" vol="100" pos="996" len="12"/>
          <note pan="0" key="53" vol="100" pos="1008" len="24"/>
          <note pan="0" key="65" vol="100" pos="1032" len="12"/>
          <note pan="0" key="65" vol="100" pos="1044" len="12"/>
          <note pan="0" key="53" vol="100" pos="1056" len="24"/>
          <note pan="0" key="65" vol="100" pos="1080" len="12"/>
          <note pan="0" key="65" vol="100" pos="1092" len="12"/>
          <note pan="0" key="53" vol="100" pos="1104" len="24"/>
          <note pan="0" key="65" vol="100" pos="1128" len="12"/>
          <note pan="0" key="65" vol="100" pos="1140" len="12"/>
          <note pan="0" key="51" vol="100" pos="1152" len="24"/>
          <note pan="0" key="63" vol="100" pos="1176" len="12"/>
          <note pan="0" key="63" vol="100" pos="1188" len="12"/>
          <note pan="0" key="51" vol="100" pos="1200" len="24"/>
          <note pan="0" key="63" vol="100" pos="1224" len="12"/>
          <note pan="0" key="63" vol="100" pos="1236" len="12"/>
          <note pan="0" key="51" vol="100" pos="1248" len="24"/>
          <note pan="0" key="63" vol="100" pos="1272" len="12"/>
          <note pan="0" key="63" vol="100" pos="1284" len="12"/>
          <note pan="0" key="51" vol="100" pos="1296" len="24"/>
          <note pan="0" key="63" vol="100" pos="1320" len="12"/>
          <note pan="0" key="63" vol="100" pos="1332" len="12"/>
          <note pan="0" key="51" vol="100" pos="1344" len="24"/>
          <note pan="0" key="63" vol="100" pos="1368" len="12"/>
          <note pan="0" key="63" vol="100" pos="1380" len="12"/>
          <note pan="0" key="51" vol="100" pos="1392" len="24"/>
          <note pan="0" key="63" vol="100" pos="1416" len="12"/>
          <note pan="0" key="63" vol="100" pos="1428" len="12"/>
          <note pan="0" key="51" vol="100" pos="1440" len="24"/>
          <note pan="0" key="63" vol="100" pos="1464" len="12"/>
          <note pan="0" key="63" vol="100" pos="1476" len="12"/>
          <note pan="0" key="50" vol="100" pos="1488" len="24"/>
          <note pan="0" key="62" vol="100" pos="1512" len="12"/>
          <note pan="0" key="62" vol="100" pos="1524" len="12"/>
        </pattern>
        <pattern steps="16" muted="0" type="1" name="Bass" pos="8064" len="1536">
          <note pan="0" key="48" vol="100" pos="0" len="24"/>
          <note pan="0" key="60" vol="100" pos="24" len="12"/>
          <note pan="0" key="60" vol="100" pos="36" len="12"/>
          <note pan="0" key="48" vol="100" pos="48" len="24"/>
          <note pan="0" key="60" vol="100" pos="72" len="12"/>
          <note pan="0" key="60" vol="100" pos="84" len="12"/>
          <note pan="0" key="48" vol="100" pos="96" len="24"/>
          <note pan="0" key="60" vol="100" pos="120" len="12"/>
          <note pan="0" key="60" vol="100" pos="132" len="12"/>
          <note pan="0" key="48" vol="100" pos="144" len="24"/>
          <note pan="0" key="60" vol="100" pos="168" len="12"/>
          <note pan="0" key="60" vol="100" pos="180" len="12"/>
          <note pan="0" key="48" vol="100" pos="192" len="24"/>
          <note pan="0" key="60" vol="100" pos="216" len="12"/>
          <note pan="0" key="60" vol="100" pos="228" len="12"/>
          <note pan="0" key="48" vol="100" pos="240" len="24"/>
          <note pan="0" key="60" vol="100" pos="264" len="12"/>
          <note pan="0" key="60" vol="100" pos="276" len="12"/>
          <note pan="0" key="48" vol="100" pos="288" len="24"/>
          <note pan="0" key="60" vol="100" pos="312" len="12"/>
          <note pan="0" key="60" vol="100" pos="324" len="12"/>
          <note pan="0" key="48" vol="100" pos="336" len="24"/>
          <note pan="0" key="60" vol="100" pos="360" len="12"/>
          <note pan="0" key="60" vol="100" pos="372" len="12"/>
          <note pan="0" key="51" vol="100" pos="384" len="24"/>
          <note pan="0" key="63" vol="100" pos="408" len="12"/>
          <note pan="0" key="63" vol="100" pos="420" len="12"/>
          <note pan="0" key="51" vol="100" pos="432" len="24"/>
          <note pan="0" key="63" vol="100" pos="456" len="12"/>
          <note pan="0" key="63" vol="100" pos="468" len="12"/>
          <note pan="0" key="51" vol="100" pos="480" len="24"/>
          <note pan="0" key="63" vol="100" pos="504" len="12"/>
          <note pan="0" key="63" vol="100" pos="516" len="12"/>
          <note pan="0" key="51" vol="100" pos="528" len="24"/>
          <note pan="0" key="63" vol="100" pos="552" len="12"/>
          <note pan="0" key="63" vol="100" pos="564" len="12"/>
          <note pan="0" key="51" vol="100" pos="576" len="24"/>
          <note pan="0" key="63" vol="100" pos="600" len="12"/>
          <note pan="0" key="63" vol="100" pos="612" len="12"/>
          <note pan="0" key="51" vol="100" pos="624" len="24"/>
          <note pan="0" key="63" vol="100" pos="648" len="12"/>
          <note pan="0" key="63" vol="100" pos="660" len="12"/>
          <note pan="0" key="51" vol="100" pos="672" len="24"/>
          <note pan="0" key="63" vol="100" pos="696" len="12"/>
          <note pan="0" key="63" vol="100" pos="708" len="12"/>
          <note pan="0" key="46" vol="100" pos="720" len="48"/>
          <note pan="0" key="53" vol="100" pos="768" len="24"/>
          <note pan="0" key="65" vol="100" pos="792" len="12"/>
          <note pan="0" key="65" vol="100" pos="804" len="12"/>
          <note pan="0" key="53" vol="100" pos="816" len="24"/>
          <note pan="0" key="65" vol="100" pos="840" len="12"/>
          <note pan="0" key="65" vol="100" pos="852" len="12"/>
          <note pan="0" key="53" vol="100" pos="864" len="24"/>
          <note pan="0" key="65" vol="100" pos="888" len="12"/>
          <note pan="0" key="65" vol="100" pos="900" len="12"/>
          <note pan="0" key="53" vol="100" pos="912" len="24"/>
          <note pan="0" key="65" vol="100" pos="936" len="12"/>
          <note pan="0" key="65" vol="100" pos="948" len="12"/>
          <note pan="0" key="53" vol="100" pos="960" len="24"/>
          <note pan="0" key="65" vol="100" pos="984" len="12"/>
          <note pan="0" key="65" vol="100" pos="996" len="12"/>
          <note pan="0" key="53" vol="100" pos="1008" len="24"/>
          <note pan="0" key="65" vol="100" pos="1032" len="12"/>
          <note pan="0" key="65" vol="100" pos="1044" len="12"/>
          <note pan="0" key="53" vol="100" pos="1056" len="24"/>
          <note pan="0" key="65" vol="100" pos="1080" len="12"/>
          <note pan="0" key="65" vol="100" pos="1092" len="12"/>
          <note pan="0" key="53" vol="100" pos="1104" len="24"/>
          <note pan="0" key="65" vol="100" pos="1128" len="12"/>
          <note pan="0" key="65" vol="100" pos="1140" len="12"/>
          <note pan="0" key="51" vol="100" pos="1152" len="24"/>
          <note pan="0" key="63" vol="100" pos="1176" len="12"/>
          <note pan="0" key="63" vol="100" pos="1188" len="12"/>
          <note pan="0" key="51" vol="100" pos="1200" len="24"/>
          <note pan="0" key="63" vol="100" pos="1224" len="12"/>
          <note pan="0" key="63" vol="100" pos="1236" len="12"/>
          <note pan="0" key="51" vol="100" pos="1248" len="24"/>
          <note pan="0" key="63" vol="100" pos="1272" len="12"/>
          <note pan="0" key="63" vol="100" pos="1284" len="12"/>
          <note pan="0" key="51" vol="100" pos="1296" len="24"/>
          <note pan="0" key="63" vol="100" pos="1320" len="12"/>
          <note pan="0" key="63" vol="100" pos="1332" len="12"/>
          <note pan="0" key="51" vol="100" pos="1344" len="24"/>
          <note pan="0" key="63" vol="100" pos="1368" len="12"/>
          <note pan="0" key="63" vol="100" pos="1380" len="12"/>
          <note pan="0" key="51" vol="100" pos="1392" len="24"/>
          <note pan="0" key="63" vol="100" pos="1416" len="12"/>
          <note pan="0" key="63" vol="100" pos="1428" len="12"/>
          <note pan="0" key="51" vol="100" pos="1440" len="24"/>
          <note pan="0" key="63" vol="100" pos="1464" len="12"/>
          <note pan="0" key="63" vol="100" pos="1476" len="12"/>
          <note pan="0" key="50" vol="100" pos="1488" len="24"/>
          <note pan="0" key="62" vol="100" pos="1512" len="12"/>
          <note pan="0" key="62" vol="100" pos="1524" len="12"/>
        </pattern>
        <pattern steps="16" muted="0" type="1" name="Bass" pos="1920" len="1536">
          <note pan="0" key="48" vol="100" pos="0" len="24"/>
          <note pan="0" key="60" vol="100" pos="24" len="12"/>
          <note pan="0" key="60" vol="100" pos="36" len="12"/>
          <note pan="0" key="48" vol="100" pos="48" len="24"/>
          <note pan="0" key="60" vol="100" pos="72" len="12"/>
          <note pan="0" key="60" vol="100" pos="84" len="12"/>
          <note pan="0" key="48" vol="100" pos="96" len="24"/>
          <note pan="0" key="60" vol="100" pos="120" len="12"/>
          <note pan="0" key="60" vol="100" pos="132" len="12"/>
          <note pan="0" key="48" vol="100" pos="144" len="24"/>
          <note pan="0" key="60" vol="100" pos="168" len="12"/>
          <note pan="0" key="60" vol="100" pos="180" len="12"/>
          <note pan="0" key="48" vol="100" pos="192" len="24"/>
          <note pan="0" key="60" vol="100" pos="216" len="12"/>
          <note pan="0" key="60" vol="100" pos="228" len="12"/>
          <note pan="0" key="48" vol="100" pos="240" len="24"/>
          <note pan="0" key="60" vol="100" pos="264" len="12"/>
          <note pan="0" key="60" vol="100" pos="276" len="12"/>
          <note pan="0" key="48" vol="100" pos="288" len="24"/>
          <note pan="0" key="60" vol="100" pos="312" len="12"/>
          <note pan="0" key="60" vol="100" pos="324" len="12"/>
          <note pan="0" key="48" vol="100" pos="336" len="24"/>
          <note pan="0" key="60" vol="100" pos="360" len="12"/>
          <note pan="0" key="60" vol="100" pos="372" len="12"/>
          <note pan="0" key="44" vol="100" pos="384" len="24"/>
          <note pan="0" key="56" vol="100" pos="408" len="12"/>
          <note pan="0" key="56" vol="100" pos="420" len="12"/>
          <note pan="0" key="44" vol="100" pos="432" len="24"/>
          <note pan="0" key="56" vol="100" pos="456" len="12"/>
          <note pan="0" key="56" vol="100" pos="468" len="12"/>
          <note pan="0" key="44" vol="100" pos="480" len="24"/>
          <note pan="0" key="56" vol="100" pos="504" len="12"/>
          <note pan="0" key="56" vol="100" pos="516" len="12"/>
          <note pan="0" key="44" vol="100" pos="528" len="24"/>
          <note pan="0" key="56" vol="100" pos="552" len="12"/>
          <note pan="0" key="56" vol="100" pos="564" len="12"/>
          <note pan="0" key="44" vol="100" pos="576" len="24"/>
          <note pan="0" key="56" vol="100" pos="600" len="12"/>
          <note pan="0" key="56" vol="100" pos="612" len="12"/>
          <note pan="0" key="44" vol="100" pos="624" len="24"/>
          <note pan="0" key="56" vol="100" pos="648" len="12"/>
          <note pan="0" key="56" vol="100" pos="660" len="12"/>
          <note pan="0" key="44" vol="100" pos="672" len="24"/>
          <note pan="0" key="56" vol="100" pos="696" len="12"/>
          <note pan="0" key="56" vol="100" pos="708" len="12"/>
          <note pan="0" key="44" vol="100" pos="720" len="24"/>
          <note pan="0" key="56" vol="100" pos="744" len="12"/>
          <note pan="0" key="56" vol="100" pos="756" len="12"/>
          <note pan="0" key="46" vol="100" pos="768" len="24"/>
          <note pan="0" key="58" vol="100" pos="792" len="12"/>
          <note pan="0" key="58" vol="100" pos="804" len="12"/>
          <note pan="0" key="46" vol="100" pos="816" len="24"/>
          <note pan="0" key="58" vol="100" pos="840" len="12"/>
          <note pan="0" key="58" vol="100" pos="852" len="12"/>
          <note pan="0" key="46" vol="100" pos="864" len="24"/>
          <note pan="0" key="58" vol="100" pos="888" len="12"/>
          <note pan="0" key="58" vol="100" pos="900" len="12"/>
          <note pan="0" key="46" vol="100" pos="912" len="24"/>
          <note pan="0" key="58" vol="100" pos="936" len="12"/>
          <note pan="0" key="58" vol="100" pos="948" len="12"/>
          <note pan="0" key="46" vol="100" pos="960" len="24"/>
          <note pan="0" key="58" vol="100" pos="984" len="12"/>
          <note pan="0" key="58" vol="100" pos="996" len="12"/>
          <note pan="0" key="46" vol="100" pos="1008" len="24"/>
          <note pan="0" key="58" vol="100" pos="1032" len="12"/>
          <note pan="0" key="58" vol="100" pos="1044" len="12"/>
          <note pan="0" key="46" vol="100" pos="1056" len="24"/>
          <note pan="0" key="58" vol="100" pos="1080" len="12"/>
          <note pan="0" key="58" vol="100" pos="1092" len="12"/>
          <note pan="0" key="46" vol="100" pos="1104" len="24"/>
          <note pan="0" key="58" vol="100" pos="1128" len="12"/>
          <note pan="0" key="58" vol="100" pos="1140" len="12"/>
          <note pan="0" key="44" vol="100" pos="1152" len="24"/>
          <note pan="0" key="56" vol="100" pos="1176" len="12"/>
          <note pan="0" key="56" vol="100" pos="1188" len="12"/>
          <note pan="0" key="44" vol="100" pos="1200" len="24"/>
          <note pan="0" key="56" vol="100" pos="1224" len="12"/>
          <note pan="0" key="56" vol="100" pos="1236" len="12"/>
          <note pan="0" key="44" vol="100" pos="1248" len="24"/>
          <note pan="0" key="56" vol="100" pos="1272" len="12"/>
          <note pan="0" key="56" vol="100" pos="1284" len="12"/>
          <note pan="0" key="44" vol="100" pos="1296" len="24"/>
          <note pan="0" key="56" vol="100" pos="1320" len="12"/>
          <note pan="0" key="56" vol="100" pos="1332" len="12"/>
          <note pan="0" key="46" vol="100" pos="1344" len="24"/>
          <note pan="0" key="58" vol="100" pos="1368" len="12"/>
          <note pan="0" key="58" vol="100" pos="1380" len="12"/>
          <note pan="0" key="46" vol="100" pos="1392" len="24"/>
          <note pan="0" key="58" vol="100" pos="1416" len="12"/>
          <note pan="0" key="58" vol="100" pos="1428" len="12"/>
          <note pan="0" key="46" vol="100" pos="1440" len="24"/>
          <note pan="0" key="58" vol="100" pos="1464" len="12"/>
          <note pan="0" key="58" vol="100" pos="1476" len="12"/>
          <note pan="0" key="46" vol="100" pos="1488" len="24"/>
          <note pan="0" key="58" vol="100" pos="1512" len="12"/>
          <note pan="0" key="58" vol="100" pos="1524" len="12"/>
        </pattern>
        <pattern steps="16" muted="0" type="1" name="Bass" pos="4992" len="1536">
          <note pan="0" key="53" vol="100" pos="0" len="24"/>
          <note pan="0" key="65" vol="100" pos="24" len="12"/>
          <note pan="0" key="65" vol="100" pos="36" len="12"/>
          <note pan="0" key="53" vol="100" pos="48" len="24"/>
          <note pan="0" key="65" vol="100" pos="72" len="12"/>
          <note pan="0" key="65" vol="100" pos="84" len="12"/>
          <note pan="0" key="53" vol="100" pos="96" len="24"/>
          <note pan="0" key="65" vol="100" pos="120" len="12"/>
          <note pan="0" key="65" vol="100" pos="132" len="12"/>
          <note pan="0" key="53" vol="100" pos="144" len="24"/>
          <note pan="0" key="65" vol="100" pos="168" len="12"/>
          <note pan="0" key="65" vol="100" pos="180" len="12"/>
          <note pan="0" key="53" vol="100" pos="192" len="24"/>
          <note pan="0" key="65" vol="100" pos="216" len="12"/>
          <note pan="0" key="65" vol="100" pos="228" len="12"/>
          <note pan="0" key="53" vol="100" pos="240" len="24"/>
          <note pan="0" key="65" vol="100" pos="264" len="12"/>
          <note pan="0" key="65" vol="100" pos="276" len="12"/>
          <note pan="0" key="53" vol="100" pos="288" len="24"/>
          <note pan="0" key="65" vol="100" pos="312" len="12"/>
          <note pan="0" key="65" vol="100" pos="324" len="12"/>
          <note pan="0" key="53" vol="100" pos="336" len="24"/>
          <note pan="0" key="65" vol="100" pos="360" len="12"/>
          <note pan="0" key="65" vol="100" pos="372" len="12"/>
          <note pan="0" key="60" vol="100" pos="384" len="24"/>
          <note pan="0" key="72" vol="100" pos="408" len="12"/>
          <note pan="0" key="72" vol="100" pos="420" len="12"/>
          <note pan="0" key="60" vol="100" pos="432" len="24"/>
          <note pan="0" key="72" vol="100" pos="456" len="12"/>
          <note pan="0" key="72" vol="100" pos="468" len="12"/>
          <note pan="0" key="60" vol="100" pos="480" len="24"/>
          <note pan="0" key="72" vol="100" pos="504" len="12"/>
          <note pan="0" key="72" vol="100" pos="516" len="12"/>
          <note pan="0" key="60" vol="100" pos="528" len="24"/>
          <note pan="0" key="72" vol="100" pos="552" len="12"/>
          <note pan="0" key="72" vol="100" pos="564" len="12"/>
          <note pan="0" key="58" vol="100" pos="576" len="24"/>
          <note pan="0" key="70" vol="100" pos="600" len="12"/>
          <note pan="0" key="70" vol="100" pos="612" len="12"/>
          <note pan="0" key="58" vol="100" pos="624" len="24"/>
          <note pan="0" key="70" vol="100" pos="648" len="12"/>
          <note pan="0" key="70" vol="100" pos="660" len="12"/>
          <note pan="0" key="58" vol="100" pos="672" len="24"/>
          <note pan="0" key="70" vol="100" pos="696" len="12"/>
          <note pan="0" key="70" vol="100" pos="708" len="12"/>
          <note pan="0" key="58" vol="100" pos="720" len="24"/>
          <note pan="0" key="70" vol="100" pos="744" len="12"/>
          <note pan="0" key="70" vol="100" pos="756" len="12"/>
          <note pan="0" key="53" vol="100" pos="768" len="24"/>
          <note pan="0" key="65" vol="100" pos="792" len="12"/>
          <note pan="0" key="65" vol="100" pos="804" len="12"/>
          <note pan="0" key="53" vol="100" pos="816" len="24"/>
          <note pan="0" key="65" vol="100" pos="840" len="12"/>
          <note pan="0" key="65" vol="100" pos="852" len="12"/>
          <note pan="0" key="53" vol="100" pos="864" len="24"/>
          <note pan="0" key="65" vol="100" pos="888" len="12"/>
          <note pan="0" key="65" vol="100" pos="900" len="12"/>
          <note pan="0" key="53" vol="100" pos="912" len="24"/>
          <note pan="0" key="65" vol="100" pos="936" len="12"/>
          <note pan="0" key="65" vol="100" pos="948" len="12"/>
          <note pan="0" key="53" vol="100" pos="960" len="24"/>
          <note pan="0" key="65" vol="100" pos="984" len="12"/>
          <note pan="0" key="65" vol="100" pos="996" len="12"/>
          <note pan="0" key="53" vol="100" pos="1008" len="24"/>
          <note pan="0" key="65" vol="100" pos="1032" len="12"/>
          <note pan="0" key="65" vol="100" pos="1044" len="12"/>
          <note pan="0" key="53" vol="100" pos="1056" len="24"/>
          <note pan="0" key="65" vol="100" pos="1080" len="12"/>
          <note pan="0" key="65" vol="100" pos="1092" len="12"/>
          <note pan="0" key="53" vol="100" pos="1104" len="24"/>
          <note pan="0" key="65" vol="100" pos="1128" len="12"/>
          <note pan="0" key="65" vol="100" pos="1140" len="12"/>
          <note pan="0" key="60" vol="100" pos="1152" len="24"/>
          <note pan="0" key="72" vol="100" pos="1176" len="12"/>
          <note pan="0" key="72" vol="100" pos="1188" len="12"/>
          <note pan="0" key="60" vol="100" pos="1200" len="24"/>
          <note pan="0" key="72" vol="100" pos="1224" len="12"/>
          <note pan="0" key="72" vol="100" pos="1236" len="12"/>
          <note pan="0" key="60" vol="100" pos="1248" len="24"/>
          <note pan="0" key="72" vol="100" pos="1272" len="12"/>
          <note pan="0" key="72" vol="100" pos="1284" len="12"/>
          <note pan="0" key="60" vol="100" pos="1296" len="24"/>
          <note pan="0" key="72" vol="100" pos="1320" len="12"/>
          <note pan="0" key="72" vol="100" pos="1332" len="12"/>
          <note pan="0" key="58" vol="100" pos="1344" len="24"/>
          <note pan="0" key="70" vol="100" pos="1368" len="12"/>
          <note pan="0" key="70" vol="100" pos="1380" len="12"/>
          <note pan="0" key="58" vol="100" pos="1392" len="24"/>
          <note pan="0" key="70" vol="100" pos="1416" len="12"/>
          <note pan="0" key="70" vol="100" pos="1428" len="12"/>
          <note pan="0" key="59" vol="100" pos="1440" len="24"/>
          <note pan="0" key="71" vol="100" pos="1464" len="12"/>
          <note pan="0" key="71" vol="100" pos="1476" len="12"/>
          <note pan="0" key="59" vol="100" pos="1488" len="24"/>
          <note pan="0" key="71" vol="100" pos="1512" len="12"/>
          <note pan="0" key="71" vol="100" pos="1524" len="12"/>
        </pattern>
        <pattern steps="16" muted="0" type="1" name="Bass" pos="9600" len="1536">
          <note pan="0" key="48" vol="100" pos="0" len="24"/>
          <note pan="0" key="60" vol="100" pos="24" len="12"/>
          <note pan="0" key="60" vol="100" pos="36" len="12"/>
          <note pan="0" key="48" vol="100" pos="48" len="24"/>
          <note pan="0" key="60" vol="100" pos="72" len="12"/>
          <note pan="0" key="60" vol="100" pos="84" len="12"/>
          <note pan="0" key="48" vol="100" pos="96" len="24"/>
          <note pan="0" key="60" vol="100" pos="120" len="12"/>
          <note pan="0" key="60" vol="100" pos="132" len="12"/>
          <note pan="0" key="48" vol="100" pos="144" len="24"/>
          <note pan="0" key="60" vol="100" pos="168" len="12"/>
          <note pan="0" key="60" vol="100" pos="180" len="12"/>
          <note pan="0" key="48" vol="100" pos="192" len="24"/>
          <note pan="0" key="60" vol="100" pos="216" len="12"/>
          <note pan="0" key="60" vol="100" pos="228" len="12"/>
          <note pan="0" key="48" vol="100" pos="240" len="24"/>
          <note pan="0" key="60" vol="100" pos="264" len="12"/>
          <note pan="0" key="60" vol="100" pos="276" len="12"/>
          <note pan="0" key="48" vol="100" pos="288" len="24"/>
          <note pan="0" key="60" vol="100" pos="312" len="12"/>
          <note pan="0" key="60" vol="100" pos="324" len="12"/>
          <note pan="0" key="48" vol="100" pos="336" len="24"/>
          <note pan="0" key="60" vol="100" pos="360" len="12"/>
          <note pan="0" key="60" vol="100" pos="372" len="12"/>
          <note pan="0" key="44" vol="100" pos="384" len="24"/>
          <note pan="0" key="56" vol="100" pos="408" len="12"/>
          <note pan="0" key="56" vol="100" pos="420" len="12"/>
          <note pan="0" key="44" vol="100" pos="432" len="24"/>
          <note pan="0" key="56" vol="100" pos="456" len="12"/>
          <note pan="0" key="56" vol="100" pos="468" len="12"/>
          <note pan="0" key="44" vol="100" pos="480" len="24"/>
          <note pan="0" key="56" vol="100" pos="504" len="12"/>
          <note pan="0" key="56" vol="100" pos="516" len="12"/>
          <note pan="0" key="44" vol="100" pos="528" len="24"/>
          <note pan="0" key="56" vol="100" pos="552" len="12"/>
          <note pan="0" key="56" vol="100" pos="564" len="12"/>
          <note pan="0" key="44" vol="100" pos="576" len="24"/>
          <note pan="0" key="56" vol="100" pos="600" len="12"/>
          <note pan="0" key="56" vol="100" pos="612" len="12"/>
          <note pan="0" key="44" vol="100" pos="624" len="24"/>
          <note pan="0" key="56" vol="100" pos="648" len="12"/>
          <note pan="0" key="56" vol="100" pos="660" len="12"/>
          <note pan="0" key="44" vol="100" pos="672" len="24"/>
          <note pan="0" key="56" vol="100" pos="696" len="12"/>
          <note pan="0" key="56" vol="100" pos="708" len="12"/>
          <note pan="0" key="44" vol="100" pos="720" len="24"/>
          <note pan="0" key="56" vol="100" pos="744" len="12"/>
          <note pan="0" key="56" vol="100" pos="756" len="12"/>
          <note pan="0" key="46" vol="100" pos="768" len="24"/>
          <note pan="0" key="58" vol="100" pos="792" len="12"/>
          <note pan="0" key="58" vol="100" pos="804" len="12"/>
          <note pan="0" key="46" vol="100" pos="816" len="24"/>
          <note pan="0" key="58" vol="100" pos="840" len="12"/>
          <note pan="0" key="58" vol="100" pos="852" len="12"/>
          <note pan="0" key="46" vol="100" pos="864" len="24"/>
          <note pan="0" key="58" vol="100" pos="888" len="12"/>
          <note pan="0" key="58" vol="100" pos="900" len="12"/>
          <note pan="0" key="46" vol="100" pos="912" len="24"/>
          <note pan="0" key="58" vol="100" pos="936" len="12"/>
          <note pan="0" key="58" vol="100" pos="948" len="12"/>
          <note pan="0" key="46" vol="100" pos="960" len="24"/>
          <note pan="0" key="58" vol="100" pos="984" len="12"/>
          <note pan="0" key="58" vol="100" pos="996" len="12"/>
          <note pan="0" key="46" vol="100" pos="1008" len="24"/>
          <note pan="0" key="58" vol="100" pos="1032" len="12"/>
          <note pan="0" key="58" vol="100" pos="1044" len="12"/>
          <note pan="0" key="46" vol="100" pos="1056" len="24"/>
          <note pan="0" key="58" vol="100" pos="1080" len="12"/>
          <note pan="0" key="58" vol="100" pos="1092" len="12"/>
          <note pan="0" key="46" vol="100" pos="1104" len="24"/>
          <note pan="0" key="58" vol="100" pos="1128" len="12"/>
          <note pan="0" key="58" vol="100" pos="1140" len="12"/>
          <note pan="0" key="44" vol="100" pos="1152" len="24"/>
          <note pan="0" key="56" vol="100" pos="1176" len="12"/>
          <note pan="0" key="56" vol="100" pos="1188" len="12"/>
          <note pan="0" key="44" vol="100" pos="1200" len="24"/>
          <note pan="0" key="56" vol="100" pos="1224" len="12"/>
          <note pan="0" key="56" vol="100" pos="1236" len="12"/>
          <note pan="0" key="44" vol="100" pos="1248" len="24"/>
          <note pan="0" key="56" vol="100" pos="1272" len="12"/>
          <note pan="0" key="56" vol="100" pos="1284" len="12"/>
          <note pan="0" key="44" vol="100" pos="1296" len="24"/>
          <note pan="0" key="56" vol="100" pos="1320" len="12"/>
          <note pan="0" key="56" vol="100" pos="1332" len="12"/>
          <note pan="0" key="46" vol="100" pos="1344" len="24"/>
          <note pan="0" key="58" vol="100" pos="1368" len="12"/>
          <note pan="0" key="58" vol="100" pos="1380" len="12"/>
          <note pan="0" key="46" vol="100" pos="1392" len="24"/>
          <note pan="0" key="58" vol="100" pos="1416" len="12"/>
          <note pan="0" key="58" vol="100" pos="1428" len="12"/>
          <note pan="0" key="46" vol="100" pos="1440" len="24"/>
          <note pan="0" key="58" vol="100" pos="1464" len="12"/>
          <note pan="0" key="58" vol="100" pos="1476" len="12"/>
          <note pan="0" key="46" vol="100" pos="1488" len="24"/>
          <note pan="0" key="58" vol="100" pos="1512" len="12"/>
          <note pan="0" key="58" vol="100" pos="1524" len="12"/>
        </pattern>
        <pattern steps="16" muted="0" type="1" name="Bass" pos="11136" len="1536">
          <note pan="0" key="48" vol="100" pos="0" len="24"/>
          <note pan="0" key="60" vol="100" pos="24" len="12"/>
          <note pan="0" key="60" vol="100" pos="36" len="12"/>
          <note pan="0" key="48" vol="100" pos="48" len="24"/>
          <note pan="0" key="60" vol="100" pos="72" len="12"/>
          <note pan="0" key="60" vol="100" pos="84" len="12"/>
          <note pan="0" key="48" vol="100" pos="96" len="24"/>
          <note pan="0" key="60" vol="100" pos="120" len="12"/>
          <note pan="0" key="60" vol="100" pos="132" len="12"/>
          <note pan="0" key="48" vol="100" pos="144" len="24"/>
          <note pan="0" key="60" vol="100" pos="168" len="12"/>
          <note pan="0" key="60" vol="100" pos="180" len="12"/>
          <note pan="0" key="48" vol="100" pos="192" len="24"/>
          <note pan="0" key="60" vol="100" pos="216" len="12"/>
          <note pan="0" key="60" vol="100" pos="228" len="12"/>
          <note pan="0" key="48" vol="100" pos="240" len="24"/>
          <note pan="0" key="60" vol="100" pos="264" len="12"/>
          <note pan="0" key="60" vol="100" pos="276" len="12"/>
          <note pan="0" key="48" vol="100" pos="288" len="24"/>
          <note pan="0" key="60" vol="100" pos="312" len="12"/>
          <note pan="0" key="60" vol="100" pos="324" len="12"/>
          <note pan="0" key="48" vol="100" pos="336" len="24"/>
          <note pan="0" key="60" vol="100" pos="360" len="12"/>
          <note pan="0" key="60" vol="100" pos="372" len="12"/>
          <note pan="0" key="44" vol="100" pos="384" len="24"/>
          <note pan="0" key="56" vol="100" pos="408" len="12"/>
          <note pan="0" key="56" vol="100" pos="420" len="12"/>
          <note pan="0" key="44" vol="100" pos="432" len="24"/>
          <note pan="0" key="56" vol="100" pos="456" len="12"/>
          <note pan="0" key="56" vol="100" pos="468" len="12"/>
          <note pan="0" key="44" vol="100" pos="480" len="24"/>
          <note pan="0" key="56" vol="100" pos="504" len="12"/>
          <note pan="0" key="56" vol="100" pos="516" len="12"/>
          <note pan="0" key="44" vol="100" pos="528" len="24"/>
          <note pan="0" key="56" vol="100" pos="552" len="12"/>
          <note pan="0" key="56" vol="100" pos="564" len="12"/>
          <note pan="0" key="44" vol="100" pos="576" len="24"/>
          <note pan="0" key="56" vol="100" pos="600" len="12"/>
          <note pan="0" key="56" vol="100" pos="612" len="12"/>
          <note pan="0" key="44" vol="100" pos="624" len="24"/>
          <note pan="0" key="56" vol="100" pos="648" len="12"/>
          <note pan="0" key="56" vol="100" pos="660" len="12"/>
          <note pan="0" key="44" vol="100" pos="672" len="24"/>
          <note pan="0" key="56" vol="100" pos="696" len="12"/>
          <note pan="0" key="56" vol="100" pos="708" len="12"/>
          <note pan="0" key="44" vol="100" pos="720" len="24"/>
          <note pan="0" key="56" vol="100" pos="744" len="12"/>
          <note pan="0" key="56" vol="100" pos="756" len="12"/>
          <note pan="0" key="46" vol="100" pos="768" len="24"/>
          <note pan="0" key="58" vol="100" pos="792" len="12"/>
          <note pan="0" key="58" vol="100" pos="804" len="12"/>
          <note pan="0" key="46" vol="100" pos="816" len="24"/>
          <note pan="0" key="58" vol="100" pos="840" len="12"/>
          <note pan="0" key="58" vol="100" pos="852" len="12"/>
          <note pan="0" key="46" vol="100" pos="864" len="24"/>
          <note pan="0" key="58" vol="100" pos="888" len="12"/>
          <note pan="0" key="58" vol="100" pos="900" len="12"/>
          <note pan="0" key="46" vol="100" pos="912" len="24"/>
          <note pan="0" key="58" vol="100" pos="936" len="12"/>
          <note pan="0" key="58" vol="100" pos="948" len="12"/>
          <note pan="0" key="46" vol="100" pos="960" len="24"/>
          <note pan="0" key="58" vol="100" pos="984" len="12"/>
          <note pan="0" key="58" vol="100" pos="996" len="12"/>
          <note pan="0" key="46" vol="100" pos="1008" len="24"/>
          <note pan="0" key="58" vol="100" pos="1032" len="12"/>
          <note pan="0" key="58" vol="100" pos="1044" len="12"/>
          <note pan="0" key="46" vol="100" pos="1056" len="24"/>
          <note pan="0" key="58" vol="100" pos="1080" len="12"/>
          <note pan="0" key="58" vol="100" pos="1092" len="12"/>
          <note pan="0" key="46" vol="100" pos="1104" len="24"/>
          <note pan="0" key="58" vol="100" pos="1128" len="12"/>
          <note pan="0" key="58" vol="100" pos="1140" len="12"/>
          <note pan="0" key="44" vol="100" pos="1152" len="24"/>
          <note pan="0" key="56" vol="100" pos="1176" len="12"/>
          <note pan="0" key="56" vol="100" pos="1188" len="12"/>
          <note pan="0" key="44" vol="100" pos="1200" len="24"/>
          <note pan="0" key="56" vol="100" pos="1224" len="12"/>
          <note pan="0" key="56" vol="100" pos="1236" len="12"/>
          <note pan="0" key="44" vol="100" pos="1248" len="24"/>
          <note pan="0" key="56" vol="100" pos="1272" len="12"/>
          <note pan="0" key="56" vol="100" pos="1284" len="12"/>
          <note pan="0" key="44" vol="100" pos="1296" len="24"/>
          <note pan="0" key="56" vol="100" pos="1320" len="12"/>
          <note pan="0" key="56" vol="100" pos="1332" len="12"/>
          <note pan="0" key="46" vol="100" pos="1344" len="24"/>
          <note pan="0" key="58" vol="100" pos="1368" len="12"/>
          <note pan="0" key="58" vol="100" pos="1380" len="12"/>
          <note pan="0" key="46" vol="100" pos="1392" len="24"/>
          <note pan="0" key="58" vol="100" pos="1416" len="12"/>
          <note pan="0" key="58" vol="100" pos="1428" len="12"/>
          <note pan="0" key="46" vol="100" pos="1440" len="24"/>
          <note pan="0" key="58" vol="100" pos="1464" len="12"/>
          <note pan="0" key="58" vol="100" pos="1476" len="12"/>
          <note pan="0" key="46" vol="100" pos="1488" len="24"/>
          <note pan="0" key="58" vol="100" pos="1512" len="12"/>
          <note pan="0" key="58" vol="100" pos="1524" len="12"/>
        </pattern>
        <pattern steps="16" muted="0" type="1" name="Bass" pos="12672" len="1536">
          <note pan="0" key="53" vol="100" pos="0" len="24"/>
          <note pan="0" key="65" vol="100" pos="24" len="12"/>
          <note pan="0" key="65" vol="100" pos="36" len="12"/>
          <note pan="0" key="53" vol="100" pos="48" len="24"/>
          <note pan="0" key="65" vol="100" pos="72" len="12"/>
          <note pan="0" key="65" vol="100" pos="84" len="12"/>
          <note pan="0" key="53" vol="100" pos="96" len="24"/>
          <note pan="0" key="65" vol="100" pos="120" len="12"/>
          <note pan="0" key="65" vol="100" pos="132" len="12"/>
          <note pan="0" key="53" vol="100" pos="144" len="24"/>
          <note pan="0" key="65" vol="100" pos="168" len="12"/>
          <note pan="0" key="65" vol="100" pos="180" len="12"/>
          <note pan="0" key="53" vol="100" pos="192" len="24"/>
          <note pan="0" key="65" vol="100" pos="216" len="12"/>
          <note pan="0" key="65" vol="100" pos="228" len="12"/>
          <note pan="0" key="53" vol="100" pos="240" len="24"/>
          <note pan="0" key="65" vol="100" pos="264" len="12"/>
          <note pan="0" key="65" vol="100" pos="276" len="12"/>
          <note pan="0" key="53" vol="100" pos="288" len="24"/>
          <note pan="0" key="65" vol="100" pos="312" len="12"/>
          <note pan="0" key="65" vol="100" pos="324" len="12"/>
          <note pan="0" key="53" vol="100" pos="336" len="24"/>
          <note pan="0" key="65" vol="100" pos="360" len="12"/>
          <note pan="0" key="65" vol="100" pos="372" len="12"/>
          <note pan="0" key="60" vol="100" pos="384" len="24"/>
          <note pan="0" key="72" vol="100" pos="408" len="12"/>
          <note pan="0" key="72" vol="100" pos="420" len="12"/>
          <note pan="0" key="60" vol="100" pos="432" len="24"/>
          <note pan="0" key="72" vol="100" pos="456" len="12"/>
          <note pan="0" key="72" vol="100" pos="468" len="12"/>
          <note pan="0" key="60" vol="100" pos="480" len="24"/>
          <note pan="0" key="72" vol="100" pos="504" len="12"/>
          <note pan="0" key="72" vol="100" pos="516" len="12"/>
          <note pan="0" key="60" vol="100" pos="528" len="24"/>
          <note pan="0" key="72" vol="100" pos="552" len="12"/>
          <note pan="0" key="72" vol="100" pos="564" len="12"/>
          <note pan="0" key="58" vol="100" pos="576" len="24"/>
          <note pan="0" key="70" vol="100" pos="600" len="12"/>
          <note pan="0" key="70" vol="100" pos="612" len="12"/>
          <note pan="0" key="58" vol="100" pos="624" len="24"/>
          <note pan="0" key="70" vol="100" pos="648" len="12"/>
          <note pan="0" key="70" vol="100" pos="660" len="12"/>
          <note pan="0" key="58" vol="100" pos="672" len="24"/>
          <note pan="0" key="70" vol="100" pos="696" len="12"/>
          <note pan="0" key="70" vol="100" pos="708" len="12"/>
          <note pan="0" key="58" vol="100" pos="720" len="24"/>
          <note pan="0" key="70" vol="100" pos="744" len="12"/>
          <note pan="0" key="70" vol="100" pos="756" len="12"/>
          <note pan="0" key="53" vol="100" pos="768" len="24"/>
          <note pan="0" key="65" vol="100" pos="792" len="12"/>
          <note pan="0" key="65" vol="100" pos="804" len="12"/>
          <note pan="0" key="53" vol="100" pos="816" len="24"/>
          <note pan="0" key="65" vol="100" pos="840" len="12"/>
          <note pan="0" key="65" vol="100" pos="852" len="12"/>
          <note pan="0" key="53" vol="100" pos="864" len="24"/>
          <note pan="0" key="65" vol="100" pos="888" len="12"/>
          <note pan="0" key="65" vol="100" pos="900" len="12"/>
          <note pan="0" key="53" vol="100" pos="912" len="24"/>
          <note pan="0" key="65" vol="100" pos="936" len="12"/>
          <note pan="0" key="65" vol="100" pos="948" len="12"/>
          <note pan="0" key="53" vol="100" pos="960" len="24"/>
          <note pan="0" key="65" vol="100" pos="984" len="12"/>
          <note pan="0" key="65" vol="100" pos="996" len="12"/>
          <note pan="0" key="53" vol="100" pos="1008" len="24"/>
          <note pan="0" key="65" vol="100" pos="1032" len="12"/>
          <note pan="0" key="65" vol="100" pos="1044" len="12"/>
          <note pan="0" key="53" vol="100" pos="1056" len="24"/>
          <note pan="0" key="65" vol="100" pos="1080" len="12"/>
          <note pan="0" key="65" vol="100" pos="1092" len="12"/>
          <note pan="0" key="53" vol="100" pos="1104" len="24"/>
          <note pan="0" key="65" vol="100" pos="1128" len="12"/>
          <note pan="0" key="65" vol="100" pos="1140" len="12"/>
          <note pan="0" key="60" vol="100" pos="1152" len="24"/>
          <note pan="0" key="72" vol="100" pos="1176" len="12"/>
          <note pan="0" key="72" vol="100" pos="1188" len="12"/>
          <note pan="0" key="60" vol="100" pos="1200" len="24"/>
          <note pan="0" key="72" vol="100" pos="1224" len="12"/>
          <note pan="0" key="72" vol="100" pos="1236" len="12"/>
          <note pan="0" key="60" vol="100" pos="1248" len="24"/>
          <note pan="0" key="72" vol="100" pos="1272" len="12"/>
          <note pan="0" key="72" vol="100" pos="1284" len="12"/>
          <note pan="0" key="60" vol="100" pos="1296" len="24"/>
          <note pan="0" key="72" vol="100" pos="1320" len="12"/>
          <note pan="0" key="72" vol="100" pos="1332" len="12"/>
          <note pan="0" key="58" vol="100" pos="1344" len="24"/>
          <note pan="0" key="70" vol="100" pos="1368" len="12"/>
          <note pan="0" key="70" vol="100" pos="1380" len="12"/>
          <note pan="0" key="58" vol="100" pos="1392" len="24"/>
          <note pan="0" key="70" vol="100" pos="1416" len="12"/>
          <note pan="0" key="70" vol="100" pos="1428" len="12"/>
          <note pan="0" key="59" vol="100" pos="1440" len="24"/>
          <note pan="0" key="71" vol="100" pos="1464" len="12"/>
          <note pan="0" key="71" vol="100" pos="1476" len="12"/>
          <note pan="0" key="59" vol="100" pos="1488" len="24"/>
          <note pan="0" key="71" vol="100" pos="1512" len="12"/>
          <note pan="0" key="71" vol="100" pos="1524" len="12"/>
        </pattern>
        <pattern steps="16" muted="0" type="1" name="Bass" pos="14208" len="1536">
          <note pan="0" key="53" vol="100" pos="0" len="24"/>
          <note pan="0" key="65" vol="100" pos="24" len="12"/>
          <note pan="0" key="65" vol="100" pos="36" len="12"/>
          <note pan="0" key="53" vol="100" pos="48" len="24"/>
          <note pan="0" key="65" vol="100" pos="72" len="12"/>
          <note pan="0" key="65" vol="100" pos="84" len="12"/>
          <note pan="0" key="53" vol="100" pos="96" len="24"/>
          <note pan="0" key="65" vol="100" pos="120" len="12"/>
          <note pan="0" key="65" vol="100" pos="132" len="12"/>
          <note pan="0" key="53" vol="100" pos="144" len="24"/>
          <note pan="0" key="65" vol="100" pos="168" len="12"/>
          <note pan="0" key="65" vol="100" pos="180" len="12"/>
          <note pan="0" key="53" vol="100" pos="192" len="24"/>
          <note pan="0" key="65" vol="100" pos="216" len="12"/>
          <note pan="0" key="65" vol="100" pos="228" len="12"/>
          <note pan="0" key="53" vol="100" pos="240" len="24"/>
          <note pan="0" key="65" vol="100" pos="264" len="12"/>
          <note pan="0" key="65" vol="100" pos="276" len="12"/>
          <note pan="0" key="53" vol="100" pos="288" len="24"/>
          <note pan="0" key="65" vol="100" pos="312" len="12"/>
          <note pan="0" key="65" vol="100" pos="324" len="12"/>
          <note pan="0" key="53" vol="100" pos="336" len="24"/>
          <note pan="0" key="65" vol="100" pos="360" len="12"/>
          <note pan="0" key="65" vol="100" pos="372" len="12"/>
          <note pan="0" key="60" vol="100" pos="384" len="24"/>
          <note pan="0" key="72" vol="100" pos="408" len="12"/>
          <note pan="0" key="72" vol="100" pos="420" len="12"/>
          <note pan="0" key="60" vol="100" pos="432" len="24"/>
          <note pan="0" key="72" vol="100" pos="456" len="12"/>
          <note pan="0" key="72" vol="100" pos="468" len="12"/>
          <note pan="0" key="60" vol="100" pos="480" len="24"/>
          <note pan="0" key="72" vol="100" pos="504" len="12"/>
          <note pan="0" key="72" vol="100" pos="516" len="12"/>
          <note pan="0" key="60" vol="100" pos="528" len="24"/>
          <note pan="0" key="72" vol="100" pos="552" len="12"/>
          <note pan="0" key="72" vol="100" pos="564" len="12"/>
          <note pan="0" key="58" vol="100" pos="576" len="24"/>
          <note pan="0" key="70" vol="100" pos="600" len="12"/>
          <note pan="0" key="70" vol="100" pos="612" len="12"/>
          <note pan="0" key="58" vol="100" pos="624" len="24"/>
          <note pan="0" key="70" vol="100" pos="648" len="12"/>
          <note pan="0" key="70" vol="100" pos="660" len="12"/>
          <note pan="0" key="58" vol="100" pos="672" len="24"/>
          <note pan="0" key="70" vol="100" pos="696" len="12"/>
          <note pan="0" key="70" vol="100" pos="708" len="12"/>
          <note pan="0" key="58" vol="100" pos="720" len="24"/>
          <note pan="0" key="70" vol="100" pos="744" len="12"/>
          <note pan="0" key="70" vol="100" pos="756" len="12"/>
          <note pan="0" key="53" vol="100" pos="768" len="24"/>
          <note pan="0" key="65" vol="100" pos="792" len="12"/>
          <note pan="0" key="65" vol="100" pos="804" len="12"/>
          <note pan="0" key="53" vol="100" pos="816" len="24"/>
          <note pan="0" key="65" vol="100" pos="840" len="12"/>
          <note pan="0" key="65" vol="100" pos="852" len="12"/>
          <note pan="0" key="53" vol="100" pos="864" len="24"/>
          <note pan="0" key="65" vol="100" pos="888" len="12"/>
          <note pan="0" key="65" vol="100" pos="900" len="12"/>
          <note pan="0" key="53" vol="100" pos="912" len="24"/>
          <note pan="0" key="65" vol="100" pos="936" len="12"/>
          <note pan="0" key="65" vol="100" pos="948" len="12"/>
          <note pan="0" key="53" vol="100" pos="960" len="24"/>
          <note pan="0" key="65" vol="100" pos="984" len="12"/>
          <note pan="0" key="65" vol="100" pos="996" len="12"/>
          <note pan="0" key="53" vol="100" pos="1008" len="24"/>
          <note pan="0" key="65" vol="100" pos="1032" len="12"/>
          <note pan="0" key="65" vol="100" pos="1044" len="12"/>
          <note pan="0" key="53" vol="100" pos="1056" len="24"/>
          <note pan="0" key="65" vol="100" pos="1080" len="12"/>
          <note pan="0" key="65" vol="100" pos="1092" len="12"/>
          <note pan="0" key="53" vol="100" pos="1104" len="24"/>
          <note pan="0" key="65" vol="100" pos="1128" len="12"/>
          <note pan="0" key="65" vol="100" pos="1140" len="12"/>
          <note pan="0" key="60" vol="100" pos="1152" len="24"/>
          <note pan="0" key="72" vol="100" pos="1176" len="12"/>
          <note pan="0" key="72" vol="100" pos="1188" len="12"/>
          <note pan="0" key="60" vol="100" pos="1200" len="24"/>
          <note pan="0" key="72" vol="100" pos="1224" len="12"/>
          <note pan="0" key="72" vol="100" pos="1236" len="12"/>
          <note pan="0" key="60" vol="100" pos="1248" len="24"/>
          <note pan="0" key="72" vol="100" pos="1272" len="12"/>
          <note pan="0" key="72" vol="100" pos="1284" len="12"/>
          <note pan="0" key="60" vol="100" pos="1296" len="24"/>
          <note pan="0" key="72" vol="100" pos="1320" len="12"/>
          <note pan="0" key="72" vol="100" pos="1332" len="12"/>
          <note pan="0" key="58" vol="100" pos="1344" len="24"/>
          <note pan="0" key="70" vol="100" pos="1368" len="12"/>
          <note pan="0" key="70" vol="100" pos="1380" len="12"/>
          <note pan="0" key="58" vol="100" pos="1392" len="24"/>
          <note pan="0" key="70" vol="100" pos="1416" len="12"/>
          <note pan="0" key="70" vol="100" pos="1428" len="12"/>
          <note pan="0" key="59" vol="100" pos="1440" len="24"/>
          <note pan="0" key="71" vol="100" pos="1464" len="12"/>
          <note pan="0" key="71" vol="100" pos="1476" len="12"/>
          <note pan="0" key="59" vol="100" pos="1488" len="24"/>
          <note pan="0" key="71" vol="100" pos="1512" len="12"/>
          <note pan="0" key="71" vol="100" pos="1524" len="12"/>
        </pattern>
        <pattern steps="16" muted="0" type="1" name="Bass" pos="15744" len="1536">
          <note pan="0" key="48" vol="100" pos="0" len="24"/>
          <note pan="0" key="60" vol="100" pos="24" len="12"/>
          <note pan="0" key="60" vol="100" pos="36" len="12"/>
          <note pan="0" key="48" vol="100" pos="48" len="24"/>
          <note pan="0" key="60" vol="100" pos="72" len="12"/>
          <note pan="0" key="60" vol="100" pos="84" len="12"/>
          <note pan="0" key="48" vol="100" pos="96" len="24"/>
          <note pan="0" key="60" vol="100" pos="120" len="12"/>
          <note pan="0" key="60" vol="100" pos="132" len="12"/>
          <note pan="0" key="48" vol="100" pos="144" len="24"/>
          <note pan="0" key="60" vol="100" pos="168" len="12"/>
          <note pan="0" key="60" vol="100" pos="180" len="12"/>
          <note pan="0" key="48" vol="100" pos="192" len="24"/>
          <note pan="0" key="60" vol="100" pos="216" len="12"/>
          <note pan="0" key="60" vol="100" pos="228" len="12"/>
          <note pan="0" key="48" vol="100" pos="240" len="24"/>
          <note pan="0" key="60" vol="100" pos="264" len="12"/>
          <note pan="0" key="60" vol="100" pos="276" len="12"/>
          <note pan="0" key="48" vol="100" pos="288" len="24"/>
          <note pan="0" key="60" vol="100" pos="312" len="12"/>
          <note pan="0" key="60" vol="100" pos="324" len="12"/>
          <note pan="0" key="48" vol="100" pos="336" len="24"/>
          <note pan="0" key="60" vol="100" pos="360" len="12"/>
          <note pan="0" key="60" vol="100" pos="372" len="12"/>
          <note pan="0" key="51" vol="100" pos="384" len="24"/>
          <note pan="0" key="63" vol="100" pos="408" len="12"/>
          <note pan="0" key="63" vol="100" pos="420" len="12"/>
          <note pan="0" key="51" vol="100" pos="432" len="24"/>
          <note pan="0" key="63" vol="100" pos="456" len="12"/>
          <note pan="0" key="63" vol="100" pos="468" len="12"/>
          <note pan="0" key="51" vol="100" pos="480" len="24"/>
          <note pan="0" key="63" vol="100" pos="504" len="12"/>
          <note pan="0" key="63" vol="100" pos="516" len="12"/>
          <note pan="0" key="51" vol="100" pos="528" len="24"/>
          <note pan="0" key="63" vol="100" pos="552" len="12"/>
          <note pan="0" key="63" vol="100" pos="564" len="12"/>
          <note pan="0" key="51" vol="100" pos="576" len="24"/>
          <note pan="0" key="63" vol="100" pos="600" len="12"/>
          <note pan="0" key="63" vol="100" pos="612" len="12"/>
          <note pan="0" key="51" vol="100" pos="624" len="24"/>
          <note pan="0" key="63" vol="100" pos="648" len="12"/>
          <note pan="0" key="63" vol="100" pos="660" len="12"/>
          <note pan="0" key="51" vol="100" pos="672" len="24"/>
          <note pan="0" key="63" vol="100" pos="696" len="12"/>
          <note pan="0" key="63" vol="100" pos="708" len="12"/>
          <note pan="0" key="46" vol="100" pos="720" len="48"/>
          <note pan="0" key="53" vol="100" pos="768" len="24"/>
          <note pan="0" key="65" vol="100" pos="792" len="12"/>
          <note pan="0" key="65" vol="100" pos="804" len="12"/>
          <note pan="0" key="53" vol="100" pos="816" len="24"/>
          <note pan="0" key="65" vol="100" pos="840" len="12"/>
          <note pan="0" key="65" vol="100" pos="852" len="12"/>
          <note pan="0" key="53" vol="100" pos="864" len="24"/>
          <note pan="0" key="65" vol="100" pos="888" len="12"/>
          <note pan="0" key="65" vol="100" pos="900" len="12"/>
          <note pan="0" key="53" vol="100" pos="912" len="24"/>
          <note pan="0" key="65" vol="100" pos="936" len="12"/>
          <note pan="0" key="65" vol="100" pos="948" len="12"/>
          <note pan="0" key="53" vol="100" pos="960" len="24"/>
          <note pan="0" key="65" vol="100" pos="984" len="12"/>
          <note pan="0" key="65" vol="100" pos="996" len="12"/>
          <note pan="0" key="53" vol="100" pos="1008" len="24"/>
          <note pan="0" key="65" vol="100" pos="1032" len="12"/>
          <note pan="0" key="65" vol="100" pos="1044" len="12"/>
          <note pan="0" key="53" vol="100" pos="1056" len="24"/>
          <note pan="0" key="65" vol="100" pos="1080" len="12"/>
          <note pan="0" key="65" vol="100" pos="1092" len="12"/>
          <note pan="0" key="53" vol="100" pos="1104" len="24"/>
          <note pan="0" key="65" vol="100" pos="1128" len="12"/>
          <note pan="0" key="65" vol="100" pos="1140" len="12"/>
          <note pan="0" key="51" vol="100" pos="1152" len="24"/>
          <note pan="0" key="63" vol="100" pos="1176" len="12"/>
          <note pan="0" key="63" vol="100" pos="1188" len="12"/>
          <note pan="0" key="51" vol="100" pos="1200" len="24"/>
          <note pan="0" key="63" vol="100" pos="1224" len="12"/>
          <note pan="0" key="63" vol="100" pos="1236" len="12"/>
          <note pan="0" key="51" vol="100" pos="1248" len="24"/>
          <note pan="0" key="63" vol="100" pos="1272" len="12"/>
          <note pan="0" key="63" vol="100" pos="1284" len="12"/>
          <note pan="0" key="51" vol="100" pos="1296" len="24"/>
          <note pan="0" key="63" vol="100" pos="1320" len="12"/>
          <note pan="0" key="63" vol="100" pos="1332" len="12"/>
          <note pan="0" key="51" vol="100" pos="1344" len="24"/>
          <note pan="0" key="63" vol="100" pos="1368" len="12"/>
          <note pan="0" key="63" vol="100" pos="1380" len="12"/>
          <note pan="0" key="51" vol="100" pos="1392" len="24"/>
          <note pan="0" key="63" vol="100" pos="1416" len="12"/>
          <note pan="0" key="63" vol="100" pos="1428" len="12"/>
          <note pan="0" key="51" vol="100" pos="1440" len="24"/>
          <note pan="0" key="63" vol="100" pos="1464" len="12"/>
          <note pan="0" key="63" vol="100" pos="1476" len="12"/>
          <note pan="0" key="50" vol="100" pos="1488" len="24"/>
          <note pan="0" key="62" vol="100" pos="1512" len="12"/>
          <note pan="0" key="62" vol="100" pos="1524" len="12"/>
        </pattern>
        <pattern steps="16" muted="0" type="1" name="Bass" pos="17280" len="1536">
          <note pan="0" key="48" vol="100" pos="0" len="24"/>
          <note pan="0" key="60" vol="100" pos="24" len="12"/>
          <note pan="0" key="60" vol="100" pos="36" len="12"/>
          <note pan="0" key="48" vol="100" pos="48" len="24"/>
          <note pan="0" key="60" vol="100" pos="72" len="12"/>
          <note pan="0" key="60" vol="100" pos="84" len="12"/>
          <note pan="0" key="48" vol="100" pos="96" len="24"/>
          <note pan="0" key="60" vol="100" pos="120" len="12"/>
          <note pan="0" key="60" vol="100" pos="132" len="12"/>
          <note pan="0" key="48" vol="100" pos="144" len="24"/>
          <note pan="0" key="60" vol="100" pos="168" len="12"/>
          <note pan="0" key="60" vol="100" pos="180" len="12"/>
          <note pan="0" key="48" vol="100" pos="192" len="24"/>
          <note pan="0" key="60" vol="100" pos="216" len="12"/>
          <note pan="0" key="60" vol="100" pos="228" len="12"/>
          <note pan="0" key="48" vol="100" pos="240" len="24"/>
          <note pan="0" key="60" vol="100" pos="264" len="12"/>
          <note pan="0" key="60" vol="100" pos="276" len="12"/>
          <note pan="0" key="48" vol="100" pos="288" len="24"/>
          <note pan="0" key="60" vol="100" pos="312" len="12"/>
          <note pan="0" key="60" vol="100" pos="324" len="12"/>
          <note pan="0" key="48" vol="100" pos="336" len="24"/>
          <note pan="0" key="60" vol="100" pos="360" len="12"/>
          <note pan="0" key="60" vol="100" pos="372" len="12"/>
          <note pan="0" key="51" vol="100" pos="384" len="24"/>
          <note pan="0" key="63" vol="100" pos="408" len="12"/>
          <note pan="0" key="63" vol="100" pos="420" len="12"/>
          <note pan="0" key="51" vol="100" pos="432" len="24"/>
          <note pan="0" key="63" vol="100" pos="456" len="12"/>
          <note pan="0" key="63" vol="100" pos="468" len="12"/>
          <note pan="0" key="51" vol="100" pos="480" len="24"/>
          <note pan="0" key="63" vol="100" pos="504" len="12"/>
          <note pan="0" key="63" vol="100" pos="516" len="12"/>
          <note pan="0" key="51" vol="100" pos="528" len="24"/>
          <note pan="0" key="63" vol="100" pos="552" len="12"/>
          <note pan="0" key="63" vol="100" pos="564" len="12"/>
          <note pan="0" key="51" vol="100" pos="576" len="24"/>
          <note pan="0" key="63" vol="100" pos="600" len="12"/>
          <note pan="0" key="63" vol="100" pos="612" len="12"/>
          <note pan="0" key="51" vol="100" pos="624" len="24"/>
          <note pan="0" key="63" vol="100" pos="648" len="12"/>
          <note pan="0" key="63" vol="100" pos="660" len="12"/>
          <note pan="0" key="51" vol="100" pos="672" len="24"/>
          <note pan="0" key="63" vol="100" pos="696" len="12"/>
          <note pan="0" key="63" vol="100" pos="708" len="12"/>
          <note pan="0" key="46" vol="100" pos="720" len="48"/>
          <note pan="0" key="53" vol="100" pos="768" len="24"/>
          <note pan="0" key="65" vol="100" pos="792" len="12"/>
          <note pan="0" key="65" vol="100" pos="804" len="12"/>
          <note pan="0" key="53" vol="100" pos="816" len="24"/>
          <note pan="0" key="65" vol="100" pos="840" len="12"/>
          <note pan="0" key="65" vol="100" pos="852" len="12"/>
          <note pan="0" key="53" vol="100" pos="864" len="24"/>
          <note pan="0" key="65" vol="100" pos="888" len="12"/>
          <note pan="0" key="65" vol="100" pos="900" len="12"/>
          <note pan="0" key="53" vol="100" pos="912" len="24"/>
          <note pan="0" key="65" vol="100" pos="936" len="12"/>
          <note pan="0" key="65" vol="100" pos="948" len="12"/>
          <note pan="0" key="53" vol="100" pos="960" len="24"/>
          <note pan="0" key="65" vol="100" pos="984" len="12"/>
          <note pan="0" key="65" vol="100" pos="996" len="12"/>
          <note pan="0" key="53" vol="100" pos="1008" len="24"/>
          <note pan="0" key="65" vol="100" pos="1032" len="12"/>
          <note pan="0" key="65" vol="100" pos="1044" len="12"/>
          <note pan="0" key="53" vol="100" pos="1056" len="24"/>
          <note pan="0" key="65" vol="100" pos="1080" len="12"/>
          <note pan="0" key="65" vol="100" pos="1092" len="12"/>
          <note pan="0" key="53" vol="100" pos="1104" len="24"/>
          <note pan="0" key="65" vol="100" pos="1128" len="12"/>
          <note pan="0" key="65" vol="100" pos="1140" len="12"/>
          <note pan="0" key="51" vol="100" pos="1152" len="24"/>
          <note pan="0" key="63" vol="100" pos="1176" len="12"/>
          <note pan="0" key="63" vol="100" pos="1188" len="12"/>
          <note pan="0" key="51" vol="100" pos="1200" len="24"/>
          <note pan="0" key="63" vol="100" pos="1224" len="12"/>
          <note pan="0" key="63" vol="100" pos="1236" len="12"/>
          <note pan="0" key="51" vol="100" pos="1248" len="24"/>
          <note pan="0" key="63" vol="100" pos="1272" len="12"/>
          <note pan="0" key="63" vol="100" pos="1284" len="12"/>
          <note pan="0" key="51" vol="100" pos="1296" len="24"/>
          <note pan="0" key="63" vol="100" pos="1320" len="12"/>
          <note pan="0" key="63" vol="100" pos="1332" len="12"/>
          <note pan="0" key="51" vol="100" pos="1344" len="24"/>
          <note pan="0" key="63" vol="100" pos="1368" len="12"/>
          <note pan="0" key="63" vol="100" pos="1380" len="12"/>
          <note pan="0" key="51" vol="100" pos="1392" len="24"/>
          <note pan="0" key="63" vol="100" pos="1416" len="12"/>
          <note pan="0" key="63" vol="100" pos="1428" len="12"/>
          <note pan="0" key="51" vol="100" pos="1440" len="24"/>
          <note pan="0" key="63" vol="100" pos="1464" len="12"/>
          <note pan="0" key="63" vol="100" pos="1476" len="12"/>
          <note pan="0" key="50" vol="100" pos="1488" len="24"/>
          <note pan="0" key="62" vol="100" pos="1512" len="12"/>
          <note pan="0" key="62" vol="100" pos="1524" len="12"/>
        </pattern>
      </track>
      <track muted="0" type="0" name=" Lead" solo="0">
        <instrumenttrack pan="25" fxch="5" pitchrange="1" pitch="0" basenote="57" vol="57.1">
          <instrument name="tripleoscillator">
            <tripleoscillator phoffset2="0" userwavefile0="" finer0="0" userwavefile1="" finer1="-15" userwavefile2="" finer2="2" coarse0="0" coarse1="0" coarse2="-12" finel0="0" finel1="15" modalgo1="2" modalgo2="3" finel2="-2" pan0="-25" modalgo3="2" pan1="28" stphdetun0="0" pan2="0" stphdetun1="0" wavetype0="2" stphdetun2="0" wavetype1="2" wavetype2="2" vol0="33" vol1="33" phoffset0="0" phoffset1="0" vol2="17"/>
          </instrument>
          <eldata fres="3.07" ftype="4" fcut="13972" fwet="1">
            <elvol lspd_denominator="4" sustain="0" pdel="0" userwavefile="" dec="0.882" lamt="0" syncmode="0" latt="0" rel="0" amt="1" x100="0" att="0" lpdel="0" hold="0.262" lshp="0" lspd="0.1" ctlenvamt="0" lspd_numerator="4"/>
            <elcut lspd_denominator="4" sustain="0" pdel="0" userwavefile="" dec="0.478" lamt="0" syncmode="0" latt="0" rel="0.1" amt="1" x100="0" att="0" lpdel="0" hold="0" lshp="0" lspd="0.1" ctlenvamt="0" lspd_numerator="4"/>
            <elres lspd_denominator="4" sustain="0" pdel="0" userwavefile="" dec="0.28" lamt="0" syncmode="0" latt="0" rel="0.1" amt="0.12" x100="0" att="0" lpdel="0" hold="0" lshp="0" lspd="0.1" ctlenvamt="0" lspd_numerator="4"/>
          </eldata>
          <chordcreator chord="0" chord-enabled="1">
            <chordrange value="1" id="6743175"/>
          </chordcreator>
          <arpeggiator arptime="100" arprange="1" arptime_denominator="4" syncmode="0" arpmode="0" arp-enabled="0" arp="0" arptime_numerator="4" arpdir="0" arpgate="100"/>
          <midiport inputcontroller="0" fixedoutputvelocity="-1" inputchannel="0" outputcontroller="0" writable="0" outputchannel="1" fixedinputvelocity="-1" fixedoutputnote="-1" outputprogram="1" basevelocity="63" readable="0"/>
          <fxchain numofeffects="4" enabled="1">
            <effect autoquit_numerator="4" autoquit_denominator="4" syncmode="0" autoquit="1" gate="0" name="ladspaeffect" wet="1" on="1">
              <ladspacontrols link="1" ports="12">
                <port01 data_numerator="4" data_denominator="4" syncmode="0" link="1" data="4.96875"/>
                <port02 data_numerator="4" data_denominator="4" syncmode="0" link="1" data="2.09"/>
                <port03 link="1" data="1.25"/>
                <port04 link="1" data="1"/>
                <port05 link="1" data="0.25"/>
                <port06 link="1" data="0.19"/>
                <port11 data_numerator="4" data_denominator="4" syncmode="0" data="4.96875"/>
                <port12 data_numerator="4" data_denominator="4" syncmode="0" data="2.09"/>
                <port13 data="1.25"/>
                <port14 data="1"/>
                <port15 data="0.25"/>
                <port16 data="0.19"/>
              </ladspacontrols>
              <key>
                <attribute value="caps" name="file"/>
                <attribute value="ChorusI" name="plugin"/>
              </key>
            </effect>
            <effect autoquit_numerator="4" autoquit_denominator="4" syncmode="0" autoquit="1" gate="0" name="ladspaeffect" wet="1" on="1">
              <ladspacontrols ports="10">
                <port00 data="210"/>
                <port01 data="29"/>
                <port02 data="300"/>
                <port03 data="29"/>
                <port04 data="-4"/>
                <port05 data="-4"/>
                <port06 data="0.8"/>
                <port07 data="0"/>
                <port08 data="0"/>
                <port09 data="0"/>
              </ladspacontrols>
              <key>
                <attribute value="tap_echo" name="file"/>
                <attribute value="tap_stereo_echo" name="plugin"/>
              </key>
            </effect>
            <effect autoquit_numerator="4" autoquit_denominator="4" syncmode="0" autoquit="1" gate="0" name="ladspaeffect" wet="0.99" on="1">
              <ladspacontrols ports="3">
                <port00 data="0"/>
                <port01 data="0"/>
                <port02 data_numerator="4" data_denominator="4" syncmode="0" data="507.45"/>
              </ladspacontrols>
              <key>
                <attribute value="fast_lookahead_limiter_1913" name="file"/>
                <attribute value="fastLookaheadLimiter" name="plugin"/>
              </key>
            </effect>
            <effect autoquit_numerator="4" autoquit_denominator="4" syncmode="0" autoquit="1" gate="0" name="ladspaeffect" wet="1" on="1">
              <ladspacontrols ports="4">
                <port02 data="0.50197"/>
                <port03 data="0.3745"/>
                <port04 data="0.23988"/>
                <port05 data="0.25"/>
              </ladspacontrols>
              <key>
                <attribute value="caps" name="file"/>
                <attribute value="Plate2x2" name="plugin"/>
              </key>
            </effect>
          </fxchain>
        </instrumenttrack>
        <pattern steps="16" muted="0" type="1" name=" Lead" pos="384" len="1536">
          <note pan="0" key="63" vol="100" pos="0" len="240"/>
          <note pan="0" key="63" vol="100" pos="240" len="6"/>
          <note pan="0" key="63" vol="100" pos="252" len="6"/>
          <note pan="0" key="63" vol="100" pos="264" len="6"/>
          <note pan="0" key="63" vol="100" pos="276" len="6"/>
          <note pan="0" key="62" vol="100" pos="288" len="48"/>
          <note pan="0" key="63" vol="100" pos="336" len="48"/>
          <note pan="0" key="63" vol="100" pos="384" len="240"/>
          <note pan="0" key="63" vol="100" pos="624" len="6"/>
          <note pan="0" key="63" vol="100" pos="636" len="6"/>
          <note pan="0" key="63" vol="100" pos="648" len="6"/>
          <note pan="0" key="63" vol="100" pos="660" len="6"/>
          <note pan="0" key="62" vol="100" pos="672" len="48"/>
          <note pan="0" key="63" vol="100" pos="720" len="48"/>
          <note pan="0" key="62" vol="100" pos="768" len="288"/>
          <note pan="0" key="63" vol="100" pos="1056" len="48"/>
          <note pan="0" key="62" vol="100" pos="1104" len="48"/>
          <note pan="0" key="60" vol="100" pos="1152" len="144"/>
          <note pan="0" key="56" vol="100" pos="1296" len="12"/>
          <note pan="0" key="60" vol="100" pos="1308" len="12"/>
          <note pan="0" key="63" vol="100" pos="1320" len="12"/>
          <note pan="0" key="68" vol="100" pos="1332" len="12"/>
          <note pan="0" key="62" vol="100" pos="1344" len="192"/>
        </pattern>
        <pattern steps="16" muted="0" type="1" name=" Lead" pos="0" len="384">
          <note pan="0" key="55" vol="100" pos="0" len="6"/>
          <note pan="0" key="55" vol="100" pos="12" len="6"/>
          <note pan="0" key="55" vol="100" pos="24" len="6"/>
          <note pan="0" key="55" vol="100" pos="36" len="6"/>
          <note pan="0" key="55" vol="100" pos="48" len="48"/>
          <note pan="0" key="56" vol="100" pos="96" len="6"/>
          <note pan="0" key="56" vol="100" pos="108" len="6"/>
          <note pan="0" key="56" vol="100" pos="120" len="6"/>
          <note pan="0" key="56" vol="100" pos="132" len="6"/>
          <note pan="0" key="56" vol="100" pos="144" len="48"/>
          <note pan="0" key="58" vol="100" pos="192" len="6"/>
          <note pan="0" key="58" vol="100" pos="204" len="6"/>
          <note pan="0" key="58" vol="100" pos="216" len="6"/>
          <note pan="0" key="58" vol="100" pos="228" len="6"/>
          <note pan="0" key="58" vol="100" pos="240" len="48"/>
          <note pan="0" key="56" vol="100" pos="288" len="6"/>
          <note pan="0" key="56" vol="100" pos="300" len="6"/>
          <note pan="0" key="56" vol="100" pos="312" len="6"/>
          <note pan="0" key="56" vol="100" pos="324" len="6"/>
          <note pan="0" key="56" vol="100" pos="336" len="48"/>
        </pattern>
        <pattern steps="16" muted="0" type="1" name=" Lead" pos="1920" len="1536">
          <note pan="0" key="63" vol="100" pos="0" len="240"/>
          <note pan="0" key="63" vol="100" pos="240" len="6"/>
          <note pan="0" key="63" vol="100" pos="252" len="6"/>
          <note pan="0" key="63" vol="100" pos="264" len="6"/>
          <note pan="0" key="63" vol="100" pos="276" len="6"/>
          <note pan="0" key="62" vol="100" pos="288" len="48"/>
          <note pan="0" key="63" vol="100" pos="336" len="48"/>
          <note pan="0" key="63" vol="100" pos="384" len="240"/>
          <note pan="0" key="63" vol="100" pos="624" len="6"/>
          <note pan="0" key="63" vol="100" pos="636" len="6"/>
          <note pan="0" key="63" vol="100" pos="648" len="6"/>
          <note pan="0" key="63" vol="100" pos="660" len="6"/>
          <note pan="0" key="62" vol="100" pos="672" len="48"/>
          <note pan="0" key="63" vol="100" pos="720" len="48"/>
          <note pan="0" key="62" vol="100" pos="768" len="288"/>
          <note pan="0" key="63" vol="100" pos="1056" len="48"/>
          <note pan="0" key="62" vol="100" pos="1104" len="48"/>
          <note pan="0" key="60" vol="100" pos="1152" len="144"/>
          <note pan="0" key="56" vol="100" pos="1296" len="12"/>
          <note pan="0" key="60" vol="100" pos="1308" len="12"/>
          <note pan="0" key="63" vol="100" pos="1320" len="12"/>
          <note pan="0" key="68" vol="100" pos="1332" len="12"/>
          <note pan="0" key="62" vol="100" pos="1344" len="192"/>
        </pattern>
        <pattern steps="16" muted="0" type="1" name=" Lead" pos="6528" len="1536">
          <note pan="0" key="68" vol="100" pos="0" len="72"/>
          <note pan="0" key="67" vol="100" pos="72" len="24"/>
          <note pan="0" key="67" vol="100" pos="96" len="192"/>
          <note pan="0" key="63" vol="100" pos="288" len="48"/>
          <note pan="0" key="65" vol="100" pos="336" len="48"/>
          <note pan="0" key="68" vol="100" pos="384" len="72"/>
          <note pan="0" key="67" vol="100" pos="456" len="24"/>
          <note pan="0" key="67" vol="100" pos="480" len="288"/>
          <note pan="0" key="67" vol="100" pos="768" len="72"/>
          <note pan="0" key="65" vol="100" pos="840" len="24"/>
          <note pan="0" key="60" vol="100" pos="864" len="192"/>
          <note pan="0" key="60" vol="100" pos="1056" len="48"/>
          <note pan="0" key="62" vol="100" pos="1104" len="48"/>
          <note pan="0" key="65" vol="100" pos="1152" len="72"/>
          <note pan="0" key="63" vol="100" pos="1224" len="24"/>
          <note pan="0" key="58" vol="100" pos="1248" len="288"/>
        </pattern>
        <pattern steps="16" muted="0" type="1" name=" Lead" pos="8064" len="1536">
          <note pan="0" key="68" vol="100" pos="0" len="72"/>
          <note pan="0" key="67" vol="100" pos="72" len="24"/>
          <note pan="0" key="67" vol="100" pos="96" len="192"/>
          <note pan="0" key="63" vol="100" pos="288" len="48"/>
          <note pan="0" key="65" vol="100" pos="336" len="48"/>
          <note pan="0" key="68" vol="100" pos="384" len="72"/>
          <note pan="0" key="67" vol="100" pos="456" len="24"/>
          <note pan="0" key="67" vol="100" pos="480" len="288"/>
          <note pan="0" key="67" vol="100" pos="768" len="72"/>
          <note pan="0" key="65" vol="100" pos="840" len="24"/>
          <note pan="0" key="60" vol="100" pos="864" len="192"/>
          <note pan="0" key="60" vol="100" pos="1056" len="48"/>
          <note pan="0" key="62" vol="100" pos="1104" len="48"/>
          <note pan="0" key="65" vol="100" pos="1152" len="72"/>
          <note pan="0" key="63" vol="100" pos="1224" len="24"/>
          <note pan="0" key="58" vol="100" pos="1248" len="288"/>
        </pattern>
        <pattern steps="16" muted="0" type="1" name=" Lead" pos="9600" len="1536">
          <note pan="0" key="63" vol="100" pos="0" len="240"/>
          <note pan="0" key="63" vol="100" pos="240" len="6"/>
          <note pan="0" key="63" vol="100" pos="252" len="6"/>
          <note pan="0" key="63" vol="100" pos="264" len="6"/>
          <note pan="0" key="63" vol="100" pos="276" len="6"/>
          <note pan="0" key="62" vol="100" pos="288" len="48"/>
          <note pan="0" key="63" vol="100" pos="336" len="48"/>
          <note pan="0" key="63" vol="100" pos="384" len="240"/>
          <note pan="0" key="63" vol="100" pos="624" len="6"/>
          <note pan="0" key="63" vol="100" pos="636" len="6"/>
          <note pan="0" key="63" vol="100" pos="648" len="6"/>
          <note pan="0" key="63" vol="100" pos="660" len="6"/>
          <note pan="0" key="62" vol="100" pos="672" len="48"/>
          <note pan="0" key="63" vol="100" pos="720" len="48"/>
          <note pan="0" key="62" vol="100" pos="768" len="288"/>
          <note pan="0" key="63" vol="100" pos="1056" len="48"/>
          <note pan="0" key="62" vol="100" pos="1104" len="48"/>
          <note pan="0" key="60" vol="100" pos="1152" len="144"/>
          <note pan="0" key="56" vol="100" pos="1296" len="12"/>
          <note pan="0" key="60" vol="100" pos="1308" len="12"/>
          <note pan="0" key="63" vol="100" pos="1320" len="12"/>
          <note pan="0" key="68" vol="100" pos="1332" len="12"/>
          <note pan="0" key="62" vol="100" pos="1344" len="192"/>
        </pattern>
        <pattern steps="16" muted="0" type="1" name=" Lead" pos="11136" len="1536">
          <note pan="0" key="63" vol="100" pos="0" len="240"/>
          <note pan="0" key="63" vol="100" pos="240" len="6"/>
          <note pan="0" key="63" vol="100" pos="252" len="6"/>
          <note pan="0" key="63" vol="100" pos="264" len="6"/>
          <note pan="0" key="63" vol="100" pos="276" len="6"/>
          <note pan="0" key="62" vol="100" pos="288" len="48"/>
          <note pan="0" key="63" vol="100" pos="336" len="48"/>
          <note pan="0" key="63" vol="100" pos="384" len="240"/>
          <note pan="0" key="63" vol="100" pos="624" len="6"/>
          <note pan="0" key="63" vol="100" pos="636" len="6"/>
          <note pan="0" key="63" vol="100" pos="648" len="6"/>
          <note pan="0" key="63" vol="100" pos="660" len="6"/>
          <note pan="0" key="62" vol="100" pos="672" len="48"/>
          <note pan="0" key="63" vol="100" pos="720" len="48"/>
          <note pan="0" key="62" vol="100" pos="768" len="288"/>
          <note pan="0" key="63" vol="100" pos="1056" len="48"/>
          <note pan="0" key="62" vol="100" pos="1104" len="48"/>
          <note pan="0" key="60" vol="100" pos="1152" len="144"/>
          <note pan="0" key="56" vol="100" pos="1296" len="12"/>
          <note pan="0" key="60" vol="100" pos="1308" len="12"/>
          <note pan="0" key="63" vol="100" pos="1320" len="12"/>
          <note pan="0" key="68" vol="100" pos="1332" len="12"/>
          <note pan="0" key="62" vol="100" pos="1344" len="192"/>
        </pattern>
        <pattern steps="16" muted="0" type="1" name=" Lead" pos="15744" len="1536">
          <note pan="0" key="68" vol="100" pos="0" len="72"/>
          <note pan="0" key="67" vol="100" pos="72" len="24"/>
          <note pan="0" key="67" vol="100" pos="96" len="192"/>
          <note pan="0" key="63" vol="100" pos="288" len="48"/>
          <note pan="0" key="65" vol="100" pos="336" len="48"/>
          <note pan="0" key="68" vol="100" pos="384" len="72"/>
          <note pan="0" key="67" vol="100" pos="456" len="24"/>
          <note pan="0" key="67" vol="100" pos="480" len="288"/>
          <note pan="0" key="67" vol="100" pos="768" len="72"/>
          <note pan="0" key="65" vol="100" pos="840" len="24"/>
          <note pan="0" key="60" vol="100" pos="864" len="192"/>
          <note pan="0" key="60" vol="100" pos="1056" len="48"/>
          <note pan="0" key="62" vol="100" pos="1104" len="48"/>
          <note pan="0" key="65" vol="100" pos="1152" len="72"/>
          <note pan="0" key="63" vol="100" pos="1224" len="24"/>
          <note pan="0" key="58" vol="100" pos="1248" len="288"/>
        </pattern>
        <pattern steps="16" muted="0" type="1" name=" Lead" pos="17280" len="1536">
          <note pan="0" key="68" vol="100" pos="0" len="72"/>
          <note pan="0" key="67" vol="100" pos="72" len="24"/>
          <note pan="0" key="67" vol="100" pos="96" len="192"/>
          <note pan="0" key="63" vol="100" pos="288" len="48"/>
          <note pan="0" key="65" vol="100" pos="336" len="48"/>
          <note pan="0" key="68" vol="100" pos="384" len="72"/>
          <note pan="0" key="67" vol="100" pos="456" len="24"/>
          <note pan="0" key="67" vol="100" pos="480" len="288"/>
          <note pan="0" key="67" vol="100" pos="768" len="72"/>
          <note pan="0" key="65" vol="100" pos="840" len="24"/>
          <note pan="0" key="60" vol="100" pos="864" len="192"/>
          <note pan="0" key="60" vol="100" pos="1056" len="48"/>
          <note pan="0" key="62" vol="100" pos="1104" len="48"/>
          <note pan="0" key="65" vol="100" pos="1152" len="72"/>
          <note pan="0" key="63" vol="100" pos="1224" len="24"/>
          <note pan="0" key="58" vol="100" pos="1248" len="288"/>
        </pattern>
      </track>
      <track muted="0" type="5" name="Lead Octaves" solo="0">
        <automationtrack/>
        <automationpattern tens="1" prog="0" name=" Lead>Chords>Chord range" pos="6528" len="192">
          <time value="2" pos="0"/>
          <object id="6743175"/>
        </automationpattern>
        <automationpattern tens="1" prog="0" name=" Lead>Chords>Chord range" pos="0" len="192">
          <time value="1" pos="0"/>
          <object id="6743175"/>
        </automationpattern>
        <automationpattern tens="1" prog="0" name=" Lead>Chords>Chord range" pos="15744" len="192">
          <time value="2" pos="0"/>
          <object id="6743175"/>
        </automationpattern>
        <automationpattern tens="1" prog="0" name=" Lead>Chords>Chord range" pos="9600" len="192">
          <time value="1" pos="0"/>
          <object id="6743175"/>
        </automationpattern>
      </track>
      <track muted="0" type="0" name="Analog Filter 1" solo="0">
        <instrumenttrack pan="-25" fxch="6" pitchrange="1" pitch="0" basenote="57" vol="155.7">
          <instrument name="zynaddsubfx">
            <zynaddsubfx resbandwidth="64" fmgain="127" portamento="0" modifiedcontrollers="65,71,74,75,76,77," filterfreq="105" bandwidth="64" forwardmidicc="1" filterq="30" rescenterfreq="64">
              <ZynAddSubFX-data version-revision="1" version-minor="4" version-major="2" ZynAddSubFX-author="Nasca Octavian Paul">
                <INFORMATION/>
                <BASE_PARAMETERS>
                  <par value="16" name="max_midi_parts"/>
                  <par value="16" name="max_kit_items_per_instrument"/>
                  <par value="4" name="max_system_effects"/>
                  <par value="8" name="max_insertion_effects"/>
                  <par value="3" name="max_instrument_effects"/>
                  <par value="8" name="max_addsynth_voices"/>
                </BASE_PARAMETERS>
                <MASTER>
                  <par value="80" name="volume"/>
                  <par value="64" name="key_shift"/>
                  <par_bool value="yes" name="nrpn_receive"/>
                  <MICROTONAL>
                    <string name="name">12tET</string>
                    <string name="comment">Equal Temperament 12 notes per octave</string>
                    <par_bool value="no" name="invert_up_down"/>
                    <par value="60" name="invert_up_down_center"/>
                    <par_bool value="no" name="enabled"/>
                    <par value="64" name="global_fine_detune"/>
                    <par value="69" name="a_note"/>
                    <par_real value="440.000000" name="a_freq"/>
                  </MICROTONAL>
                  <PART id="0">
                    <par_bool value="yes" name="enabled"/>
                    <par value="96" name="volume"/>
                    <par value="64" name="panning"/>
                    <par value="0" name="min_key"/>
                    <par value="127" name="max_key"/>
                    <par value="64" name="key_shift"/>
                    <par value="0" name="rcv_chn"/>
                    <par value="64" name="velocity_sensing"/>
                    <par value="64" name="velocity_offset"/>
                    <par_bool value="yes" name="note_on"/>
                    <par_bool value="yes" name="poly_mode"/>
                    <par value="0" name="legato_mode"/>
                    <par value="15" name="key_limit"/>
                    <INSTRUMENT>
                      <INFO>
                        <string name="name">Analog Filter 1</string>
                        <string name="author"/>
                        <string name="comments"/>
                        <par value="0" name="type"/>
                      </INFO>
                      <INSTRUMENT_KIT>
                        <par value="0" name="kit_mode"/>
                        <par_bool value="no" name="drum_mode"/>
                        <INSTRUMENT_KIT_ITEM id="0">
                          <par_bool value="yes" name="enabled"/>
                          <string name="name">Analog Filter</string>
                          <par_bool value="no" name="muted"/>
                          <par value="0" name="min_key"/>
                          <par value="127" name="max_key"/>
                          <par value="0" name="send_to_instrument_effect"/>
                          <par_bool value="yes" name="add_enabled"/>
                          <ADD_SYNTH_PARAMETERS>
                            <par_bool value="yes" name="stereo"/>
                            <AMPLITUDE_PARAMETERS>
                              <par value="80" name="volume"/>
                              <par value="64" name="panning"/>
                              <par value="121" name="velocity_sensing"/>
                              <par value="0" name="punch_strength"/>
                              <par value="60" name="punch_time"/>
                              <par value="64" name="punch_stretch"/>
                              <par value="72" name="punch_velocity_sensing"/>
                              <par value="0" name="harmonic_randomness_grouping"/>
                              <AMPLITUDE_ENVELOPE>
                                <par_bool value="no" name="free_mode"/>
                                <par value="4" name="env_points"/>
                                <par value="2" name="env_sustain"/>
                                <par value="0" name="env_stretch"/>
                                <par_bool value="yes" name="forced_release"/>
                                <par_bool value="no" name="linear_envelope"/>
                                <par value="0" name="A_dt"/>
                                <par value="40" name="D_dt"/>
                                <par value="58" name="R_dt"/>
                                <par value="64" name="A_val"/>
                                <par value="64" name="D_val"/>
                                <par value="127" name="S_val"/>
                                <par value="64" name="R_val"/>
                              </AMPLITUDE_ENVELOPE>
                              <AMPLITUDE_LFO>
                                <par_real value="0.629921" name="freq"/>
                                <par value="0" name="intensity"/>
                                <par value="64" name="start_phase"/>
                                <par value="0" name="lfo_type"/>
                                <par value="0" name="randomness_amplitude"/>
                                <par value="0" name="randomness_frequency"/>
                                <par value="0" name="delay"/>
                                <par value="64" name="stretch"/>
                                <par_bool value="no" name="continous"/>
                              </AMPLITUDE_LFO>
                            </AMPLITUDE_PARAMETERS>
                            <FREQUENCY_PARAMETERS>
                              <par value="8192" name="detune"/>
                              <par value="0" name="coarse_detune"/>
                              <par value="1" name="detune_type"/>
                              <par value="64" name="bandwidth"/>
                              <FREQUENCY_ENVELOPE>
                                <par_bool value="no" name="free_mode"/>
                                <par value="3" name="env_points"/>
                                <par value="1" name="env_sustain"/>
                                <par value="0" name="env_stretch"/>
                                <par_bool value="no" name="forced_release"/>
                                <par_bool value="no" name="linear_envelope"/>
                                <par value="50" name="A_dt"/>
                                <par value="10" name="D_dt"/>
                                <par value="60" name="R_dt"/>
                                <par value="64" name="A_val"/>
                                <par value="64" name="D_val"/>
                                <par value="64" name="S_val"/>
                                <par value="64" name="R_val"/>
                              </FREQUENCY_ENVELOPE>
                              <FREQUENCY_LFO>
                                <par_real value="0.543307" name="freq"/>
                                <par value="39" name="intensity"/>
                                <par value="64" name="start_phase"/>
                                <par value="0" name="lfo_type"/>
                                <par value="0" name="randomness_amplitude"/>
                                <par value="0" name="randomness_frequency"/>
                                <par value="0" name="delay"/>
                                <par value="64" name="stretch"/>
                                <par_bool value="no" name="continous"/>
                              </FREQUENCY_LFO>
                            </FREQUENCY_PARAMETERS>
                            <FILTER_PARAMETERS>
                              <par value="74" name="velocity_sensing_amplitude"/>
                              <par value="64" name="velocity_sensing"/>
                              <FILTER>
                                <par value="0" name="category"/>
                                <par value="4" name="type"/>
                                <par value="39" name="freq"/>
                                <par value="57" name="q"/>
                                <par value="2" name="stages"/>
                                <par value="64" name="freq_track"/>
                                <par value="66" name="gain"/>
                              </FILTER>
                              <FILTER_ENVELOPE>
                                <par_bool value="no" name="free_mode"/>
                                <par value="4" name="env_points"/>
                                <par value="2" name="env_sustain"/>
                                <par value="44" name="env_stretch"/>
                                <par_bool value="yes" name="forced_release"/>
                                <par_bool value="no" name="linear_envelope"/>
                                <par value="40" name="A_dt"/>
                                <par value="70" name="D_dt"/>
                                <par value="112" name="R_dt"/>
                                <par value="103" name="A_val"/>
                                <par value="89" name="D_val"/>
                                <par value="64" name="S_val"/>
                                <par value="52" name="R_val"/>
                              </FILTER_ENVELOPE>
                              <FILTER_LFO>
                                <par_real value="0.370079" name="freq"/>
                                <par value="0" name="intensity"/>
                                <par value="64" name="start_phase"/>
                                <par value="0" name="lfo_type"/>
                                <par value="0" name="randomness_amplitude"/>
                                <par value="0" name="randomness_frequency"/>
                                <par value="0" name="delay"/>
                                <par value="64" name="stretch"/>
                                <par_bool value="no" name="continous"/>
                              </FILTER_LFO>
                            </FILTER_PARAMETERS>
                            <RESONANCE>
                              <par_bool value="no" name="enabled"/>
                            </RESONANCE>
                            <VOICE id="0">
                              <par_bool value="yes" name="enabled"/>
                              <par value="0" name="type"/>
                              <par value="1" name="unison_size"/>
                              <par value="60" name="unison_frequency_spread"/>
                              <par value="64" name="unison_stereo_spread"/>
                              <par value="64" name="unison_vibratto"/>
                              <par value="64" name="unison_vibratto_speed"/>
                              <par value="0" name="unison_invert_phase"/>
                              <par value="0" name="delay"/>
                              <par_bool value="yes" name="resonance"/>
                              <par value="-1" name="ext_oscil"/>
                              <par value="-1" name="ext_fm_oscil"/>
                              <par value="64" name="oscil_phase"/>
                              <par value="64" name="oscil_fm_phase"/>
                              <par_bool value="no" name="filter_enabled"/>
                              <par_bool value="no" name="filter_bypass"/>
                              <par value="0" name="fm_enabled"/>
                              <OSCIL>
                                <par value="0" name="harmonic_mag_type"/>
                                <par value="4" name="base_function"/>
                                <par value="49" name="base_function_par"/>
                                <par value="0" name="base_function_modulation"/>
                                <par value="64" name="base_function_modulation_par1"/>
                                <par value="64" name="base_function_modulation_par2"/>
                                <par value="32" name="base_function_modulation_par3"/>
                                <par value="0" name="modulation"/>
                                <par value="64" name="modulation_par1"/>
                                <par value="64" name="modulation_par2"/>
                                <par value="32" name="modulation_par3"/>
                                <par value="99" name="wave_shaping"/>
                                <par value="0" name="wave_shaping_function"/>
                                <par value="0" name="filter_type"/>
                                <par value="64" name="filter_par1"/>
                                <par value="64" name="filter_par2"/>
                                <par value="0" name="filter_before_wave_shaping"/>
                                <par value="0" name="spectrum_adjust_type"/>
                                <par value="22" name="spectrum_adjust_par"/>
                                <par value="0" name="rand"/>
                                <par value="0" name="amp_rand_type"/>
                                <par value="64" name="amp_rand_power"/>
                                <par value="0" name="harmonic_shift"/>
                                <par_bool value="no" name="harmonic_shift_first"/>
                                <par value="0" name="adaptive_harmonics"/>
                                <par value="128" name="adaptive_harmonics_base_frequency"/>
                                <par value="100" name="adaptive_harmonics_power"/>
                                <HARMONICS>
                                  <HARMONIC id="1">
                                    <par value="127" name="mag"/>
                                    <par value="64" name="phase"/>
                                  </HARMONIC>
                                </HARMONICS>
                              </OSCIL>
                              <AMPLITUDE_PARAMETERS>
                                <par value="34" name="panning"/>
                                <par value="100" name="volume"/>
                                <par_bool value="no" name="volume_minus"/>
                                <par value="127" name="velocity_sensing"/>
                                <par_bool value="no" name="amp_envelope_enabled"/>
                                <par_bool value="no" name="amp_lfo_enabled"/>
                              </AMPLITUDE_PARAMETERS>
                              <FREQUENCY_PARAMETERS>
                                <par_bool value="no" name="fixed_freq"/>
                                <par value="0" name="fixed_freq_et"/>
                                <par value="7645" name="detune"/>
                                <par value="0" name="coarse_detune"/>
                                <par value="0" name="detune_type"/>
                                <par_bool value="no" name="freq_envelope_enabled"/>
                                <par_bool value="no" name="freq_lfo_enabled"/>
                              </FREQUENCY_PARAMETERS>
                            </VOICE>
                            <VOICE id="1">
                              <par_bool value="yes" name="enabled"/>
                              <par value="0" name="type"/>
                              <par value="1" name="unison_size"/>
                              <par value="60" name="unison_frequency_spread"/>
                              <par value="64" name="unison_stereo_spread"/>
                              <par value="64" name="unison_vibratto"/>
                              <par value="64" name="unison_vibratto_speed"/>
                              <par value="0" name="unison_invert_phase"/>
                              <par value="0" name="delay"/>
                              <par_bool value="yes" name="resonance"/>
                              <par value="0" name="ext_oscil"/>
                              <par value="-1" name="ext_fm_oscil"/>
                              <par value="66" name="oscil_phase"/>
                              <par value="64" name="oscil_fm_phase"/>
                              <par_bool value="no" name="filter_enabled"/>
                              <par_bool value="no" name="filter_bypass"/>
                              <par value="0" name="fm_enabled"/>
                              <OSCIL>
                                <par value="0" name="harmonic_mag_type"/>
                                <par value="0" name="base_function"/>
                                <par value="64" name="base_function_par"/>
                                <par value="0" name="base_function_modulation"/>
                                <par value="64" name="base_function_modulation_par1"/>
                                <par value="64" name="base_function_modulation_par2"/>
                                <par value="32" name="base_function_modulation_par3"/>
                                <par value="0" name="modulation"/>
                                <par value="64" name="modulation_par1"/>
                                <par value="64" name="modulation_par2"/>
                                <par value="32" name="modulation_par3"/>
                                <par value="64" name="wave_shaping"/>
                                <par value="0" name="wave_shaping_function"/>
                                <par value="0" name="filter_type"/>
                                <par value="64" name="filter_par1"/>
                                <par value="64" name="filter_par2"/>
                                <par value="0" name="filter_before_wave_shaping"/>
                                <par value="0" name="spectrum_adjust_type"/>
                                <par value="64" name="spectrum_adjust_par"/>
                                <par value="64" name="rand"/>
                                <par value="0" name="amp_rand_type"/>
                                <par value="64" name="amp_rand_power"/>
                                <par value="0" name="harmonic_shift"/>
                                <par_bool value="no" name="harmonic_shift_first"/>
                                <par value="0" name="adaptive_harmonics"/>
                                <par value="128" name="adaptive_harmonics_base_frequency"/>
                                <par value="100" name="adaptive_harmonics_power"/>
                                <HARMONICS>
                                  <HARMONIC id="1">
                                    <par value="127" name="mag"/>
                                    <par value="64" name="phase"/>
                                  </HARMONIC>
                                </HARMONICS>
                              </OSCIL>
                              <AMPLITUDE_PARAMETERS>
                                <par value="93" name="panning"/>
                                <par value="100" name="volume"/>
                                <par_bool value="no" name="volume_minus"/>
                                <par value="127" name="velocity_sensing"/>
                                <par_bool value="no" name="amp_envelope_enabled"/>
                                <par_bool value="no" name="amp_lfo_enabled"/>
                              </AMPLITUDE_PARAMETERS>
                              <FREQUENCY_PARAMETERS>
                                <par_bool value="no" name="fixed_freq"/>
                                <par value="0" name="fixed_freq_et"/>
                                <par value="9102" name="detune"/>
                                <par value="0" name="coarse_detune"/>
                                <par value="0" name="detune_type"/>
                                <par_bool value="no" name="freq_envelope_enabled"/>
                                <par_bool value="no" name="freq_lfo_enabled"/>
                              </FREQUENCY_PARAMETERS>
                            </VOICE>
                            <VOICE id="2">
                              <par_bool value="no" name="enabled"/>
                            </VOICE>
                            <VOICE id="3">
                              <par_bool value="no" name="enabled"/>
                            </VOICE>
                            <VOICE id="4">
                              <par_bool value="no" name="enabled"/>
                            </VOICE>
                            <VOICE id="5">
                              <par_bool value="no" name="enabled"/>
                            </VOICE>
                            <VOICE id="6">
                              <par_bool value="no" name="enabled"/>
                            </VOICE>
                            <VOICE id="7">
                              <par_bool value="no" name="enabled"/>
                            </VOICE>
                          </ADD_SYNTH_PARAMETERS>
                          <par_bool value="no" name="sub_enabled"/>
                          <par_bool value="no" name="pad_enabled"/>
                        </INSTRUMENT_KIT_ITEM>
                        <INSTRUMENT_KIT_ITEM id="1">
                          <par_bool value="no" name="enabled"/>
                        </INSTRUMENT_KIT_ITEM>
                        <INSTRUMENT_KIT_ITEM id="2">
                          <par_bool value="no" name="enabled"/>
                        </INSTRUMENT_KIT_ITEM>
                        <INSTRUMENT_KIT_ITEM id="3">
                          <par_bool value="no" name="enabled"/>
                        </INSTRUMENT_KIT_ITEM>
                        <INSTRUMENT_KIT_ITEM id="4">
                          <par_bool value="no" name="enabled"/>
                        </INSTRUMENT_KIT_ITEM>
                        <INSTRUMENT_KIT_ITEM id="5">
                          <par_bool value="no" name="enabled"/>
                        </INSTRUMENT_KIT_ITEM>
                        <INSTRUMENT_KIT_ITEM id="6">
                          <par_bool value="no" name="enabled"/>
                        </INSTRUMENT_KIT_ITEM>
                        <INSTRUMENT_KIT_ITEM id="7">
                          <par_bool value="no" name="enabled"/>
                        </INSTRUMENT_KIT_ITEM>
                        <INSTRUMENT_KIT_ITEM id="8">
                          <par_bool value="no" name="enabled"/>
                        </INSTRUMENT_KIT_ITEM>
                        <INSTRUMENT_KIT_ITEM id="9">
                          <par_bool value="no" name="enabled"/>
                        </INSTRUMENT_KIT_ITEM>
                        <INSTRUMENT_KIT_ITEM id="10">
                          <par_bool value="no" name="enabled"/>
                        </INSTRUMENT_KIT_ITEM>
                        <INSTRUMENT_KIT_ITEM id="11">
                          <par_bool value="no" name="enabled"/>
                        </INSTRUMENT_KIT_ITEM>
                        <INSTRUMENT_KIT_ITEM id="12">
                          <par_bool value="no" name="enabled"/>
                        </INSTRUMENT_KIT_ITEM>
                        <INSTRUMENT_KIT_ITEM id="13">
                          <par_bool value="no" name="enabled"/>
                        </INSTRUMENT_KIT_ITEM>
                        <INSTRUMENT_KIT_ITEM id="14">
                          <par_bool value="no" name="enabled"/>
                        </INSTRUMENT_KIT_ITEM>
                        <INSTRUMENT_KIT_ITEM id="15">
                          <par_bool value="no" name="enabled"/>
                        </INSTRUMENT_KIT_ITEM>
                      </INSTRUMENT_KIT>
                      <INSTRUMENT_EFFECTS>
                        <INSTRUMENT_EFFECT id="0">
                          <EFFECT>
                            <par value="0" name="type"/>
                          </EFFECT>
                          <par value="0" name="route"/>
                          <par_bool value="no" name="bypass"/>
                        </INSTRUMENT_EFFECT>
                        <INSTRUMENT_EFFECT id="1">
                          <EFFECT>
                            <par value="0" name="type"/>
                          </EFFECT>
                          <par value="0" name="route"/>
                          <par_bool value="no" name="bypass"/>
                        </INSTRUMENT_EFFECT>
                        <INSTRUMENT_EFFECT id="2">
                          <EFFECT>
                            <par value="0" name="type"/>
                          </EFFECT>
                          <par value="0" name="route"/>
                          <par_bool value="no" name="bypass"/>
                        </INSTRUMENT_EFFECT>
                      </INSTRUMENT_EFFECTS>
                    </INSTRUMENT>
                    <CONTROLLER>
                      <par value="100" name="pitchwheel_bendrange"/>
                      <par_bool value="yes" name="expression_receive"/>
                      <par value="64" name="panning_depth"/>
                      <par value="64" name="filter_cutoff_depth"/>
                      <par value="64" name="filter_q_depth"/>
                      <par value="64" name="bandwidth_depth"/>
                      <par value="80" name="mod_wheel_depth"/>
                      <par_bool value="no" name="mod_wheel_exponential"/>
                      <par_bool value="yes" name="fm_amp_receive"/>
                      <par_bool value="yes" name="volume_receive"/>
                      <par_bool value="yes" name="sustain_receive"/>
                      <par_bool value="yes" name="portamento_receive"/>
                      <par value="64" name="portamento_time"/>
                      <par value="3" name="portamento_pitchthresh"/>
                      <par value="1" name="portamento_pitchthreshtype"/>
                      <par value="0" name="portamento_portamento"/>
                      <par value="64" name="portamento_updowntimestretch"/>
                      <par value="0" name="portamento_proportional"/>
                      <par value="80" name="portamento_proprate"/>
                      <par value="90" name="portamento_propdepth"/>
                      <par value="64" name="resonance_center_depth"/>
                      <par value="64" name="resonance_bandwidth_depth"/>
                    </CONTROLLER>
                  </PART>
                  <PART id="1">
                    <par_bool value="no" name="enabled"/>
                  </PART>
                  <PART id="2">
                    <par_bool value="no" name="enabled"/>
                  </PART>
                  <PART id="3">
                    <par_bool value="no" name="enabled"/>
                  </PART>
                  <PART id="4">
                    <par_bool value="no" name="enabled"/>
                  </PART>
                  <PART id="5">
                    <par_bool value="no" name="enabled"/>
                  </PART>
                  <PART id="6">
                    <par_bool value="no" name="enabled"/>
                  </PART>
                  <PART id="7">
                    <par_bool value="no" name="enabled"/>
                  </PART>
                  <PART id="8">
                    <par_bool value="no" name="enabled"/>
                  </PART>
                  <PART id="9">
                    <par_bool value="no" name="enabled"/>
                  </PART>
                  <PART id="10">
                    <par_bool value="no" name="enabled"/>
                  </PART>
                  <PART id="11">
                    <par_bool value="no" name="enabled"/>
                  </PART>
                  <PART id="12">
                    <par_bool value="no" name="enabled"/>
                  </PART>
                  <PART id="13">
                    <par_bool value="no" name="enabled"/>
                  </PART>
                  <PART id="14">
                    <par_bool value="no" name="enabled"/>
                  </PART>
                  <PART id="15">
                    <par_bool value="no" name="enabled"/>
                  </PART>
                  <SYSTEM_EFFECTS>
                    <SYSTEM_EFFECT id="0">
                      <EFFECT>
                        <par value="0" name="type"/>
                      </EFFECT>
                      <VOLUME id="0">
                        <par value="0" name="vol"/>
                      </VOLUME>
                      <VOLUME id="1">
                        <par value="0" name="vol"/>
                      </VOLUME>
                      <VOLUME id="2">
                        <par value="0" name="vol"/>
                      </VOLUME>
                      <VOLUME id="3">
                        <par value="0" name="vol"/>
                      </VOLUME>
                      <VOLUME id="4">
                        <par value="0" name="vol"/>
                      </VOLUME>
                      <VOLUME id="5">
                        <par value="0" name="vol"/>
                      </VOLUME>
                      <VOLUME id="6">
                        <par value="0" name="vol"/>
                      </VOLUME>
                      <VOLUME id="7">
                        <par value="0" name="vol"/>
                      </VOLUME>
                      <VOLUME id="8">
                        <par value="0" name="vol"/>
                      </VOLUME>
                      <VOLUME id="9">
                        <par value="0" name="vol"/>
                      </VOLUME>
                      <VOLUME id="10">
                        <par value="0" name="vol"/>
                      </VOLUME>
                      <VOLUME id="11">
                        <par value="0" name="vol"/>
                      </VOLUME>
                      <VOLUME id="12">
                        <par value="0" name="vol"/>
                      </VOLUME>
                      <VOLUME id="13">
                        <par value="0" name="vol"/>
                      </VOLUME>
                      <VOLUME id="14">
                        <par value="0" name="vol"/>
                      </VOLUME>
                      <VOLUME id="15">
                        <par value="0" name="vol"/>
                      </VOLUME>
                      <SENDTO id="1">
                        <par value="0" name="send_vol"/>
                      </SENDTO>
                      <SENDTO id="2">
                        <par value="0" name="send_vol"/>
                      </SENDTO>
                      <SENDTO id="3">
                        <par value="0" name="send_vol"/>
                      </SENDTO>
                    </SYSTEM_EFFECT>
                    <SYSTEM_EFFECT id="1">
                      <EFFECT>
                        <par value="0" name="type"/>
                      </EFFECT>
                      <VOLUME id="0">
                        <par value="0" name="vol"/>
                      </VOLUME>
                      <VOLUME id="1">
                        <par value="0" name="vol"/>
                      </VOLUME>
                      <VOLUME id="2">
                        <par value="0" name="vol"/>
                      </VOLUME>
                      <VOLUME id="3">
                        <par value="0" name="vol"/>
                      </VOLUME>
                      <VOLUME id="4">
                        <par value="0" name="vol"/>
                      </VOLUME>
                      <VOLUME id="5">
                        <par value="0" name="vol"/>
                      </VOLUME>
                      <VOLUME id="6">
                        <par value="0" name="vol"/>
                      </VOLUME>
                      <VOLUME id="7">
                        <par value="0" name="vol"/>
                      </VOLUME>
                      <VOLUME id="8">
                        <par value="0" name="vol"/>
                      </VOLUME>
                      <VOLUME id="9">
                        <par value="0" name="vol"/>
                      </VOLUME>
                      <VOLUME id="10">
                        <par value="0" name="vol"/>
                      </VOLUME>
                      <VOLUME id="11">
                        <par value="0" name="vol"/>
                      </VOLUME>
                      <VOLUME id="12">
                        <par value="0" name="vol"/>
                      </VOLUME>
                      <VOLUME id="13">
                        <par value="0" name="vol"/>
                      </VOLUME>
                      <VOLUME id="14">
                        <par value="0" name="vol"/>
                      </VOLUME>
                      <VOLUME id="15">
                        <par value="0" name="vol"/>
                      </VOLUME>
                      <SENDTO id="2">
                        <par value="0" name="send_vol"/>
                      </SENDTO>
                      <SENDTO id="3">
                        <par value="0" name="send_vol"/>
                      </SENDTO>
                    </SYSTEM_EFFECT>
                    <SYSTEM_EFFECT id="2">
                      <EFFECT>
                        <par value="0" name="type"/>
                      </EFFECT>
                      <VOLUME id="0">
                        <par value="0" name="vol"/>
                      </VOLUME>
                      <VOLUME id="1">
                        <par value="0" name="vol"/>
                      </VOLUME>
                      <VOLUME id="2">
                        <par value="0" name="vol"/>
                      </VOLUME>
                      <VOLUME id="3">
                        <par value="0" name="vol"/>
                      </VOLUME>
                      <VOLUME id="4">
                        <par value="0" name="vol"/>
                      </VOLUME>
                      <VOLUME id="5">
                        <par value="0" name="vol"/>
                      </VOLUME>
                      <VOLUME id="6">
                        <par value="0" name="vol"/>
                      </VOLUME>
                      <VOLUME id="7">
                        <par value="0" name="vol"/>
                      </VOLUME>
                      <VOLUME id="8">
                        <par value="0" name="vol"/>
                      </VOLUME>
                      <VOLUME id="9">
                        <par value="0" name="vol"/>
                      </VOLUME>
                      <VOLUME id="10">
                        <par value="0" name="vol"/>
                      </VOLUME>
                      <VOLUME id="11">
                        <par value="0" name="vol"/>
                      </VOLUME>
                      <VOLUME id="12">
                        <par value="0" name="vol"/>
                      </VOLUME>
                      <VOLUME id="13">
                        <par value="0" name="vol"/>
                      </VOLUME>
                      <VOLUME id="14">
                        <par value="0" name="vol"/>
                      </VOLUME>
                      <VOLUME id="15">
                        <par value="0" name="vol"/>
                      </VOLUME>
                      <SENDTO id="3">
                        <par value="0" name="send_vol"/>
                      </SENDTO>
                    </SYSTEM_EFFECT>
                    <SYSTEM_EFFECT id="3">
                      <EFFECT>
                        <par value="0" name="type"/>
                      </EFFECT>
                      <VOLUME id="0">
                        <par value="0" name="vol"/>
                      </VOLUME>
                      <VOLUME id="1">
                        <par value="0" name="vol"/>
                      </VOLUME>
                      <VOLUME id="2">
                        <par value="0" name="vol"/>
                      </VOLUME>
                      <VOLUME id="3">
                        <par value="0" name="vol"/>
                      </VOLUME>
                      <VOLUME id="4">
                        <par value="0" name="vol"/>
                      </VOLUME>
                      <VOLUME id="5">
                        <par value="0" name="vol"/>
                      </VOLUME>
                      <VOLUME id="6">
                        <par value="0" name="vol"/>
                      </VOLUME>
                      <VOLUME id="7">
                        <par value="0" name="vol"/>
                      </VOLUME>
                      <VOLUME id="8">
                        <par value="0" name="vol"/>
                      </VOLUME>
                      <VOLUME id="9">
                        <par value="0" name="vol"/>
                      </VOLUME>
                      <VOLUME id="10">
                        <par value="0" name="vol"/>
                      </VOLUME>
                      <VOLUME id="11">
                        <par value="0" name="vol"/>
                      </VOLUME>
                      <VOLUME id="12">
                        <par value="0" name="vol"/>
                      </VOLUME>
                      <VOLUME id="13">
                        <par value="0" name="vol"/>
                      </VOLUME>
                      <VOLUME id="14">
                        <par value="0" name="vol"/>
                      </VOLUME>
                      <VOLUME id="15">
                        <par value="0" name="vol"/>
                      </VOLUME>
                    </SYSTEM_EFFECT>
                  </SYSTEM_EFFECTS>
                  <INSERTION_EFFECTS>
                    <INSERTION_EFFECT id="0">
                      <par value="-1" name="part"/>
                      <EFFECT>
                        <par value="0" name="type"/>
                      </EFFECT>
                    </INSERTION_EFFECT>
                    <INSERTION_EFFECT id="1">
                      <par value="-1" name="part"/>
                      <EFFECT>
                        <par value="0" name="type"/>
                      </EFFECT>
                    </INSERTION_EFFECT>
                    <INSERTION_EFFECT id="2">
                      <par value="-1" name="part"/>
                      <EFFECT>
                        <par value="0" name="type"/>
                      </EFFECT>
                    </INSERTION_EFFECT>
                    <INSERTION_EFFECT id="3">
                      <par value="-1" name="part"/>
                      <EFFECT>
                        <par value="0" name="type"/>
                      </EFFECT>
                    </INSERTION_EFFECT>
                    <INSERTION_EFFECT id="4">
                      <par value="-1" name="part"/>
                      <EFFECT>
                        <par value="0" name="type"/>
                      </EFFECT>
                    </INSERTION_EFFECT>
                    <INSERTION_EFFECT id="5">
                      <par value="-1" name="part"/>
                      <EFFECT>
                        <par value="0" name="type"/>
                      </EFFECT>
                    </INSERTION_EFFECT>
                    <INSERTION_EFFECT id="6">
                      <par value="-1" name="part"/>
                      <EFFECT>
                        <par value="0" name="type"/>
                      </EFFECT>
                    </INSERTION_EFFECT>
                    <INSERTION_EFFECT id="7">
                      <par value="-1" name="part"/>
                      <EFFECT>
                        <par value="0" name="type"/>
                      </EFFECT>
                    </INSERTION_EFFECT>
                  </INSERTION_EFFECTS>
                </MASTER>
              </ZynAddSubFX-data>
            </zynaddsubfx>
          </instrument>
          <eldata fres="1.35" ftype="0" fcut="3200" fwet="1">
            <elvol lspd_denominator="4" sustain="1" pdel="0" userwavefile="" dec="0" lamt="0" syncmode="0" latt="0" rel="0.384" amt="1" x100="0" att="0.039" lpdel="0" hold="0" lshp="0" lspd="0.1" ctlenvamt="0" lspd_numerator="4"/>
            <elcut lspd_denominator="4" sustain="0.001" pdel="0" userwavefile="" dec="0.221" lamt="0.345" syncmode="0" latt="0" rel="0" amt="1" x100="0" att="0.037" lpdel="0.019" hold="0" lshp="0" lspd="0.2384" ctlenvamt="0" lspd_numerator="4"/>
            <elres lspd_denominator="4" sustain="0.501" pdel="0" userwavefile="" dec="0.499" lamt="0" syncmode="0" latt="0" rel="0.1" amt="0" x100="0" att="0" lpdel="0" hold="0.499" lshp="0" lspd="0.1" ctlenvamt="0" lspd_numerator="4"/>
          </eldata>
          <chordcreator chord="0" chordrange="2" chord-enabled="1"/>
          <arpeggiator arptime="107" arprange="3" arptime_denominator="4" syncmode="0" arpmode="1" arp-enabled="0" arp="0" arptime_numerator="4" arpdir="1" arpgate="68"/>
          <midiport inputcontroller="0" fixedoutputvelocity="-1" inputchannel="0" outputcontroller="0" writable="0" outputchannel="1" fixedinputvelocity="-1" fixedoutputnote="-1" outputprogram="1" basevelocity="63" readable="0"/>
          <fxchain numofeffects="0" enabled="0"/>
        </instrumenttrack>
        <pattern steps="16" muted="0" type="1" name="Analog Filter 1" pos="384" len="1536">
          <note pan="0" key="48" vol="100" pos="0" len="96"/>
          <note pan="0" key="46" vol="100" pos="96" len="48"/>
          <note pan="0" key="51" vol="100" pos="144" len="24"/>
          <note pan="0" key="39" vol="100" pos="168" len="120"/>
          <note pan="0" key="46" vol="100" pos="288" len="48"/>
          <note pan="0" key="48" vol="100" pos="336" len="48"/>
          <note pan="0" key="48" vol="100" pos="384" len="96"/>
          <note pan="0" key="46" vol="100" pos="480" len="96"/>
          <note pan="0" key="44" vol="100" pos="576" len="96"/>
          <note pan="0" key="46" vol="100" pos="672" len="48"/>
          <note pan="0" key="48" vol="100" pos="720" len="48"/>
          <note pan="0" key="46" vol="100" pos="768" len="96"/>
          <note pan="0" key="44" vol="100" pos="864" len="96"/>
          <note pan="0" key="43" vol="100" pos="960" len="96"/>
          <note pan="0" key="48" vol="100" pos="1056" len="48"/>
          <note pan="0" key="46" vol="100" pos="1104" len="48"/>
          <note pan="0" key="44" vol="100" pos="1152" len="144"/>
          <note pan="0" key="39" vol="100" pos="1296" len="12"/>
          <note pan="0" key="44" vol="100" pos="1308" len="12"/>
          <note pan="0" key="46" vol="100" pos="1320" len="12"/>
          <note pan="0" key="51" vol="100" pos="1332" len="12"/>
          <note pan="0" key="46" vol="100" pos="1344" len="192"/>
        </pattern>
        <pattern steps="16" muted="0" type="1" name="Analog Filter 1" pos="1920" len="1536">
          <note pan="0" key="48" vol="100" pos="0" len="96"/>
          <note pan="0" key="46" vol="100" pos="96" len="48"/>
          <note pan="0" key="51" vol="100" pos="144" len="24"/>
          <note pan="0" key="39" vol="100" pos="168" len="120"/>
          <note pan="0" key="46" vol="100" pos="288" len="48"/>
          <note pan="0" key="48" vol="100" pos="336" len="48"/>
          <note pan="0" key="48" vol="100" pos="384" len="96"/>
          <note pan="0" key="46" vol="100" pos="480" len="96"/>
          <note pan="0" key="44" vol="100" pos="576" len="96"/>
          <note pan="0" key="46" vol="100" pos="672" len="48"/>
          <note pan="0" key="48" vol="100" pos="720" len="48"/>
          <note pan="0" key="46" vol="100" pos="768" len="96"/>
          <note pan="0" key="44" vol="100" pos="864" len="96"/>
          <note pan="0" key="43" vol="100" pos="960" len="96"/>
          <note pan="0" key="48" vol="100" pos="1056" len="48"/>
          <note pan="0" key="46" vol="100" pos="1104" len="48"/>
          <note pan="0" key="44" vol="100" pos="1152" len="144"/>
          <note pan="0" key="39" vol="100" pos="1296" len="12"/>
          <note pan="0" key="44" vol="100" pos="1308" len="12"/>
          <note pan="0" key="46" vol="100" pos="1320" len="12"/>
          <note pan="0" key="51" vol="100" pos="1332" len="12"/>
          <note pan="0" key="46" vol="100" pos="1344" len="192"/>
        </pattern>
        <pattern steps="16" muted="0" type="1" name=" Lead" pos="0" len="384">
          <note pan="0" key="51" vol="100" pos="0" len="6"/>
          <note pan="0" key="51" vol="100" pos="12" len="6"/>
          <note pan="0" key="51" vol="100" pos="24" len="6"/>
          <note pan="0" key="51" vol="100" pos="36" len="6"/>
          <note pan="0" key="51" vol="100" pos="48" len="48"/>
          <note pan="0" key="53" vol="100" pos="96" len="6"/>
          <note pan="0" key="53" vol="100" pos="108" len="6"/>
          <note pan="0" key="53" vol="100" pos="120" len="6"/>
          <note pan="0" key="53" vol="100" pos="132" len="6"/>
          <note pan="0" key="53" vol="100" pos="144" len="48"/>
          <note pan="0" key="55" vol="100" pos="192" len="6"/>
          <note pan="0" key="55" vol="100" pos="204" len="6"/>
          <note pan="0" key="55" vol="100" pos="216" len="6"/>
          <note pan="0" key="55" vol="100" pos="228" len="6"/>
          <note pan="0" key="55" vol="100" pos="240" len="48"/>
          <note pan="0" key="53" vol="100" pos="288" len="6"/>
          <note pan="0" key="53" vol="100" pos="300" len="6"/>
          <note pan="0" key="53" vol="100" pos="312" len="6"/>
          <note pan="0" key="53" vol="100" pos="324" len="6"/>
          <note pan="0" key="53" vol="100" pos="336" len="48"/>
        </pattern>
        <pattern steps="16" muted="0" type="1" name="Analog Filter 1" pos="9600" len="1536">
          <note pan="0" key="48" vol="100" pos="0" len="96"/>
          <note pan="0" key="46" vol="100" pos="96" len="48"/>
          <note pan="0" key="51" vol="100" pos="144" len="24"/>
          <note pan="0" key="39" vol="100" pos="168" len="120"/>
          <note pan="0" key="46" vol="100" pos="288" len="48"/>
          <note pan="0" key="48" vol="100" pos="336" len="48"/>
          <note pan="0" key="48" vol="100" pos="384" len="96"/>
          <note pan="0" key="46" vol="100" pos="480" len="96"/>
          <note pan="0" key="44" vol="100" pos="576" len="96"/>
          <note pan="0" key="46" vol="100" pos="672" len="48"/>
          <note pan="0" key="48" vol="100" pos="720" len="48"/>
          <note pan="0" key="46" vol="100" pos="768" len="96"/>
          <note pan="0" key="44" vol="100" pos="864" len="96"/>
          <note pan="0" key="43" vol="100" pos="960" len="96"/>
          <note pan="0" key="48" vol="100" pos="1056" len="48"/>
          <note pan="0" key="46" vol="100" pos="1104" len="48"/>
          <note pan="0" key="44" vol="100" pos="1152" len="144"/>
          <note pan="0" key="39" vol="100" pos="1296" len="12"/>
          <note pan="0" key="44" vol="100" pos="1308" len="12"/>
          <note pan="0" key="46" vol="100" pos="1320" len="12"/>
          <note pan="0" key="51" vol="100" pos="1332" len="12"/>
          <note pan="0" key="46" vol="100" pos="1344" len="192"/>
        </pattern>
        <pattern steps="16" muted="0" type="1" name="Analog Filter 1" pos="11136" len="1536">
          <note pan="0" key="48" vol="100" pos="0" len="96"/>
          <note pan="0" key="46" vol="100" pos="96" len="48"/>
          <note pan="0" key="51" vol="100" pos="144" len="24"/>
          <note pan="0" key="39" vol="100" pos="168" len="120"/>
          <note pan="0" key="46" vol="100" pos="288" len="48"/>
          <note pan="0" key="48" vol="100" pos="336" len="48"/>
          <note pan="0" key="48" vol="100" pos="384" len="96"/>
          <note pan="0" key="46" vol="100" pos="480" len="96"/>
          <note pan="0" key="44" vol="100" pos="576" len="96"/>
          <note pan="0" key="46" vol="100" pos="672" len="48"/>
          <note pan="0" key="48" vol="100" pos="720" len="48"/>
          <note pan="0" key="46" vol="100" pos="768" len="96"/>
          <note pan="0" key="44" vol="100" pos="864" len="96"/>
          <note pan="0" key="43" vol="100" pos="960" len="96"/>
          <note pan="0" key="48" vol="100" pos="1056" len="48"/>
          <note pan="0" key="46" vol="100" pos="1104" len="48"/>
          <note pan="0" key="44" vol="100" pos="1152" len="144"/>
          <note pan="0" key="39" vol="100" pos="1296" len="12"/>
          <note pan="0" key="44" vol="100" pos="1308" len="12"/>
          <note pan="0" key="46" vol="100" pos="1320" len="12"/>
          <note pan="0" key="51" vol="100" pos="1332" len="12"/>
          <note pan="0" key="46" vol="100" pos="1344" len="192"/>
        </pattern>
      </track>
      <track muted="0" type="0" name="Pluck" solo="0">
        <instrumenttrack pan="-25" fxch="7" pitchrange="1" pitch="0" basenote="57" vol="49.6">
          <instrument name="bitinvader">
            <bitinvader version="0.1" sampleLength="128" normalize="1" sampleShape="QAGguf+B/zwBYYA9gsHAPQF5AD5BYSA+gClAPr+5Xz7+CX8+HgWPPj1pnj5bma0+eZm8Ppdlyz60+dk+0VXoPu1x9j4EJQI/EukIPx+NDz8sCRY/OVkcP0WFIj9RfSg/XU8uP2jrMz9zXTk/fZc+P4elQz+Re0g/mh9NP6OJUT+rvVU/s7dZP7t9XT/CCWE/yVVkP89xZz/VR2o/2ulsP99Nbz/jc3E/52FzP+oNdT/tg3Y/77l3P/G3eD/zdXk/9P15P/VHej/1VXo/9Ct6P/TJeT/yLXk/8V14P+9Tdz/sF3Y/6aV0P+b/cj/iKXE/3h9vP9rpbD/VhWo/0PNnP8o3ZT/FUWI/v0VfP7gRXD+xuVg/q0NVP6OnUT+c7U0/lBdKP4wnRj+EIUI/fP89P3TLOT9rhzU/YjExP1rNLD9RXSg/zczMPc3MzD3NzMw9j8J1PY/CdT0AAAAACtcjvQrXI70K1yO9CtcjvQrXo70K16O9CtejvY/C9b2I00O/kNNHv5e3S7+fe0+/pi1Tv625Vr+0I1q/u2tdv8GRYL/HjWO/zWFmv9ILab/Xi2u/3Nttv+D9b7/k83G/57Vzv+tDdb/to3a/8Ml3v/G7eL/zd3m/9Pt5v/VFer/1VXq/9C96v/TLeb/yLXm/8VV4v+5Bd7/s73W/6WF0v+WZcr8=" interpolation="1"/>
          </instrument>
          <eldata ftype="0" fcut="2400" fwet="1">
            <fres value="1.23" id="3938801"/>
            <elvol lspd_denominator="4" sustain="0.001" pdel="0" userwavefile="" dec="0.391" lamt="0" syncmode="0" latt="0" rel="0.39" amt="-0.43" x100="0" att="0" lpdel="0" hold="0" lshp="0" lspd="0.1" ctlenvamt="0" lspd_numerator="4"/>
            <elcut lspd_denominator="4" sustain="0.001" pdel="0" userwavefile="" dec="0.18" lamt="0" syncmode="0" latt="0" rel="0" amt="1" x100="0" att="0" lpdel="0" hold="0" lshp="0" lspd="0.1" ctlenvamt="0" lspd_numerator="4"/>
            <elres lspd_denominator="4" sustain="0.501" pdel="0" userwavefile="" dec="0.499" lamt="0" syncmode="0" latt="0" rel="0.1" amt="0" x100="0" att="0" lpdel="0" hold="0.499" lshp="0" lspd="0.1" ctlenvamt="0" lspd_numerator="4"/>
          </eldata>
          <chordcreator chord="0" chordrange="2" chord-enabled="1"/>
          <arpeggiator arptime="100" arprange="1" arptime_denominator="4" syncmode="0" arpmode="0" arp-enabled="0" arp="0" arptime_numerator="4" arpdir="0" arpgate="100"/>
          <midiport inputcontroller="0" fixedoutputvelocity="-1" inputchannel="0" outputcontroller="0" writable="0" outputchannel="1" fixedinputvelocity="-1" fixedoutputnote="-1" outputprogram="1" basevelocity="63" readable="0"/>
          <fxchain numofeffects="0" enabled="0"/>
        </instrumenttrack>
        <pattern steps="16" muted="0" type="1" name="Pluck" pos="6528" len="1536">
          <note pan="0" key="63" vol="100" pos="0" len="24"/>
          <note pan="0" key="60" vol="100" pos="24" len="24"/>
          <note pan="0" key="67" vol="100" pos="48" len="24"/>
          <note pan="0" key="63" vol="100" pos="72" len="24"/>
          <note pan="0" key="63" vol="100" pos="96" len="24"/>
          <note pan="0" key="60" vol="100" pos="120" len="24"/>
          <note pan="0" key="67" vol="100" pos="144" len="24"/>
          <note pan="0" key="63" vol="100" pos="168" len="24"/>
          <note pan="0" key="63" vol="100" pos="192" len="24"/>
          <note pan="0" key="60" vol="100" pos="216" len="24"/>
          <note pan="0" key="67" vol="100" pos="240" len="24"/>
          <note pan="0" key="63" vol="100" pos="264" len="24"/>
          <note pan="0" key="60" vol="100" pos="288" len="24"/>
          <note pan="0" key="63" vol="100" pos="312" len="24"/>
          <note pan="0" key="67" vol="100" pos="336" len="24"/>
          <note pan="0" key="63" vol="100" pos="360" len="24"/>
          <note pan="0" key="67" vol="100" pos="384" len="24"/>
          <note pan="0" key="63" vol="100" pos="408" len="24"/>
          <note pan="0" key="70" vol="100" pos="432" len="24"/>
          <note pan="0" key="67" vol="100" pos="456" len="24"/>
          <note pan="0" key="67" vol="100" pos="480" len="24"/>
          <note pan="0" key="63" vol="100" pos="504" len="24"/>
          <note pan="0" key="70" vol="100" pos="528" len="24"/>
          <note pan="0" key="67" vol="100" pos="552" len="24"/>
          <note pan="0" key="67" vol="100" pos="576" len="24"/>
          <note pan="0" key="63" vol="100" pos="600" len="24"/>
          <note pan="0" key="70" vol="100" pos="624" len="24"/>
          <note pan="0" key="67" vol="100" pos="648" len="24"/>
          <note pan="0" key="63" vol="100" pos="672" len="24"/>
          <note pan="0" key="67" vol="100" pos="696" len="24"/>
          <note pan="0" key="70" vol="100" pos="720" len="24"/>
          <note pan="0" key="67" vol="100" pos="744" len="24"/>
          <note pan="0" key="65" vol="100" pos="768" len="24"/>
          <note pan="0" key="60" vol="100" pos="792" len="24"/>
          <note pan="0" key="68" vol="100" pos="816" len="24"/>
          <note pan="0" key="65" vol="100" pos="840" len="24"/>
          <note pan="0" key="65" vol="100" pos="864" len="24"/>
          <note pan="0" key="60" vol="100" pos="888" len="24"/>
          <note pan="0" key="68" vol="100" pos="912" len="24"/>
          <note pan="0" key="65" vol="100" pos="936" len="24"/>
          <note pan="0" key="65" vol="100" pos="960" len="24"/>
          <note pan="0" key="60" vol="100" pos="984" len="24"/>
          <note pan="0" key="68" vol="100" pos="1008" len="24"/>
          <note pan="0" key="65" vol="100" pos="1032" len="24"/>
          <note pan="0" key="60" vol="100" pos="1056" len="24"/>
          <note pan="0" key="65" vol="100" pos="1080" len="24"/>
          <note pan="0" key="68" vol="100" pos="1104" len="24"/>
          <note pan="0" key="65" vol="100" pos="1128" len="24"/>
          <note pan="0" key="67" vol="100" pos="1152" len="24"/>
          <note pan="0" key="63" vol="100" pos="1176" len="24"/>
          <note pan="0" key="70" vol="100" pos="1200" len="24"/>
          <note pan="0" key="67" vol="100" pos="1224" len="24"/>
          <note pan="0" key="67" vol="100" pos="1248" len="24"/>
          <note pan="0" key="63" vol="100" pos="1272" len="24"/>
          <note pan="0" key="70" vol="100" pos="1296" len="24"/>
          <note pan="0" key="67" vol="100" pos="1320" len="24"/>
          <note pan="0" key="67" vol="100" pos="1344" len="24"/>
          <note pan="0" key="63" vol="100" pos="1368" len="24"/>
          <note pan="0" key="70" vol="100" pos="1392" len="24"/>
          <note pan="0" key="67" vol="100" pos="1416" len="24"/>
          <note pan="0" key="63" vol="100" pos="1440" len="24"/>
          <note pan="0" key="67" vol="100" pos="1464" len="24"/>
          <note pan="0" key="70" vol="100" pos="1488" len="24"/>
          <note pan="0" key="67" vol="100" pos="1512" len="24"/>
        </pattern>
        <pattern steps="16" muted="0" type="1" name="Pluck" pos="8064" len="1536">
          <note pan="0" key="63" vol="100" pos="0" len="24"/>
          <note pan="0" key="60" vol="100" pos="24" len="24"/>
          <note pan="0" key="67" vol="100" pos="48" len="24"/>
          <note pan="0" key="63" vol="100" pos="72" len="24"/>
          <note pan="0" key="63" vol="100" pos="96" len="24"/>
          <note pan="0" key="60" vol="100" pos="120" len="24"/>
          <note pan="0" key="67" vol="100" pos="144" len="24"/>
          <note pan="0" key="63" vol="100" pos="168" len="24"/>
          <note pan="0" key="63" vol="100" pos="192" len="24"/>
          <note pan="0" key="60" vol="100" pos="216" len="24"/>
          <note pan="0" key="67" vol="100" pos="240" len="24"/>
          <note pan="0" key="63" vol="100" pos="264" len="24"/>
          <note pan="0" key="60" vol="100" pos="288" len="24"/>
          <note pan="0" key="63" vol="100" pos="312" len="24"/>
          <note pan="0" key="67" vol="100" pos="336" len="24"/>
          <note pan="0" key="63" vol="100" pos="360" len="24"/>
          <note pan="0" key="67" vol="100" pos="384" len="24"/>
          <note pan="0" key="63" vol="100" pos="408" len="24"/>
          <note pan="0" key="70" vol="100" pos="432" len="24"/>
          <note pan="0" key="67" vol="100" pos="456" len="24"/>
          <note pan="0" key="67" vol="100" pos="480" len="24"/>
          <note pan="0" key="63" vol="100" pos="504" len="24"/>
          <note pan="0" key="70" vol="100" pos="528" len="24"/>
          <note pan="0" key="67" vol="100" pos="552" len="24"/>
          <note pan="0" key="67" vol="100" pos="576" len="24"/>
          <note pan="0" key="63" vol="100" pos="600" len="24"/>
          <note pan="0" key="70" vol="100" pos="624" len="24"/>
          <note pan="0" key="67" vol="100" pos="648" len="24"/>
          <note pan="0" key="63" vol="100" pos="672" len="24"/>
          <note pan="0" key="67" vol="100" pos="696" len="24"/>
          <note pan="0" key="70" vol="100" pos="720" len="24"/>
          <note pan="0" key="67" vol="100" pos="744" len="24"/>
          <note pan="0" key="65" vol="100" pos="768" len="24"/>
          <note pan="0" key="60" vol="100" pos="792" len="24"/>
          <note pan="0" key="68" vol="100" pos="816" len="24"/>
          <note pan="0" key="65" vol="100" pos="840" len="24"/>
          <note pan="0" key="65" vol="100" pos="864" len="24"/>
          <note pan="0" key="60" vol="100" pos="888" len="24"/>
          <note pan="0" key="68" vol="100" pos="912" len="24"/>
          <note pan="0" key="65" vol="100" pos="936" len="24"/>
          <note pan="0" key="65" vol="100" pos="960" len="24"/>
          <note pan="0" key="60" vol="100" pos="984" len="24"/>
          <note pan="0" key="68" vol="100" pos="1008" len="24"/>
          <note pan="0" key="65" vol="100" pos="1032" len="24"/>
          <note pan="0" key="60" vol="100" pos="1056" len="24"/>
          <note pan="0" key="65" vol="100" pos="1080" len="24"/>
          <note pan="0" key="68" vol="100" pos="1104" len="24"/>
          <note pan="0" key="65" vol="100" pos="1128" len="24"/>
          <note pan="0" key="67" vol="100" pos="1152" len="24"/>
          <note pan="0" key="63" vol="100" pos="1176" len="24"/>
          <note pan="0" key="70" vol="100" pos="1200" len="24"/>
          <note pan="0" key="67" vol="100" pos="1224" len="24"/>
          <note pan="0" key="67" vol="100" pos="1248" len="24"/>
          <note pan="0" key="63" vol="100" pos="1272" len="24"/>
          <note pan="0" key="70" vol="100" pos="1296" len="24"/>
          <note pan="0" key="67" vol="100" pos="1320" len="24"/>
          <note pan="0" key="67" vol="100" pos="1344" len="24"/>
          <note pan="0" key="63" vol="100" pos="1368" len="24"/>
          <note pan="0" key="70" vol="100" pos="1392" len="24"/>
          <note pan="0" key="67" vol="100" pos="1416" len="24"/>
          <note pan="0" key="63" vol="100" pos="1440" len="24"/>
          <note pan="0" key="67" vol="100" pos="1464" len="24"/>
          <note pan="0" key="70" vol="100" pos="1488" len="24"/>
          <note pan="0" key="67" vol="100" pos="1512" len="24"/>
        </pattern>
        <pattern steps="16" muted="0" type="1" name="Pluck" pos="4224" len="768">
          <note pan="0" key="65" vol="100" pos="0" len="12"/>
          <note pan="0" key="48" vol="100" pos="0" len="12"/>
          <note pan="0" key="56" vol="100" pos="0" len="12"/>
          <note pan="0" key="60" vol="100" pos="12" len="12"/>
          <note pan="0" key="56" vol="100" pos="24" len="12"/>
          <note pan="0" key="48" vol="100" pos="24" len="12"/>
          <note pan="0" key="53" vol="100" pos="36" len="12"/>
          <note pan="0" key="56" vol="100" pos="48" len="12"/>
          <note pan="0" key="48" vol="100" pos="48" len="12"/>
          <note pan="0" key="65" vol="100" pos="48" len="12"/>
          <note pan="0" key="60" vol="100" pos="60" len="12"/>
          <note pan="0" key="48" vol="100" pos="72" len="12"/>
          <note pan="0" key="56" vol="100" pos="72" len="12"/>
          <note pan="0" key="53" vol="100" pos="84" len="12"/>
          <note pan="0" key="56" vol="100" pos="96" len="12"/>
          <note pan="0" key="65" vol="100" pos="96" len="12"/>
          <note pan="0" key="48" vol="100" pos="96" len="12"/>
          <note pan="0" key="60" vol="100" pos="108" len="12"/>
          <note pan="0" key="48" vol="100" pos="120" len="12"/>
          <note pan="0" key="56" vol="100" pos="120" len="12"/>
          <note pan="0" key="53" vol="100" pos="132" len="12"/>
          <note pan="0" key="48" vol="100" pos="144" len="12"/>
          <note pan="0" key="65" vol="100" pos="144" len="12"/>
          <note pan="0" key="56" vol="100" pos="144" len="12"/>
          <note pan="0" key="60" vol="100" pos="156" len="12"/>
          <note pan="0" key="48" vol="100" pos="168" len="12"/>
          <note pan="0" key="56" vol="100" pos="168" len="12"/>
          <note pan="0" key="53" vol="100" pos="180" len="12"/>
          <note pan="0" key="65" vol="100" pos="192" len="12"/>
          <note pan="0" key="56" vol="100" pos="192" len="12"/>
          <note pan="0" key="48" vol="100" pos="192" len="12"/>
          <note pan="0" key="60" vol="100" pos="204" len="12"/>
          <note pan="0" key="56" vol="100" pos="216" len="12"/>
          <note pan="0" key="48" vol="100" pos="216" len="12"/>
          <note pan="0" key="53" vol="100" pos="228" len="12"/>
          <note pan="0" key="48" vol="100" pos="240" len="12"/>
          <note pan="0" key="65" vol="100" pos="240" len="12"/>
          <note pan="0" key="56" vol="100" pos="240" len="12"/>
          <note pan="0" key="60" vol="100" pos="252" len="12"/>
          <note pan="0" key="48" vol="100" pos="264" len="12"/>
          <note pan="0" key="56" vol="100" pos="264" len="12"/>
          <note pan="0" key="53" vol="100" pos="276" len="12"/>
          <note pan="0" key="56" vol="100" pos="288" len="12"/>
          <note pan="0" key="48" vol="100" pos="288" len="12"/>
          <note pan="0" key="65" vol="100" pos="288" len="12"/>
          <note pan="0" key="60" vol="100" pos="300" len="12"/>
          <note pan="0" key="56" vol="100" pos="312" len="12"/>
          <note pan="0" key="48" vol="100" pos="312" len="12"/>
          <note pan="0" key="53" vol="100" pos="324" len="12"/>
          <note pan="0" key="56" vol="100" pos="336" len="12"/>
          <note pan="0" key="48" vol="100" pos="336" len="12"/>
          <note pan="0" key="65" vol="100" pos="336" len="12"/>
          <note pan="0" key="60" vol="100" pos="348" len="12"/>
          <note pan="0" key="56" vol="100" pos="360" len="12"/>
          <note pan="0" key="48" vol="100" pos="360" len="12"/>
          <note pan="0" key="53" vol="100" pos="372" len="12"/>
          <note pan="0" key="55" vol="100" pos="384" len="12"/>
          <note pan="0" key="63" vol="100" pos="384" len="12"/>
          <note pan="0" key="72" vol="100" pos="384" len="12"/>
          <note pan="0" key="67" vol="100" pos="396" len="12"/>
          <note pan="0" key="63" vol="100" pos="408" len="12"/>
          <note pan="0" key="55" vol="100" pos="408" len="12"/>
          <note pan="0" key="60" vol="100" pos="420" len="12"/>
          <note pan="0" key="72" vol="100" pos="432" len="12"/>
          <note pan="0" key="55" vol="100" pos="432" len="12"/>
          <note pan="0" key="63" vol="100" pos="432" len="12"/>
          <note pan="0" key="67" vol="100" pos="444" len="12"/>
          <note pan="0" key="55" vol="100" pos="456" len="12"/>
          <note pan="0" key="63" vol="100" pos="456" len="12"/>
          <note pan="0" key="60" vol="100" pos="468" len="12"/>
          <note pan="0" key="63" vol="100" pos="480" len="12"/>
          <note pan="0" key="55" vol="100" pos="480" len="12"/>
          <note pan="0" key="72" vol="100" pos="480" len="12"/>
          <note pan="0" key="67" vol="100" pos="492" len="12"/>
          <note pan="0" key="55" vol="100" pos="504" len="12"/>
          <note pan="0" key="63" vol="100" pos="504" len="12"/>
          <note pan="0" key="60" vol="100" pos="516" len="12"/>
          <note pan="0" key="63" vol="100" pos="528" len="12"/>
          <note pan="0" key="55" vol="100" pos="528" len="12"/>
          <note pan="0" key="72" vol="100" pos="528" len="12"/>
          <note pan="0" key="67" vol="100" pos="540" len="12"/>
          <note pan="0" key="55" vol="100" pos="552" len="12"/>
          <note pan="0" key="63" vol="100" pos="552" len="12"/>
          <note pan="0" key="60" vol="100" pos="564" len="12"/>
          <note pan="0" key="62" vol="100" pos="576" len="12"/>
          <note pan="0" key="70" vol="100" pos="576" len="12"/>
          <note pan="0" key="53" vol="100" pos="576" len="12"/>
          <note pan="0" key="65" vol="100" pos="588" len="12"/>
          <note pan="0" key="62" vol="100" pos="600" len="12"/>
          <note pan="0" key="53" vol="100" pos="600" len="12"/>
          <note pan="0" key="58" vol="100" pos="612" len="12"/>
          <note pan="0" key="62" vol="100" pos="624" len="12"/>
          <note pan="0" key="53" vol="100" pos="624" len="12"/>
          <note pan="0" key="70" vol="100" pos="624" len="12"/>
          <note pan="0" key="65" vol="100" pos="636" len="12"/>
          <note pan="0" key="53" vol="100" pos="648" len="12"/>
          <note pan="0" key="62" vol="100" pos="648" len="12"/>
          <note pan="0" key="58" vol="100" pos="660" len="12"/>
          <note pan="0" key="54" vol="100" pos="672" len="12"/>
          <note pan="0" key="71" vol="100" pos="672" len="12"/>
          <note pan="0" key="63" vol="100" pos="672" len="12"/>
          <note pan="0" key="66" vol="100" pos="684" len="12"/>
          <note pan="0" key="63" vol="100" pos="696" len="12"/>
          <note pan="0" key="54" vol="100" pos="696" len="12"/>
          <note pan="0" key="59" vol="100" pos="708" len="12"/>
          <note pan="0" key="63" vol="100" pos="720" len="12"/>
          <note pan="0" key="71" vol="100" pos="720" len="12"/>
          <note pan="0" key="54" vol="100" pos="720" len="12"/>
          <note pan="0" key="66" vol="100" pos="732" len="12"/>
          <note pan="0" key="63" vol="100" pos="744" len="12"/>
          <note pan="0" key="54" vol="100" pos="744" len="12"/>
          <note pan="0" key="59" vol="100" pos="756" len="12"/>
        </pattern>
        <pattern steps="16" muted="0" type="1" name="Pluck" pos="4992" len="768">
          <note pan="0" key="56" vol="100" pos="0" len="12"/>
          <note pan="0" key="48" vol="100" pos="0" len="12"/>
          <note pan="0" key="65" vol="100" pos="0" len="12"/>
          <note pan="0" key="60" vol="100" pos="12" len="12"/>
          <note pan="0" key="56" vol="100" pos="24" len="12"/>
          <note pan="0" key="48" vol="100" pos="24" len="12"/>
          <note pan="0" key="53" vol="100" pos="36" len="12"/>
          <note pan="0" key="65" vol="100" pos="48" len="12"/>
          <note pan="0" key="56" vol="100" pos="48" len="12"/>
          <note pan="0" key="48" vol="100" pos="48" len="12"/>
          <note pan="0" key="60" vol="100" pos="60" len="12"/>
          <note pan="0" key="56" vol="100" pos="72" len="12"/>
          <note pan="0" key="48" vol="100" pos="72" len="12"/>
          <note pan="0" key="53" vol="100" pos="84" len="12"/>
          <note pan="0" key="48" vol="100" pos="96" len="12"/>
          <note pan="0" key="65" vol="100" pos="96" len="12"/>
          <note pan="0" key="56" vol="100" pos="96" len="12"/>
          <note pan="0" key="60" vol="100" pos="108" len="12"/>
          <note pan="0" key="48" vol="100" pos="120" len="12"/>
          <note pan="0" key="56" vol="100" pos="120" len="12"/>
          <note pan="0" key="53" vol="100" pos="132" len="12"/>
          <note pan="0" key="56" vol="100" pos="144" len="12"/>
          <note pan="0" key="48" vol="100" pos="144" len="12"/>
          <note pan="0" key="65" vol="100" pos="144" len="12"/>
          <note pan="0" key="60" vol="100" pos="156" len="12"/>
          <note pan="0" key="56" vol="100" pos="168" len="12"/>
          <note pan="0" key="48" vol="100" pos="168" len="12"/>
          <note pan="0" key="53" vol="100" pos="180" len="12"/>
          <note pan="0" key="48" vol="100" pos="192" len="12"/>
          <note pan="0" key="65" vol="100" pos="192" len="12"/>
          <note pan="0" key="56" vol="100" pos="192" len="12"/>
          <note pan="0" key="60" vol="100" pos="204" len="12"/>
          <note pan="0" key="56" vol="100" pos="216" len="12"/>
          <note pan="0" key="48" vol="100" pos="216" len="12"/>
          <note pan="0" key="53" vol="100" pos="228" len="12"/>
          <note pan="0" key="48" vol="100" pos="240" len="12"/>
          <note pan="0" key="56" vol="100" pos="240" len="12"/>
          <note pan="0" key="65" vol="100" pos="240" len="12"/>
          <note pan="0" key="60" vol="100" pos="252" len="12"/>
          <note pan="0" key="48" vol="100" pos="264" len="12"/>
          <note pan="0" key="56" vol="100" pos="264" len="12"/>
          <note pan="0" key="53" vol="100" pos="276" len="12"/>
          <note pan="0" key="48" vol="100" pos="288" len="12"/>
          <note pan="0" key="56" vol="100" pos="288" len="12"/>
          <note pan="0" key="65" vol="100" pos="288" len="12"/>
          <note pan="0" key="60" vol="100" pos="300" len="12"/>
          <note pan="0" key="48" vol="100" pos="312" len="12"/>
          <note pan="0" key="56" vol="100" pos="312" len="12"/>
          <note pan="0" key="53" vol="100" pos="324" len="12"/>
          <note pan="0" key="48" vol="100" pos="336" len="12"/>
          <note pan="0" key="65" vol="100" pos="336" len="12"/>
          <note pan="0" key="56" vol="100" pos="336" len="12"/>
          <note pan="0" key="60" vol="100" pos="348" len="12"/>
          <note pan="0" key="56" vol="100" pos="360" len="12"/>
          <note pan="0" key="48" vol="100" pos="360" len="12"/>
          <note pan="0" key="53" vol="100" pos="372" len="12"/>
          <note pan="0" key="55" vol="100" pos="384" len="12"/>
          <note pan="0" key="63" vol="100" pos="384" len="12"/>
          <note pan="0" key="72" vol="100" pos="384" len="12"/>
          <note pan="0" key="67" vol="100" pos="396" len="12"/>
          <note pan="0" key="55" vol="100" pos="408" len="12"/>
          <note pan="0" key="63" vol="100" pos="408" len="12"/>
          <note pan="0" key="60" vol="100" pos="420" len="12"/>
          <note pan="0" key="63" vol="100" pos="432" len="12"/>
          <note pan="0" key="55" vol="100" pos="432" len="12"/>
          <note pan="0" key="72" vol="100" pos="432" len="12"/>
          <note pan="0" key="67" vol="100" pos="444" len="12"/>
          <note pan="0" key="63" vol="100" pos="456" len="12"/>
          <note pan="0" key="55" vol="100" pos="456" len="12"/>
          <note pan="0" key="60" vol="100" pos="468" len="12"/>
          <note pan="0" key="72" vol="100" pos="480" len="12"/>
          <note pan="0" key="55" vol="100" pos="480" len="12"/>
          <note pan="0" key="63" vol="100" pos="480" len="12"/>
          <note pan="0" key="67" vol="100" pos="492" len="12"/>
          <note pan="0" key="63" vol="100" pos="504" len="12"/>
          <note pan="0" key="55" vol="100" pos="504" len="12"/>
          <note pan="0" key="60" vol="100" pos="516" len="12"/>
          <note pan="0" key="55" vol="100" pos="528" len="12"/>
          <note pan="0" key="63" vol="100" pos="528" len="12"/>
          <note pan="0" key="72" vol="100" pos="528" len="12"/>
          <note pan="0" key="67" vol="100" pos="540" len="12"/>
          <note pan="0" key="63" vol="100" pos="552" len="12"/>
          <note pan="0" key="55" vol="100" pos="552" len="12"/>
          <note pan="0" key="60" vol="100" pos="564" len="12"/>
          <note pan="0" key="70" vol="100" pos="576" len="12"/>
          <note pan="0" key="62" vol="100" pos="576" len="12"/>
          <note pan="0" key="53" vol="100" pos="576" len="12"/>
          <note pan="0" key="65" vol="100" pos="588" len="12"/>
          <note pan="0" key="53" vol="100" pos="600" len="12"/>
          <note pan="0" key="62" vol="100" pos="600" len="12"/>
          <note pan="0" key="58" vol="100" pos="612" len="12"/>
          <note pan="0" key="62" vol="100" pos="624" len="12"/>
          <note pan="0" key="53" vol="100" pos="624" len="12"/>
          <note pan="0" key="70" vol="100" pos="624" len="12"/>
          <note pan="0" key="65" vol="100" pos="636" len="12"/>
          <note pan="0" key="53" vol="100" pos="648" len="12"/>
          <note pan="0" key="62" vol="100" pos="648" len="12"/>
          <note pan="0" key="58" vol="100" pos="660" len="12"/>
          <note pan="0" key="62" vol="100" pos="672" len="6"/>
          <note pan="0" key="53" vol="100" pos="672" len="6"/>
          <note pan="0" key="62" vol="100" pos="684" len="6"/>
          <note pan="0" key="53" vol="100" pos="684" len="6"/>
          <note pan="0" key="53" vol="100" pos="696" len="6"/>
          <note pan="0" key="62" vol="100" pos="696" len="6"/>
          <note pan="0" key="53" vol="100" pos="708" len="6"/>
          <note pan="0" key="62" vol="100" pos="708" len="6"/>
          <note pan="0" key="62" vol="100" pos="720" len="6"/>
          <note pan="0" key="53" vol="100" pos="720" len="6"/>
          <note pan="0" key="62" vol="100" pos="732" len="6"/>
          <note pan="0" key="53" vol="100" pos="732" len="6"/>
          <note pan="0" key="53" vol="100" pos="744" len="6"/>
          <note pan="0" key="62" vol="100" pos="744" len="6"/>
          <note pan="0" key="53" vol="100" pos="756" len="6"/>
          <note pan="0" key="62" vol="100" pos="756" len="6"/>
        </pattern>
        <pattern steps="16" muted="0" type="1" name="Pluck" pos="5760" len="768">
          <note pan="0" key="65" vol="100" pos="0" len="12"/>
          <note pan="0" key="48" vol="100" pos="0" len="12"/>
          <note pan="0" key="56" vol="100" pos="0" len="12"/>
          <note pan="0" key="60" vol="100" pos="12" len="12"/>
          <note pan="0" key="56" vol="100" pos="24" len="12"/>
          <note pan="0" key="48" vol="100" pos="24" len="12"/>
          <note pan="0" key="53" vol="100" pos="36" len="12"/>
          <note pan="0" key="56" vol="100" pos="48" len="12"/>
          <note pan="0" key="48" vol="100" pos="48" len="12"/>
          <note pan="0" key="65" vol="100" pos="48" len="12"/>
          <note pan="0" key="60" vol="100" pos="60" len="12"/>
          <note pan="0" key="48" vol="100" pos="72" len="12"/>
          <note pan="0" key="56" vol="100" pos="72" len="12"/>
          <note pan="0" key="53" vol="100" pos="84" len="12"/>
          <note pan="0" key="56" vol="100" pos="96" len="12"/>
          <note pan="0" key="65" vol="100" pos="96" len="12"/>
          <note pan="0" key="48" vol="100" pos="96" len="12"/>
          <note pan="0" key="60" vol="100" pos="108" len="12"/>
          <note pan="0" key="48" vol="100" pos="120" len="12"/>
          <note pan="0" key="56" vol="100" pos="120" len="12"/>
          <note pan="0" key="53" vol="100" pos="132" len="12"/>
          <note pan="0" key="48" vol="100" pos="144" len="12"/>
          <note pan="0" key="65" vol="100" pos="144" len="12"/>
          <note pan="0" key="56" vol="100" pos="144" len="12"/>
          <note pan="0" key="60" vol="100" pos="156" len="12"/>
          <note pan="0" key="48" vol="100" pos="168" len="12"/>
          <note pan="0" key="56" vol="100" pos="168" len="12"/>
          <note pan="0" key="53" vol="100" pos="180" len="12"/>
          <note pan="0" key="65" vol="100" pos="192" len="12"/>
          <note pan="0" key="56" vol="100" pos="192" len="12"/>
          <note pan="0" key="48" vol="100" pos="192" len="12"/>
          <note pan="0" key="60" vol="100" pos="204" len="12"/>
          <note pan="0" key="56" vol="100" pos="216" len="12"/>
          <note pan="0" key="48" vol="100" pos="216" len="12"/>
          <note pan="0" key="53" vol="100" pos="228" len="12"/>
          <note pan="0" key="48" vol="100" pos="240" len="12"/>
          <note pan="0" key="65" vol="100" pos="240" len="12"/>
          <note pan="0" key="56" vol="100" pos="240" len="12"/>
          <note pan="0" key="60" vol="100" pos="252" len="12"/>
          <note pan="0" key="48" vol="100" pos="264" len="12"/>
          <note pan="0" key="56" vol="100" pos="264" len="12"/>
          <note pan="0" key="53" vol="100" pos="276" len="12"/>
          <note pan="0" key="56" vol="100" pos="288" len="12"/>
          <note pan="0" key="48" vol="100" pos="288" len="12"/>
          <note pan="0" key="65" vol="100" pos="288" len="12"/>
          <note pan="0" key="60" vol="100" pos="300" len="12"/>
          <note pan="0" key="56" vol="100" pos="312" len="12"/>
          <note pan="0" key="48" vol="100" pos="312" len="12"/>
          <note pan="0" key="53" vol="100" pos="324" len="12"/>
          <note pan="0" key="56" vol="100" pos="336" len="12"/>
          <note pan="0" key="48" vol="100" pos="336" len="12"/>
          <note pan="0" key="65" vol="100" pos="336" len="12"/>
          <note pan="0" key="60" vol="100" pos="348" len="12"/>
          <note pan="0" key="56" vol="100" pos="360" len="12"/>
          <note pan="0" key="48" vol="100" pos="360" len="12"/>
          <note pan="0" key="53" vol="100" pos="372" len="12"/>
          <note pan="0" key="55" vol="100" pos="384" len="12"/>
          <note pan="0" key="63" vol="100" pos="384" len="12"/>
          <note pan="0" key="72" vol="100" pos="384" len="12"/>
          <note pan="0" key="67" vol="100" pos="396" len="12"/>
          <note pan="0" key="63" vol="100" pos="408" len="12"/>
          <note pan="0" key="55" vol="100" pos="408" len="12"/>
          <note pan="0" key="60" vol="100" pos="420" len="12"/>
          <note pan="0" key="72" vol="100" pos="432" len="12"/>
          <note pan="0" key="55" vol="100" pos="432" len="12"/>
          <note pan="0" key="63" vol="100" pos="432" len="12"/>
          <note pan="0" key="67" vol="100" pos="444" len="12"/>
          <note pan="0" key="55" vol="100" pos="456" len="12"/>
          <note pan="0" key="63" vol="100" pos="456" len="12"/>
          <note pan="0" key="60" vol="100" pos="468" len="12"/>
          <note pan="0" key="63" vol="100" pos="480" len="12"/>
          <note pan="0" key="55" vol="100" pos="480" len="12"/>
          <note pan="0" key="72" vol="100" pos="480" len="12"/>
          <note pan="0" key="67" vol="100" pos="492" len="12"/>
          <note pan="0" key="55" vol="100" pos="504" len="12"/>
          <note pan="0" key="63" vol="100" pos="504" len="12"/>
          <note pan="0" key="60" vol="100" pos="516" len="12"/>
          <note pan="0" key="63" vol="100" pos="528" len="12"/>
          <note pan="0" key="55" vol="100" pos="528" len="12"/>
          <note pan="0" key="72" vol="100" pos="528" len="12"/>
          <note pan="0" key="67" vol="100" pos="540" len="12"/>
          <note pan="0" key="55" vol="100" pos="552" len="12"/>
          <note pan="0" key="63" vol="100" pos="552" len="12"/>
          <note pan="0" key="60" vol="100" pos="564" len="12"/>
          <note pan="0" key="62" vol="100" pos="576" len="12"/>
          <note pan="0" key="70" vol="100" pos="576" len="12"/>
          <note pan="0" key="53" vol="100" pos="576" len="12"/>
          <note pan="0" key="65" vol="100" pos="588" len="12"/>
          <note pan="0" key="62" vol="100" pos="600" len="12"/>
          <note pan="0" key="53" vol="100" pos="600" len="12"/>
          <note pan="0" key="58" vol="100" pos="612" len="12"/>
          <note pan="0" key="62" vol="100" pos="624" len="12"/>
          <note pan="0" key="53" vol="100" pos="624" len="12"/>
          <note pan="0" key="70" vol="100" pos="624" len="12"/>
          <note pan="0" key="65" vol="100" pos="636" len="12"/>
          <note pan="0" key="53" vol="100" pos="648" len="12"/>
          <note pan="0" key="62" vol="100" pos="648" len="12"/>
          <note pan="0" key="58" vol="100" pos="660" len="12"/>
          <note pan="0" key="54" vol="100" pos="672" len="12"/>
          <note pan="0" key="71" vol="100" pos="672" len="12"/>
          <note pan="0" key="63" vol="100" pos="672" len="12"/>
          <note pan="0" key="66" vol="100" pos="684" len="12"/>
          <note pan="0" key="63" vol="100" pos="696" len="12"/>
          <note pan="0" key="54" vol="100" pos="696" len="12"/>
          <note pan="0" key="59" vol="100" pos="708" len="12"/>
          <note pan="0" key="63" vol="100" pos="720" len="12"/>
          <note pan="0" key="71" vol="100" pos="720" len="12"/>
          <note pan="0" key="54" vol="100" pos="720" len="12"/>
          <note pan="0" key="66" vol="100" pos="732" len="12"/>
          <note pan="0" key="63" vol="100" pos="744" len="12"/>
          <note pan="0" key="54" vol="100" pos="744" len="12"/>
          <note pan="0" key="59" vol="100" pos="756" len="12"/>
        </pattern>
        <pattern steps="16" muted="0" type="1" name="Pluck" pos="3456" len="768">
          <note pan="0" key="56" vol="100" pos="0" len="12"/>
          <note pan="0" key="48" vol="100" pos="0" len="12"/>
          <note pan="0" key="65" vol="100" pos="0" len="12"/>
          <note pan="0" key="60" vol="100" pos="12" len="12"/>
          <note pan="0" key="56" vol="100" pos="24" len="12"/>
          <note pan="0" key="48" vol="100" pos="24" len="12"/>
          <note pan="0" key="53" vol="100" pos="36" len="12"/>
          <note pan="0" key="65" vol="100" pos="48" len="12"/>
          <note pan="0" key="56" vol="100" pos="48" len="12"/>
          <note pan="0" key="48" vol="100" pos="48" len="12"/>
          <note pan="0" key="60" vol="100" pos="60" len="12"/>
          <note pan="0" key="56" vol="100" pos="72" len="12"/>
          <note pan="0" key="48" vol="100" pos="72" len="12"/>
          <note pan="0" key="53" vol="100" pos="84" len="12"/>
          <note pan="0" key="48" vol="100" pos="96" len="12"/>
          <note pan="0" key="65" vol="100" pos="96" len="12"/>
          <note pan="0" key="56" vol="100" pos="96" len="12"/>
          <note pan="0" key="60" vol="100" pos="108" len="12"/>
          <note pan="0" key="48" vol="100" pos="120" len="12"/>
          <note pan="0" key="56" vol="100" pos="120" len="12"/>
          <note pan="0" key="53" vol="100" pos="132" len="12"/>
          <note pan="0" key="56" vol="100" pos="144" len="12"/>
          <note pan="0" key="48" vol="100" pos="144" len="12"/>
          <note pan="0" key="65" vol="100" pos="144" len="12"/>
          <note pan="0" key="60" vol="100" pos="156" len="12"/>
          <note pan="0" key="56" vol="100" pos="168" len="12"/>
          <note pan="0" key="48" vol="100" pos="168" len="12"/>
          <note pan="0" key="53" vol="100" pos="180" len="12"/>
          <note pan="0" key="48" vol="100" pos="192" len="12"/>
          <note pan="0" key="65" vol="100" pos="192" len="12"/>
          <note pan="0" key="56" vol="100" pos="192" len="12"/>
          <note pan="0" key="60" vol="100" pos="204" len="12"/>
          <note pan="0" key="56" vol="100" pos="216" len="12"/>
          <note pan="0" key="48" vol="100" pos="216" len="12"/>
          <note pan="0" key="53" vol="100" pos="228" len="12"/>
          <note pan="0" key="48" vol="100" pos="240" len="12"/>
          <note pan="0" key="56" vol="100" pos="240" len="12"/>
          <note pan="0" key="65" vol="100" pos="240" len="12"/>
          <note pan="0" key="60" vol="100" pos="252" len="12"/>
          <note pan="0" key="48" vol="100" pos="264" len="12"/>
          <note pan="0" key="56" vol="100" pos="264" len="12"/>
          <note pan="0" key="53" vol="100" pos="276" len="12"/>
          <note pan="0" key="48" vol="100" pos="288" len="12"/>
          <note pan="0" key="56" vol="100" pos="288" len="12"/>
          <note pan="0" key="65" vol="100" pos="288" len="12"/>
          <note pan="0" key="60" vol="100" pos="300" len="12"/>
          <note pan="0" key="48" vol="100" pos="312" len="12"/>
          <note pan="0" key="56" vol="100" pos="312" len="12"/>
          <note pan="0" key="53" vol="100" pos="324" len="12"/>
          <note pan="0" key="48" vol="100" pos="336" len="12"/>
          <note pan="0" key="65" vol="100" pos="336" len="12"/>
          <note pan="0" key="56" vol="100" pos="336" len="12"/>
          <note pan="0" key="60" vol="100" pos="348" len="12"/>
          <note pan="0" key="56" vol="100" pos="360" len="12"/>
          <note pan="0" key="48" vol="100" pos="360" len="12"/>
          <note pan="0" key="53" vol="100" pos="372" len="12"/>
          <note pan="0" key="55" vol="100" pos="384" len="12"/>
          <note pan="0" key="63" vol="100" pos="384" len="12"/>
          <note pan="0" key="72" vol="100" pos="384" len="12"/>
          <note pan="0" key="67" vol="100" pos="396" len="12"/>
          <note pan="0" key="55" vol="100" pos="408" len="12"/>
          <note pan="0" key="63" vol="100" pos="408" len="12"/>
          <note pan="0" key="60" vol="100" pos="420" len="12"/>
          <note pan="0" key="63" vol="100" pos="432" len="12"/>
          <note pan="0" key="55" vol="100" pos="432" len="12"/>
          <note pan="0" key="72" vol="100" pos="432" len="12"/>
          <note pan="0" key="67" vol="100" pos="444" len="12"/>
          <note pan="0" key="63" vol="100" pos="456" len="12"/>
          <note pan="0" key="55" vol="100" pos="456" len="12"/>
          <note pan="0" key="60" vol="100" pos="468" len="12"/>
          <note pan="0" key="72" vol="100" pos="480" len="12"/>
          <note pan="0" key="55" vol="100" pos="480" len="12"/>
          <note pan="0" key="63" vol="100" pos="480" len="12"/>
          <note pan="0" key="67" vol="100" pos="492" len="12"/>
          <note pan="0" key="63" vol="100" pos="504" len="12"/>
          <note pan="0" key="55" vol="100" pos="504" len="12"/>
          <note pan="0" key="60" vol="100" pos="516" len="12"/>
          <note pan="0" key="55" vol="100" pos="528" len="12"/>
          <note pan="0" key="63" vol="100" pos="528" len="12"/>
          <note pan="0" key="72" vol="100" pos="528" len="12"/>
          <note pan="0" key="67" vol="100" pos="540" len="12"/>
          <note pan="0" key="63" vol="100" pos="552" len="12"/>
          <note pan="0" key="55" vol="100" pos="552" len="12"/>
          <note pan="0" key="60" vol="100" pos="564" len="12"/>
          <note pan="0" key="70" vol="100" pos="576" len="12"/>
          <note pan="0" key="62" vol="100" pos="576" len="12"/>
          <note pan="0" key="53" vol="100" pos="576" len="12"/>
          <note pan="0" key="65" vol="100" pos="588" len="12"/>
          <note pan="0" key="53" vol="100" pos="600" len="12"/>
          <note pan="0" key="62" vol="100" pos="600" len="12"/>
          <note pan="0" key="58" vol="100" pos="612" len="12"/>
          <note pan="0" key="62" vol="100" pos="624" len="12"/>
          <note pan="0" key="53" vol="100" pos="624" len="12"/>
          <note pan="0" key="70" vol="100" pos="624" len="12"/>
          <note pan="0" key="65" vol="100" pos="636" len="12"/>
          <note pan="0" key="53" vol="100" pos="648" len="12"/>
          <note pan="0" key="62" vol="100" pos="648" len="12"/>
          <note pan="0" key="58" vol="100" pos="660" len="12"/>
          <note pan="0" key="62" vol="100" pos="672" len="6"/>
          <note pan="0" key="53" vol="100" pos="672" len="6"/>
          <note pan="0" key="62" vol="100" pos="684" len="6"/>
          <note pan="0" key="53" vol="100" pos="684" len="6"/>
          <note pan="0" key="53" vol="100" pos="696" len="6"/>
          <note pan="0" key="62" vol="100" pos="696" len="6"/>
          <note pan="0" key="53" vol="100" pos="708" len="6"/>
          <note pan="0" key="62" vol="100" pos="708" len="6"/>
          <note pan="0" key="62" vol="100" pos="720" len="6"/>
          <note pan="0" key="53" vol="100" pos="720" len="6"/>
          <note pan="0" key="62" vol="100" pos="732" len="6"/>
          <note pan="0" key="53" vol="100" pos="732" len="6"/>
          <note pan="0" key="53" vol="100" pos="744" len="6"/>
          <note pan="0" key="62" vol="100" pos="744" len="6"/>
          <note pan="0" key="53" vol="100" pos="756" len="6"/>
          <note pan="0" key="62" vol="100" pos="756" len="6"/>
        </pattern>
        <pattern steps="16" muted="0" type="1" name="Pluck" pos="12672" len="768">
          <note pan="0" key="56" vol="100" pos="0" len="12"/>
          <note pan="0" key="48" vol="100" pos="0" len="12"/>
          <note pan="0" key="65" vol="100" pos="0" len="12"/>
          <note pan="0" key="60" vol="100" pos="12" len="12"/>
          <note pan="0" key="56" vol="100" pos="24" len="12"/>
          <note pan="0" key="48" vol="100" pos="24" len="12"/>
          <note pan="0" key="53" vol="100" pos="36" len="12"/>
          <note pan="0" key="65" vol="100" pos="48" len="12"/>
          <note pan="0" key="56" vol="100" pos="48" len="12"/>
          <note pan="0" key="48" vol="100" pos="48" len="12"/>
          <note pan="0" key="60" vol="100" pos="60" len="12"/>
          <note pan="0" key="56" vol="100" pos="72" len="12"/>
          <note pan="0" key="48" vol="100" pos="72" len="12"/>
          <note pan="0" key="53" vol="100" pos="84" len="12"/>
          <note pan="0" key="48" vol="100" pos="96" len="12"/>
          <note pan="0" key="65" vol="100" pos="96" len="12"/>
          <note pan="0" key="56" vol="100" pos="96" len="12"/>
          <note pan="0" key="60" vol="100" pos="108" len="12"/>
          <note pan="0" key="48" vol="100" pos="120" len="12"/>
          <note pan="0" key="56" vol="100" pos="120" len="12"/>
          <note pan="0" key="53" vol="100" pos="132" len="12"/>
          <note pan="0" key="56" vol="100" pos="144" len="12"/>
          <note pan="0" key="48" vol="100" pos="144" len="12"/>
          <note pan="0" key="65" vol="100" pos="144" len="12"/>
          <note pan="0" key="60" vol="100" pos="156" len="12"/>
          <note pan="0" key="56" vol="100" pos="168" len="12"/>
          <note pan="0" key="48" vol="100" pos="168" len="12"/>
          <note pan="0" key="53" vol="100" pos="180" len="12"/>
          <note pan="0" key="48" vol="100" pos="192" len="12"/>
          <note pan="0" key="65" vol="100" pos="192" len="12"/>
          <note pan="0" key="56" vol="100" pos="192" len="12"/>
          <note pan="0" key="60" vol="100" pos="204" len="12"/>
          <note pan="0" key="56" vol="100" pos="216" len="12"/>
          <note pan="0" key="48" vol="100" pos="216" len="12"/>
          <note pan="0" key="53" vol="100" pos="228" len="12"/>
          <note pan="0" key="48" vol="100" pos="240" len="12"/>
          <note pan="0" key="56" vol="100" pos="240" len="12"/>
          <note pan="0" key="65" vol="100" pos="240" len="12"/>
          <note pan="0" key="60" vol="100" pos="252" len="12"/>
          <note pan="0" key="48" vol="100" pos="264" len="12"/>
          <note pan="0" key="56" vol="100" pos="264" len="12"/>
          <note pan="0" key="53" vol="100" pos="276" len="12"/>
          <note pan="0" key="48" vol="100" pos="288" len="12"/>
          <note pan="0" key="56" vol="100" pos="288" len="12"/>
          <note pan="0" key="65" vol="100" pos="288" len="12"/>
          <note pan="0" key="60" vol="100" pos="300" len="12"/>
          <note pan="0" key="48" vol="100" pos="312" len="12"/>
          <note pan="0" key="56" vol="100" pos="312" len="12"/>
          <note pan="0" key="53" vol="100" pos="324" len="12"/>
          <note pan="0" key="48" vol="100" pos="336" len="12"/>
          <note pan="0" key="65" vol="100" pos="336" len="12"/>
          <note pan="0" key="56" vol="100" pos="336" len="12"/>
          <note pan="0" key="60" vol="100" pos="348" len="12"/>
          <note pan="0" key="56" vol="100" pos="360" len="12"/>
          <note pan="0" key="48" vol="100" pos="360" len="12"/>
          <note pan="0" key="53" vol="100" pos="372" len="12"/>
          <note pan="0" key="55" vol="100" pos="384" len="12"/>
          <note pan="0" key="63" vol="100" pos="384" len="12"/>
          <note pan="0" key="72" vol="100" pos="384" len="12"/>
          <note pan="0" key="67" vol="100" pos="396" len="12"/>
          <note pan="0" key="55" vol="100" pos="408" len="12"/>
          <note pan="0" key="63" vol="100" pos="408" len="12"/>
          <note pan="0" key="60" vol="100" pos="420" len="12"/>
          <note pan="0" key="63" vol="100" pos="432" len="12"/>
          <note pan="0" key="55" vol="100" pos="432" len="12"/>
          <note pan="0" key="72" vol="100" pos="432" len="12"/>
          <note pan="0" key="67" vol="100" pos="444" len="12"/>
          <note pan="0" key="63" vol="100" pos="456" len="12"/>
          <note pan="0" key="55" vol="100" pos="456" len="12"/>
          <note pan="0" key="60" vol="100" pos="468" len="12"/>
          <note pan="0" key="72" vol="100" pos="480" len="12"/>
          <note pan="0" key="55" vol="100" pos="480" len="12"/>
          <note pan="0" key="63" vol="100" pos="480" len="12"/>
          <note pan="0" key="67" vol="100" pos="492" len="12"/>
          <note pan="0" key="63" vol="100" pos="504" len="12"/>
          <note pan="0" key="55" vol="100" pos="504" len="12"/>
          <note pan="0" key="60" vol="100" pos="516" len="12"/>
          <note pan="0" key="55" vol="100" pos="528" len="12"/>
          <note pan="0" key="63" vol="100" pos="528" len="12"/>
          <note pan="0" key="72" vol="100" pos="528" len="12"/>
          <note pan="0" key="67" vol="100" pos="540" len="12"/>
          <note pan="0" key="63" vol="100" pos="552" len="12"/>
          <note pan="0" key="55" vol="100" pos="552" len="12"/>
          <note pan="0" key="60" vol="100" pos="564" len="12"/>
          <note pan="0" key="70" vol="100" pos="576" len="12"/>
          <note pan="0" key="62" vol="100" pos="576" len="12"/>
          <note pan="0" key="53" vol="100" pos="576" len="12"/>
          <note pan="0" key="65" vol="100" pos="588" len="12"/>
          <note pan="0" key="53" vol="100" pos="600" len="12"/>
          <note pan="0" key="62" vol="100" pos="600" len="12"/>
          <note pan="0" key="58" vol="100" pos="612" len="12"/>
          <note pan="0" key="62" vol="100" pos="624" len="12"/>
          <note pan="0" key="53" vol="100" pos="624" len="12"/>
          <note pan="0" key="70" vol="100" pos="624" len="12"/>
          <note pan="0" key="65" vol="100" pos="636" len="12"/>
          <note pan="0" key="53" vol="100" pos="648" len="12"/>
          <note pan="0" key="62" vol="100" pos="648" len="12"/>
          <note pan="0" key="58" vol="100" pos="660" len="12"/>
          <note pan="0" key="62" vol="100" pos="672" len="6"/>
          <note pan="0" key="53" vol="100" pos="672" len="6"/>
          <note pan="0" key="62" vol="100" pos="684" len="6"/>
          <note pan="0" key="53" vol="100" pos="684" len="6"/>
          <note pan="0" key="53" vol="100" pos="696" len="6"/>
          <note pan="0" key="62" vol="100" pos="696" len="6"/>
          <note pan="0" key="53" vol="100" pos="708" len="6"/>
          <note pan="0" key="62" vol="100" pos="708" len="6"/>
          <note pan="0" key="62" vol="100" pos="720" len="6"/>
          <note pan="0" key="53" vol="100" pos="720" len="6"/>
          <note pan="0" key="62" vol="100" pos="732" len="6"/>
          <note pan="0" key="53" vol="100" pos="732" len="6"/>
          <note pan="0" key="53" vol="100" pos="744" len="6"/>
          <note pan="0" key="62" vol="100" pos="744" len="6"/>
          <note pan="0" key="53" vol="100" pos="756" len="6"/>
          <note pan="0" key="62" vol="100" pos="756" len="6"/>
        </pattern>
        <pattern steps="16" muted="0" type="1" name="Pluck" pos="13440" len="768">
          <note pan="0" key="65" vol="100" pos="0" len="12"/>
          <note pan="0" key="48" vol="100" pos="0" len="12"/>
          <note pan="0" key="56" vol="100" pos="0" len="12"/>
          <note pan="0" key="60" vol="100" pos="12" len="12"/>
          <note pan="0" key="56" vol="100" pos="24" len="12"/>
          <note pan="0" key="48" vol="100" pos="24" len="12"/>
          <note pan="0" key="53" vol="100" pos="36" len="12"/>
          <note pan="0" key="56" vol="100" pos="48" len="12"/>
          <note pan="0" key="48" vol="100" pos="48" len="12"/>
          <note pan="0" key="65" vol="100" pos="48" len="12"/>
          <note pan="0" key="60" vol="100" pos="60" len="12"/>
          <note pan="0" key="48" vol="100" pos="72" len="12"/>
          <note pan="0" key="56" vol="100" pos="72" len="12"/>
          <note pan="0" key="53" vol="100" pos="84" len="12"/>
          <note pan="0" key="56" vol="100" pos="96" len="12"/>
          <note pan="0" key="65" vol="100" pos="96" len="12"/>
          <note pan="0" key="48" vol="100" pos="96" len="12"/>
          <note pan="0" key="60" vol="100" pos="108" len="12"/>
          <note pan="0" key="48" vol="100" pos="120" len="12"/>
          <note pan="0" key="56" vol="100" pos="120" len="12"/>
          <note pan="0" key="53" vol="100" pos="132" len="12"/>
          <note pan="0" key="48" vol="100" pos="144" len="12"/>
          <note pan="0" key="65" vol="100" pos="144" len="12"/>
          <note pan="0" key="56" vol="100" pos="144" len="12"/>
          <note pan="0" key="60" vol="100" pos="156" len="12"/>
          <note pan="0" key="48" vol="100" pos="168" len="12"/>
          <note pan="0" key="56" vol="100" pos="168" len="12"/>
          <note pan="0" key="53" vol="100" pos="180" len="12"/>
          <note pan="0" key="65" vol="100" pos="192" len="12"/>
          <note pan="0" key="56" vol="100" pos="192" len="12"/>
          <note pan="0" key="48" vol="100" pos="192" len="12"/>
          <note pan="0" key="60" vol="100" pos="204" len="12"/>
          <note pan="0" key="56" vol="100" pos="216" len="12"/>
          <note pan="0" key="48" vol="100" pos="216" len="12"/>
          <note pan="0" key="53" vol="100" pos="228" len="12"/>
          <note pan="0" key="48" vol="100" pos="240" len="12"/>
          <note pan="0" key="65" vol="100" pos="240" len="12"/>
          <note pan="0" key="56" vol="100" pos="240" len="12"/>
          <note pan="0" key="60" vol="100" pos="252" len="12"/>
          <note pan="0" key="48" vol="100" pos="264" len="12"/>
          <note pan="0" key="56" vol="100" pos="264" len="12"/>
          <note pan="0" key="53" vol="100" pos="276" len="12"/>
          <note pan="0" key="56" vol="100" pos="288" len="12"/>
          <note pan="0" key="48" vol="100" pos="288" len="12"/>
          <note pan="0" key="65" vol="100" pos="288" len="12"/>
          <note pan="0" key="60" vol="100" pos="300" len="12"/>
          <note pan="0" key="56" vol="100" pos="312" len="12"/>
          <note pan="0" key="48" vol="100" pos="312" len="12"/>
          <note pan="0" key="53" vol="100" pos="324" len="12"/>
          <note pan="0" key="56" vol="100" pos="336" len="12"/>
          <note pan="0" key="48" vol="100" pos="336" len="12"/>
          <note pan="0" key="65" vol="100" pos="336" len="12"/>
          <note pan="0" key="60" vol="100" pos="348" len="12"/>
          <note pan="0" key="56" vol="100" pos="360" len="12"/>
          <note pan="0" key="48" vol="100" pos="360" len="12"/>
          <note pan="0" key="53" vol="100" pos="372" len="12"/>
          <note pan="0" key="55" vol="100" pos="384" len="12"/>
          <note pan="0" key="63" vol="100" pos="384" len="12"/>
          <note pan="0" key="72" vol="100" pos="384" len="12"/>
          <note pan="0" key="67" vol="100" pos="396" len="12"/>
          <note pan="0" key="63" vol="100" pos="408" len="12"/>
          <note pan="0" key="55" vol="100" pos="408" len="12"/>
          <note pan="0" key="60" vol="100" pos="420" len="12"/>
          <note pan="0" key="72" vol="100" pos="432" len="12"/>
          <note pan="0" key="55" vol="100" pos="432" len="12"/>
          <note pan="0" key="63" vol="100" pos="432" len="12"/>
          <note pan="0" key="67" vol="100" pos="444" len="12"/>
          <note pan="0" key="55" vol="100" pos="456" len="12"/>
          <note pan="0" key="63" vol="100" pos="456" len="12"/>
          <note pan="0" key="60" vol="100" pos="468" len="12"/>
          <note pan="0" key="63" vol="100" pos="480" len="12"/>
          <note pan="0" key="55" vol="100" pos="480" len="12"/>
          <note pan="0" key="72" vol="100" pos="480" len="12"/>
          <note pan="0" key="67" vol="100" pos="492" len="12"/>
          <note pan="0" key="55" vol="100" pos="504" len="12"/>
          <note pan="0" key="63" vol="100" pos="504" len="12"/>
          <note pan="0" key="60" vol="100" pos="516" len="12"/>
          <note pan="0" key="63" vol="100" pos="528" len="12"/>
          <note pan="0" key="55" vol="100" pos="528" len="12"/>
          <note pan="0" key="72" vol="100" pos="528" len="12"/>
          <note pan="0" key="67" vol="100" pos="540" len="12"/>
          <note pan="0" key="55" vol="100" pos="552" len="12"/>
          <note pan="0" key="63" vol="100" pos="552" len="12"/>
          <note pan="0" key="60" vol="100" pos="564" len="12"/>
          <note pan="0" key="62" vol="100" pos="576" len="12"/>
          <note pan="0" key="70" vol="100" pos="576" len="12"/>
          <note pan="0" key="53" vol="100" pos="576" len="12"/>
          <note pan="0" key="65" vol="100" pos="588" len="12"/>
          <note pan="0" key="62" vol="100" pos="600" len="12"/>
          <note pan="0" key="53" vol="100" pos="600" len="12"/>
          <note pan="0" key="58" vol="100" pos="612" len="12"/>
          <note pan="0" key="62" vol="100" pos="624" len="12"/>
          <note pan="0" key="53" vol="100" pos="624" len="12"/>
          <note pan="0" key="70" vol="100" pos="624" len="12"/>
          <note pan="0" key="65" vol="100" pos="636" len="12"/>
          <note pan="0" key="53" vol="100" pos="648" len="12"/>
          <note pan="0" key="62" vol="100" pos="648" len="12"/>
          <note pan="0" key="58" vol="100" pos="660" len="12"/>
          <note pan="0" key="54" vol="100" pos="672" len="12"/>
          <note pan="0" key="71" vol="100" pos="672" len="12"/>
          <note pan="0" key="63" vol="100" pos="672" len="12"/>
          <note pan="0" key="66" vol="100" pos="684" len="12"/>
          <note pan="0" key="63" vol="100" pos="696" len="12"/>
          <note pan="0" key="54" vol="100" pos="696" len="12"/>
          <note pan="0" key="59" vol="100" pos="708" len="12"/>
          <note pan="0" key="63" vol="100" pos="720" len="12"/>
          <note pan="0" key="71" vol="100" pos="720" len="12"/>
          <note pan="0" key="54" vol="100" pos="720" len="12"/>
          <note pan="0" key="66" vol="100" pos="732" len="12"/>
          <note pan="0" key="63" vol="100" pos="744" len="12"/>
          <note pan="0" key="54" vol="100" pos="744" len="12"/>
          <note pan="0" key="59" vol="100" pos="756" len="12"/>
        </pattern>
        <pattern steps="16" muted="0" type="1" name="Pluck" pos="14208" len="768">
          <note pan="0" key="56" vol="100" pos="0" len="12"/>
          <note pan="0" key="48" vol="100" pos="0" len="12"/>
          <note pan="0" key="65" vol="100" pos="0" len="12"/>
          <note pan="0" key="60" vol="100" pos="12" len="12"/>
          <note pan="0" key="56" vol="100" pos="24" len="12"/>
          <note pan="0" key="48" vol="100" pos="24" len="12"/>
          <note pan="0" key="53" vol="100" pos="36" len="12"/>
          <note pan="0" key="65" vol="100" pos="48" len="12"/>
          <note pan="0" key="56" vol="100" pos="48" len="12"/>
          <note pan="0" key="48" vol="100" pos="48" len="12"/>
          <note pan="0" key="60" vol="100" pos="60" len="12"/>
          <note pan="0" key="56" vol="100" pos="72" len="12"/>
          <note pan="0" key="48" vol="100" pos="72" len="12"/>
          <note pan="0" key="53" vol="100" pos="84" len="12"/>
          <note pan="0" key="48" vol="100" pos="96" len="12"/>
          <note pan="0" key="65" vol="100" pos="96" len="12"/>
          <note pan="0" key="56" vol="100" pos="96" len="12"/>
          <note pan="0" key="60" vol="100" pos="108" len="12"/>
          <note pan="0" key="48" vol="100" pos="120" len="12"/>
          <note pan="0" key="56" vol="100" pos="120" len="12"/>
          <note pan="0" key="53" vol="100" pos="132" len="12"/>
          <note pan="0" key="56" vol="100" pos="144" len="12"/>
          <note pan="0" key="48" vol="100" pos="144" len="12"/>
          <note pan="0" key="65" vol="100" pos="144" len="12"/>
          <note pan="0" key="60" vol="100" pos="156" len="12"/>
          <note pan="0" key="56" vol="100" pos="168" len="12"/>
          <note pan="0" key="48" vol="100" pos="168" len="12"/>
          <note pan="0" key="53" vol="100" pos="180" len="12"/>
          <note pan="0" key="48" vol="100" pos="192" len="12"/>
          <note pan="0" key="65" vol="100" pos="192" len="12"/>
          <note pan="0" key="56" vol="100" pos="192" len="12"/>
          <note pan="0" key="60" vol="100" pos="204" len="12"/>
          <note pan="0" key="56" vol="100" pos="216" len="12"/>
          <note pan="0" key="48" vol="100" pos="216" len="12"/>
          <note pan="0" key="53" vol="100" pos="228" len="12"/>
          <note pan="0" key="48" vol="100" pos="240" len="12"/>
          <note pan="0" key="56" vol="100" pos="240" len="12"/>
          <note pan="0" key="65" vol="100" pos="240" len="12"/>
          <note pan="0" key="60" vol="100" pos="252" len="12"/>
          <note pan="0" key="48" vol="100" pos="264" len="12"/>
          <note pan="0" key="56" vol="100" pos="264" len="12"/>
          <note pan="0" key="53" vol="100" pos="276" len="12"/>
          <note pan="0" key="48" vol="100" pos="288" len="12"/>
          <note pan="0" key="56" vol="100" pos="288" len="12"/>
          <note pan="0" key="65" vol="100" pos="288" len="12"/>
          <note pan="0" key="60" vol="100" pos="300" len="12"/>
          <note pan="0" key="48" vol="100" pos="312" len="12"/>
          <note pan="0" key="56" vol="100" pos="312" len="12"/>
          <note pan="0" key="53" vol="100" pos="324" len="12"/>
          <note pan="0" key="48" vol="100" pos="336" len="12"/>
          <note pan="0" key="65" vol="100" pos="336" len="12"/>
          <note pan="0" key="56" vol="100" pos="336" len="12"/>
          <note pan="0" key="60" vol="100" pos="348" len="12"/>
          <note pan="0" key="56" vol="100" pos="360" len="12"/>
          <note pan="0" key="48" vol="100" pos="360" len="12"/>
          <note pan="0" key="53" vol="100" pos="372" len="12"/>
          <note pan="0" key="55" vol="100" pos="384" len="12"/>
          <note pan="0" key="63" vol="100" pos="384" len="12"/>
          <note pan="0" key="72" vol="100" pos="384" len="12"/>
          <note pan="0" key="67" vol="100" pos="396" len="12"/>
          <note pan="0" key="55" vol="100" pos="408" len="12"/>
          <note pan="0" key="63" vol="100" pos="408" len="12"/>
          <note pan="0" key="60" vol="100" pos="420" len="12"/>
          <note pan="0" key="63" vol="100" pos="432" len="12"/>
          <note pan="0" key="55" vol="100" pos="432" len="12"/>
          <note pan="0" key="72" vol="100" pos="432" len="12"/>
          <note pan="0" key="67" vol="100" pos="444" len="12"/>
          <note pan="0" key="63" vol="100" pos="456" len="12"/>
          <note pan="0" key="55" vol="100" pos="456" len="12"/>
          <note pan="0" key="60" vol="100" pos="468" len="12"/>
          <note pan="0" key="72" vol="100" pos="480" len="12"/>
          <note pan="0" key="55" vol="100" pos="480" len="12"/>
          <note pan="0" key="63" vol="100" pos="480" len="12"/>
          <note pan="0" key="67" vol="100" pos="492" len="12"/>
          <note pan="0" key="63" vol="100" pos="504" len="12"/>
          <note pan="0" key="55" vol="100" pos="504" len="12"/>
          <note pan="0" key="60" vol="100" pos="516" len="12"/>
          <note pan="0" key="55" vol="100" pos="528" len="12"/>
          <note pan="0" key="63" vol="100" pos="528" len="12"/>
          <note pan="0" key="72" vol="100" pos="528" len="12"/>
          <note pan="0" key="67" vol="100" pos="540" len="12"/>
          <note pan="0" key="63" vol="100" pos="552" len="12"/>
          <note pan="0" key="55" vol="100" pos="552" len="12"/>
          <note pan="0" key="60" vol="100" pos="564" len="12"/>
          <note pan="0" key="70" vol="100" pos="576" len="12"/>
          <note pan="0" key="62" vol="100" pos="576" len="12"/>
          <note pan="0" key="53" vol="100" pos="576" len="12"/>
          <note pan="0" key="65" vol="100" pos="588" len="12"/>
          <note pan="0" key="53" vol="100" pos="600" len="12"/>
          <note pan="0" key="62" vol="100" pos="600" len="12"/>
          <note pan="0" key="58" vol="100" pos="612" len="12"/>
          <note pan="0" key="62" vol="100" pos="624" len="12"/>
          <note pan="0" key="53" vol="100" pos="624" len="12"/>
          <note pan="0" key="70" vol="100" pos="624" len="12"/>
          <note pan="0" key="65" vol="100" pos="636" len="12"/>
          <note pan="0" key="53" vol="100" pos="648" len="12"/>
          <note pan="0" key="62" vol="100" pos="648" len="12"/>
          <note pan="0" key="58" vol="100" pos="660" len="12"/>
          <note pan="0" key="62" vol="100" pos="672" len="6"/>
          <note pan="0" key="53" vol="100" pos="672" len="6"/>
          <note pan="0" key="62" vol="100" pos="684" len="6"/>
          <note pan="0" key="53" vol="100" pos="684" len="6"/>
          <note pan="0" key="53" vol="100" pos="696" len="6"/>
          <note pan="0" key="62" vol="100" pos="696" len="6"/>
          <note pan="0" key="53" vol="100" pos="708" len="6"/>
          <note pan="0" key="62" vol="100" pos="708" len="6"/>
          <note pan="0" key="62" vol="100" pos="720" len="6"/>
          <note pan="0" key="53" vol="100" pos="720" len="6"/>
          <note pan="0" key="62" vol="100" pos="732" len="6"/>
          <note pan="0" key="53" vol="100" pos="732" len="6"/>
          <note pan="0" key="53" vol="100" pos="744" len="6"/>
          <note pan="0" key="62" vol="100" pos="744" len="6"/>
          <note pan="0" key="53" vol="100" pos="756" len="6"/>
          <note pan="0" key="62" vol="100" pos="756" len="6"/>
        </pattern>
        <pattern steps="16" muted="0" type="1" name="Pluck" pos="14976" len="768">
          <note pan="0" key="65" vol="100" pos="0" len="12"/>
          <note pan="0" key="48" vol="100" pos="0" len="12"/>
          <note pan="0" key="56" vol="100" pos="0" len="12"/>
          <note pan="0" key="60" vol="100" pos="12" len="12"/>
          <note pan="0" key="56" vol="100" pos="24" len="12"/>
          <note pan="0" key="48" vol="100" pos="24" len="12"/>
          <note pan="0" key="53" vol="100" pos="36" len="12"/>
          <note pan="0" key="56" vol="100" pos="48" len="12"/>
          <note pan="0" key="48" vol="100" pos="48" len="12"/>
          <note pan="0" key="65" vol="100" pos="48" len="12"/>
          <note pan="0" key="60" vol="100" pos="60" len="12"/>
          <note pan="0" key="48" vol="100" pos="72" len="12"/>
          <note pan="0" key="56" vol="100" pos="72" len="12"/>
          <note pan="0" key="53" vol="100" pos="84" len="12"/>
          <note pan="0" key="56" vol="100" pos="96" len="12"/>
          <note pan="0" key="65" vol="100" pos="96" len="12"/>
          <note pan="0" key="48" vol="100" pos="96" len="12"/>
          <note pan="0" key="60" vol="100" pos="108" len="12"/>
          <note pan="0" key="48" vol="100" pos="120" len="12"/>
          <note pan="0" key="56" vol="100" pos="120" len="12"/>
          <note pan="0" key="53" vol="100" pos="132" len="12"/>
          <note pan="0" key="48" vol="100" pos="144" len="12"/>
          <note pan="0" key="65" vol="100" pos="144" len="12"/>
          <note pan="0" key="56" vol="100" pos="144" len="12"/>
          <note pan="0" key="60" vol="100" pos="156" len="12"/>
          <note pan="0" key="48" vol="100" pos="168" len="12"/>
          <note pan="0" key="56" vol="100" pos="168" len="12"/>
          <note pan="0" key="53" vol="100" pos="180" len="12"/>
          <note pan="0" key="65" vol="100" pos="192" len="12"/>
          <note pan="0" key="56" vol="100" pos="192" len="12"/>
          <note pan="0" key="48" vol="100" pos="192" len="12"/>
          <note pan="0" key="60" vol="100" pos="204" len="12"/>
          <note pan="0" key="56" vol="100" pos="216" len="12"/>
          <note pan="0" key="48" vol="100" pos="216" len="12"/>
          <note pan="0" key="53" vol="100" pos="228" len="12"/>
          <note pan="0" key="48" vol="100" pos="240" len="12"/>
          <note pan="0" key="65" vol="100" pos="240" len="12"/>
          <note pan="0" key="56" vol="100" pos="240" len="12"/>
          <note pan="0" key="60" vol="100" pos="252" len="12"/>
          <note pan="0" key="48" vol="100" pos="264" len="12"/>
          <note pan="0" key="56" vol="100" pos="264" len="12"/>
          <note pan="0" key="53" vol="100" pos="276" len="12"/>
          <note pan="0" key="56" vol="100" pos="288" len="12"/>
          <note pan="0" key="48" vol="100" pos="288" len="12"/>
          <note pan="0" key="65" vol="100" pos="288" len="12"/>
          <note pan="0" key="60" vol="100" pos="300" len="12"/>
          <note pan="0" key="56" vol="100" pos="312" len="12"/>
          <note pan="0" key="48" vol="100" pos="312" len="12"/>
          <note pan="0" key="53" vol="100" pos="324" len="12"/>
          <note pan="0" key="56" vol="100" pos="336" len="12"/>
          <note pan="0" key="48" vol="100" pos="336" len="12"/>
          <note pan="0" key="65" vol="100" pos="336" len="12"/>
          <note pan="0" key="60" vol="100" pos="348" len="12"/>
          <note pan="0" key="56" vol="100" pos="360" len="12"/>
          <note pan="0" key="48" vol="100" pos="360" len="12"/>
          <note pan="0" key="53" vol="100" pos="372" len="12"/>
          <note pan="0" key="55" vol="100" pos="384" len="12"/>
          <note pan="0" key="63" vol="100" pos="384" len="12"/>
          <note pan="0" key="72" vol="100" pos="384" len="12"/>
          <note pan="0" key="67" vol="100" pos="396" len="12"/>
          <note pan="0" key="63" vol="100" pos="408" len="12"/>
          <note pan="0" key="55" vol="100" pos="408" len="12"/>
          <note pan="0" key="60" vol="100" pos="420" len="12"/>
          <note pan="0" key="72" vol="100" pos="432" len="12"/>
          <note pan="0" key="55" vol="100" pos="432" len="12"/>
          <note pan="0" key="63" vol="100" pos="432" len="12"/>
          <note pan="0" key="67" vol="100" pos="444" len="12"/>
          <note pan="0" key="55" vol="100" pos="456" len="12"/>
          <note pan="0" key="63" vol="100" pos="456" len="12"/>
          <note pan="0" key="60" vol="100" pos="468" len="12"/>
          <note pan="0" key="63" vol="100" pos="480" len="12"/>
          <note pan="0" key="55" vol="100" pos="480" len="12"/>
          <note pan="0" key="72" vol="100" pos="480" len="12"/>
          <note pan="0" key="67" vol="100" pos="492" len="12"/>
          <note pan="0" key="55" vol="100" pos="504" len="12"/>
          <note pan="0" key="63" vol="100" pos="504" len="12"/>
          <note pan="0" key="60" vol="100" pos="516" len="12"/>
          <note pan="0" key="63" vol="100" pos="528" len="12"/>
          <note pan="0" key="55" vol="100" pos="528" len="12"/>
          <note pan="0" key="72" vol="100" pos="528" len="12"/>
          <note pan="0" key="67" vol="100" pos="540" len="12"/>
          <note pan="0" key="55" vol="100" pos="552" len="12"/>
          <note pan="0" key="63" vol="100" pos="552" len="12"/>
          <note pan="0" key="60" vol="100" pos="564" len="12"/>
          <note pan="0" key="62" vol="100" pos="576" len="12"/>
          <note pan="0" key="70" vol="100" pos="576" len="12"/>
          <note pan="0" key="53" vol="100" pos="576" len="12"/>
          <note pan="0" key="65" vol="100" pos="588" len="12"/>
          <note pan="0" key="62" vol="100" pos="600" len="12"/>
          <note pan="0" key="53" vol="100" pos="600" len="12"/>
          <note pan="0" key="58" vol="100" pos="612" len="12"/>
          <note pan="0" key="62" vol="100" pos="624" len="12"/>
          <note pan="0" key="53" vol="100" pos="624" len="12"/>
          <note pan="0" key="70" vol="100" pos="624" len="12"/>
          <note pan="0" key="65" vol="100" pos="636" len="12"/>
          <note pan="0" key="53" vol="100" pos="648" len="12"/>
          <note pan="0" key="62" vol="100" pos="648" len="12"/>
          <note pan="0" key="58" vol="100" pos="660" len="12"/>
          <note pan="0" key="54" vol="100" pos="672" len="12"/>
          <note pan="0" key="71" vol="100" pos="672" len="12"/>
          <note pan="0" key="63" vol="100" pos="672" len="12"/>
          <note pan="0" key="66" vol="100" pos="684" len="12"/>
          <note pan="0" key="63" vol="100" pos="696" len="12"/>
          <note pan="0" key="54" vol="100" pos="696" len="12"/>
          <note pan="0" key="59" vol="100" pos="708" len="12"/>
          <note pan="0" key="63" vol="100" pos="720" len="12"/>
          <note pan="0" key="71" vol="100" pos="720" len="12"/>
          <note pan="0" key="54" vol="100" pos="720" len="12"/>
          <note pan="0" key="66" vol="100" pos="732" len="12"/>
          <note pan="0" key="63" vol="100" pos="744" len="12"/>
          <note pan="0" key="54" vol="100" pos="744" len="12"/>
          <note pan="0" key="59" vol="100" pos="756" len="12"/>
        </pattern>
        <pattern steps="16" muted="0" type="1" name="Pluck" pos="15744" len="1536">
          <note pan="0" key="63" vol="100" pos="0" len="24"/>
          <note pan="0" key="60" vol="100" pos="24" len="24"/>
          <note pan="0" key="67" vol="100" pos="48" len="24"/>
          <note pan="0" key="63" vol="100" pos="72" len="24"/>
          <note pan="0" key="63" vol="100" pos="96" len="24"/>
          <note pan="0" key="60" vol="100" pos="120" len="24"/>
          <note pan="0" key="67" vol="100" pos="144" len="24"/>
          <note pan="0" key="63" vol="100" pos="168" len="24"/>
          <note pan="0" key="63" vol="100" pos="192" len="24"/>
          <note pan="0" key="60" vol="100" pos="216" len="24"/>
          <note pan="0" key="67" vol="100" pos="240" len="24"/>
          <note pan="0" key="63" vol="100" pos="264" len="24"/>
          <note pan="0" key="60" vol="100" pos="288" len="24"/>
          <note pan="0" key="63" vol="100" pos="312" len="24"/>
          <note pan="0" key="67" vol="100" pos="336" len="24"/>
          <note pan="0" key="63" vol="100" pos="360" len="24"/>
          <note pan="0" key="67" vol="100" pos="384" len="24"/>
          <note pan="0" key="63" vol="100" pos="408" len="24"/>
          <note pan="0" key="70" vol="100" pos="432" len="24"/>
          <note pan="0" key="67" vol="100" pos="456" len="24"/>
          <note pan="0" key="67" vol="100" pos="480" len="24"/>
          <note pan="0" key="63" vol="100" pos="504" len="24"/>
          <note pan="0" key="70" vol="100" pos="528" len="24"/>
          <note pan="0" key="67" vol="100" pos="552" len="24"/>
          <note pan="0" key="67" vol="100" pos="576" len="24"/>
          <note pan="0" key="63" vol="100" pos="600" len="24"/>
          <note pan="0" key="70" vol="100" pos="624" len="24"/>
          <note pan="0" key="67" vol="100" pos="648" len="24"/>
          <note pan="0" key="63" vol="100" pos="672" len="24"/>
          <note pan="0" key="67" vol="100" pos="696" len="24"/>
          <note pan="0" key="70" vol="100" pos="720" len="24"/>
          <note pan="0" key="67" vol="100" pos="744" len="24"/>
          <note pan="0" key="65" vol="100" pos="768" len="24"/>
          <note pan="0" key="60" vol="100" pos="792" len="24"/>
          <note pan="0" key="68" vol="100" pos="816" len="24"/>
          <note pan="0" key="65" vol="100" pos="840" len="24"/>
          <note pan="0" key="65" vol="100" pos="864" len="24"/>
          <note pan="0" key="60" vol="100" pos="888" len="24"/>
          <note pan="0" key="68" vol="100" pos="912" len="24"/>
          <note pan="0" key="65" vol="100" pos="936" len="24"/>
          <note pan="0" key="65" vol="100" pos="960" len="24"/>
          <note pan="0" key="60" vol="100" pos="984" len="24"/>
          <note pan="0" key="68" vol="100" pos="1008" len="24"/>
          <note pan="0" key="65" vol="100" pos="1032" len="24"/>
          <note pan="0" key="60" vol="100" pos="1056" len="24"/>
          <note pan="0" key="65" vol="100" pos="1080" len="24"/>
          <note pan="0" key="68" vol="100" pos="1104" len="24"/>
          <note pan="0" key="65" vol="100" pos="1128" len="24"/>
          <note pan="0" key="67" vol="100" pos="1152" len="24"/>
          <note pan="0" key="63" vol="100" pos="1176" len="24"/>
          <note pan="0" key="70" vol="100" pos="1200" len="24"/>
          <note pan="0" key="67" vol="100" pos="1224" len="24"/>
          <note pan="0" key="67" vol="100" pos="1248" len="24"/>
          <note pan="0" key="63" vol="100" pos="1272" len="24"/>
          <note pan="0" key="70" vol="100" pos="1296" len="24"/>
          <note pan="0" key="67" vol="100" pos="1320" len="24"/>
          <note pan="0" key="67" vol="100" pos="1344" len="24"/>
          <note pan="0" key="63" vol="100" pos="1368" len="24"/>
          <note pan="0" key="70" vol="100" pos="1392" len="24"/>
          <note pan="0" key="67" vol="100" pos="1416" len="24"/>
          <note pan="0" key="63" vol="100" pos="1440" len="24"/>
          <note pan="0" key="67" vol="100" pos="1464" len="24"/>
          <note pan="0" key="70" vol="100" pos="1488" len="24"/>
          <note pan="0" key="67" vol="100" pos="1512" len="24"/>
        </pattern>
        <pattern steps="16" muted="0" type="1" name="Pluck" pos="17280" len="1536">
          <note pan="0" key="63" vol="100" pos="0" len="24"/>
          <note pan="0" key="60" vol="100" pos="24" len="24"/>
          <note pan="0" key="67" vol="100" pos="48" len="24"/>
          <note pan="0" key="63" vol="100" pos="72" len="24"/>
          <note pan="0" key="63" vol="100" pos="96" len="24"/>
          <note pan="0" key="60" vol="100" pos="120" len="24"/>
          <note pan="0" key="67" vol="100" pos="144" len="24"/>
          <note pan="0" key="63" vol="100" pos="168" len="24"/>
          <note pan="0" key="63" vol="100" pos="192" len="24"/>
          <note pan="0" key="60" vol="100" pos="216" len="24"/>
          <note pan="0" key="67" vol="100" pos="240" len="24"/>
          <note pan="0" key="63" vol="100" pos="264" len="24"/>
          <note pan="0" key="60" vol="100" pos="288" len="24"/>
          <note pan="0" key="63" vol="100" pos="312" len="24"/>
          <note pan="0" key="67" vol="100" pos="336" len="24"/>
          <note pan="0" key="63" vol="100" pos="360" len="24"/>
          <note pan="0" key="67" vol="100" pos="384" len="24"/>
          <note pan="0" key="63" vol="100" pos="408" len="24"/>
          <note pan="0" key="70" vol="100" pos="432" len="24"/>
          <note pan="0" key="67" vol="100" pos="456" len="24"/>
          <note pan="0" key="67" vol="100" pos="480" len="24"/>
          <note pan="0" key="63" vol="100" pos="504" len="24"/>
          <note pan="0" key="70" vol="100" pos="528" len="24"/>
          <note pan="0" key="67" vol="100" pos="552" len="24"/>
          <note pan="0" key="67" vol="100" pos="576" len="24"/>
          <note pan="0" key="63" vol="100" pos="600" len="24"/>
          <note pan="0" key="70" vol="100" pos="624" len="24"/>
          <note pan="0" key="67" vol="100" pos="648" len="24"/>
          <note pan="0" key="63" vol="100" pos="672" len="24"/>
          <note pan="0" key="67" vol="100" pos="696" len="24"/>
          <note pan="0" key="70" vol="100" pos="720" len="24"/>
          <note pan="0" key="67" vol="100" pos="744" len="24"/>
          <note pan="0" key="65" vol="100" pos="768" len="24"/>
          <note pan="0" key="60" vol="100" pos="792" len="24"/>
          <note pan="0" key="68" vol="100" pos="816" len="24"/>
          <note pan="0" key="65" vol="100" pos="840" len="24"/>
          <note pan="0" key="65" vol="100" pos="864" len="24"/>
          <note pan="0" key="60" vol="100" pos="888" len="24"/>
          <note pan="0" key="68" vol="100" pos="912" len="24"/>
          <note pan="0" key="65" vol="100" pos="936" len="24"/>
          <note pan="0" key="65" vol="100" pos="960" len="24"/>
          <note pan="0" key="60" vol="100" pos="984" len="24"/>
          <note pan="0" key="68" vol="100" pos="1008" len="24"/>
          <note pan="0" key="65" vol="100" pos="1032" len="24"/>
          <note pan="0" key="60" vol="100" pos="1056" len="24"/>
          <note pan="0" key="65" vol="100" pos="1080" len="24"/>
          <note pan="0" key="68" vol="100" pos="1104" len="24"/>
          <note pan="0" key="65" vol="100" pos="1128" len="24"/>
          <note pan="0" key="67" vol="100" pos="1152" len="24"/>
          <note pan="0" key="63" vol="100" pos="1176" len="24"/>
          <note pan="0" key="70" vol="100" pos="1200" len="24"/>
          <note pan="0" key="67" vol="100" pos="1224" len="24"/>
          <note pan="0" key="67" vol="100" pos="1248" len="24"/>
          <note pan="0" key="63" vol="100" pos="1272" len="24"/>
          <note pan="0" key="70" vol="100" pos="1296" len="24"/>
          <note pan="0" key="67" vol="100" pos="1320" len="24"/>
          <note pan="0" key="67" vol="100" pos="1344" len="24"/>
          <note pan="0" key="63" vol="100" pos="1368" len="24"/>
          <note pan="0" key="70" vol="100" pos="1392" len="24"/>
          <note pan="0" key="67" vol="100" pos="1416" len="24"/>
          <note pan="0" key="63" vol="100" pos="1440" len="24"/>
          <note pan="0" key="67" vol="100" pos="1464" len="24"/>
          <note pan="0" key="70" vol="100" pos="1488" len="24"/>
          <note pan="0" key="67" vol="100" pos="1512" len="24"/>
        </pattern>
      </track>
      <track muted="0" type="5" name="Pluck Resonance" solo="0">
        <automationtrack/>
        <automationpattern tens="1" prog="1" name="Pluck>Envelopes/LFOs>Q/Resonance" pos="4032" len="192">
          <time value="1.23" pos="0"/>
          <time value="1.2" pos="96"/>
          <time value="8.78" pos="192"/>
          <object id="3938801"/>
        </automationpattern>
        <automationpattern tens="1" prog="1" name="pluck>Envelopes/LFOs>Q/Resonance" pos="4224" len="192">
          <time value="1.23" pos="0"/>
          <object id="3938801"/>
        </automationpattern>
        <automationpattern tens="1" prog="1" name="pluck>Envelopes/LFOs>Q/Resonance" pos="5568" len="192">
          <time value="1.23" pos="0"/>
          <time value="1.2" pos="96"/>
          <time value="8.78" pos="192"/>
          <object id="3938801"/>
        </automationpattern>
        <automationpattern tens="1" prog="1" name="pluck>Envelopes/LFOs>Q/Resonance" pos="5760" len="192">
          <time value="1.23" pos="0"/>
          <object id="3938801"/>
        </automationpattern>
        <automationpattern tens="1" prog="1" name="Pluck>Envelopes/LFOs>Q/Resonance" pos="13248" len="192">
          <time value="1.23" pos="0"/>
          <time value="1.2" pos="96"/>
          <time value="8.78" pos="192"/>
          <object id="3938801"/>
        </automationpattern>
        <automationpattern tens="1" prog="1" name="pluck>Envelopes/LFOs>Q/Resonance" pos="13440" len="192">
          <time value="1.23" pos="0"/>
          <object id="3938801"/>
        </automationpattern>
        <automationpattern tens="1" prog="1" name="Pluck>Envelopes/LFOs>Q/Resonance" pos="14784" len="192">
          <time value="1.23" pos="0"/>
          <time value="1.2" pos="96"/>
          <time value="8.78" pos="192"/>
          <object id="3938801"/>
        </automationpattern>
        <automationpattern tens="1" prog="1" name="pluck>Envelopes/LFOs>Q/Resonance" pos="14976" len="192">
          <time value="1.23" pos="0"/>
          <object id="3938801"/>
        </automationpattern>
      </track>
      <track muted="0" type="5" name="Global Tempo" solo="0">
        <automationtrack/>
        <automationpattern tens="1" prog="0" name="Tempo" pos="0" len="192">
          <time value="150" pos="0"/>
          <object id="1548568"/>
        </automationpattern>
        <automationpattern tens="1" prog="0" name="Drag a control while pressing &lt;Ctrl>" pos="1152" len="192"/>
      </track>
    </trackcontainer>
    <track muted="0" type="6" name="Automation track" solo="0">
      <automationtrack/>
      <automationpattern tens="1" prog="0" name="Numerator" pos="0" len="192">
        <time value="4" pos="0"/>
      </automationpattern>
      <automationpattern tens="1" prog="0" name="Denominator" pos="0" len="192">
        <time value="4" pos="0"/>
      </automationpattern>
      <automationpattern tens="1" prog="0" name="Tempo" pos="0" len="192">
        <time value="140" pos="0"/>
      </automationpattern>
      <automationpattern tens="1" prog="0" name="Master volume" pos="0" len="192">
        <time value="100" pos="0"/>
      </automationpattern>
      <automationpattern tens="1" prog="0" name="Master pitch" pos="0" len="192">
        <time value="0" pos="0"/>
      </automationpattern>
      <automationpattern tens="1" prog="0" name="Numerator" pos="0" len="192">
        <time value="4" pos="0"/>
      </automationpattern>
      <automationpattern tens="1" prog="0" name="Denominator" pos="0" len="192">
        <time value="4" pos="0"/>
      </automationpattern>
      <automationpattern tens="1" prog="0" name="Tempo" pos="0" len="192">
        <time value="140" pos="0"/>
      </automationpattern>
      <automationpattern tens="1" prog="0" name="Master volume" pos="0" len="192">
        <time value="100" pos="0"/>
      </automationpattern>
      <automationpattern tens="1" prog="0" name="Master pitch" pos="0" len="192">
        <time value="0" pos="0"/>
      </automationpattern>
      <automationpattern tens="1" prog="0" name="Master" pos="0" len="192">
        <time value="1" pos="0"/>
        <object id="477598"/>
      </automationpattern>
      <automationpattern tens="1" prog="0" name="Numerator" pos="0" len="192">
        <time value="4" pos="0"/>
        <object id="2074298"/>
      </automationpattern>
      <automationpattern tens="1" prog="0" name="Denominator" pos="0" len="192">
        <time value="4" pos="0"/>
        <object id="3528173"/>
      </automationpattern>
      <automationpattern tens="1" prog="0" name="Tempo" pos="0" len="192">
        <time value="150" pos="0"/>
        <object id="1548568"/>
      </automationpattern>
      <automationpattern tens="1" prog="0" name="Master volume" pos="0" len="192">
        <time value="100" pos="0"/>
        <object id="6526032"/>
      </automationpattern>
      <automationpattern tens="1" prog="0" name="Master pitch" pos="0" len="192">
        <time value="0" pos="0"/>
        <object id="4196435"/>
      </automationpattern>
    </track>
    <fxmixer width="863" x="1013" y="2" maximized="0" height="278" visible="1" minimized="0">
      <fxchannel num="0" muted="0" name="Master">
        <fxchain numofeffects="0" enabled="0"/>
        <volume value="1" id="477598"/>
      </fxchannel>
      <fxchannel num="1" muted="0" volume="1" name="Kick">
        <fxchain numofeffects="0" enabled="0"/>
      </fxchannel>
      <fxchannel num="2" muted="0" volume="1" name="Snare">
        <fxchain numofeffects="0" enabled="0"/>
      </fxchannel>
      <fxchannel num="3" muted="0" volume="1.54" name="Boo">
        <fxchain numofeffects="0" enabled="0"/>
      </fxchannel>
      <fxchannel num="4" muted="0" volume="0.99" name="Bass">
        <fxchain numofeffects="0" enabled="0"/>
      </fxchannel>
      <fxchannel num="5" muted="0" volume="0.91" name="Lead">
        <fxchain numofeffects="0" enabled="0"/>
      </fxchannel>
      <fxchannel num="6" muted="0" volume="1.2" name="Backing">
        <fxchain numofeffects="0" enabled="0"/>
      </fxchannel>
      <fxchannel num="7" muted="0" volume="0.51" name="Pluck">
        <fxchain numofeffects="0" enabled="0"/>
      </fxchannel>
      <fxchannel num="8" muted="0" volume="1" name="FX 8">
        <fxchain numofeffects="0" enabled="0"/>
      </fxchannel>
      <fxchannel num="9" muted="0" volume="1" name="FX 9">
        <fxchain numofeffects="0" enabled="0"/>
      </fxchannel>
      <fxchannel num="10" muted="0" volume="1" name="FX 10">
        <fxchain numofeffects="0" enabled="0"/>
      </fxchannel>
      <fxchannel num="11" muted="0" volume="1" name="FX 11">
        <fxchain numofeffects="0" enabled="0"/>
      </fxchannel>
      <fxchannel num="12" muted="0" volume="1" name="FX 12">
        <fxchain numofeffects="0" enabled="0"/>
      </fxchannel>
      <fxchannel num="13" muted="0" volume="1.01" name="FX 13">
        <fxchain numofeffects="0" enabled="0"/>
      </fxchannel>
      <fxchannel num="14" muted="0" volume="1.02" name="FX 14">
        <fxchain numofeffects="0" enabled="0"/>
      </fxchannel>
      <fxchannel num="15" muted="0" volume="1" name="FX 15">
        <fxchain numofeffects="0" enabled="0"/>
      </fxchannel>
      <fxchannel num="16" muted="0" volume="1" name="FX 16">
        <fxchain numofeffects="0" enabled="0"/>
      </fxchannel>
      <fxchannel num="17" muted="0" volume="1" name="FX 17">
        <fxchain numofeffects="0" enabled="0"/>
      </fxchannel>
      <fxchannel num="18" muted="0" volume="1" name="FX 18">
        <fxchain numofeffects="0" enabled="0"/>
      </fxchannel>
      <fxchannel num="19" muted="0" volume="1" name="FX 19">
        <fxchain numofeffects="0" enabled="0"/>
      </fxchannel>
      <fxchannel num="20" muted="0" volume="1" name="FX 20">
        <fxchain numofeffects="0" enabled="0"/>
      </fxchannel>
      <fxchannel num="21" muted="0" volume="1" name="FX 21">
        <fxchain numofeffects="0" enabled="0"/>
      </fxchannel>
      <fxchannel num="22" muted="0" volume="1" name="FX 22">
        <fxchain numofeffects="0" enabled="0"/>
      </fxchannel>
      <fxchannel num="23" muted="0" volume="1" name="FX 23">
        <fxchain numofeffects="0" enabled="0"/>
      </fxchannel>
      <fxchannel num="24" muted="0" volume="1" name="FX 24">
        <fxchain numofeffects="0" enabled="0"/>
      </fxchannel>
      <fxchannel num="25" muted="0" volume="1" name="FX 25">
        <fxchain numofeffects="0" enabled="0"/>
      </fxchannel>
      <fxchannel num="26" muted="0" volume="1" name="FX 26">
        <fxchain numofeffects="0" enabled="0"/>
      </fxchannel>
      <fxchannel num="27" muted="0" volume="1" name="FX 27">
        <fxchain numofeffects="0" enabled="0"/>
      </fxchannel>
      <fxchannel num="28" muted="0" volume="1" name="FX 28">
        <fxchain numofeffects="0" enabled="0"/>
      </fxchannel>
      <fxchannel num="29" muted="0" volume="1" name="FX 29">
        <fxchain numofeffects="0" enabled="0"/>
      </fxchannel>
      <fxchannel num="30" muted="0" volume="1" name="FX 30">
        <fxchain numofeffects="0" enabled="0"/>
      </fxchannel>
      <fxchannel num="31" muted="0" volume="1" name="FX 31">
        <fxchain numofeffects="0" enabled="0"/>
      </fxchannel>
      <fxchannel num="32" muted="0" volume="1" name="FX 32">
        <fxchain numofeffects="0" enabled="0"/>
      </fxchannel>
      <fxchannel num="33" muted="0" volume="1" name="FX 33">
        <fxchain numofeffects="0" enabled="0"/>
      </fxchannel>
      <fxchannel num="34" muted="0" volume="1" name="FX 34">
        <fxchain numofeffects="0" enabled="0"/>
      </fxchannel>
      <fxchannel num="35" muted="0" volume="1" name="FX 35">
        <fxchain numofeffects="0" enabled="0"/>
      </fxchannel>
      <fxchannel num="36" muted="0" volume="1" name="FX 36">
        <fxchain numofeffects="0" enabled="0"/>
      </fxchannel>
      <fxchannel num="37" muted="0" volume="1" name="FX 37">
        <fxchain numofeffects="0" enabled="0"/>
      </fxchannel>
      <fxchannel num="38" muted="0" volume="1" name="FX 38">
        <fxchain numofeffects="0" enabled="0"/>
      </fxchannel>
      <fxchannel num="39" muted="0" volume="1" name="FX 39">
        <fxchain numofeffects="0" enabled="0"/>
      </fxchannel>
      <fxchannel num="40" muted="0" volume="1" name="FX 40">
        <fxchain numofeffects="0" enabled="0"/>
      </fxchannel>
      <fxchannel num="41" muted="0" volume="1" name="FX 41">
        <fxchain numofeffects="0" enabled="0"/>
      </fxchannel>
      <fxchannel num="42" muted="0" volume="1" name="FX 42">
        <fxchain numofeffects="0" enabled="0"/>
      </fxchannel>
      <fxchannel num="43" muted="0" volume="1" name="FX 43">
        <fxchain numofeffects="0" enabled="0"/>
      </fxchannel>
      <fxchannel num="44" muted="0" volume="1" name="FX 44">
        <fxchain numofeffects="0" enabled="0"/>
      </fxchannel>
      <fxchannel num="45" muted="0" volume="1" name="FX 45">
        <fxchain numofeffects="0" enabled="0"/>
      </fxchannel>
      <fxchannel num="46" muted="0" volume="1" name="FX 46">
        <fxchain numofeffects="0" enabled="0"/>
      </fxchannel>
      <fxchannel num="47" muted="0" volume="1" name="FX 47">
        <fxchain numofeffects="0" enabled="0"/>
      </fxchannel>
      <fxchannel num="48" muted="0" volume="1" name="FX 48">
        <fxchain numofeffects="0" enabled="0"/>
      </fxchannel>
      <fxchannel num="49" muted="0" volume="1" name="FX 49">
        <fxchain numofeffects="0" enabled="0"/>
      </fxchannel>
      <fxchannel num="50" muted="0" volume="1" name="FX 50">
        <fxchain numofeffects="0" enabled="0"/>
      </fxchannel>
      <fxchannel num="51" muted="0" volume="1" name="FX 51">
        <fxchain numofeffects="0" enabled="0"/>
      </fxchannel>
      <fxchannel num="52" muted="0" volume="1" name="FX 52">
        <fxchain numofeffects="0" enabled="0"/>
      </fxchannel>
      <fxchannel num="53" muted="0" volume="1" name="FX 53">
        <fxchain numofeffects="0" enabled="0"/>
      </fxchannel>
      <fxchannel num="54" muted="0" volume="1" name="FX 54">
        <fxchain numofeffects="0" enabled="0"/>
      </fxchannel>
      <fxchannel num="55" muted="0" volume="1" name="FX 55">
        <fxchain numofeffects="0" enabled="0"/>
      </fxchannel>
      <fxchannel num="56" muted="0" volume="1" name="FX 56">
        <fxchain numofeffects="0" enabled="0"/>
      </fxchannel>
      <fxchannel num="57" muted="0" volume="1" name="FX 57">
        <fxchain numofeffects="0" enabled="0"/>
      </fxchannel>
      <fxchannel num="58" muted="0" volume="1" name="FX 58">
        <fxchain numofeffects="0" enabled="0"/>
      </fxchannel>
      <fxchannel num="59" muted="0" volume="1" name="FX 59">
        <fxchain numofeffects="0" enabled="0"/>
      </fxchannel>
      <fxchannel num="60" muted="0" volume="1" name="FX 60">
        <fxchain numofeffects="0" enabled="0"/>
      </fxchannel>
      <fxchannel num="61" muted="0" volume="1" name="FX 61">
        <fxchain numofeffects="0" enabled="0"/>
      </fxchannel>
      <fxchannel num="62" muted="0" volume="1" name="FX 62">
        <fxchain numofeffects="0" enabled="0"/>
      </fxchannel>
      <fxchannel num="63" muted="0" volume="1" name="FX 63">
        <fxchain numofeffects="0" enabled="0"/>
      </fxchannel>
      <fxchannel num="64" muted="0" volume="1" name="FX 64">
        <fxchain numofeffects="0" enabled="0"/>
      </fxchannel>
    </fxmixer>
    <ControllerRackView width="258" x="655" y="559" maximized="0" height="169" visible="0" minimized="0"/>
    <pianoroll width="1159" x="486" y="55" maximized="0" height="574" visible="0" minimized="0"/>
    <automationeditor width="1059" x="671" y="212" maximized="0" height="640" visible="0" minimized="0"/>
    <projectnotes width="1044" x="55" y="54" maximized="0" height="874" visible="0" minimized="0"><![CDATA[<!DOCTYPE HTML PUBLIC "-//W3C//DTD HTML 4.0//EN" "http://www.w3.org/TR/REC-html40/strict.dtd">
<html><head><meta name="qrichtext" content="1" /><style type="text/css">
p, li { white-space: pre-wrap; }
</style></head><body style=" font-family:'MS Shell Dlg 2'; font-size:8.25pt; font-weight:400; font-style:normal;">
<p style=" margin-top:0px; margin-bottom:0px; margin-left:0px; margin-right:0px; -qt-block-indent:0; text-indent:0px;"><span style=" font-size:8pt; color:#e0e0e0;">Put down your project notes here.</span></p></body></html>]]></projectnotes>
    <timeline lp1pos="18816" lp0pos="0" lpstate="1"/>
    <controllers/>
  </song>
</lmms-project>
